<svg width="47" height="36" viewBox="0 0 47 36" fill="none" xmlns="http://www.w3.org/2000/svg">
    <path d="M45.8339 23.1652V22.6105H45.6893L45.5219 22.9915L45.3555 22.6105H45.21V23.1652H45.3128V22.7469L45.4692 23.1079H45.5756L45.732 22.746V23.1652H45.8339ZM44.9163 23.1652V22.7051H45.1018V22.6114H44.6289V22.7051H44.8144V23.1652H44.9163Z" fill="#0099DF"/>
    <path d="M29.3918 25.5515H16.877V3.06018H29.3918V25.5515Z" fill="#6C6BBD"/>
    <path d="M17.6788 14.304C17.6788 9.74153 19.8149 5.67741 23.1415 3.05834C20.7089 1.14314 17.6388 1.90735e-05 14.3022 1.90735e-05C6.4031 1.90735e-05 0 6.40402 0 14.304C0 22.204 6.4031 28.608 14.3022 28.608C17.6388 28.608 20.7089 27.4649 23.1415 25.5497C19.8149 22.9306 17.6788 18.8665 17.6788 14.304Z" fill="#EB001B"/>
    <path d="M46.2704 14.304C46.2704 22.204 39.8673 28.608 31.9682 28.608C28.6316 28.608 25.5615 27.4649 23.1279 25.5497C26.4554 22.9306 28.5916 18.8665 28.5916 14.304C28.5916 9.74153 26.4554 5.67741 23.1279 3.05834C25.5615 1.14314 28.6316 1.90735e-05 31.9682 1.90735e-05C39.8673 1.90735e-05 46.2704 6.40402 46.2704 14.304Z" fill="#0099DF"/>
    <path d="M33.6116 31.9028C33.7781 31.9028 34.0172 31.9346 34.2 32.0064L33.9454 32.7849C33.7708 32.713 33.5962 32.6894 33.4288 32.6894C32.8887 32.6894 32.6186 33.0386 32.6186 33.6661V35.7959H31.7919V31.9983H32.6104V32.4593C32.825 32.1256 33.1351 31.9028 33.6116 31.9028ZM30.5579 32.7531H29.2074V34.4691C29.2074 34.8501 29.342 35.1048 29.7558 35.1048C29.9704 35.1048 30.2405 35.0329 30.486 34.8902L30.7243 35.5968C30.4624 35.7796 30.0495 35.8914 29.6921 35.8914C28.7145 35.8914 28.3735 35.3667 28.3735 34.4846V32.7531H27.6023V31.9983H28.3735V30.846H29.2074V31.9983H30.5579V32.7531ZM19.9824 33.5633C20.0706 33.015 20.4035 32.6412 20.9919 32.6412C21.5239 32.6412 21.8658 32.975 21.9531 33.5633H19.9824ZM22.8116 33.8971C22.8034 32.713 22.0722 31.9028 21.0073 31.9028C19.8951 31.9028 19.1167 32.713 19.1167 33.8971C19.1167 35.1039 19.927 35.8905 21.0637 35.8905C21.6357 35.8905 22.1595 35.7477 22.6206 35.3585L22.215 34.7465C21.8976 35.0011 21.492 35.1439 21.111 35.1439C20.579 35.1439 20.0943 34.8974 19.9752 34.2145H22.7952C22.8034 34.1108 22.8116 34.008 22.8116 33.8971ZM26.4419 32.9677C26.2118 32.824 25.7435 32.6412 25.2588 32.6412C24.8059 32.6412 24.5358 32.8085 24.5358 33.0868C24.5358 33.3405 24.8214 33.4124 25.1788 33.4597L25.568 33.5151C26.3946 33.6352 26.8948 33.9844 26.8948 34.6519C26.8948 35.3749 26.2591 35.8914 25.1633 35.8914C24.5431 35.8914 23.9711 35.7323 23.5182 35.3985L23.9074 34.7547C24.1857 34.9693 24.5995 35.1521 25.1715 35.1521C25.7353 35.1521 26.0372 34.9856 26.0372 34.691C26.0372 34.4773 25.8226 34.3572 25.3697 34.2945L24.9805 34.239C24.1302 34.119 23.6691 33.7379 23.6691 33.1186C23.6691 32.3638 24.2894 31.9028 25.2506 31.9028C25.8544 31.9028 26.4028 32.0383 26.7993 32.3002L26.4419 32.9677ZM36.6318 32.6876C36.4617 32.6876 36.3044 32.7176 36.158 32.7767C36.0125 32.8367 35.886 32.9204 35.7796 33.0277C35.6733 33.135 35.5896 33.2641 35.5287 33.4142C35.4677 33.5642 35.4377 33.7298 35.4377 33.9098C35.4377 34.0908 35.4677 34.2554 35.5287 34.4054C35.5896 34.5555 35.6733 34.6846 35.7796 34.7919C35.886 34.8992 36.0125 34.9829 36.158 35.0429C36.3044 35.103 36.4617 35.1321 36.6318 35.1321C36.8018 35.1321 36.9601 35.103 37.1056 35.0429C37.252 34.9829 37.3793 34.8992 37.4857 34.7919C37.5939 34.6846 37.6776 34.5555 37.7394 34.4054C37.8003 34.2554 37.8303 34.0908 37.8303 33.9098C37.8303 33.7298 37.8003 33.5642 37.7394 33.4142C37.6776 33.2641 37.5939 33.135 37.4857 33.0277C37.3793 32.9204 37.252 32.8367 37.1056 32.7767C36.9601 32.7176 36.8018 32.6876 36.6318 32.6876ZM36.6318 31.9028C36.9264 31.9028 37.1992 31.9537 37.4502 32.0565C37.7012 32.1583 37.9186 32.2993 38.1014 32.4784C38.285 32.6576 38.4278 32.8695 38.5315 33.1132C38.6352 33.3578 38.687 33.6234 38.687 33.9098C38.687 34.1963 38.6352 34.4618 38.5315 34.7065C38.4278 34.9502 38.285 35.163 38.1014 35.3421C37.9186 35.5213 37.7012 35.6613 37.4502 35.7641C37.1992 35.8659 36.9264 35.9169 36.6318 35.9169C36.3371 35.9169 36.0643 35.8659 35.8133 35.7641C35.5623 35.6613 35.3468 35.5213 35.1649 35.3421C34.983 35.163 34.8402 34.9502 34.7366 34.7065C34.6329 34.4618 34.5811 34.1963 34.5811 33.9098C34.5811 33.6234 34.6329 33.3578 34.7366 33.1132C34.8402 32.8695 34.983 32.6576 35.1649 32.4784C35.3468 32.2993 35.5623 32.1583 35.8133 32.0565C36.0643 31.9537 36.3371 31.9028 36.6318 31.9028ZM15.1553 33.8971C15.1553 33.2296 15.5928 32.6812 16.3075 32.6812C16.9905 32.6812 17.4516 33.2059 17.4516 33.8971C17.4516 34.5882 16.9905 35.112 16.3075 35.112C15.5928 35.112 15.1553 34.5646 15.1553 33.8971ZM18.23 33.8971V31.9983H17.4043V32.4593C17.1415 32.1174 16.745 31.9028 16.2048 31.9028C15.1399 31.9028 14.306 32.7367 14.306 33.8971C14.306 35.0566 15.1399 35.8914 16.2048 35.8914C16.745 35.8914 17.1415 35.6768 17.4043 35.3349V35.7959H18.23V33.8971ZM13.5748 35.7959V33.4124C13.5748 32.5148 13.0028 31.911 12.0816 31.9028C11.5968 31.8946 11.0958 32.0455 10.7466 32.5785C10.4846 32.1574 10.0709 31.9028 9.49067 31.9028C9.08599 31.9028 8.68858 32.0219 8.37847 32.4666V31.9983H7.55273V35.7959H8.38666V33.6907C8.38666 33.0313 8.75224 32.6812 9.31606 32.6812C9.86443 32.6812 10.1427 33.0386 10.1427 33.6825V35.7959H10.9766V33.6907C10.9766 33.0313 11.3586 32.6812 11.906 32.6812C12.4708 32.6812 12.7409 33.0386 12.7409 33.6825V35.7959H13.5748Z" fill="#231F20"/>
    <path d="M39.5773 35.5113V35.605H39.6637C39.6828 35.605 39.6992 35.6004 39.7101 35.5931C39.7219 35.5859 39.7283 35.5731 39.7283 35.5577C39.7283 35.5422 39.7219 35.5304 39.7101 35.5231C39.6992 35.5149 39.6828 35.5113 39.6637 35.5113H39.5773ZM39.6646 35.4458C39.7092 35.4458 39.7437 35.4558 39.7683 35.4758C39.7928 35.4958 39.8046 35.5231 39.8046 35.5577C39.8046 35.5868 39.7956 35.6104 39.7755 35.6295C39.7565 35.6477 39.7283 35.6595 39.6928 35.6641L39.8074 35.7959H39.7183L39.6119 35.665H39.5773V35.7959H39.5027V35.4458H39.6646ZM39.6419 35.916C39.6828 35.916 39.721 35.9087 39.7555 35.8932C39.791 35.8778 39.8219 35.8569 39.8483 35.8305C39.8747 35.8041 39.8956 35.7732 39.911 35.7368C39.9256 35.7014 39.9338 35.6632 39.9338 35.6222C39.9338 35.5813 39.9256 35.5431 39.911 35.5076C39.8956 35.4722 39.8747 35.4404 39.8483 35.414C39.8219 35.3876 39.791 35.3667 39.7555 35.3521C39.721 35.3367 39.6828 35.3294 39.6419 35.3294C39.6009 35.3294 39.5618 35.3367 39.5264 35.3521C39.49 35.3667 39.4582 35.3876 39.4318 35.414C39.4054 35.4404 39.3845 35.4722 39.37 35.5076C39.3545 35.5431 39.3472 35.5813 39.3472 35.6222C39.3472 35.6632 39.3545 35.7014 39.37 35.7368C39.3845 35.7732 39.4054 35.8041 39.4318 35.8305C39.4582 35.8569 39.49 35.8778 39.5264 35.8932C39.5618 35.9087 39.6009 35.916 39.6419 35.916ZM39.6419 35.2448C39.6955 35.2448 39.7446 35.2548 39.791 35.2748C39.8383 35.2939 39.8783 35.3212 39.9138 35.3558C39.9483 35.3894 39.9756 35.4294 39.9956 35.4758C40.0156 35.5213 40.0256 35.5704 40.0256 35.6222C40.0256 35.6741 40.0156 35.7232 39.9956 35.7686C39.9756 35.8141 39.9483 35.8541 39.9138 35.8878C39.8783 35.9223 39.8383 35.9496 39.791 35.9696C39.7446 35.9896 39.6955 35.9996 39.6419 35.9996C39.5873 35.9996 39.5373 35.9896 39.49 35.9696C39.4427 35.9496 39.4018 35.9223 39.3672 35.8878C39.3327 35.8541 39.3054 35.8141 39.2854 35.7686C39.2654 35.7232 39.2554 35.6741 39.2554 35.6222C39.2554 35.5704 39.2654 35.5213 39.2854 35.4758C39.3054 35.4294 39.3327 35.3894 39.3672 35.3558C39.4018 35.3212 39.4427 35.2939 39.49 35.2748C39.5373 35.2548 39.5873 35.2448 39.6419 35.2448Z" fill="#231F20"/>
</svg>