<svg width="58" height="47" viewBox="0 0 58 47" fill="none" xmlns="http://www.w3.org/2000/svg">
    <path d="M14.1889 41.0864V38.7444C14.2026 38.5474 14.1741 38.3498 14.1054 38.1647C14.0367 37.9796 13.9293 37.8113 13.7904 37.6709C13.6516 37.5306 13.4844 37.4214 13.3 37.3508C13.1157 37.2801 12.9184 37.2495 12.7213 37.2611C12.4633 37.2442 12.2055 37.2968 11.9748 37.4136C11.7441 37.5303 11.549 37.7068 11.4098 37.9247C11.2829 37.7133 11.1013 37.5401 10.8842 37.4233C10.6672 37.3066 10.4226 37.2505 10.1763 37.2611C9.96163 37.2502 9.74785 37.2957 9.55614 37.3929C9.36443 37.4901 9.20146 37.6358 9.08338 37.8154V37.3548H8.27148V41.0864H9.09118V39.0332C9.07375 38.9056 9.08472 38.7757 9.12331 38.6528C9.1619 38.53 9.22716 38.4171 9.31443 38.3224C9.40169 38.2277 9.5088 38.1534 9.62811 38.1049C9.74741 38.0564 9.87596 38.0348 10.0046 38.0418C10.5432 38.0418 10.8165 38.3931 10.8165 39.0254V41.102H11.6362V39.0332C11.6194 38.9057 11.6309 38.7761 11.6698 38.6536C11.7086 38.531 11.7739 38.4185 11.861 38.3239C11.9481 38.2294 12.0549 38.1551 12.1739 38.1063C12.2929 38.0576 12.4211 38.0355 12.5495 38.0418C13.1038 38.0418 13.3692 38.3931 13.3692 39.0254V41.102L14.1889 41.0864ZM26.3166 37.3548H24.9816V36.2228H24.1619V37.3548H23.4203V38.0964H24.1776V39.8139C24.1776 40.6804 24.5132 41.1957 25.4735 41.1957C25.8322 41.1969 26.184 41.0967 26.4883 40.9068L26.2541 40.212C26.0364 40.3419 25.7893 40.4144 25.5359 40.4228C25.1456 40.4228 24.9973 40.173 24.9973 39.7983V38.0964H26.3244L26.3166 37.3548ZM33.2411 37.2611C33.0431 37.2553 32.8473 37.303 32.6742 37.3991C32.501 37.4953 32.3571 37.6364 32.2574 37.8076V37.3548H31.4534V41.0864H32.2653V38.9942C32.2653 38.3774 32.5307 38.034 33.0459 38.034C33.2196 38.0316 33.392 38.0634 33.5534 38.1276L33.8032 37.347C33.6177 37.2806 33.4224 37.2463 33.2255 37.2455L33.2411 37.2611ZM22.7724 37.6514C22.3128 37.3782 21.7844 37.2427 21.2501 37.2611C20.3055 37.2611 19.6887 37.7139 19.6887 38.4555C19.6887 39.0644 20.1415 39.4392 20.9768 39.5563L21.3672 39.6109C21.8121 39.6734 22.0229 39.7905 22.0229 40.0012C22.0229 40.2901 21.7263 40.454 21.172 40.454C20.7262 40.4669 20.2889 40.3294 19.9307 40.0637L19.5404 40.696C20.0133 41.0262 20.5798 41.1959 21.1564 41.18C22.2337 41.18 22.8582 40.6726 22.8582 39.9622C22.8582 39.2518 22.3664 38.9629 21.5545 38.8458L21.1642 38.7912C20.8129 38.7444 20.5318 38.6741 20.5318 38.4243C20.5318 38.1745 20.7973 37.9871 21.2422 37.9871C21.6535 37.9919 22.0567 38.1021 22.4132 38.3072L22.7724 37.6514ZM44.5178 37.2611C44.3199 37.2553 44.124 37.303 43.9509 37.3991C43.7778 37.4953 43.6338 37.6364 43.5342 37.8076V37.3548H42.7301V41.0864H43.542V38.9942C43.542 38.3774 43.8074 38.034 44.3226 38.034C44.4963 38.0316 44.6687 38.0634 44.8301 38.1276L45.0799 37.347C44.8945 37.2806 44.6991 37.2463 44.5022 37.2455L44.5178 37.2611ZM34.0569 39.2128C34.0472 39.475 34.0924 39.7364 34.1896 39.9801C34.2867 40.2239 34.4337 40.4447 34.6211 40.6284C34.8084 40.8121 35.0321 40.9547 35.2777 41.047C35.5234 41.1393 35.7856 41.1793 36.0476 41.1644C36.5351 41.1892 37.0141 41.0305 37.3903 40.7194L37 40.0637C36.7193 40.2777 36.3771 40.3954 36.0242 40.3994C35.7241 40.3751 35.4441 40.2387 35.24 40.0174C35.0358 39.7961 34.9225 39.506 34.9225 39.205C34.9225 38.9039 35.0358 38.6138 35.24 38.3925C35.4441 38.1712 35.7241 38.0348 36.0242 38.0105C36.3771 38.0145 36.7193 38.1322 37 38.3462L37.3903 37.6905C37.0141 37.3794 36.5351 37.2207 36.0476 37.2455C35.7856 37.2306 35.5234 37.2706 35.2777 37.3629C35.0321 37.4553 34.8084 37.5978 34.6211 37.7815C34.4337 37.9652 34.2867 38.186 34.1896 38.4298C34.0924 38.6736 34.0472 38.9349 34.0569 39.1971V39.2128ZM41.6606 39.2128V37.3548H40.8487V37.8076C40.7108 37.6302 40.5327 37.4881 40.3291 37.3931C40.1255 37.298 39.9022 37.2528 39.6777 37.2611C39.1601 37.2611 38.6637 37.4667 38.2976 37.8327C37.9316 38.1987 37.726 38.6951 37.726 39.2128C37.726 39.7304 37.9316 40.2268 38.2976 40.5928C38.6637 40.9588 39.1601 41.1644 39.6777 41.1644C39.9022 41.1727 40.1255 41.1275 40.3291 41.0325C40.5327 40.9374 40.7108 40.7954 40.8487 40.618V41.0707H41.6606V39.2128ZM38.6394 39.2128C38.6523 38.9931 38.7292 38.782 38.8606 38.6055C38.992 38.429 39.1722 38.2948 39.3789 38.2194C39.5856 38.144 39.8098 38.1307 40.024 38.1811C40.2382 38.2315 40.4329 38.3435 40.5843 38.5032C40.7356 38.6629 40.837 38.8634 40.8758 39.0799C40.9147 39.2965 40.8894 39.5197 40.803 39.7221C40.7166 39.9244 40.5729 40.0971 40.3896 40.2188C40.2063 40.3406 39.9914 40.406 39.7714 40.4072C39.6168 40.4091 39.4635 40.3791 39.3211 40.3189C39.1788 40.2588 39.0504 40.1698 38.9441 40.0576C38.8378 39.9454 38.7558 39.8125 38.7034 39.6671C38.6509 39.5217 38.6291 39.367 38.6394 39.2128ZM28.842 37.2611C28.3244 37.2683 27.8309 37.4809 27.47 37.852C27.1091 38.2232 26.9104 38.7225 26.9177 39.2401C26.9249 39.7577 27.1375 40.2512 27.5086 40.6121C27.8798 40.973 28.3791 41.1717 28.8967 41.1644C29.4583 41.1932 30.0105 41.0124 30.4463 40.657L30.056 40.0559C29.7477 40.3031 29.3659 40.4404 28.9708 40.4462C28.7025 40.4693 28.4357 40.3868 28.2272 40.2162C28.0187 40.0456 27.885 39.8005 27.8545 39.5328H30.6259C30.6259 39.4313 30.6259 39.3299 30.6259 39.2206C30.6259 38.0496 29.8998 37.2689 28.8537 37.2689L28.842 37.2611ZM28.842 37.9871C28.9635 37.9845 29.0843 38.0059 29.1976 38.05C29.3108 38.0941 29.4142 38.1601 29.5019 38.2442C29.5897 38.3283 29.66 38.4289 29.7088 38.5401C29.7577 38.6514 29.7841 38.7712 29.7866 38.8927H27.835C27.8491 38.6421 27.9608 38.407 28.1461 38.2378C28.3314 38.0685 28.5756 37.9786 28.8264 37.9871H28.842ZM49.1823 39.2206V35.8559H48.4016V37.8076C48.2637 37.6302 48.0857 37.4881 47.882 37.3931C47.6784 37.298 47.4552 37.2528 47.2306 37.2611C46.713 37.2611 46.2166 37.4667 45.8506 37.8327C45.4846 38.1987 45.279 38.6951 45.279 39.2128C45.279 39.7304 45.4846 40.2268 45.8506 40.5928C46.2166 40.9588 46.713 41.1644 47.2306 41.1644C47.4552 41.1727 47.6784 41.1275 47.882 41.0325C48.0857 40.9374 48.2637 40.7954 48.4016 40.618V41.0707H49.1823V39.2206ZM50.5367 40.5438C50.5875 40.5432 50.6379 40.5525 50.6851 40.5711C50.7299 40.5894 50.7709 40.6159 50.8061 40.6492C50.8404 40.6828 50.8682 40.7225 50.888 40.7663C50.9078 40.8119 50.918 40.861 50.918 40.9107C50.918 40.9604 50.9078 41.0095 50.888 41.0551C50.8682 41.0989 50.8404 41.1386 50.8061 41.1722C50.7709 41.2055 50.7299 41.232 50.6851 41.2503C50.6383 41.2709 50.5878 41.2816 50.5367 41.2815C50.4627 41.281 50.3904 41.2594 50.3282 41.2193C50.266 41.1792 50.2165 41.1223 50.1854 41.0551C50.1659 41.0095 50.1558 40.9604 50.1558 40.9107C50.1558 40.8611 50.1659 40.8119 50.1854 40.7663C50.2053 40.7225 50.2331 40.6828 50.2674 40.6492C50.3026 40.6159 50.3436 40.5894 50.3884 40.5711C50.4393 40.5509 50.4938 40.5416 50.5485 40.5438H50.5367ZM50.5367 41.2035C50.5757 41.2037 50.6143 41.1957 50.6499 41.18C50.6835 41.165 50.714 41.1439 50.7397 41.1176C50.7885 41.0643 50.8156 40.9947 50.8156 40.9224C50.8156 40.8502 50.7885 40.7805 50.7397 40.7272C50.714 40.7009 50.6836 40.6797 50.6499 40.6648C50.6142 40.6492 50.5757 40.6413 50.5367 40.6414C50.4978 40.6416 50.4593 40.6495 50.4235 40.6648C50.3885 40.6792 50.3566 40.7004 50.3299 40.7272C50.281 40.7805 50.254 40.8502 50.254 40.9224C50.254 40.9947 50.281 41.0643 50.3299 41.1176C50.3567 41.1443 50.3885 41.1656 50.4235 41.18C50.4629 41.197 50.5056 41.205 50.5485 41.2035H50.5367ZM50.5602 40.739C50.5966 40.7372 50.6325 40.7482 50.6616 40.7702C50.6736 40.7801 50.683 40.7927 50.6891 40.8069C50.6952 40.8212 50.6979 40.8367 50.6968 40.8522C50.6973 40.8651 50.6952 40.8781 50.6905 40.8902C50.6858 40.9023 50.6786 40.9132 50.6695 40.9224C50.6468 40.943 50.618 40.9553 50.5875 40.9575L50.7007 41.0864H50.6109L50.5055 40.9575H50.4704V41.0864H50.3962V40.7429L50.5602 40.739ZM50.4743 40.8053V40.899H50.5602C50.5754 40.9036 50.5917 40.9036 50.607 40.899C50.6097 40.8935 50.6112 40.8875 50.6112 40.8814C50.6112 40.8753 50.6097 40.8693 50.607 40.8639C50.6097 40.8584 50.6112 40.8524 50.6112 40.8463C50.6112 40.8402 50.6097 40.8342 50.607 40.8287C50.5917 40.8242 50.5754 40.8242 50.5602 40.8287L50.4743 40.8053ZM46.1806 39.2206C46.1936 39.0009 46.2705 38.7898 46.4019 38.6133C46.5332 38.4368 46.7134 38.3026 46.9201 38.2272C47.1268 38.1518 47.351 38.1385 47.5652 38.1889C47.7794 38.2393 47.9742 38.3513 48.1255 38.511C48.2769 38.6707 48.3782 38.8712 48.4171 39.0877C48.4559 39.3043 48.4306 39.5275 48.3442 39.7299C48.2578 39.9322 48.1141 40.1049 47.9308 40.2266C47.7475 40.3484 47.5326 40.4138 47.3126 40.415C47.158 40.4169 47.0048 40.3869 46.8624 40.3267C46.72 40.2666 46.5916 40.1776 46.4853 40.0654C46.379 39.9532 46.297 39.8203 46.2446 39.6749C46.1922 39.5295 46.1704 39.3748 46.1806 39.2206ZM18.7675 39.2206V37.3548H17.9556V37.8076C17.8178 37.6302 17.6397 37.4881 17.4361 37.3931C17.2325 37.298 17.0092 37.2528 16.7846 37.2611C16.267 37.2611 15.7706 37.4667 15.4046 37.8327C15.0386 38.1987 14.833 38.6951 14.833 39.2128C14.833 39.7304 15.0386 40.2268 15.4046 40.5928C15.7706 40.9588 16.267 41.1644 16.7846 41.1644C17.0092 41.1727 17.2325 41.1275 17.4361 41.0325C17.6397 40.9374 17.8178 40.7954 17.9556 40.618V41.0707H18.7675V39.2206ZM15.7464 39.2206C15.7593 39.0009 15.8362 38.7898 15.9676 38.6133C16.099 38.4368 16.2791 38.3026 16.4858 38.2272C16.6925 38.1518 16.9168 38.1385 17.131 38.1889C17.3451 38.2393 17.5399 38.3513 17.6912 38.511C17.8426 38.6707 17.9439 38.8712 17.9828 39.0877C18.0217 39.3043 17.9963 39.5275 17.9099 39.7299C17.8235 39.9322 17.6798 40.1049 17.4965 40.2266C17.3132 40.3484 17.0984 40.4138 16.8783 40.415C16.7231 40.418 16.569 40.3888 16.4257 40.3291C16.2824 40.2694 16.153 40.1806 16.0459 40.0683C15.9387 39.956 15.8561 39.8227 15.8031 39.6767C15.7502 39.5308 15.7282 39.3755 15.7386 39.2206H15.7464Z" fill="#231F20"/>
    <path d="M34.7984 8.91907H22.5029V31.0158H34.7984V8.91907Z" fill="#FF5F00"/>
    <path d="M23.2838 19.9688C23.2815 17.8404 23.7636 15.7394 24.6934 13.8249C25.6233 11.9104 26.9766 10.2326 28.6508 8.91848C26.5778 7.28931 24.0883 6.27623 21.4668 5.99502C18.8452 5.71381 16.1974 6.17581 13.8261 7.32823C11.4547 8.48065 9.45533 10.277 8.05656 12.5119C6.65779 14.7469 5.91602 17.3303 5.91602 19.9669C5.91602 22.6034 6.65779 25.1868 8.05656 27.4218C9.45533 29.6567 11.4547 31.4531 13.8261 32.6055C16.1974 33.7579 18.8452 34.2199 21.4668 33.9387C24.0883 33.6575 26.5778 32.6444 28.6508 31.0152C26.9771 29.7015 25.6241 28.0243 24.6943 26.1105C23.7644 24.1968 23.2821 22.0965 23.2838 19.9688Z" fill="#EB001B"/>
    <path d="M51.3873 19.9695C51.3872 22.6062 50.6453 25.1898 49.2463 27.4248C47.8472 29.6598 45.8476 31.4561 43.4759 32.6084C41.1042 33.7606 38.4562 34.2224 35.8345 33.9407C33.2128 33.6591 30.7233 32.6455 28.6504 31.0159C30.3235 29.701 31.6761 28.0233 32.6062 26.1095C33.5363 24.1956 34.0195 22.0954 34.0195 19.9675C34.0195 17.8396 33.5363 15.7394 32.6062 13.8255C31.6761 11.9117 30.3235 10.234 28.6504 8.91912C30.7233 7.28945 33.2128 6.27588 35.8345 5.99426C38.4562 5.71265 41.1042 6.17435 43.4759 7.32661C45.8476 8.47886 47.8472 10.2752 49.2463 12.5102C50.6453 14.7452 51.3872 17.3288 51.3873 19.9655V19.9695Z" fill="#F79E1B"/>
    <path d="M50.0442 28.6738V28.221H50.2277V28.1273H49.7632V28.221H49.9623V28.6738H50.0442ZM50.9459 28.6738V28.1273H50.8054L50.6414 28.5177L50.4775 28.1273H50.3526V28.6738H50.4541V28.2639L50.6063 28.6191H50.7117L50.8639 28.2639V28.6777L50.9459 28.6738Z" fill="#F79E1B"/>
</svg>