<svg width="80" height="25" viewBox="0 0 80 25" fill="none" xmlns="http://www.w3.org/2000/svg">
    <g clip-path="url(#clip0)">
        <path d="M6.92199 16.5826C6.50358 16.3179 6.06688 16.1123 5.61148 15.9656C5.15609 15.8194 4.67971 15.7463 4.18249 15.7463C3.85728 15.7463 3.55978 15.7802 3.29039 15.8476C3.02073 15.9144 2.78954 16.0121 2.59667 16.1405C2.40408 16.2684 2.25398 16.4214 2.14719 16.6C2.04027 16.779 1.98674 16.9804 1.98674 17.2033C1.98674 17.4075 2.03341 17.5816 2.12635 17.7258C2.21928 17.87 2.35297 17.992 2.52727 18.0919C2.70131 18.192 2.91408 18.274 3.16491 18.3392C3.41601 18.4045 3.69939 18.4604 4.01518 18.5068L4.69141 18.5972C5.08629 18.653 5.47215 18.7392 5.84846 18.8556C6.22478 18.9714 6.56047 19.1338 6.85569 19.3432C7.15063 19.552 7.38788 19.8152 7.56662 20.1308C7.74577 20.4466 7.8352 20.8302 7.8352 21.2809C7.8352 21.7782 7.73057 22.2174 7.52143 22.5984C7.31202 22.9794 7.02865 23.3 6.67103 23.5599C6.31287 23.8205 5.89822 24.0182 5.42682 24.1529C4.95489 24.2875 4.4543 24.3549 3.92453 24.3549C3.59435 24.3549 3.25192 24.3272 2.89646 24.2708C2.54099 24.2155 2.18996 24.1331 1.84378 24.024C1.49772 23.9144 1.16646 23.7786 0.85027 23.6162C0.534209 23.4534 0.250831 23.2629 0 23.0441L0.857398 21.7898C1.02498 21.9427 1.22564 22.0852 1.46047 22.2152C1.69489 22.3453 1.94693 22.4589 2.21659 22.5566C2.48625 22.6537 2.766 22.7299 3.05651 22.7832C3.34688 22.8364 3.63416 22.8636 3.91727 22.8636C4.23817 22.8636 4.53661 22.8312 4.81313 22.7658C5.08978 22.7007 5.33026 22.6051 5.53455 22.4799C5.73885 22.3545 5.90051 22.2022 6.019 22.0232C6.13776 21.8447 6.19694 21.6438 6.19694 21.4208C6.19694 21.0392 6.00959 20.749 5.63583 20.5491C5.26153 20.3492 4.71683 20.2005 4.00119 20.1029L3.24143 19.9986C2.87884 19.9472 2.52445 19.8637 2.1784 19.7474C1.83234 19.6323 1.52328 19.4682 1.2512 19.2564C0.979249 19.0449 0.760831 18.7802 0.596076 18.4618C0.430784 18.144 0.348339 17.7571 0.348339 17.3013C0.348339 16.8133 0.449613 16.3801 0.651891 16.0009C0.853767 15.6226 1.12921 15.3041 1.47768 15.0462C1.82616 14.7878 2.23408 14.5916 2.70104 14.4573C3.168 14.3222 3.6663 14.2549 4.19634 14.2549C4.90741 14.2549 5.54975 14.3488 6.12337 14.5372C6.69739 14.7253 7.23079 14.9821 7.72357 15.3072L6.92199 16.5826ZM12.2405 17.3286C12.705 17.3286 13.1314 17.4138 13.5194 17.583C13.9073 17.7531 14.2395 17.9921 14.5162 18.3013C14.7927 18.6104 15.0087 18.9798 15.1646 19.4094C15.3199 19.8395 15.3979 20.3145 15.3979 20.8352C15.3979 20.9278 15.3955 21.0209 15.3911 21.1138C15.3861 21.2066 15.3794 21.295 15.3699 21.3785H10.4348C10.4812 21.6807 10.5674 21.9386 10.6927 22.1521C10.8179 22.3661 10.9693 22.5416 11.1458 22.6788C11.3225 22.8157 11.5198 22.917 11.7386 22.9816C11.9568 23.0468 12.1843 23.0792 12.4214 23.0792C12.7563 23.0792 13.0916 23.0181 13.4287 22.8951C13.7658 22.7717 14.0736 22.5985 14.3524 22.3757L15.0772 23.414C14.6684 23.7627 14.2352 24.0069 13.7774 24.1457C13.3196 24.2856 12.8376 24.3551 12.3309 24.3551C11.829 24.3551 11.3688 24.2711 10.9508 24.1046C10.5326 23.9371 10.1724 23.7 9.87036 23.3936C9.56816 23.0867 9.33346 22.7171 9.16642 22.2849C8.99911 21.8526 8.91532 21.3719 8.91532 20.842C8.91532 20.3215 8.99656 19.845 9.1593 19.4133C9.3219 18.981 9.54973 18.6105 9.84225 18.3014C10.1352 17.9922 10.4846 17.7532 10.8916 17.5831C11.298 17.4138 11.7478 17.3286 12.2405 17.3286ZM12.2123 18.6252C11.9521 18.6252 11.7211 18.6643 11.5189 18.7433C11.3168 18.8231 11.1423 18.9353 10.9961 19.082C10.8499 19.2282 10.73 19.4025 10.6372 19.6046C10.544 19.8066 10.4791 20.0283 10.442 20.2702H13.9063C13.8272 19.7497 13.6414 19.3451 13.3485 19.0574C13.0558 18.7695 12.6771 18.6252 12.2123 18.6252ZM19.9566 17.3286C20.4585 17.3286 20.9255 17.418 21.3575 17.597C21.79 17.776 22.1546 18.0421 22.4523 18.3952L21.5178 19.3917C21.2811 19.1688 21.0347 18.998 20.7792 18.8795C20.5236 18.761 20.2355 18.7021 19.9149 18.7021C19.636 18.7021 19.3754 18.7543 19.134 18.8587C18.8923 18.963 18.6832 19.1098 18.5068 19.2976C18.33 19.4857 18.1918 19.7116 18.0918 19.9737C17.9922 20.2368 17.942 20.526 17.942 20.8418C17.942 21.1576 17.9922 21.4474 18.0918 21.7098C18.1918 21.9725 18.33 22.1979 18.5068 22.3859C18.6832 22.5736 18.8922 22.7198 19.134 22.8249C19.3754 22.9292 19.636 22.9814 19.9149 22.9814C20.2354 22.9814 20.535 22.9153 20.8139 22.783C21.0928 22.651 21.3392 22.4843 21.5528 22.2845L22.4523 23.2883C22.1455 23.6413 21.7783 23.9075 21.3508 24.0866C20.9232 24.2656 20.4587 24.3549 19.9567 24.3549C19.4268 24.3549 18.9459 24.2656 18.5136 24.0866C18.0817 23.9075 17.7122 23.6612 17.4054 23.3479C17.0987 23.0341 16.8618 22.6636 16.6944 22.2355C16.5271 21.8085 16.4433 21.344 16.4433 20.8418C16.4433 20.3402 16.5271 19.875 16.6944 19.4475C16.8618 19.0199 17.0987 18.6492 17.4054 18.3361C17.712 18.0224 18.0816 17.776 18.5136 17.597C18.9457 17.418 19.4267 17.3286 19.9566 17.3286ZM29.9242 21.3507C29.9242 21.8801 29.836 22.3357 29.6595 22.7167C29.4828 23.0978 29.2502 23.4095 28.9623 23.6511C28.6741 23.8929 28.3443 24.0703 27.9726 24.1841C27.6007 24.298 27.2195 24.3549 26.8291 24.3549C26.4389 24.3549 26.0579 24.298 25.6862 24.1841C25.3142 24.0703 24.9833 23.8929 24.6927 23.6511C24.4021 23.4095 24.1699 23.0978 23.9957 22.7167C23.8211 22.3357 23.7343 21.8799 23.7343 21.3507V17.5031H25.1979V21.2182C25.1979 21.5386 25.24 21.8123 25.3233 22.0371C25.4071 22.2627 25.5222 22.4449 25.6685 22.5847C25.815 22.7236 25.988 22.8249 26.1877 22.8875C26.3877 22.9502 26.6014 22.9814 26.829 22.9814C27.0568 22.9814 27.2704 22.9502 27.4706 22.8875C27.6702 22.8249 27.8433 22.7236 27.9898 22.5847C28.1362 22.4449 28.2512 22.2626 28.3347 22.0371C28.4183 21.8123 28.4604 21.5386 28.4604 21.2182V17.5031H29.9241V21.3507H29.9242ZM35.2425 17.3286C35.4656 17.3286 35.6663 17.3437 35.8454 17.374C36.0244 17.4038 36.1975 17.4517 36.3648 17.5165L36.0164 18.9599C35.8629 18.8804 35.6839 18.8206 35.4797 18.7782C35.2752 18.7364 35.0843 18.7156 34.9079 18.7156C34.6756 18.7156 34.4622 18.7552 34.2669 18.8342C34.0716 18.9134 33.904 19.0293 33.7649 19.1828C33.6253 19.3362 33.5163 19.5243 33.437 19.747C33.358 19.9705 33.3186 20.2236 33.3186 20.5071V24.1804H31.8616V17.5031H33.3047V18.2557C33.5276 17.9347 33.8042 17.7003 34.1341 17.5516C34.4642 17.4028 34.8338 17.3286 35.2425 17.3286ZM40.1363 17.3286C40.601 17.3286 41.0273 17.4138 41.4153 17.583C41.8038 17.7531 42.1357 17.9921 42.4123 18.3013C42.6885 18.6104 42.9045 18.9798 43.0606 19.4094C43.2155 19.8395 43.2934 20.3145 43.2934 20.8352C43.2934 20.9278 43.2911 21.0209 43.2871 21.1138C43.2818 21.2066 43.2751 21.295 43.2657 21.3785H38.3306C38.377 21.6807 38.4629 21.9386 38.5884 22.1521C38.7138 22.3661 38.8651 22.5416 39.0414 22.6788C39.2181 22.8157 39.4152 22.917 39.634 22.9816C39.8521 23.0468 40.0802 23.0792 40.3167 23.0792C40.6518 23.0792 40.9875 23.0181 41.3242 22.8951C41.6615 22.7717 41.9689 22.5985 42.2481 22.3757L42.9726 23.414C42.5639 23.7627 42.1306 24.0069 41.6729 24.1457C41.2151 24.2856 40.7333 24.3551 40.2264 24.3551C39.7248 24.3551 39.2644 24.2711 38.8461 24.1046C38.428 23.9371 38.0678 23.7 37.7659 23.3936C37.4635 23.0867 37.229 22.7171 37.0619 22.2849C36.8943 21.8526 36.8108 21.3719 36.8108 20.842C36.8108 20.3215 36.892 19.845 37.0548 19.4133C37.2174 18.981 37.445 18.6105 37.7379 18.3014C38.0307 17.9922 38.3802 17.7532 38.7868 17.5831C39.1938 17.4138 39.6435 17.3286 40.1363 17.3286ZM40.1081 18.6252C39.8481 18.6252 39.6169 18.6643 39.4145 18.7433C39.2126 18.8231 39.038 18.9353 38.8916 19.082C38.7454 19.2282 38.6255 19.4025 38.5329 19.6046C38.4398 19.8066 38.3747 20.0283 38.3377 20.2702H41.8026C41.7231 19.7497 41.5373 19.3451 41.2445 19.0574C40.9516 18.7695 40.5733 18.6252 40.1081 18.6252ZM49.581 14.2404C50.0133 14.2404 50.4319 14.2868 50.8358 14.3797C51.2405 14.4732 51.6164 14.6073 51.965 14.7843C52.3132 14.9613 52.6301 15.1758 52.9131 15.4296C53.1965 15.6827 53.4341 15.9668 53.624 16.2831L52.3071 17.1611C52.0089 16.7241 51.6273 16.3806 51.1602 16.1296C50.6925 15.8791 50.1669 15.7537 49.5811 15.7537C49.0836 15.7537 48.6237 15.8394 48.201 16.011C47.778 16.1833 47.4132 16.425 47.1062 16.7362C46.7998 17.0473 46.5592 17.4217 46.3854 17.8586C46.211 18.2955 46.1238 18.7762 46.1238 19.3014C46.1238 19.8266 46.211 20.3078 46.3854 20.7444C46.5592 21.1814 46.7998 21.555 47.1062 21.8667C47.4131 22.1784 47.778 22.4195 48.201 22.5913C48.6237 22.7635 49.0836 22.8492 49.5811 22.8492C50.1616 22.8492 50.6836 22.7266 51.1457 22.4802C51.6086 22.2338 51.9929 21.8903 52.2998 21.4486L53.5829 22.3898C53.3735 22.6962 53.1288 22.9703 52.8475 23.2119C52.5665 23.4536 52.2549 23.6603 51.9129 23.8325C51.571 24.0042 51.2039 24.1358 50.8115 24.2263C50.4185 24.3171 50.0087 24.3625 49.5813 24.3625C48.8331 24.3625 48.1451 24.2357 47.5183 23.9821C46.8909 23.7292 46.3515 23.3768 45.9011 22.9264C45.45 22.4753 45.0994 21.9414 44.8482 21.3233C44.5977 20.7046 44.4719 20.0314 44.4719 19.3015C44.4719 18.5716 44.5977 17.8984 44.8482 17.2798C45.0994 16.6617 45.4502 16.1274 45.9011 15.6768C46.3517 15.2262 46.8909 14.8744 47.5183 14.6213C48.145 14.3672 48.8329 14.2404 49.581 14.2404ZM58.1901 17.3286C58.7057 17.3286 59.1829 17.418 59.6219 17.597C60.0614 17.776 60.441 18.0224 60.7615 18.3361C61.0825 18.6492 61.3331 19.0199 61.5148 19.4475C61.6959 19.875 61.7863 20.3402 61.7863 20.8418C61.7863 21.344 61.6959 21.8085 61.5148 22.2355C61.3331 22.6636 61.0825 23.0341 60.7615 23.3479C60.441 23.6612 60.0614 23.9075 59.6219 24.0866C59.1828 24.2656 58.7056 24.3549 58.1901 24.3549C57.6738 24.3549 57.196 24.2656 56.7572 24.0866C56.3177 23.9075 55.9392 23.6612 55.6213 23.3479C55.3024 23.0341 55.0534 22.6636 54.8717 22.2355C54.6906 21.8085 54.6003 21.344 54.6003 20.8418C54.6003 20.3402 54.6906 19.875 54.8717 19.4475C55.0536 19.0199 55.3024 18.6492 55.6213 18.3361C55.9392 18.0224 56.3178 17.776 56.7572 17.597C57.1962 17.418 57.6738 17.3286 58.1901 17.3286ZM58.1901 18.7021C57.8919 18.7021 57.6157 18.7543 57.36 18.8587C57.1049 18.963 56.8835 19.1098 56.6981 19.2976C56.5117 19.4857 56.3655 19.7116 56.2586 19.9737C56.152 20.2368 56.0983 20.526 56.0983 20.8418C56.0983 21.1576 56.152 21.4474 56.2586 21.7098C56.3655 21.9725 56.5117 22.1979 56.6981 22.3859C56.8835 22.5736 57.1047 22.7198 57.36 22.8249C57.6157 22.9292 57.8919 22.9814 58.1901 22.9814C58.4872 22.9814 58.7633 22.9292 59.019 22.8249C59.2741 22.72 59.4967 22.5738 59.6846 22.3859C59.873 22.1979 60.0201 21.9725 60.1277 21.7098C60.2343 21.4474 60.2879 21.1576 60.2879 20.8418C60.2879 20.526 60.2343 20.2368 60.1277 19.9737C60.0201 19.7116 59.873 19.4857 59.6846 19.2976C59.4967 19.1099 59.2741 18.9632 59.019 18.8587C58.7633 18.7542 58.4872 18.7021 58.1901 18.7021ZM66.1711 17.3286C66.6499 17.3286 67.0612 17.418 67.4047 17.597C67.7487 17.776 68.0368 18.0144 68.2697 18.3115V14.1428H69.7265V24.1804H68.2697V23.3793C68.0369 23.6764 67.7487 23.9137 67.4047 24.0902C67.0612 24.2668 66.6499 24.3549 66.1711 24.3549C65.7018 24.3549 65.265 24.2683 64.8608 24.0934C64.4563 23.919 64.1034 23.6764 63.8013 23.3647C63.499 23.0541 63.262 22.6835 63.0902 22.2533C62.9181 21.8236 62.8324 21.3528 62.8324 20.8418C62.8324 20.3307 62.9181 19.8598 63.0902 19.4303C63.262 19.0007 63.499 18.6295 63.8013 18.3183C64.1034 18.0072 64.4563 17.7644 64.8608 17.5901C65.265 17.4158 65.7018 17.3286 66.1711 17.3286ZM66.3455 18.7021C66.0291 18.7021 65.7473 18.759 65.4982 18.8722C65.2497 18.9866 65.0398 19.14 64.8677 19.3326C64.6958 19.5253 64.5632 19.7518 64.4703 20.0123C64.3775 20.2729 64.3309 20.549 64.3309 20.8419C64.3309 21.1343 64.3775 21.4109 64.4703 21.6715C64.5632 21.932 64.6958 22.1585 64.8677 22.3512C65.0397 22.5438 65.2497 22.6972 65.4982 22.8116C65.7473 22.9253 66.0291 22.9817 66.3455 22.9817C66.6472 22.9817 66.9212 22.9275 67.1682 22.8177C67.4146 22.7091 67.6259 22.5588 67.8024 22.3683C67.9789 22.1784 68.1156 21.9528 68.2132 21.6924C68.3109 21.4323 68.36 21.1489 68.36 20.842C68.36 20.5357 68.3109 20.2516 68.2132 19.9916C68.1156 19.7311 67.9789 19.5064 67.8024 19.3158C67.6259 19.1252 67.4146 18.9754 67.1682 18.8658C66.9212 18.7568 66.6472 18.7021 66.3455 18.7021ZM74.578 17.3286C75.0427 17.3286 75.4686 17.4138 75.8566 17.583C76.2444 17.7531 76.5774 17.9921 76.8535 18.3013C77.1303 18.6104 77.3458 18.9798 77.5019 19.4094C77.6575 19.8395 77.7352 20.3145 77.7352 20.8352C77.7352 20.9278 77.7324 21.0209 77.7283 21.1138C77.7237 21.2066 77.7163 21.295 77.7075 21.3785H72.7724C72.8184 21.6807 72.9045 21.9386 73.0304 22.1521C73.1557 22.3661 73.3065 22.5416 73.4835 22.6788C73.6598 22.8157 73.8571 22.917 74.076 22.9816C74.2941 23.0468 74.5222 23.0792 74.7586 23.0792C75.0938 23.0792 75.4294 23.0181 75.7661 22.8951C76.1029 22.7717 76.4108 22.5985 76.69 22.3757L77.4146 23.414C77.0054 23.7627 76.572 24.0069 76.1142 24.1457C75.6571 24.2856 75.1753 24.3551 74.6684 24.3551C74.1667 24.3551 73.7062 24.2711 73.2881 24.1046C72.8699 23.9371 72.5092 23.7 72.2076 23.3936C71.9059 23.0867 71.6709 22.7171 71.5039 22.2849C71.3364 21.8526 71.2529 21.3719 71.2529 20.842C71.2529 20.3215 71.3337 19.845 71.4966 19.4133C71.6595 18.981 71.8871 18.6105 72.18 18.3014C72.4729 17.9922 72.8221 17.7532 73.2288 17.5831C73.6359 17.4138 74.0854 17.3286 74.578 17.3286ZM78.4311 24.1804V23.8449H78.5667V23.776H78.2219V23.8449H78.357V24.1804H78.4311ZM79.1009 24.1804V23.7753H78.9955L78.8739 24.054L78.7518 23.7753H78.6463V24.1804H78.721V23.875L78.8349 24.1382H78.9126L79.0264 23.8741V24.1803H79.1009V24.1804ZM74.55 18.6252C74.2894 18.6252 74.0587 18.6643 73.8562 18.7433C73.6542 18.8231 73.4799 18.9353 73.3331 19.082C73.1869 19.2282 73.0674 19.4025 72.9746 19.6046C72.8811 19.8066 72.8163 20.0283 72.7793 20.2702H76.2434C76.1645 19.7497 75.9792 19.3451 75.6864 19.0574C75.3934 18.7695 75.0146 18.6252 74.55 18.6252Z" fill="#F79E1B"/>
        <path d="M11.7186 10.4114H10.0845V2.08244L7.12749 9.42069H5.40678L2.44953 2.16179V10.4114H0.81543V0.28937H3.32455L6.26727 7.51949L9.20986 0.28937H11.7186V10.4114ZM20.3221 10.4114H18.811V9.58007C18.57 9.8886 18.2712 10.1342 17.9146 10.3174C17.5579 10.5008 17.131 10.5924 16.6349 10.5924C16.1477 10.5924 15.695 10.5019 15.2755 10.3213C14.856 10.1404 14.4897 9.8886 14.1764 9.56541C13.8632 9.24289 13.6174 8.85837 13.4392 8.41226C13.2605 7.96628 13.1716 7.47833 13.1716 6.94829C13.1716 6.41785 13.2607 5.92977 13.4392 5.48406C13.6175 5.03848 13.8633 4.65356 14.1764 4.33091C14.4897 4.00772 14.856 3.75622 15.2755 3.57505C15.695 3.39443 16.1477 3.30378 16.6349 3.30378C17.131 3.30378 17.5578 3.39698 17.9146 3.58245C18.2711 3.76805 18.57 4.01498 18.811 4.32324V3.48494H20.3221V10.4114ZM16.8155 4.72847C16.4876 4.72847 16.1948 4.78765 15.9372 4.90547C15.6794 5.02395 15.4611 5.1832 15.2828 5.38278C15.1043 5.58331 14.967 5.8176 14.8707 6.0878C14.7741 6.358 14.7261 6.64447 14.7261 6.94829C14.7261 7.25184 14.774 7.53872 14.8707 7.80851C14.967 8.07858 15.1043 8.31381 15.2828 8.51353C15.4611 8.71366 15.6793 8.87236 15.9372 8.99098C16.1948 9.10867 16.4876 9.16784 16.8155 9.16784C17.129 9.16784 17.4132 9.11122 17.6687 8.99798C17.9243 8.88473 18.1435 8.72939 18.3268 8.53155C18.51 8.33398 18.652 8.10037 18.7535 7.83017C18.8545 7.56024 18.9051 7.26637 18.9051 6.94829C18.9051 6.62981 18.8545 6.33594 18.7535 6.06601C18.652 5.79581 18.51 5.5622 18.3268 5.36436C18.1436 5.16733 17.9243 5.01145 17.6687 4.8982C17.4133 4.78523 17.129 4.72847 16.8155 4.72847ZM27.2628 5.22005C27.1571 5.15791 27.0269 5.0912 26.8727 5.0214C26.7185 4.95173 26.5472 4.88798 26.3593 4.82988C26.1711 4.77218 25.9725 4.72417 25.7628 4.6853C25.553 4.6467 25.3397 4.6276 25.1229 4.6276C24.7084 4.6276 24.3865 4.70332 24.1576 4.8553C23.9287 5.00687 23.8141 5.20606 23.8141 5.45191C23.8141 5.57229 23.8444 5.67329 23.9044 5.7552C23.965 5.83764 24.0456 5.90502 24.1466 5.95801C24.2481 6.01127 24.3684 6.0531 24.5081 6.08457C24.648 6.11591 24.7976 6.14348 24.9565 6.16729L25.6722 6.27609C26.429 6.38678 27.0193 6.60722 27.4436 6.93753C27.868 7.26771 28.08 7.72943 28.08 8.32215C28.08 8.65461 28.0087 8.95978 27.8667 9.23657C27.7244 9.51376 27.5196 9.75262 27.2521 9.95235C26.9846 10.1525 26.6544 10.3078 26.2615 10.419C25.8688 10.5297 25.4239 10.5847 24.9276 10.5847C24.7493 10.5847 24.5419 10.5742 24.3058 10.5526C24.0697 10.5307 23.819 10.4874 23.5542 10.4227C23.2888 10.3574 23.0189 10.2668 22.7442 10.1514C22.4695 10.0359 22.2065 9.88335 21.9561 9.696L22.6574 8.5606C22.7826 8.65717 22.9188 8.74715 23.0658 8.83147C23.2131 8.91607 23.379 8.99098 23.5646 9.05568C23.7503 9.1209 23.9554 9.17295 24.1793 9.21128C24.4035 9.24988 24.6578 9.26898 24.9423 9.26898C25.4628 9.26898 25.8556 9.19326 26.1207 9.04142C26.3857 8.88984 26.5185 8.68367 26.5185 8.42315C26.5185 8.22585 26.422 8.06325 26.2291 7.93507C26.0361 7.80771 25.7327 7.71477 25.3182 7.65707L24.5951 7.56293C23.8238 7.45681 23.2394 7.23194 22.8419 6.88683C22.4442 6.54252 22.2453 6.09062 22.2453 5.53113C22.2453 5.18871 22.3116 4.88018 22.4442 4.60595C22.5765 4.33118 22.767 4.0985 23.0152 3.90806C23.2635 3.71775 23.5637 3.57075 23.9155 3.46719C24.2674 3.36336 24.6652 3.31185 25.1086 3.31185C25.6533 3.31185 26.1664 3.3756 26.6489 3.50337C27.1308 3.63073 27.5525 3.81028 27.9139 4.04188L27.2628 5.22005ZM34.4352 4.85853H31.7817V7.87388C31.7817 8.1048 31.8109 8.30264 31.8683 8.46659C31.9263 8.63014 32.0048 8.76436 32.1035 8.86806C32.2022 8.97175 32.318 9.04761 32.4504 9.09562C32.583 9.14363 32.7262 9.16784 32.8808 9.16784C33.1169 9.16784 33.3566 9.12252 33.6002 9.03039C33.8437 8.9388 34.0689 8.82811 34.2764 8.69806L34.8761 9.90527C34.5965 10.0932 34.2821 10.2551 33.9329 10.3897C33.5831 10.5248 33.1893 10.5925 32.7504 10.5925C31.9649 10.5925 31.3537 10.3747 30.9177 9.93822C30.4813 9.50179 30.2634 8.82367 30.2634 7.90266V4.85853H28.8824V3.48508H30.2634V1.38818H31.7817V3.48508H34.4352V4.85853ZM39.084 3.30391C39.5659 3.30391 40.0087 3.39214 40.4109 3.56806C40.8135 3.74398 41.1581 3.99225 41.4451 4.31302C41.7317 4.63352 41.9556 5.01696 42.1174 5.46227C42.2787 5.90839 42.3598 6.40131 42.3598 6.94116C42.3598 7.03773 42.3571 7.1343 42.3524 7.23033C42.3477 7.32689 42.3397 7.41821 42.331 7.50483H37.2116C37.2596 7.81833 37.3489 8.08597 37.4791 8.30776C37.609 8.52927 37.766 8.71124 37.9489 8.85353C38.1321 8.99556 38.337 9.1006 38.5635 9.16798C38.7902 9.2359 39.0263 9.26898 39.272 9.26898C39.619 9.26898 39.9672 9.20537 40.3171 9.07746C40.6669 8.9501 40.9859 8.77055 41.2751 8.53908L42.0272 9.61598C41.603 9.97777 41.1533 10.2309 40.6785 10.3755C40.2034 10.52 39.7034 10.5925 39.1784 10.5925C38.6577 10.5925 38.1804 10.5054 37.7468 10.3322C37.3129 10.1585 36.9393 9.91294 36.626 9.59473C36.3128 9.27625 36.0692 8.89348 35.8957 8.4448C35.7224 7.99694 35.6355 7.49783 35.6355 6.94856C35.6355 6.40843 35.7198 5.91444 35.8883 5.46604C36.0571 5.01817 36.2934 4.63365 36.597 4.31316C36.9008 3.99239 37.2634 3.74425 37.6853 3.56819C38.1068 3.39214 38.5734 3.30391 39.084 3.30391ZM39.0554 4.64912C38.7853 4.64912 38.5456 4.69014 38.3357 4.77205C38.1262 4.85409 37.9453 4.9707 37.7937 5.12254C37.6417 5.27465 37.5174 5.45501 37.4211 5.66482C37.3246 5.87449 37.2575 6.10488 37.2186 6.35531H40.8124C40.7305 5.81572 40.5379 5.3961 40.2339 5.09725C39.9303 4.79854 39.5373 4.64912 39.0554 4.64912ZM47.5939 3.30391C47.8257 3.30391 48.0339 3.31978 48.2192 3.35126C48.4051 3.38259 48.5847 3.43209 48.7579 3.4992L48.3966 4.99598C48.2374 4.91407 48.0521 4.8514 47.8396 4.80809C47.6276 4.76505 47.4298 4.7434 47.2471 4.7434C47.006 4.7434 46.7842 4.78415 46.5817 4.86619C46.3791 4.9481 46.2057 5.06834 46.0612 5.22771C45.9166 5.38668 45.8033 5.58183 45.7213 5.8133C45.6395 6.04436 45.5988 6.30743 45.5988 6.6013V10.4115H44.0876V3.48508H45.5842V4.26581C45.8156 3.93334 46.1026 3.69005 46.4445 3.53578C46.7864 3.38152 47.1695 3.30391 47.5939 3.30391ZM52.7634 3.30391C53.2844 3.30391 53.7689 3.39712 54.2167 3.58258C54.6653 3.76819 55.0431 4.04444 55.3516 4.41053L54.3827 5.44452C54.1368 5.21278 53.8821 5.03579 53.6176 4.91286C53.3513 4.7902 53.0527 4.7282 52.7201 4.7282C52.4315 4.7282 52.1617 4.78254 51.9104 4.89108C51.6599 4.99948 51.4427 5.15105 51.2595 5.34687C51.0768 5.54216 50.9332 5.77577 50.8299 6.04772C50.7255 6.32007 50.6744 6.61999 50.6744 6.94816C50.6744 7.27605 50.7255 7.57584 50.8299 7.84832C50.9333 8.12027 51.0768 8.35416 51.2595 8.54971C51.4427 8.74486 51.6599 8.89684 51.9104 9.00484C52.1615 9.11378 52.4313 9.16771 52.7201 9.16771C53.0527 9.16771 53.3632 9.09885 53.6525 8.9618C53.9417 8.82435 54.198 8.65206 54.4193 8.44454L55.3517 9.48606C55.0343 9.85255 54.6526 10.128 54.2101 10.3136C53.7658 10.4992 53.2846 10.5923 52.7635 10.5923C52.2144 10.5923 51.7153 10.4992 51.2674 10.3136C50.819 10.128 50.4353 9.87286 50.1175 9.54752C49.7995 9.22178 49.5537 8.83753 49.3805 8.3941C49.2067 7.95041 49.12 7.46865 49.12 6.94829C49.12 6.42753 49.2067 5.94564 49.3805 5.50195C49.5537 5.05865 49.7995 4.67441 50.1175 4.34866C50.4353 4.02346 50.819 3.76819 51.2674 3.58258C51.7151 3.39712 52.2142 3.30391 52.7634 3.30391ZM63.4067 10.4114H61.8954V9.58007C61.6544 9.8886 61.3557 10.1342 60.9993 10.3174C60.6422 10.5008 60.2157 10.5924 59.7191 10.5924C59.2321 10.5924 58.779 10.5019 58.3598 10.3213C57.9407 10.1404 57.5742 9.8886 57.261 9.56541C56.9474 9.24289 56.7019 8.85837 56.5236 8.41226C56.3455 7.96628 56.2557 7.47833 56.2557 6.94829C56.2557 6.41785 56.3455 5.92977 56.5236 5.48406C56.7019 5.03848 56.9474 4.65356 57.261 4.33091C57.5742 4.00772 57.9407 3.75622 58.3598 3.57505C58.779 3.39443 59.2321 3.30378 59.7191 3.30378C60.2156 3.30378 60.642 3.39698 60.9993 3.58245C61.3557 3.76805 61.6544 4.01498 61.8954 4.32324V3.48494H63.4067V10.4114ZM59.8998 4.72847C59.572 4.72847 59.2792 4.78765 59.0213 4.90547C58.7634 5.02395 58.5457 5.1832 58.3673 5.38278C58.1893 5.58331 58.0513 5.8176 57.9548 6.0878C57.8588 6.358 57.8103 6.64447 57.8103 6.94829C57.8103 7.25184 57.8588 7.53872 57.9548 7.80851C58.0514 8.07858 58.1893 8.31381 58.3673 8.51353C58.5457 8.71366 58.7634 8.87236 59.0213 8.99098C59.2792 9.10867 59.5721 9.16784 59.8998 9.16784C60.2129 9.16784 60.4975 9.11122 60.7533 8.99798C61.0085 8.88473 61.2278 8.72939 61.4111 8.53155C61.5942 8.33398 61.7363 8.10037 61.8377 7.83017C61.9395 7.56024 61.9895 7.26637 61.9895 6.94829C61.9895 6.62981 61.9395 6.33594 61.8377 6.06601C61.7363 5.79581 61.5942 5.5622 61.4111 5.36436C61.2279 5.16733 61.0087 5.01145 60.7533 4.8982C60.4975 4.78523 60.2129 4.72847 59.8998 4.72847ZM69.1399 3.30391C69.3716 3.30391 69.58 3.31978 69.7653 3.35126C69.951 3.38259 70.1306 3.43209 70.3039 3.4992L69.9423 4.99598C69.7836 4.91407 69.5983 4.8514 69.3863 4.80809C69.1738 4.76505 68.9759 4.7434 68.7928 4.7434C68.5516 4.7434 68.3304 4.78415 68.1284 4.86619C67.9253 4.9481 67.7518 5.06834 67.6073 5.22771C67.4628 5.38668 67.3495 5.58183 67.2675 5.8133C67.1856 6.04436 67.1444 6.30743 67.1444 6.6013V10.4115H65.6338V3.48508H67.1303V4.26581C67.3616 3.93334 67.6482 3.69005 67.9905 3.53578C68.3329 3.38152 68.716 3.30391 69.1399 3.30391ZM74.1002 3.30391C74.5966 3.30391 75.0229 3.39712 75.38 3.58258C75.7367 3.76819 76.0351 4.01512 76.2764 4.32338V-6.10352e-05H77.7876V10.4114H76.2764V9.58007C76.0351 9.8886 75.7367 10.1342 75.38 10.3174C75.0231 10.5008 74.5967 10.5924 74.1002 10.5924C73.613 10.5924 73.16 10.5019 72.7408 10.3213C72.3217 10.1404 71.9551 9.8886 71.642 9.56541C71.3288 9.24289 71.0829 8.85837 70.9043 8.41226C70.7264 7.96628 70.6367 7.47833 70.6367 6.94829C70.6367 6.41785 70.7264 5.92977 70.9043 5.48406C71.0829 5.03848 71.3288 4.65356 71.642 4.33091C71.9551 4.00772 72.3217 3.75622 72.7408 3.57505C73.16 3.39456 73.613 3.30391 74.1002 3.30391ZM79.5519 9.77091C79.6141 9.77091 79.672 9.78234 79.7263 9.80561C79.7805 9.82861 79.8281 9.85995 79.8689 9.90003C79.9096 9.93997 79.942 9.98678 79.9649 10.0402C79.9886 10.094 80.0004 10.1509 80.0004 10.2114C80.0004 10.2718 79.9886 10.3285 79.9649 10.3819C79.942 10.4352 79.9096 10.4818 79.8689 10.5218C79.8281 10.5617 79.7806 10.5933 79.7263 10.6165C79.672 10.64 79.6141 10.6517 79.5519 10.6517C79.4887 10.6517 79.4297 10.64 79.3745 10.6165C79.3197 10.5933 79.2716 10.5617 79.2315 10.5218C79.1914 10.4818 79.1594 10.435 79.136 10.3819C79.1125 10.3287 79.1011 10.2718 79.1011 10.2114C79.1011 10.1509 79.1125 10.094 79.136 10.0402C79.1594 9.98664 79.1913 9.93997 79.2315 9.90003C79.2717 9.85995 79.3197 9.82861 79.3745 9.80561C79.4297 9.78234 79.4888 9.77091 79.5519 9.77091ZM79.5519 10.5547C79.5995 10.5547 79.6439 10.5456 79.685 10.5278C79.7258 10.5096 79.7617 10.4853 79.7925 10.4543C79.8238 10.4235 79.8479 10.3869 79.8656 10.3453C79.8834 10.3035 79.8923 10.259 79.8923 10.2114C79.8923 10.1639 79.8834 10.1193 79.8656 10.0774C79.8479 10.0357 79.8238 9.99942 79.7925 9.96835C79.7617 9.93728 79.7258 9.91321 79.685 9.89545C79.6437 9.8777 79.5995 9.86909 79.5519 9.86909C79.504 9.86909 79.4585 9.87757 79.4167 9.89545C79.3745 9.91321 79.3379 9.93728 79.3072 9.96835C79.2764 9.99942 79.2518 10.0357 79.2341 10.0774C79.2168 10.1193 79.208 10.1639 79.208 10.2114C79.208 10.259 79.2168 10.3035 79.2341 10.3453C79.2518 10.3868 79.2763 10.4233 79.3072 10.4543C79.338 10.4852 79.3745 10.5096 79.4167 10.5278C79.4585 10.5456 79.504 10.5547 79.5519 10.5547ZM79.5781 10.0053C79.631 10.0053 79.671 10.0168 79.6998 10.0403C79.7279 10.0638 79.742 10.0956 79.742 10.1358C79.742 10.1697 79.731 10.1975 79.708 10.2196C79.6856 10.2416 79.6533 10.2548 79.6115 10.2601L79.7455 10.4143H79.6406L79.5164 10.261H79.4767V10.4143H79.389V10.0053H79.5781ZM79.4768 10.082V10.1908H79.577C79.6 10.1908 79.6183 10.1864 79.6319 10.1772C79.6459 10.1683 79.6527 10.1545 79.6527 10.1358C79.6527 10.1178 79.6459 10.1045 79.6319 10.0953C79.6182 10.0864 79.6 10.082 79.577 10.082H79.4768ZM74.2807 4.72847C73.9528 4.72847 73.66 4.78765 73.4023 4.90547C73.1443 5.02395 72.9267 5.1832 72.7481 5.38278C72.5702 5.58331 72.4323 5.8176 72.3359 6.0878C72.2398 6.358 72.1913 6.64447 72.1913 6.94829C72.1913 7.25184 72.2398 7.53872 72.3359 7.80851C72.4324 8.07858 72.5702 8.31381 72.7481 8.51353C72.9267 8.71366 73.1443 8.87236 73.4023 8.99098C73.66 9.10867 73.9529 9.16784 74.2807 9.16784C74.5939 9.16784 74.8783 9.11122 75.1343 8.99798C75.3894 8.88473 75.6088 8.72939 75.7921 8.53155C75.9753 8.33398 76.1173 8.10037 76.2184 7.83017C76.3203 7.56024 76.371 7.26637 76.371 6.94829C76.371 6.62981 76.3203 6.33594 76.2184 6.06601C76.1173 5.79581 75.9753 5.5622 75.7921 5.36436C75.6089 5.16733 75.3896 5.01145 75.1343 4.8982C74.8783 4.78523 74.5939 4.72847 74.2807 4.72847Z" fill="#EB001B"/>
    </g>
    <defs>
        <clipPath id="clip0">
            <rect width="80" height="24.3623" fill="white"/>
        </clipPath>
    </defs>
</svg>