<svg width="84" height="23" viewBox="0 0 84 23" fill="none" xmlns="http://www.w3.org/2000/svg">
    <path fill-rule="evenodd" clip-rule="evenodd" d="M7.73076 0.00389139C8.47763 -0.000576686 10.6973 -0.200492 11.6375 2.9727C12.2708 5.1102 13.2797 8.61153 14.6641 13.4767H15.2279C16.7125 8.3475 17.7324 4.84617 18.2875 2.9727C19.2375 -0.233546 21.6125 0.00395421 22.5625 0.00395421L29.892 0.00396336V22.8039H22.4216V9.36752H21.9206L17.7563 22.8039H12.1357L7.97135 9.35756H7.4704V22.8039H0V0.00396336L7.73076 0.00389139ZM40.6193 0.00396336V13.4504H41.2153L46.2809 2.39348C47.2642 0.193133 49.3599 0.00396336 49.3599 0.00396336H56.5891V22.804H48.9626V9.35756H48.3667L43.4004 20.4144C42.4171 22.6048 40.222 22.804 40.222 22.804H32.9929V0.00396336H40.6193ZM82.9494 10.8387C81.8856 13.8532 78.5448 16.0122 74.8461 16.0122H66.8483V22.804H59.596V10.8387H82.9494Z" fill="#509D41"/>
    <path fill-rule="evenodd" clip-rule="evenodd" d="M75.196 0.00390625H59.2158C59.5961 5.07996 63.9675 9.42539 68.4928 9.42539H83.4534C84.3167 5.20659 81.3447 0.00390625 75.196 0.00390625Z" fill="url(#paint0_linear)"/>
    <defs>
        <linearGradient id="paint0_linear" x1="83.6001" y1="5.93043" x2="59.2158" y2="5.93043" gradientUnits="userSpaceOnUse">
            <stop stop-color="#1F5CD7"/>
            <stop offset="1" stop-color="#02AEFF"/>
        </linearGradient>
    </defs>
</svg>
