<svg width="81" height="31" viewBox="0 0 81 31" fill="none" xmlns="http://www.w3.org/2000/svg">
    <path d="M54.6861 17.406L55.487 17.6463C55.4336 17.8732 55.3535 18.06 55.2334 18.2069C55.1132 18.3537 54.9797 18.4738 54.8062 18.5406C54.6327 18.6206 54.4191 18.6607 54.1522 18.6607C53.8318 18.6607 53.5782 18.6206 53.3647 18.5272C53.1644 18.4338 52.9909 18.2736 52.8441 18.0333C52.6973 17.8064 52.6172 17.4994 52.6172 17.139C52.6172 16.6585 52.7507 16.2848 53.0043 16.0178C53.2579 15.7509 53.6316 15.6307 54.0988 15.6307C54.4725 15.6307 54.7528 15.7108 54.9664 15.8577C55.18 16.0045 55.3401 16.2314 55.4336 16.5517L54.6327 16.7253C54.606 16.6318 54.5793 16.5651 54.5393 16.525C54.4859 16.4583 54.4325 16.4049 54.3524 16.3649C54.2723 16.3248 54.1922 16.3115 54.1121 16.3115C53.9119 16.3115 53.7518 16.3916 53.645 16.5651C53.5649 16.6852 53.5248 16.8854 53.5248 17.139C53.5248 17.4594 53.5782 17.6863 53.6717 17.8064C53.7651 17.9266 53.9119 17.9933 54.0854 17.9933C54.259 17.9933 54.3924 17.9399 54.4725 17.8465C54.5793 17.7263 54.6461 17.5929 54.6861 17.406Z" fill="#225E63"/>
    <path d="M55.8071 17.1385C55.8071 16.658 55.9406 16.2843 56.2076 16.0173C56.4745 15.7504 56.8483 15.6169 57.3288 15.6169C57.8226 15.6169 58.1964 15.7504 58.4633 16.004C58.7303 16.2709 58.8638 16.6313 58.8638 17.1118C58.8638 17.4589 58.8104 17.7392 58.6903 17.9527C58.5701 18.1663 58.4099 18.3398 58.183 18.46C57.9695 18.5801 57.6892 18.6468 57.3688 18.6468C57.0351 18.6468 56.7682 18.5934 56.5413 18.4867C56.3277 18.3799 56.1542 18.2197 56.0073 17.9794C55.8605 17.7392 55.8071 17.4856 55.8071 17.1385ZM56.7148 17.1385C56.7148 17.4322 56.7682 17.6457 56.875 17.7792C56.9817 17.9127 57.1286 17.9794 57.3288 17.9794C57.529 17.9794 57.6758 17.9127 57.7826 17.7926C57.8894 17.6591 57.9428 17.4322 57.9428 17.1118C57.9428 16.8315 57.8894 16.6313 57.7693 16.5112C57.6625 16.3777 57.5023 16.3243 57.3154 16.3243C57.1286 16.3243 56.9817 16.3911 56.875 16.5245C56.7682 16.6313 56.7148 16.8449 56.7148 17.1385Z" fill="#225E63"/>
    <path d="M59.3314 15.6703H60.5193L60.9732 17.4589L61.427 15.6703H62.6149V18.6068H61.8675V16.3644L61.2935 18.6068H60.6261L60.0522 16.3644V18.6068H59.3047V15.6703H59.3314Z" fill="#225E63"/>
    <path d="M63.2017 15.6703H64.71C65.0437 15.6703 65.2839 15.7504 65.4441 15.9105C65.6043 16.0707 65.6844 16.2843 65.6844 16.5779C65.6844 16.8716 65.5909 17.1118 65.4174 17.272C65.2439 17.4455 64.9636 17.5256 64.6032 17.5256H64.1093V18.6201H63.2017V15.6703ZM64.1093 16.925H64.3362C64.5097 16.925 64.6299 16.8983 64.71 16.8315C64.7767 16.7648 64.8167 16.6981 64.8167 16.6046C64.8167 16.5112 64.79 16.4311 64.7233 16.3644C64.6566 16.2976 64.5498 16.2709 64.3763 16.2709H64.1227V16.925H64.1093Z" fill="#225E63"/>
    <path d="M66.1646 15.6703H67.0722V17.886H68.4871V18.6068H66.1646V15.6703Z" fill="#225E63"/>
    <path d="M68.9409 15.6703H69.8486V18.6068H68.9409V15.6703Z" fill="#225E63"/>
    <path d="M72.3046 18.113H71.2768L71.13 18.5935H70.209L71.3168 15.657H72.3046L73.4125 18.5935H72.4648L72.3046 18.113ZM72.1177 17.4856L71.7974 16.4312L71.477 17.4856H72.1177Z" fill="#225E63"/>
    <path d="M73.6929 15.6703H74.5338L75.6416 17.2987V15.6703H76.4959V18.6068H75.6416L74.5471 16.9917V18.6068H73.6929V15.6703Z" fill="#225E63"/>
    <path d="M76.8965 15.6703H79.6595V16.3911H78.7385V18.6068H77.8308V16.3911H76.9098V15.6703H76.8965Z" fill="#225E63"/>
    <path d="M43.7674 20.1418L46.3969 19.3142L45.5426 17.4189C44.9153 18.2064 44.2879 19.2208 43.7674 20.1418ZM42.8731 11.4791L37.7208 0L0 2.13565L10.4513 30.6465L30.5664 24.3063C29.285 22.4643 28.8179 20.2753 30.2995 19.2075C31.9546 18.0062 34.4506 19.3943 36.039 21.3564C37.574 18.7937 41.8853 12.8272 42.8731 11.4791Z" fill="#225E63"/>
    <path d="M36.5454 8.29558C38.1204 8.29558 39.4018 7.09428 39.4018 5.59933C39.4018 4.10438 38.1204 2.90308 36.5454 2.90308C34.9704 2.90308 33.689 4.10438 33.689 5.59933C33.689 7.08093 34.9704 8.29558 36.5454 8.29558ZM34.2095 9.45684H38.8813V21.6701H34.2095V9.45684Z" fill="#FEFEFE"/>
    <path d="M31.9 13.0207C31.9401 13.0341 31.9668 13.0207 31.9668 12.9807V9.88398C31.9668 9.84393 31.9401 9.80389 31.9 9.7772C31.9 9.7772 31.286 9.37676 29.4173 9.26998C29.3239 9.21659 27.6821 9.20324 27.2416 9.26998C20.4343 9.81724 20.1807 14.7426 20.1807 14.9561V16.1574C20.1807 16.3043 20.1807 21.3364 27.2416 21.7769C27.9357 21.8302 29.2839 21.7769 29.4173 21.7769C31.0458 21.7769 32.167 21.283 32.167 21.283C32.207 21.2696 32.2337 21.2296 32.2337 21.1896V18.2931C32.2337 18.253 32.207 18.2397 32.1803 18.2664C32.1803 18.2664 31.6731 18.6668 29.4574 18.8937C28.83 18.9605 28.523 18.9338 28.2961 18.8937C25.146 18.3598 24.9992 16.064 24.9992 16.064C24.9992 16.024 24.9859 15.9572 24.9859 15.9305V15.0496C24.9859 15.0095 24.9859 14.9428 24.9992 14.9161C24.9992 14.9161 25.2128 12.4468 28.2961 12.1798H29.4574C30.8055 12.3533 31.9 13.0207 31.9 13.0207Z" fill="#FEFEFE"/>
    <path d="M7.20703 21.63C7.20703 21.6701 7.23373 21.6968 7.27377 21.6968H11.8254C11.8654 21.6968 11.8921 21.6701 11.8921 21.63V18.0795C11.8921 18.0395 11.9188 18.0128 11.9588 18.0128C11.9588 18.0128 19.2334 18.5334 19.2334 13.6614C19.2334 9.80391 14.6684 9.39013 13.1735 9.45687C13.1468 9.45687 7.27377 9.45687 7.27377 9.45687C7.23373 9.45687 7.20703 9.48357 7.20703 9.52361V21.63ZM11.812 15.3032V12.1131H12.9332C12.9332 12.1131 14.5483 12.1798 14.6818 13.2877C14.7085 13.3678 14.7085 13.915 14.6818 13.9417C14.4682 15.2365 13.0667 15.3032 13.0667 15.3032H11.812Z" fill="#FEFEFE"/>
    <path d="M36.6799 27.5631C37.0536 27.5631 37.3473 27.5631 37.8278 27.3496C39.4829 26.482 45.0756 12.8272 50.9754 8.62264C51.0154 8.59594 51.0554 8.5559 51.0821 8.51586C51.1222 8.46247 51.1222 8.40907 51.1222 8.40907C51.1222 8.40907 51.1222 8.12877 50.2546 8.12877C45.0089 7.98195 39.5497 18.9939 36.6799 23.3452C36.6398 23.3986 36.453 23.3452 36.453 23.3452C36.453 23.3452 34.5309 21.0761 32.8624 20.2085C32.8224 20.1952 32.6355 20.1284 32.4353 20.1418C32.3018 20.1418 31.5276 20.3019 31.1672 20.6757C30.7401 21.1295 30.7535 21.3831 30.7535 21.9304C30.7535 21.9704 30.7802 22.1573 30.8336 22.2507C31.2473 22.9715 33.1027 25.5343 34.6377 26.9491C34.8646 27.1227 35.225 27.5631 36.6799 27.5631Z" fill="#2BBC5D"/>
    <path d="M52.5239 4.49823H56.8887C57.7563 4.49823 58.4503 4.61836 58.9709 4.84527C59.5048 5.08553 59.9453 5.41923 60.279 5.84636C60.626 6.28683 60.8796 6.79405 61.0265 7.368C61.1866 7.94196 61.2667 8.55595 61.2667 9.21C61.2667 10.2244 61.1466 11.0119 60.9197 11.5726C60.6928 12.1332 60.3724 12.6003 59.9586 12.9874C59.5449 13.3612 59.1044 13.6148 58.6372 13.7482C57.9965 13.9218 57.4092 14.0019 56.8887 14.0019H52.5239V4.49823ZM55.4604 6.64722V11.8395H56.1812C56.7952 11.8395 57.2357 11.7728 57.4893 11.6393C57.7429 11.5058 57.9565 11.2656 58.1033 10.9319C58.2501 10.5982 58.3302 10.0376 58.3302 9.27673C58.3302 8.2623 58.17 7.58157 57.8363 7.20783C57.5027 6.83409 56.9687 6.64722 56.1946 6.64722H55.4604Z" fill="#225E63"/>
    <path d="M62.0811 10.8651L64.8841 10.6916C64.9508 11.1454 65.071 11.4925 65.2578 11.7327C65.5648 12.1198 65.992 12.3067 66.5526 12.3067C66.9663 12.3067 67.3 12.2132 67.527 12.013C67.7539 11.8128 67.874 11.5859 67.874 11.3323C67.874 11.092 67.7672 10.8651 67.5536 10.6649C67.3401 10.4647 66.8329 10.2912 66.0453 10.1176C64.7506 9.82399 63.843 9.43691 63.2824 8.95639C62.7217 8.47587 62.4548 7.86187 62.4548 7.11439C62.4548 6.62053 62.6016 6.1667 62.8819 5.72623C63.1622 5.28575 63.5894 4.95205 64.1633 4.69845C64.7373 4.44484 65.5114 4.32471 66.4992 4.32471C67.7138 4.32471 68.6482 4.55162 69.2755 5.00544C69.9162 5.45927 70.2899 6.18005 70.4101 7.16778L67.6337 7.32796C67.5536 6.90083 67.4068 6.59383 67.1666 6.39362C66.9263 6.1934 66.606 6.09996 66.1922 6.09996C65.8451 6.09996 65.5915 6.1667 65.418 6.31353C65.2445 6.46035 65.1644 6.63387 65.1644 6.84744C65.1644 6.99426 65.2311 7.14109 65.378 7.26122C65.5114 7.38135 65.8451 7.50148 66.3657 7.60826C67.6471 7.88856 68.5681 8.16887 69.1287 8.44917C69.6893 8.72948 70.0897 9.08987 70.3433 9.50365C70.5969 9.91743 70.7171 10.3979 70.7171 10.9185C70.7171 11.5325 70.5435 12.0931 70.2099 12.6003C69.8762 13.1209 69.3956 13.508 68.795 13.7749C68.1943 14.0419 67.4202 14.1754 66.4992 14.1754C64.8841 14.1754 63.7629 13.8684 63.1355 13.241C62.5215 12.6137 62.1745 11.8262 62.0811 10.8651Z" fill="#225E63"/>
    <path d="M71.4639 10.8651L74.2669 10.6916C74.3336 11.1454 74.4538 11.4925 74.6406 11.7327C74.9476 12.1198 75.3748 12.3067 75.9354 12.3067C76.3492 12.3067 76.6828 12.2132 76.9098 12.013C77.1367 11.8128 77.2568 11.5859 77.2568 11.3323C77.2568 11.092 77.15 10.8651 76.9365 10.6649C76.7229 10.4647 76.2157 10.2912 75.4282 10.1176C74.1334 9.82399 73.2258 9.43691 72.6652 8.95639C72.1179 8.47587 71.8376 7.86187 71.8376 7.11439C71.8376 6.62053 71.9844 6.1667 72.2647 5.72623C72.545 5.28575 72.9722 4.95205 73.5461 4.69845C74.1201 4.44484 74.8942 4.32471 75.882 4.32471C77.0966 4.32471 78.031 4.55162 78.6583 5.00544C79.299 5.45927 79.6727 6.18005 79.7929 7.16778L77.0165 7.32796C76.9365 6.90083 76.7896 6.59383 76.5494 6.39362C76.3091 6.1934 75.9888 6.09996 75.575 6.09996C75.2279 6.09996 74.9743 6.1667 74.8008 6.31353C74.6273 6.46035 74.5472 6.63387 74.5472 6.84744C74.5472 6.99426 74.6139 7.14109 74.7608 7.26122C74.8942 7.38135 75.2279 7.50148 75.7485 7.60826C77.0299 7.88856 77.9509 8.16887 78.5115 8.44917C79.0721 8.72948 79.4725 9.08987 79.7261 9.50365C79.9797 9.91743 80.0999 10.3979 80.0999 10.9185C80.0999 11.5325 79.9264 12.0931 79.5927 12.6003C79.259 13.1209 78.7785 13.508 78.1778 13.7749C77.5771 14.0419 76.803 14.1754 75.882 14.1754C74.2669 14.1754 73.1457 13.8684 72.5183 13.241C71.891 12.6137 71.544 11.8262 71.4639 10.8651Z" fill="#225E63"/>
</svg>
