<svg width="57" height="25" viewBox="0 0 57 25" fill="none" xmlns="http://www.w3.org/2000/svg">
    <path d="M23.0473 13.1158L20.1897 20.8161L19.8898 19.2509C19.1791 17.3318 17.6379 15.3197 15.8447 14.5041L18.4565 24.3994H21.545L26.1388 13.1218L23.0473 13.1158Z" fill="#00579F"/>
    <path d="M25.4937 24.4054L27.3198 13.1038H30.2404L28.4113 24.4054H25.4937Z" fill="#00579F"/>
    <path d="M38.9996 13.3826C38.165 13.0632 37.2784 12.9015 36.3848 12.9058C33.4972 12.9058 31.4672 14.4411 31.4522 16.6361C31.4312 18.2613 32.9005 19.1669 34.004 19.7066C35.1074 20.2464 35.5242 20.6062 35.5212 21.11C35.5212 21.8656 34.6217 22.2134 33.7731 22.2134C32.8234 22.239 31.8817 22.0332 31.0293 21.6137L30.6485 21.4308L30.2407 23.9616C31.2779 24.364 32.3817 24.5675 33.4942 24.5613C36.5587 24.5613 38.5498 23.044 38.5738 20.7021C38.5738 19.4128 37.8061 18.4352 36.1209 17.6286C35.1044 17.1069 34.4747 16.759 34.4837 16.2283C34.4837 15.7575 35.0115 15.2567 36.1569 15.2567C36.9078 15.2379 37.6535 15.3864 38.3399 15.6915L38.6008 15.8205L38.9996 13.3706V13.3826Z" fill="#00579F"/>
    <path d="M46.4779 13.1158H44.226C43.5273 13.1158 43.0026 13.3137 42.6937 14.0543L38.3638 24.4084H41.4283L42.043 22.7082H45.7792C45.8692 23.101 46.1361 24.3994 46.1361 24.3994H48.8348L46.4779 13.1158ZM42.8796 20.3903C43.1225 19.7396 44.0431 17.2298 44.0431 17.2298C44.0431 17.2298 44.283 16.5761 44.4299 16.1533L44.6248 17.1279C44.6248 17.1279 45.1855 19.8266 45.3025 20.3903H42.8796Z" fill="#00579F"/>
    <path d="M17.5419 13.1097H12.8341L12.8071 13.3047C16.4684 14.2402 18.8822 16.5371 19.8868 19.2538L18.8642 14.0603C18.6873 13.3466 18.1746 13.1337 17.5419 13.1097Z" fill="#FAA61A"/>
    <path d="M4.00609 10.378H2.14697L0 0.701646L2.05702 0.356812L3.52633 7.93122L7.26554 0.458762H9.24162L4.00609 10.378Z" fill="#00579F"/>
    <path d="M13.6851 7.21459H9.24721C9.12427 8.56095 9.75096 9.14567 10.8095 9.14567C11.709 9.14567 12.4797 8.81883 13.3193 8.28808V9.63444C12.4553 10.1865 11.451 10.479 10.4257 10.477C8.49157 10.477 7.21716 9.37656 7.60098 6.87875C7.94582 4.63281 9.50209 3.28046 11.3042 3.28046C13.3792 3.28046 14.0689 4.84272 13.7691 6.80378C13.7451 6.94472 13.7061 7.11864 13.6911 7.21759L13.6851 7.21459ZM11.0733 4.4649C10.3867 4.4649 9.74196 5.01063 9.43911 6.14109H12.1888C12.2398 5.0676 11.9039 4.4649 11.0733 4.4649Z" fill="#00579F"/>
    <path d="M16.5762 6.36896L15.9765 10.3361H14.2583L15.3228 3.42136H16.7831V4.79771C17.3648 3.99709 18.1564 3.32241 19.2389 3.26544V4.96863C18.7244 5.00834 18.2232 5.15183 17.7656 5.39043C17.3079 5.62904 16.9034 5.95782 16.5762 6.35697V6.36896Z" fill="#00579F"/>
    <path d="M19.2148 10.3361L20.2793 3.42136H21.9975L20.933 10.3361H19.2148ZM21.3318 2.26091C21.2052 2.27242 21.0776 2.25438 20.9591 2.2082C20.8406 2.16202 20.7344 2.08896 20.649 1.99478C20.5635 1.9006 20.5011 1.78787 20.4666 1.66546C20.4321 1.54305 20.4265 1.4143 20.4503 1.28936C20.4965 1.00866 20.641 0.75353 20.8579 0.569524C21.0749 0.385517 21.3502 0.284622 21.6347 0.284848C21.7621 0.278301 21.8892 0.30117 22.0063 0.351686C22.1234 0.402201 22.2273 0.479002 22.31 0.57614C22.3926 0.673278 22.4518 0.788138 22.4829 0.911823C22.514 1.03551 22.5162 1.16469 22.4893 1.28936C22.4405 1.5628 22.2967 1.81022 22.0833 1.98797C21.8699 2.16573 21.6006 2.2624 21.3228 2.26091H21.3318Z" fill="#00579F"/>
    <path d="M26.7563 1.53225C26.63 1.51686 26.502 1.52762 26.3801 1.56386C26.2582 1.6001 26.1451 1.66104 26.0477 1.7429C25.9504 1.82475 25.871 1.92576 25.8144 2.03964C25.7578 2.15352 25.7252 2.27783 25.7188 2.40484L25.5628 3.42136H26.8792V4.8247H25.347L24.4984 10.3361H22.7892L23.6378 4.8247H22.6362L22.8521 3.42136H23.8537L24.0366 2.22193C24.2704 0.689657 25.332 0.122926 26.7503 0.122926C26.9824 0.122739 27.214 0.141796 27.443 0.1799V1.58323C27.2101 1.54446 26.9744 1.5254 26.7383 1.52626L26.7563 1.53225Z" fill="#00579F"/>
    <path d="M26.7744 10.3361L27.8389 3.42139H29.5571L28.4866 10.3361H26.7744ZM28.8884 2.26094C28.7619 2.27259 28.6343 2.25461 28.5159 2.20842C28.3975 2.16223 28.2915 2.08911 28.2062 1.99484C28.121 1.90057 28.0588 1.78775 28.0247 1.6653C27.9907 1.54286 27.9855 1.41415 28.0098 1.28939C28.0565 1.00613 28.2031 0.748981 28.4232 0.564657C28.6433 0.380334 28.9222 0.281065 29.2093 0.284877C29.3371 0.277367 29.465 0.299523 29.5829 0.34962C29.7007 0.399716 29.8054 0.476389 29.8888 0.573653C29.9721 0.670916 30.0318 0.786134 30.0632 0.910297C30.0946 1.03446 30.0969 1.1642 30.0699 1.28939C30.0222 1.56335 29.8788 1.81147 29.6651 1.98943C29.4514 2.16739 29.1815 2.26363 28.9034 2.26094H28.8884Z" fill="#00579F"/>
    <path d="M36.2142 7.21459H31.7853C31.6624 8.56095 32.2891 9.14567 33.3476 9.14567C34.2471 9.14567 35.0148 8.81883 35.8574 8.28808V9.63444C34.9938 10.1874 33.9892 10.48 32.9637 10.477C31.0327 10.477 29.7583 9.37656 30.1391 6.87875C30.4869 4.63281 32.0402 3.28046 33.8453 3.28046C35.9203 3.28046 36.61 4.84272 36.3102 6.80378C36.2862 6.94472 36.2472 7.11864 36.2292 7.21759L36.2142 7.21459ZM33.6024 4.4649C32.9158 4.4649 32.2741 5.01063 31.9712 6.14109H34.7209C34.7719 5.0676 34.4211 4.4649 33.6024 4.4649Z" fill="#00579F"/>
    <path d="M41.3024 10.3361V9.37656C41.0153 9.70517 40.6645 9.97213 40.2712 10.1613C39.878 10.3504 39.4504 10.4578 39.0145 10.477C37.5661 10.477 36.5736 9.40354 36.9334 7.07065C37.3293 4.49487 38.9215 3.34941 40.5317 3.34941C41.0636 3.34231 41.5926 3.42962 42.094 3.60729L42.6097 0.272872L44.3789 0L42.7897 10.3361H41.3024ZM41.8781 5.02562C41.4791 4.81067 41.0296 4.70709 40.5767 4.72576C39.6772 4.72576 38.9065 5.45741 38.6726 6.97469C38.4657 8.31806 38.9395 8.95074 39.6981 8.95074C40.3278 8.95074 40.8736 8.57893 41.4193 8.0062L41.8781 5.02862V5.02562Z" fill="#00579F"/>
    <path d="M48.0399 10.3991C47.3255 10.4068 46.6153 10.2901 45.9409 10.0543L47.0714 2.71374L48.4028 2.50684L47.92 5.69733C48.3477 5.27884 48.9144 5.0323 49.5122 5.00466C50.6187 5.00466 51.3593 5.82926 51.0895 7.58643C50.7896 9.51451 49.5902 10.4141 48.0399 10.4141V10.3991ZM48.9995 6.13811C48.5647 6.13811 48.1299 6.43797 47.743 6.82179L47.3802 9.19666C47.6341 9.29983 47.907 9.34787 48.1809 9.3376C49.0055 9.3376 49.5812 8.83983 49.7641 7.6464C49.92 6.63888 49.5842 6.14711 48.9995 6.14711V6.13811Z" fill="#00579F"/>
    <path d="M54.1547 10.6179C53.489 11.9073 52.8323 12.3091 51.8218 12.3091C51.6641 12.3132 51.5066 12.295 51.354 12.2551V11.1817C51.5498 11.2327 51.7514 11.2579 51.9537 11.2566C52.1445 11.2596 52.3324 11.2097 52.4966 11.1123C52.6607 11.0149 52.7945 10.8738 52.8833 10.7049L53.0572 10.357L51.9537 5.19651L53.3361 5.02258L53.9778 8.75281L55.7109 5.09755H57.0003L54.1667 10.6179H54.1547Z" fill="#00579F"/>
</svg>
