<svg width="76" height="25" viewBox="0 0 76 25" fill="none" xmlns="http://www.w3.org/2000/svg">
    <path d="M32.9329 24.2416H26.7764L30.6271 0.43158H36.7833L32.9329 24.2416Z" fill="#00579F"/>
    <path d="M55.2511 1.01369C54.0368 0.531926 52.1107 0 49.7292 0C43.6494 0 39.3681 3.24205 39.3418 7.87721C39.2913 11.297 42.4071 13.1965 44.7375 14.3367C47.1194 15.5019 47.9291 16.2624 47.9291 17.301C47.9048 18.8961 46.0044 19.6314 44.2318 19.6314C41.7739 19.6314 40.4569 19.2523 38.4554 18.3649L37.6447 17.9845L36.7832 23.3293C38.2271 23.9872 40.8874 24.5709 43.6494 24.5965C50.1093 24.5965 54.3149 21.4046 54.3647 16.4651C54.3893 13.7547 52.744 11.6778 49.1969 9.98067C47.0436 8.89124 45.7249 8.15664 45.7249 7.04195C45.7502 6.0286 46.8403 4.99067 49.271 4.99067C51.2724 4.93984 52.743 5.42093 53.857 5.90235L54.4138 6.15519L55.2511 1.01369Z" fill="#00579F"/>
    <path d="M63.4339 15.8066C63.9409 14.4387 65.8918 9.14472 65.8918 9.14472C65.8662 9.19556 66.3978 7.75162 66.7018 6.86518L67.1321 8.9168C67.1321 8.9168 68.2979 14.6161 68.5511 15.8066C67.5889 15.8066 64.6499 15.8066 63.4339 15.8066ZM71.0333 0.43158H66.2712C64.8027 0.43158 63.687 0.861833 63.0534 2.40711L53.9087 24.2413H60.3686C60.3686 24.2413 61.4321 21.3026 61.6607 20.6697C62.3693 20.6697 68.6535 20.6697 69.5651 20.6697C69.7419 21.5056 70.2997 24.2413 70.2997 24.2413H76.0001L71.0333 0.43158Z" fill="#00579F"/>
    <path d="M21.6345 0.43158L15.6052 16.6678L14.9464 13.3749C13.8317 9.57531 10.3358 5.44717 6.43457 3.39454L11.9572 24.2164H18.4675L28.1445 0.43158H21.6345Z" fill="#00579F"/>
    <path d="M10.0066 0.43158H0.101335L0 0.912669C7.72672 2.88854 12.844 7.65129 14.9464 13.3759L12.7931 2.43303C12.4386 0.912332 11.3492 0.481742 10.0066 0.43158Z" fill="#FAA61A"/>
</svg>
