<svg width="939" height="725" viewBox="0 0 939 725" fill="none" xmlns="http://www.w3.org/2000/svg">
    <line opacity="0.05" x1="473.5" x2="473.5" y2="725" stroke="#fff"/>
    <line opacity="0.05" x1="235.5" x2="235.5" y2="725" stroke="#fff"/>
    <line opacity="0.15" x1="711.5" x2="711.5" y2="725" stroke="#fff"/>
    <line opacity="0.05" x1="830.5" x2="830.5" y2="725" stroke="#fff"/>
    <line opacity="0.05" x1="592.5" x2="592.5" y2="725" stroke="#fff"/>
    <line opacity="0.05" x1="354.5" x2="354.5" y2="725" stroke="#fff"/>
    <line opacity="0.05" x1="116.5" x2="116.5" y2="725" stroke="#fff"/>
    <line opacity="0.05" y1="176.5" x2="939" y2="176.5" stroke="#fff"/>
    <line opacity="0.05" y1="626.5" x2="939" y2="626.5" stroke="#fff"/>
    <line opacity="0.05" y1="86.5" x2="939" y2="86.5" stroke="#fff"/>
    <line opacity="0.05" y1="356.5" x2="939" y2="356.5" stroke="#fff"/>
    <line opacity="0.05" y1="536.5" x2="939" y2="536.5" stroke="#fff"/>
    <line opacity="0.05" y1="446.5" x2="939" y2="446.5" stroke="#fff"/>
    <line opacity="0.05" y1="266.5" x2="939" y2="266.5" stroke="#fff"/>
    <circle cx="712" cy="613" r="1.5" stroke="#FF3E70"/>
    <circle cx="712" cy="589" r="1.5" stroke="#3B6EC9"/>
    <circle cx="712" cy="549" r="1.5" stroke="#040427"/>
    <path d="M105 643.5L113.5 631.5H128.5L144.5 618.5L159 631.5L173.5 618.5L191 631.5L207.5 618.5L219 602.5L231 593.5H255.5L267.5 582H286.5H317L334.5 571.5L348 557H365.5L384.5 545.5L406.5 557L421 571.5L438.5 582L465 593.5V582L482.5 571.5L513 557L535 582H554.5L573.5 571.5L592 557L615.5 545.5L642.5 557H666.5L675 545.5H705L727 557V533.5H754.5L769.5 545.5L800 533.5L818.5 516.5L835.5 545.5V557L854 582L862.5 557L883 545.5L898 533.5" stroke="#fff"/>
    <path opacity="0.4" d="M907 528L890.5 541L879 557L867 566H842.5L830.5 577.5H811.5H781L763.5 588L750 602.5H732.5L713.5 614L691.5 602.5L677 588L659.5 577.5L633 566V577.5L615.5 588L585 602.5L563 577.5H543.5L524.5 588L506 602.5L482.5 614L455.5 602.5H431.5L423 614H393L371 602.5V626H343.5L328.5 614L298 626L279.5 643L262.5 614V602.5H245H235.5L215 614L200 626V643L185 649L175.5 661H166L159 667L143 671.5H128" stroke="#fff"/>
    <path d="M139.5 683.5L177 662H212.5L233.5 646L264 662L301.5 646V627H329.5L362 646L407 627L439.5 646L456 627H479.5H498H514.5H531L561.5 601.5L580 627L608 601.5L617.5 615.5H638.5L655 601.5H674L704.5 585L737 601.5L751 585L777 568.5H798H828.5L859 585L880 568.5L901 538H917.5" stroke="#fff"/>
    <path d="M764.35 215.4H765.79V228H764.134V217.2L761.452 217.992L761.038 216.552L764.35 215.4ZM768.05 228V226.632L772.496 222.096C773.684 220.908 774.278 219.888 774.278 219.036C774.278 218.328 774.062 217.776 773.63 217.38C773.198 216.984 772.67 216.786 772.046 216.786C770.858 216.786 769.994 217.35 769.454 218.478L768.05 217.65C768.446 216.834 768.992 216.216 769.688 215.796C770.396 215.376 771.176 215.166 772.028 215.166C773.084 215.166 774.002 215.514 774.782 216.21C775.562 216.906 775.952 217.842 775.952 219.018C775.952 220.29 775.202 221.676 773.702 223.176L770.48 226.38H776.186V228H768.05ZM780.752 220.746C779.936 220.746 779.258 220.476 778.718 219.936C778.178 219.396 777.908 218.736 777.908 217.956C777.908 217.188 778.178 216.534 778.718 215.994C779.27 215.442 779.948 215.166 780.752 215.166C781.568 215.166 782.246 215.436 782.786 215.976C783.326 216.516 783.596 217.176 783.596 217.956C783.596 218.736 783.326 219.396 782.786 219.936C782.258 220.476 781.58 220.746 780.752 220.746ZM779.708 219.018C779.984 219.294 780.332 219.432 780.752 219.432C781.172 219.432 781.514 219.288 781.778 219C782.054 218.712 782.192 218.364 782.192 217.956C782.192 217.548 782.054 217.206 781.778 216.93C781.514 216.642 781.172 216.498 780.752 216.498C780.332 216.498 779.984 216.642 779.708 216.93C779.444 217.206 779.312 217.548 779.312 217.956C779.312 218.376 779.444 218.73 779.708 219.018ZM778.754 226.218L787.124 216.858L788.006 217.344L779.618 226.722L778.754 226.218ZM788.222 227.406C787.682 227.946 787.004 228.216 786.188 228.216C785.372 228.216 784.694 227.946 784.154 227.406C783.614 226.866 783.344 226.206 783.344 225.426C783.344 224.646 783.614 223.986 784.154 223.446C784.694 222.906 785.372 222.636 786.188 222.636C787.004 222.636 787.682 222.906 788.222 223.446C788.762 223.986 789.032 224.646 789.032 225.426C789.032 226.206 788.762 226.866 788.222 227.406ZM785.144 226.47C785.42 226.746 785.768 226.884 786.188 226.884C786.608 226.884 786.95 226.746 787.214 226.47C787.49 226.182 787.628 225.834 787.628 225.426C787.628 225.018 787.49 224.676 787.214 224.4C786.95 224.112 786.608 223.968 786.188 223.968C785.768 223.968 785.42 224.112 785.144 224.4C784.88 224.676 784.748 225.018 784.748 225.426C784.748 225.834 784.88 226.182 785.144 226.47Z" fill="#fff"/>
    <circle cx="772" cy="222" r="30.5" stroke="#A1A6B6"/>
    <path d="M772 191.5C778.413 191.5 784.662 193.521 789.861 197.277C795.059 201.032 798.941 206.33 800.956 212.418" stroke="#fff"/>
    <path d="M768.024 128.756C769.284 128.756 770.322 129.152 771.138 129.944C771.954 130.724 772.362 131.738 772.362 132.986C772.362 134.234 771.954 135.254 771.138 136.046C770.322 136.838 769.284 137.234 768.024 137.234C766.752 137.234 765.708 136.838 764.892 136.046C764.088 135.254 763.686 134.234 763.686 132.986C763.686 132.014 763.938 131.174 764.442 130.466L768.492 124.4H770.4L767.43 128.792C767.694 128.768 767.892 128.756 768.024 128.756ZM766.08 134.912C766.584 135.392 767.232 135.632 768.024 135.632C768.816 135.632 769.458 135.392 769.95 134.912C770.454 134.42 770.706 133.778 770.706 132.986C770.706 132.194 770.454 131.558 769.95 131.078C769.458 130.598 768.816 130.358 768.024 130.358C767.22 130.358 766.572 130.598 766.08 131.078C765.588 131.558 765.342 132.194 765.342 132.986C765.342 133.778 765.588 134.42 766.08 134.912ZM776.356 129.746C775.54 129.746 774.862 129.476 774.322 128.936C773.782 128.396 773.512 127.736 773.512 126.956C773.512 126.188 773.782 125.534 774.322 124.994C774.874 124.442 775.552 124.166 776.356 124.166C777.172 124.166 777.85 124.436 778.39 124.976C778.93 125.516 779.2 126.176 779.2 126.956C779.2 127.736 778.93 128.396 778.39 128.936C777.862 129.476 777.184 129.746 776.356 129.746ZM775.312 128.018C775.588 128.294 775.936 128.432 776.356 128.432C776.776 128.432 777.118 128.288 777.382 128C777.658 127.712 777.796 127.364 777.796 126.956C777.796 126.548 777.658 126.206 777.382 125.93C777.118 125.642 776.776 125.498 776.356 125.498C775.936 125.498 775.588 125.642 775.312 125.93C775.048 126.206 774.916 126.548 774.916 126.956C774.916 127.376 775.048 127.73 775.312 128.018ZM774.358 135.218L782.728 125.858L783.61 126.344L775.222 135.722L774.358 135.218ZM783.826 136.406C783.286 136.946 782.608 137.216 781.792 137.216C780.976 137.216 780.298 136.946 779.758 136.406C779.218 135.866 778.948 135.206 778.948 134.426C778.948 133.646 779.218 132.986 779.758 132.446C780.298 131.906 780.976 131.636 781.792 131.636C782.608 131.636 783.286 131.906 783.826 132.446C784.366 132.986 784.636 133.646 784.636 134.426C784.636 135.206 784.366 135.866 783.826 136.406ZM780.748 135.47C781.024 135.746 781.372 135.884 781.792 135.884C782.212 135.884 782.554 135.746 782.818 135.47C783.094 135.182 783.232 134.834 783.232 134.426C783.232 134.018 783.094 133.676 782.818 133.4C782.554 133.112 782.212 132.968 781.792 132.968C781.372 132.968 781.024 133.112 780.748 133.4C780.484 133.676 780.352 134.018 780.352 134.426C780.352 134.834 780.484 135.182 780.748 135.47Z" fill="#fff"/>
    <circle cx="772" cy="131" r="30.5" stroke="#A1A6B6"/>
    <path d="M772 100.5C776.871 100.5 781.67 101.666 785.998 103.902" stroke="#fff"/>
    <path d="M761.859 305.4H763.299V318H761.643V307.2L758.961 307.992L758.547 306.552L761.859 305.4ZM768.439 316.146L767.269 320.52H765.919L766.639 316.146H768.439ZM779.726 314.04V315.606H778.196V318H776.522V315.606H770.096V314.04L774.614 305.4H776.414L771.896 314.04H776.522V310.476H778.196V314.04H779.726ZM783.243 310.746C782.427 310.746 781.749 310.476 781.209 309.936C780.669 309.396 780.399 308.736 780.399 307.956C780.399 307.188 780.669 306.534 781.209 305.994C781.761 305.442 782.439 305.166 783.243 305.166C784.059 305.166 784.737 305.436 785.277 305.976C785.817 306.516 786.087 307.176 786.087 307.956C786.087 308.736 785.817 309.396 785.277 309.936C784.749 310.476 784.071 310.746 783.243 310.746ZM782.199 309.018C782.475 309.294 782.823 309.432 783.243 309.432C783.663 309.432 784.005 309.288 784.269 309C784.545 308.712 784.683 308.364 784.683 307.956C784.683 307.548 784.545 307.206 784.269 306.93C784.005 306.642 783.663 306.498 783.243 306.498C782.823 306.498 782.475 306.642 782.199 306.93C781.935 307.206 781.803 307.548 781.803 307.956C781.803 308.376 781.935 308.73 782.199 309.018ZM781.245 316.218L789.615 306.858L790.497 307.344L782.109 316.722L781.245 316.218ZM790.713 317.406C790.173 317.946 789.495 318.216 788.679 318.216C787.863 318.216 787.185 317.946 786.645 317.406C786.105 316.866 785.835 316.206 785.835 315.426C785.835 314.646 786.105 313.986 786.645 313.446C787.185 312.906 787.863 312.636 788.679 312.636C789.495 312.636 790.173 312.906 790.713 313.446C791.253 313.986 791.523 314.646 791.523 315.426C791.523 316.206 791.253 316.866 790.713 317.406ZM787.635 316.47C787.911 316.746 788.259 316.884 788.679 316.884C789.099 316.884 789.441 316.746 789.705 316.47C789.981 316.182 790.119 315.834 790.119 315.426C790.119 315.018 789.981 314.676 789.705 314.4C789.441 314.112 789.099 313.968 788.679 313.968C788.259 313.968 787.911 314.112 787.635 314.4C787.371 314.676 787.239 315.018 787.239 315.426C787.239 315.834 787.371 316.182 787.635 316.47Z" fill="#fff"/>
    <circle cx="772" cy="313" r="30.5" stroke="#A1A6B6"/>
    <path d="M771.62 282.502C776.685 282.439 781.685 283.638 786.17 285.991C790.655 288.344 794.483 291.777 797.309 295.98C800.136 300.183 801.871 305.023 802.358 310.064C802.846 315.106 802.07 320.189 800.102 324.855" stroke="#fff"/>
</svg>
