<?xml version="1.0" standalone="no"?>
<!DOCTYPE svg PUBLIC "-//W3C//DTD SVG 1.1//EN" "http://www.w3.org/Graphics/SVG/1.1/DTD/svg11.dtd" >
<svg xmlns="http://www.w3.org/2000/svg">
<metadata>Generated by IcoMoon</metadata>
<defs>
<font id="intel" horiz-adv-x="1024">
<font-face units-per-em="1024" ascent="896" descent="-128" />
<missing-glyph horiz-adv-x="1024" />
<glyph unicode="&#x20;" horiz-adv-x="0" d="" />
<glyph unicode="&#xe900;" glyph-name="circle-vk" d="M512-128c-281.6 0-512 230.4-512 512s230.4 512 512 512c281.6 0 512-230.4 512-512s-230.4-512-512-512zM512 876.308c-271.754 0-492.308-220.554-492.308-492.308s220.554-492.308 492.308-492.308 492.308 220.554 492.308 492.308-220.554 492.308-492.308 492.308zM641.969 340.677c0 0 29.538-29.538 37.415-43.323 0 0 0 0 0 0 3.938-5.908 3.938-9.846 1.969-11.815-1.969-3.938-11.815-7.877-13.785-7.877h-53.169c-3.938 0-11.815 0-21.662 7.877-7.877 5.908-13.785 13.785-21.662 21.662v0c-9.846 11.815-19.692 21.662-27.569 21.662-1.969 0-1.969 0-3.938 0-5.908-1.969-15.754-11.815-15.754-37.415 0-7.877-5.908-11.815-11.815-11.815h-19.692c-7.877 0-51.2 1.969-90.585 43.323-47.262 49.231-88.615 147.692-88.615 149.662-1.969 5.908 1.969 9.846 7.877 9.846h53.169c7.877 0 9.846-3.938 11.815-7.877s9.846-21.662 19.692-43.323c17.723-33.477 29.538-45.292 39.385-45.292 1.969 0 3.938 0 5.908 1.969 11.815 5.908 9.846 49.231 9.846 59.077 0 1.969 0 19.692-5.908 27.569-3.938 5.908-11.815 7.877-15.754 9.846 1.969 1.969 3.938 3.938 7.877 5.908 7.877 3.938 23.631 3.938 37.415 3.938h7.877c15.754 0 19.692-1.969 25.6-1.969 11.815-1.969 11.815-9.846 11.815-35.446 0-7.877 0-15.754 0-25.6 0-1.969 0-3.938 0-5.908v0c0-13.785 0-27.569 7.877-33.477 1.969 0 1.969-1.969 3.938-1.969 3.938 0 13.785 0 39.385 45.292 7.877 13.785 15.754 29.538 21.662 45.292 0 0 1.969 3.938 3.938 3.938s1.969 1.969 3.938 1.969h63.015c5.908 0 11.815-1.969 11.815-3.938 1.969-3.938 0-17.723-29.538-55.138l-13.785-17.723c-27.569-41.354-27.569-43.323 0-68.923z" />
<glyph unicode="&#xe901;" glyph-name="circle-telegram" d="M681.354 492.308l-57.108-265.846c-3.938-19.692-15.754-23.631-31.508-13.785l-86.646 63.015-41.354-39.385c-3.938-3.938-7.877-7.877-17.723-7.877l5.908 86.646 159.508 143.754c7.877 5.908-1.969 9.846-9.846 3.938l-196.923-124.062-84.677 25.6c-17.723 5.908-19.692 17.723 3.938 27.569l330.831 128c15.754 3.938 29.538-3.938 25.6-27.569v0zM512-128c-281.6 0-512 230.4-512 512s230.4 512 512 512c281.6 0 512-230.4 512-512s-230.4-512-512-512zM512 876.308c-271.754 0-492.308-220.554-492.308-492.308s220.554-492.308 492.308-492.308 492.308 220.554 492.308 492.308-220.554 492.308-492.308 492.308z" />
<glyph unicode="&#xe902;" glyph-name="circle-mail" d="M512-128c-281.6 0-512 230.4-512 512s230.4 512 512 512c281.6 0 512-230.4 512-512s-230.4-512-512-512zM512 876.308c-271.754 0-492.308-220.554-492.308-492.308s220.554-492.308 492.308-492.308 492.308 220.554 492.308 492.308-220.554 492.308-492.308 492.308zM608.492 541.538c25.6 0 51.2-9.846 70.892-25.6s29.538-39.385 29.538-63.015v-137.846c0-49.231-45.292-88.615-100.431-88.615h-194.954c-55.138 0-100.431 39.385-100.431 88.615v137.846c0 49.231 45.292 88.615 100.431 88.615h194.954zM632.123 450.954c-3.938 0-7.877-1.969-11.815-3.938l-88.615-63.015c-11.815-7.877-27.569-7.877-39.385 0l-88.615 63.015c-5.908 3.938-13.785 3.938-19.692-1.969-5.908-3.938-5.908-11.815-1.969-17.723l1.969-1.969 66.954-47.262-68.923-64.985c-5.908-5.908-5.908-13.785 0-19.692s13.785-5.908 19.692 0l70.892 68.923c11.815-7.877 23.631-11.815 37.415-11.815s27.569 3.938 39.385 11.815l70.892-68.923c5.908-5.908 13.785-5.908 19.692 0s3.938 13.785 0 19.692l-66.954 64.985 66.954 47.262 1.969 1.969c3.938 5.908 3.938 11.815 0 17.723-1.969 3.938-5.908 5.908-9.846 5.908z" />
<glyph unicode="&#xe903;" glyph-name="circle-more" d="M512-128c-281.6 0-512 230.4-512 512s230.4 512 512 512c281.6 0 512-230.4 512-512s-230.4-512-512-512zM512 876.308c-271.754 0-492.308-220.554-492.308-492.308s220.554-492.308 492.308-492.308 492.308 220.554 492.308 492.308-220.554 492.308-492.308 492.308zM374.154 344.615c21.662 0 39.385 17.723 39.385 39.385s-17.723 39.385-39.385 39.385-39.385-17.723-39.385-39.385 17.723-39.385 39.385-39.385zM512 344.615c21.662 0 39.385 17.723 39.385 39.385s-17.723 39.385-39.385 39.385-39.385-17.723-39.385-39.385 17.723-39.385 39.385-39.385zM689.231 384c0-21.662-17.723-39.385-39.385-39.385s-39.385 17.723-39.385 39.385 17.723 39.385 39.385 39.385c21.662 0 39.385-17.723 39.385-39.385z" />
<glyph unicode="&#xe904;" glyph-name="circle-fb" d="M512-128c-281.6 0-512 230.4-512 512s230.4 512 512 512c281.6 0 512-230.4 512-512s-230.4-512-512-512zM512 876.308c-271.754 0-492.308-220.554-492.308-492.308s220.554-492.308 492.308-492.308 492.308 220.554 492.308 492.308-220.554 492.308-492.308 492.308zM541.538 435.2v37.415c0 15.754 3.938 25.6 27.569 25.6h31.508v63.015h-47.262c-59.077 0-82.708-41.354-82.708-88.615v-37.415h-47.262v-63.015h47.262v-189.046h70.892v189.046h51.2l7.877 63.015h-59.077z" />
<glyph unicode="&#xe905;" glyph-name="achievement-lock" d="M800 554.667h-48v97.526c0 32.015-6.208 63.724-18.27 93.302s-29.739 56.453-52.028 79.094c-22.285 22.641-48.738 40.604-77.858 52.854s-60.331 18.557-91.844 18.557c-63.65 0-124.693-25.688-169.703-71.412s-70.297-107.734-70.297-172.396v-97.526h-58.667c-25.458 0-39.209-10.271-57.213-28.562s-28.12-43.099-28.12-68.965v-402.278c0-25.865 10.115-50.675 28.12-68.966s42.422-28.561 67.88-28.561h576c25.459 0 49.873 10.27 67.878 28.561s28.122 43.102 28.122 68.966v402.278c0 25.866-10.116 50.673-28.122 68.965s-42.419 28.562-67.878 28.562zM410.177 755.63c27.007 27.433 63.632 42.844 101.823 42.844s74.816-15.411 101.824-42.844c27.004-27.432 42.176-64.64 42.176-103.437v-97.526h-288v97.526c0 38.797 15.172 76.005 42.177 103.437zM512 384c47.13 0 85.333-38.204 85.333-85.333 0-19.217-6.353-36.949-17.071-51.213-4.74-6.306-10.287-17.438-15.006-29.935-5.961-15.77-10.59-33.707-10.59-46.852 0-23.561-19.106-42.667-42.667-42.667s-42.667 19.106-42.667 42.667c0 13.146-4.629 31.087-10.59 46.861-4.719 12.493-10.266 23.62-15.006 29.926-10.718 14.263-17.071 31.996-17.071 51.213 0 47.13 38.204 85.333 85.333 85.333z" />
<glyph unicode="&#xe906;" glyph-name="achievement-1" d="M469.333 418.133v0c0 0 0 0 0 0zM925.867 435.2c12.8 12.8 17.067 34.133 12.8 46.933-8.533 17.067-21.333 29.867-42.667 34.133l-213.333 29.867c-17.067 4.267-29.867 12.8-34.133 25.6l-93.867 192c-8.533 12.8-21.333 25.6-38.4 25.6h-17.067l-8.533-4.267h-4.267c-4.267 0-4.267-4.267-8.533-4.267l-4.267-4.267c0-4.267-4.267-8.533-4.267-12.8l-93.867-192c-8.533-12.8-21.333-21.333-38.4-25.6l-213.333-29.867c-17.067-4.267-29.867-17.067-34.133-34.133s0-34.133 12.8-46.933l153.6-149.333c12.8-12.8 17.067-25.6 12.8-42.667l-38.4-209.067c-4.267-25.6 12.8-51.2 38.4-55.467 8.533 0 21.333 0 29.867 4.267l187.733 98.133c4.267 0 8.533 4.267 12.8 4.267h12.8c8.533 0 12.8-4.267 21.333-4.267l187.733-98.133c17.067-8.533 34.133-8.533 51.2 4.267 17.067 8.533 21.333 29.867 21.333 46.933l-38.4 209.067c-4.267 17.067 4.267 29.867 12.8 42.667l157.867 149.333zM554.667 213.333h-85.333v204.8c-4.267-4.267-12.8-8.533 0 0l-85.333-76.8-21.333 64 119.467 106.667h72.533v-298.667z" />
<glyph unicode="&#xe907;" glyph-name="achievement-5" d="M704.811 426.155c52.599-94.844 58.483-192.055 13.094-217.284l-0.038-0.073c-20.343-11.691-41.651-2.889-63.846 18.381 3.921-21.564 6.217-44.868 6.217-69.282 0-108.642-42.505-196.497-94.178-196.497-31.074 0-46.609 32.333-54.007 80.939-7.437-48.939-22.938-80.939-54.229-80.939-51.899 0-94.069 87.817-94.069 196.497-0.017 23.245 2.050 46.447 6.177 69.321-22.047-21.231-43.427-29.888-63.698-18.347-45.499 25.229-39.692 122.479 12.947 217.284 22.639 40.802 50.308 73.909 78.051 97.028 33.226-24.655 73.482-38.009 114.856-38.1 41.314 0.128 81.498 13.481 114.675 38.1 27.742-23.119 55.484-56.188 78.050-97.028zM573.321 533.44c-19.482-7.817-40.32-11.68-61.308-11.367-41.557 0.621-81.199 17.561-110.374 47.162-29.173 29.601-45.533 69.489-45.548 111.050s16.317 81.46 45.469 111.081c29.15 29.622 68.783 46.589 110.341 47.239 20.988 0.328 41.83-3.521 61.316-11.324s37.222-19.403 52.186-34.126c14.959-14.723 26.842-32.274 34.953-51.633 8.115-19.358 12.297-40.137 12.305-61.127s-4.16-41.772-12.258-61.136c-8.102-19.364-19.972-36.924-34.923-51.657s-32.678-26.346-52.16-34.163zM919.364 461.047c-23.561-24.256-55.65-38.379-89.451-39.369l0.038-0.073c-34.47-0.004-67.533 13.683-91.908 38.054-24.375 24.369-38.076 57.425-38.080 91.895s13.683 67.529 38.054 91.907c24.371 24.377 57.425 38.075 91.895 38.080 33.801-0.988 65.89-15.11 89.451-39.369s36.74-56.745 36.74-90.562c0-33.817-13.18-66.303-36.74-90.563zM924.169 422.605c22.784-18.978 45.495-46.127 64.068-79.714l-0.038 0.034c43.17-77.756 47.979-157.581 10.726-178.295-16.721-9.617-34.253-2.406-52.45 15.091 3.217-17.754 5.175-36.881 5.175-56.964 0-89.148-34.957-161.28-77.312-161.28-25.596 0-38.357 26.483-44.386 66.432-6.067-40.171-18.867-66.432-44.54-66.432-42.65 0-77.235 72.094-77.235 161.353 0 15.906 1.442 30.997 3.55 45.5 8.469 1.353 16.64 4.156 24.154 8.286 35.068 19.422 52.604 60.996 49.126 117.077-2.108 36.621-13.466 77.568-31.812 117.999 22.784-12.685 48.828-20.343 76.791-20.343 33.924 0.111 66.923 11.063 94.182 31.258zM266.267 443.61c-21.354-14.285-46.464-21.914-72.155-21.931v-0.073c-34.472 0.009-67.529 13.709-91.904 38.084-24.375 24.373-38.073 57.43-38.083 91.901 0 25.691 7.617 50.806 21.889 72.168s34.557 38.013 58.291 47.849c23.734 9.835 49.851 12.412 75.050 7.405s48.347-17.373 66.519-35.534c18.171-18.161 30.55-41.303 35.571-66.498s2.459-51.314-7.363-75.054c-9.821-23.74-26.461-44.034-47.815-58.319zM271.016 411.767c-47.422-104.687-42.022-202.304 16.868-235.042l0.037 0.038c7.592-4.181 15.853-7.010 24.414-8.363 2.108-14.498 3.588-29.628 3.588-45.645 0-89.148-34.883-161.28-77.311-161.28-25.524 0-38.286 26.483-44.389 66.432-6.067-40.132-18.865-66.398-44.537-66.398-42.651 0-77.237 72.060-77.237 161.28 0 19.076 1.671 38.114 4.994 56.896-18.089-17.425-35.659-24.563-52.305-15.019-37.287 20.638-32.552 100.467 10.616 178.295 18.643 33.549 41.319 60.702 64.068 79.642 26.56-19.456 58.964-31.296 94.327-31.296 26.954 0.107 53.427 7.151 76.867 20.459zM585.165 306.5c-13.888 13.222-32.61 19.831-56.166 19.831-9.997 0-18.389-0.777-25.165-2.33l-5.833-1.169 4.497 47.834h87.002v43.665h-132.164l-9.169-124.164 20.501-10.999c4.442 1.331 10.223 2.556 17.331 3.665 7.113 1.225 13.611 1.835 19.503 1.835 32.555 0 48.832-12.279 48.832-36.834 0-25.779-15.723-38.669-47.168-38.669-10.445 0-21.5 1.446-33.165 4.335-11.669 2.999-21.888 6.835-30.669 11.499v-44.497c16.666-8.781 38.558-13.167 65.668-13.167 31.223 0 55.223 7.334 72 21.999s25.165 35.61 25.165 62.835c0 22.997-6.997 41.109-21.001 54.332z" />
<glyph unicode="&#xe908;" glyph-name="gbp" d="M355.198 135.251v208.561h375.378v86.096h-375.378v193.495c0 103.728 85.592 186.501 189.523 186.501 103.924 0 189.513-83.831 189.513-190.589h86.098c-0.002 154.973-124.216 276.685-275.611 276.685-151.403 0-275.619-121.395-275.619-272.597v-193.499h-65.432v-86.096h65.432v-208.562c0-97.343-41.326-146.683-65.432-167.51v-89.133l3.231-6.601h609.77v86.096h-505.843c25.342 41.326 44.37 98.484 44.37 177.153z" />
<glyph unicode="&#xe909;" glyph-name="withdrawal" d="M768 0h-512c-34.133 0-68.267 12.8-89.6 38.4-25.6 21.333-38.4 55.467-38.4 89.6v512c0 34.133 12.8 68.267 38.4 89.6 21.333 25.6 55.467 38.4 89.6 38.4h426.667c21.333 0 42.667-8.533 59.733-25.6s25.6-38.4 25.6-59.733v-85.333c21.333 0 42.667-8.533 59.733-25.6s25.6-38.4 25.6-59.733v-128c0-25.6-17.067-42.667-42.667-42.667s-42.667 17.067-42.667 42.667v128h-512c-12.8 0-29.867 4.267-42.667 8.533v-392.533c0-12.8 4.267-21.333 12.8-29.867s17.067-12.8 29.867-12.8h512v128c0 25.6 17.067 42.667 42.667 42.667s42.667-17.067 42.667-42.667v-128c0-21.333-8.533-42.667-25.6-59.733s-38.4-25.6-59.733-25.6zM213.333 640c0-12.8 4.267-21.333 12.8-29.867s17.067-12.8 29.867-12.8h426.667v85.333h-426.667c-12.8 0-21.333-4.267-29.867-12.8s-12.8-17.067-12.8-29.867zM853.333 170.667h-170.667c-34.133 0-68.267 12.8-89.6 38.4s-38.4 55.467-38.4 89.6 12.8 68.267 38.4 89.6c25.6 25.6 55.467 38.4 89.6 38.4h170.667c25.6 0 42.667-17.067 42.667-42.667v-170.667c0-25.6-17.067-42.667-42.667-42.667zM682.667 341.333c-12.8 0-21.333-4.267-29.867-12.8s-12.8-17.067-12.8-29.867 4.267-21.333 12.8-29.867 17.067-12.8 29.867-12.8h128v85.333h-128z" />
<glyph unicode="&#xe90a;" glyph-name="m-trades" d="M170.667 749.037c0 32.026 27.956 61.629 67.048 61.629h548.573c39.091 0 67.046-29.603 67.046-61.629v-730.076c0-32.026-27.955-61.628-67.046-61.628h-548.573c-39.091 0-67.048 29.602-67.048 61.628v730.076zM237.714 896c-82.096 0-152.381-63.787-152.381-146.963v-730.076c0-83.174 70.285-146.961 152.381-146.961h548.573c82.095 0 152.38 63.787 152.38 146.961v730.076c0 83.176-70.285 146.963-152.38 146.963h-548.573zM320 682.667c-23.564 0-42.667-19.103-42.667-42.667s19.103-42.667 42.667-42.667h384c23.565 0 42.667 19.103 42.667 42.667s-19.102 42.667-42.667 42.667h-384zM277.333 426.667c0 23.565 19.103 42.667 42.667 42.667h384c23.565 0 42.667-19.102 42.667-42.667s-19.102-42.667-42.667-42.667h-384c-23.564 0-42.667 19.102-42.667 42.667zM320 256c-23.564 0-42.667-19.102-42.667-42.667s19.103-42.667 42.667-42.667h256c23.565 0 42.667 19.102 42.667 42.667s-19.102 42.667-42.667 42.667h-256z" />
<glyph unicode="&#xe90b;" glyph-name="m-investoteka" d="M298.667-85.333h-170.667c-46.933 0-85.333 42.667-85.333 89.6v597.333c0 42.667 38.4 81.067 85.333 81.067h170.667c46.933 0 85.333-38.4 85.333-81.067v-597.333c0-46.933-38.4-89.6-85.333-89.6zM128 597.333v-593.067c0 0 0-4.267 4.267-4.267h166.4c0 0 0 4.267 0 4.267v593.067h-170.667zM298.667 597.333v0 0zM554.667-85.333h-170.667c-46.933 0-85.333 42.667-85.333 93.867v494.933c0 51.2 38.4 93.867 85.333 93.867h170.667c46.933 0 85.333-42.667 85.333-93.867v-499.2c0-46.933-38.4-89.6-85.333-89.6zM384 512c0 0 0-4.267 0-8.533v-499.2c0 0 0-4.267 4.267-4.267h166.4c0 0 0 4.267 0 8.533v494.933c0 4.267 0 8.533 0 8.533h-170.667zM554.667 512v0 0zM750.933-93.867c-21.333 0-38.4 8.533-55.467 21.333s-29.867 34.133-34.133 59.733l-128 733.867c-8.533 51.2 21.333 102.4 68.267 110.933l166.4 29.867c21.333 4.267 42.667 0 59.733-12.8 21.333-12.8 34.133-38.4 42.667-64l128-733.867c4.267-25.6 0-46.933-8.533-68.267-12.8-21.333-34.133-38.4-55.467-42.667l-166.4-29.867c-8.533-4.267-12.8-4.267-17.067-4.267zM618.667 746.667c0 0 0-4.267 0-8.533l128-733.867c0-8.533 4.267-8.533 4.267-12.8l162.133 29.867c0 0 0 4.267 0 8.533l-123.733 738.133c0 4.267-4.267 8.533-4.267 8.533l-166.4-29.867c0 0 0 0 0 0zM776.533 819.2v0 0zM768 512c21.333 4.267 38.4 25.6 34.133 51.2-4.267 21.333-25.6 38.4-51.2 34.133l17.067-85.333zM708.267 588.8c-21.333-4.267-38.4-25.6-34.133-51.2 4.267-21.333 25.6-38.4 51.2-34.133l-17.067 85.333zM725.333 507.733l21.333 4.267-12.8 85.333-21.333-4.267 12.8-85.333zM750.933 597.333l-21.333-4.267 12.8-85.333 25.6 4.267-17.067 85.333zM192 469.333c-25.6 0-42.667-17.067-42.667-42.667s17.067-42.667 42.667-42.667v85.333zM234.667 384c25.6 0 42.667 17.067 42.667 42.667s-17.067 42.667-42.667 42.667v-85.333zM192 384h42.667v85.333h-42.667v-85.333z" />
<glyph unicode="&#xe90c;" glyph-name="m-market" d="M427.443 810.667h169.114c0.333-0.422 0.777-1.282 0.777-2.667v-637.333h-170.667v637.333c0 1.385 0.444 2.244 0.777 2.667zM341.333 808v-253.333h-170.667c-51.714 0-85.333-45.456-85.333-90.667v-288c0-45.21 33.62-90.667 85.333-90.667h725.333c23.565 0 42.667 19.102 42.667 42.667v430.222c0 48.584-41.775 81.778-85.333 81.778h-170.667v168c0 46.127-35.806 88-85.333 88h-170.667c-49.528 0-85.333-41.873-85.333-88zM341.333 173.333v-2.667h-169.159c-0.635 0.849-1.507 2.62-1.507 5.333v288c0 2.714 0.873 4.484 1.507 5.333h167.652c0.635-0.849 1.507-2.62 1.507-5.333v-290.667zM853.333 170.667h-170.667v384h170.667v-384zM128 0h768c23.565 0 42.667-19.102 42.667-42.667s-19.102-42.667-42.667-42.667h-768c-23.564 0-42.667 19.102-42.667 42.667s19.103 42.667 42.667 42.667z" />
<glyph unicode="&#xe90d;" glyph-name="m-settings" d="M512-128c-64 0-115.2 42.667-128 102.4 0 8.533-4.267 12.8-8.533 21.333-4.267 4.267-12.8 8.533-17.067 12.8-8.533 4.267-12.8 4.267-21.333 4.267s-12.8-4.267-21.333-8.533c-51.2-34.133-119.467-25.6-162.133 21.333-42.667 42.667-51.2 110.933-21.333 162.133 4.267 4.267 4.267 12.8 8.533 21.333 0 8.533 0 12.8-4.267 21.333s-8.533 8.533-17.067 12.8c-4.267 4.267-12.8 8.533-21.333 8.533-55.467 17.067-98.133 68.267-98.133 132.267s42.667 115.2 102.4 128c8.533 0 12.8 4.267 21.333 8.533 4.267 8.533 8.533 12.8 8.533 21.333 4.267 4.267 4.267 12.8 4.267 21.333s-4.267 12.8-8.533 21.333c-29.867 51.2-21.333 119.467 21.333 162.133s110.933 51.2 162.133 21.333c12.8-8.533 29.867-8.533 42.667-4.267 17.067 4.267 25.6 17.067 29.867 29.867 12.8 59.733 64 102.4 128 102.4v0c64 0 115.2-42.667 128-102.4 0-8.533 4.267-12.8 8.533-21.333 4.267-4.267 12.8-8.533 17.067-12.8 8.533-4.267 12.8-4.267 21.333-4.267s12.8 4.267 21.333 8.533c51.2 34.133 119.467 25.6 162.133-21.333 42.667-42.667 51.2-110.933 21.333-162.133-4.267-4.267-4.267-12.8-8.533-21.333 0-8.533 0-12.8 4.267-21.333s8.533-12.8 12.8-17.067c4.267-4.267 12.8-8.533 21.333-8.533 59.733-12.8 102.4-64 102.4-128s-42.667-115.2-102.4-128c-8.533 0-12.8-4.267-21.333-8.533-4.267-4.267-8.533-12.8-12.8-17.067s-4.267-12.8-4.267-21.333c0-8.533 4.267-12.8 8.533-21.333 34.133-51.2 25.6-119.467-21.333-162.133-42.667-42.667-110.933-51.2-162.133-21.333-4.267 4.267-12.8 4.267-21.333 8.533-8.533 0-12.8 0-21.333-4.267s-12.8-8.533-17.067-12.8c-4.267-4.267-8.533-12.8-8.533-21.333-12.8-59.733-64-102.4-128-102.4zM337.067 93.867c17.067 0 34.133-4.267 51.2-8.533 17.067-8.533 38.4-21.333 51.2-38.4s21.333-34.133 29.867-55.467c8.533-25.6 29.867-34.133 46.933-34.133s38.4 8.533 46.933 34.133c4.267 21.333 12.8 38.4 29.867 55.467 12.8 17.067 29.867 29.867 51.2 34.133 21.333 8.533 38.4 12.8 59.733 8.533 21.333 0 42.667-8.533 59.733-17.067 25.6-12.8 46.933-4.267 59.733 8.533s21.333 34.133 8.533 59.733c-12.8 17.067-17.067 38.4-17.067 59.733s0 42.667 8.533 59.733c8.533 17.067 21.333 38.4 38.4 51.2s34.133 21.333 55.467 29.867c25.6 8.533 34.133 29.867 34.133 46.933s-8.533 38.4-34.133 46.933c-21.333 4.267-38.4 12.8-55.467 29.867-17.067 12.8-29.867 29.867-34.133 51.2-8.533 17.067-12.8 38.4-8.533 59.733 0 21.333 8.533 42.667 17.067 59.733 12.8 21.333 4.267 46.933-8.533 59.733s-34.133 21.333-59.733 8.533c-17.067-12.8-38.4-17.067-59.733-17.067s-42.667 0-59.733 8.533c-17.067 8.533-38.4 21.333-51.2 38.4s-21.333 34.133-29.867 55.467c-17.067 12.8-38.4 21.333-55.467 21.333v0c-17.067 0-38.4-8.533-46.933-34.133v0c-8.533-42.667-38.4-76.8-76.8-93.867s-85.333-12.8-119.467 8.533c-25.6 17.067-46.933 8.533-59.733-4.267s-21.333-34.133-4.267-59.733c8.533-17.067 17.067-38.4 17.067-59.733s0-42.667-8.533-59.733c-8.533-21.333-21.333-38.4-38.4-51.2s-34.133-21.333-55.467-29.867c-25.6-4.267-34.133-25.6-34.133-42.667s8.533-38.4 34.133-46.933c21.333-4.267 38.4-12.8 55.467-29.867 17.067-12.8 29.867-29.867 34.133-51.2 8.533-21.333 12.8-38.4 8.533-59.733 0-21.333-8.533-42.667-17.067-59.733-12.8-21.333-4.267-46.933 8.533-59.733s34.133-21.333 59.733-8.533c17.067 12.8 38.4 17.067 59.733 17.067 0 8.533 4.267 8.533 8.533 8.533zM426.667 785.067v0 0zM512 213.333c-93.867 0-170.667 76.8-170.667 170.667s76.8 170.667 170.667 170.667c93.867 0 170.667-76.8 170.667-170.667s-76.8-170.667-170.667-170.667zM512 469.333c-46.933 0-85.333-38.4-85.333-85.333s38.4-85.333 85.333-85.333c46.933 0 85.333 38.4 85.333 85.333s-38.4 85.333-85.333 85.333z" />
<glyph unicode="&#xe90e;" glyph-name="m-help" d="M512 874.667c-273.067 0-490.667-217.6-490.667-490.667s217.6-490.667 490.667-490.667c273.067 0 490.667 217.6 490.667 490.667s-217.6 490.667-490.667 490.667zM512 789.333c98.133 0 183.467-34.133 256-89.6l-136.533-136.533c0 0 0 0 0 0-34.133 21.333-76.8 34.133-119.467 34.133s-85.333-12.8-119.467-34.133c0 0 0 0 0 0l-136.533 136.533c72.533 55.467 157.867 89.6 256 89.6zM640 384c0-72.533-55.467-128-128-128s-128 55.467-128 128 55.467 128 128 128 128-55.467 128-128zM106.667 384c0 98.133 34.133 183.467 89.6 256l136.533-136.533c0 0 0 0 0 0-21.333-34.133-34.133-76.8-34.133-119.467s12.8-85.333 34.133-119.467c0 0 0 0 0 0l-136.533-136.533c-55.467 72.533-89.6 157.867-89.6 256zM512-21.333c-98.133 0-183.467 34.133-256 89.6l136.533 136.533c0 0 0 0 0 0 34.133-21.333 76.8-34.133 119.467-34.133s85.333 12.8 119.467 34.133c0 0 0 0 0 0l136.533-136.533c-72.533-55.467-157.867-89.6-256-89.6zM827.733 128l-136.533 136.533c0 0 0 0 0 0 21.333 34.133 34.133 76.8 34.133 119.467s-12.8 85.333-34.133 119.467c0 0 0 0 0 0l136.533 136.533c55.467-68.267 89.6-157.867 89.6-256s-34.133-183.467-89.6-256z" />
<glyph unicode="&#xe90f;" glyph-name="m-tools" d="M840.533-85.333c-38.4 0-72.533 12.8-102.4 42.667l-260.267 260.267c-51.2-21.333-110.933-25.6-166.4-17.067-68.267 12.8-128 42.667-174.933 89.6s-76.8 106.667-89.6 174.933c-12.8 68.267 0 132.267 25.6 196.267 8.533 12.8 21.333 21.333 34.133 21.333 12.8 4.267 25.6 0 38.4-12.8l153.6-153.6h81.067v85.333l-157.867 149.333c-8.533 12.8-12.8 25.6-8.533 38.4 0 12.8 8.533 25.6 21.333 34.133 59.733 29.867 128 38.4 196.267 25.6s128-42.667 174.933-89.6c46.933-46.933 76.8-106.667 89.6-174.933 8.533-55.467 4.267-110.933-17.067-166.4l260.267-260.267c25.6-25.6 42.667-64 42.667-102.4s-12.8-72.533-42.667-102.4c-25.6-25.6-59.733-38.4-98.133-38.4zM486.4 311.467c12.8 0 21.333-4.267 29.867-12.8l281.6-281.6c21.333-21.333 59.733-21.333 81.067 0 12.8 12.8 17.067 25.6 17.067 38.4s-4.267 29.867-17.067 38.4l-281.6 285.867c-12.8 12.8-17.067 34.133-8.533 46.933 21.333 42.667 29.867 93.867 21.333 145.067-8.533 46.933-29.867 93.867-68.267 128-34.133 34.133-81.067 59.733-128 68.267-25.6 0-55.467 0-81.067-4.267l115.2-115.2c8.533-8.533 12.8-17.067 12.8-29.867v-140.8c0-25.6-17.067-42.667-42.667-42.667h-140.8c-12.8 0-21.333 4.267-29.867 12.8l-115.2 115.2c-4.267-25.6-4.267-55.467 0-81.067 8.533-46.933 29.867-93.867 68.267-128 34.133-34.133 81.067-59.733 128-68.267s98.133 0 145.067 21.333c0 0 8.533 4.267 12.8 4.267z" />
<glyph unicode="&#xe910;" glyph-name="m-portfolio" d="M396.498 755.503c8.001 8.001 18.854 12.497 30.169 12.497h170.667c11.315 0 22.17-4.495 30.17-12.497 8.004-8.002 12.497-18.854 12.497-30.17v-42.667h-255.999v42.667c0 11.316 4.495 22.168 12.497 30.17zM298.668 682.667h-151.703c-81.445 0-146.963-66.405-146.963-147.692v-235.313c-0.015-0.657-0.015-1.314 0-1.971v-235.332c0-81.284 65.518-147.691 146.963-147.691h730.075c81.446 0 146.961 66.406 146.961 147.691v235.332c0.017 0.657 0.017 1.314 0 1.971v235.313c0 81.287-65.515 147.692-146.961 147.692h-151.706v42.667c0 33.948-13.483 66.505-37.491 90.51-24.004 24.005-56.559 37.49-90.509 37.49h-170.667c-33.946 0-66.504-13.486-90.508-37.49s-37.491-56.562-37.491-90.51v-42.667zM85.335 238.123c121.704-40.179 251.865-62.797 383.999-66.807v-43.315c0-23.565 19.102-42.667 42.667-42.667s42.667 19.102 42.667 42.667v43.315c132.134 4.011 262.298 26.628 384 66.807v-175.765c0-34.718-27.87-62.357-61.628-62.357h-730.075c-33.757 0-61.629 27.639-61.629 62.357v175.765zM469.333 256.691c-133.118 4.301-263.651 28.698-383.999 71.65v206.633c0 34.721 27.872 62.359 61.629 62.359h730.075c33.758 0 61.628-27.638 61.628-62.359v-206.633c-120.346-42.953-250.88-67.349-384-71.65v41.975c0 23.565-19.102 42.667-42.667 42.667s-42.667-19.102-42.667-42.667v-41.975z" />
<glyph unicode="&#xe911;" glyph-name="m-adviser" d="M696.836 893.578c-13.056 4.597-27.529 2.575-38.827-5.423-11.294-7.999-18.010-20.98-18.010-34.821v-244.364c0-25.718 10.214-50.383 28.403-68.568 18.185-18.185 42.85-28.402 68.565-28.402h244.365c13.841 0 26.825 6.714 34.82 18.011 8 11.296 10.022 25.771 5.423 38.826-26.398 74.969-69.274 143.062-125.474 199.264-56.205 56.201-124.297 99.080-199.266 125.477zM725.333 608.97v179.549c40.636-21.025 77.905-48.234 110.426-80.758 32.525-32.525 59.738-69.794 80.759-110.428h-179.55c-3.085 0-6.046 1.226-8.226 3.408-2.185 2.182-3.409 5.142-3.409 8.228zM446.882 891.647c-11.477 3.286-23.494 4.262-35.351 2.871-1.568-0.184-3.123-0.455-4.661-0.811-88.855-20.592-177.798-63.791-245.644-128.239-67.016-63.661-115.775-144.087-141.218-232.938s-26.642-182.889-3.474-272.361c23.168-89.472 69.861-171.115 135.231-236.463s147.039-112.021 236.534-135.177c89.495-23.159 183.558-21.961 272.433 3.469 88.875 25.434 169.327 74.172 233.011 141.167 64.444 67.797 107.878 156.847 128.486 245.717 0.734 3.162 1.105 6.396 1.105 9.638 0 25.327-10.065 49.617-27.977 67.52s-42.202 27.959-67.524 27.959h-359.245c-12.826 0-23.083 4.433-38.144 19.486-11.81 11.81-18.445 27.823-18.445 44.514v361.892c0 1.487-0.077 2.973-0.235 4.451-1.246 11.875-4.834 23.385-10.564 33.861s-13.483 19.71-22.805 27.167c-9.323 7.457-20.036 12.989-31.514 16.275zM219.997 703.599c54.313 51.594 127.456 88.146 202.67 106.16 0.245-0.031 0.487-0.081 0.726-0.149 0.623-0.178 1.203-0.478 1.707-0.881s0.922-0.902 1.231-1.466c0.134-0.245 0.246-0.5 0.336-0.763v-358.499c0-39.334 15.633-77.056 43.447-104.862 24.572-24.563 55.253-44.471 98.475-44.471h359.245c2.701 0 5.291-1.071 7.194-2.978 1.165-1.161 2.014-2.573 2.5-4.109-18.278-74.057-54.716-146.057-105.634-199.625-53.193-55.957-120.397-96.67-194.637-117.914-74.244-21.248-152.819-22.246-227.58-2.901s-142.979 58.334-197.582 112.917c-54.603 54.583-93.601 122.778-112.952 197.504s-18.348 153.267 2.902 227.476c21.25 74.209 61.975 141.386 117.953 194.561z" />
<glyph unicode="&#xe912;" glyph-name="m-notification" d="M464.363 795.382c11.494 9.058 28.834 15.284 48.461 15.284 19.622 0 36.966-6.226 48.461-15.284 11.14-8.779 14.618-18.218 14.618-25.425v-28.023l25.719-11.132c74.061-32.058 123.721-123.981 123.721-202.272v-117.325c0-10.573 3.925-20.77 11.012-28.612l127.138-140.646c24.798-27.435 5.333-71.279-31.654-71.279h-639.665c-36.983 0-56.452 43.844-31.651 71.279l127.136 140.646c7.090 7.842 11.015 18.039 11.015 28.612v117.325c0 78.62 35.6 170.166 122.851 202.025l28.032 10.236v29.842c0 6.58 3.093 15.521 14.805 24.75zM512.823 896c-36.54 0-73.062-11.356-101.28-33.596-20.201-15.92-35.881-37.019-43.051-61.686-116.494-55.838-155.152-181.485-155.152-272.189v-100.902l-116.122-128.461c-74.402-82.304-15.996-213.833 94.955-213.833h639.665c110.955 0 169.357 131.529 94.959 213.833l-116.122 128.461v100.902c0 98.11-55.488 215.241-153.143 269.706-6.758 25.365-22.379 47.578-43.43 64.169-28.22 22.239-64.738 33.596-101.278 33.596zM511.983-42.667c-23.561 0-42.667 19.102-42.667 42.667h-85.332c0-70.694 57.308-128 127.998-128 70.694 0 128 57.306 128 128h-85.333c0-23.565-19.102-42.667-42.667-42.667z" />
<glyph unicode="&#xe913;" glyph-name="m-portfolio-management" d="M610.133-85.333h-196.267c-59.733 0-93.867 0-128 12.8-29.867 8.533-55.467 25.6-76.8 46.933-25.6 21.333-42.667 51.2-72.533 106.667l-85.333 153.6c-29.867 51.2-42.667 76.8-51.2 110.933-4.267 29.867-4.267 55.467 0 85.333 8.533 29.867 21.333 59.733 51.2 110.933l85.333 153.6c34.133 46.933 46.933 76.8 72.533 102.4 21.333 21.333 46.933 34.133 76.8 46.933 34.133 8.533 68.267 8.533 128 8.533h192c59.733 0 93.867 0 128-12.8 29.867-8.533 55.467-25.6 76.8-46.933 25.6-21.333 42.667-51.2 72.533-106.667l85.333-153.6c29.867-51.2 42.667-76.8 51.2-110.933 4.267-29.867 4.267-55.467 0-85.333-8.533-34.133-21.333-59.733-51.2-110.933l-85.333-153.6c-29.867-55.467-46.933-81.067-72.533-106.667-21.333-21.333-46.933-34.133-76.8-46.933-29.867-4.267-64-4.267-123.733-4.267zM413.867 768c-51.2 0-81.067 0-98.133-8.533-17.067-4.267-34.133-12.8-46.933-25.6-17.067-12.8-29.867-38.4-55.467-85.333l-85.333-153.6c-25.6-42.667-38.4-68.267-42.667-85.333s-4.267-34.133 0-51.2c4.267-21.333 17.067-42.667 42.667-85.333l85.333-153.6c25.6-46.933 38.4-72.533 55.467-85.333 12.8-12.8 29.867-21.333 46.933-25.6 17.067-8.533 46.933-8.533 98.133-8.533h192c55.467 0 81.067 0 102.4 8.533 17.067 4.267 34.133 17.067 46.933 25.6 17.067 12.8 29.867 38.4 55.467 85.333l85.333 153.6c25.6 42.667 38.4 68.267 42.667 85.333s4.267 34.133 0 51.2c-4.267 17.067-17.067 42.667-42.667 85.333l-85.333 153.6c-25.6 46.933-38.4 72.533-55.467 85.333-12.8 12.8-29.867 21.333-46.933 25.6-17.067 8.533-46.933 8.533-98.133 8.533h-196.267zM507.733 213.333c-93.867 0-170.667 76.8-170.667 170.667s76.8 170.667 170.667 170.667 170.667-76.8 170.667-170.667c0-93.867-76.8-170.667-170.667-170.667zM507.733 469.333c-46.933 0-85.333-38.4-85.333-85.333s38.4-85.333 85.333-85.333c46.933 0 85.333 38.4 85.333 85.333s-38.4 85.333-85.333 85.333z" />
<glyph unicode="&#xe914;" glyph-name="m-profile" d="M221.867-42.667l-42.667 34.133c-115.2 102.4-179.2 243.2-179.2 392.533 0 281.6 230.4 512 512 512s512-230.4 512-512c0-149.333-64-290.133-179.2-388.267l-42.667-34.133-25.6 46.933c-51.2 98.133-153.6 162.133-264.533 162.133s-213.333-64-264.533-162.133l-25.6-51.2zM512 256c128 0 243.2-59.733 311.467-162.133 72.533 81.067 115.2 183.467 115.2 290.133 0 234.667-192 426.667-426.667 426.667s-426.667-192-426.667-426.667c0-106.667 42.667-209.067 115.2-290.133 68.267 102.4 183.467 162.133 311.467 162.133zM512 298.667c-93.867 0-170.667 76.8-170.667 170.667s76.8 170.667 170.667 170.667c93.867 0 170.667-76.8 170.667-170.667s-76.8-170.667-170.667-170.667zM512 554.667c-46.933 0-85.333-38.4-85.333-85.333s38.4-85.333 85.333-85.333c46.933 0 85.333 38.4 85.333 85.333s-38.4 85.333-85.333 85.333zM512-128c-119.467 0-238.933 42.667-332.8 123.733l55.467 64c76.8-68.267 174.933-102.4 277.333-102.4s200.533 34.133 277.333 102.4l55.467-64c-93.867-81.067-213.333-123.733-332.8-123.733z" />
<glyph unicode="&#xe915;" glyph-name="m-logout" d="M341.333 810.667c-117.821 0-213.333-95.513-213.333-213.333v-426.667c0-117.82 95.513-213.333 213.333-213.333h368.282c79.373 0 143.718 64.346 143.718 143.718h-85.333c0-32.243-26.142-58.385-58.385-58.385h-368.282c-70.692 0-128 57.306-128 128v426.667c0 70.692 57.308 128 128 128h388.493c21.082 0 38.174-17.092 38.174-38.176h85.333c0 68.212-55.296 123.509-123.507 123.509h-388.493zM755.503 542.17c-16.661 16.662-43.678 16.662-60.339 0s-16.661-43.677 0-60.34l55.164-55.163h-259.661c-23.565 0-42.667-19.102-42.667-42.667s19.102-42.667 42.667-42.667h259.661l-55.164-55.164c-16.661-16.661-16.661-43.678 0-60.339s43.678-16.661 60.339 0l128 128c16.661 16.661 16.661 43.678 0 60.339l-128 128z" />
<glyph unicode="&#xe916;" glyph-name="edit" d="M320 435.2v-179.2c0-38.4 25.6-64 64-64h179.2c19.2 0 32 6.4 44.8 19.2l371.2 371.2c25.6 25.6 25.6 64 0 89.6l-179.2 179.2c-25.6 25.6-64 25.6-89.6 0l-371.2-371.2c-12.8-12.8-19.2-25.6-19.2-44.8zM448 409.6l307.2 307.2 89.6-89.6-307.2-307.2h-89.6v89.6zM960 345.6c-38.4 0-64-25.6-64-64v-204.8c0-19.2-6.4-38.4-19.2-51.2s-32-19.2-51.2-19.2h-620.8c-19.2 0-38.4 6.4-51.2 19.2-19.2 12.8-25.6 25.6-25.6 51.2v614.4c0 19.2 6.4 38.4 19.2 51.2s32 25.6 57.6 25.6h204.8c38.4 0 64 25.6 64 64s-25.6 64-64 64h-204.8c-57.6 0-108.8-19.2-147.2-57.6s-57.6-89.6-57.6-147.2v-620.8c0-51.2 19.2-102.4 57.6-140.8s89.6-57.6 147.2-57.6h620.8c51.2 0 102.4 19.2 140.8 57.6s57.6 89.6 57.6 140.8v211.2c0 32-25.6 64-64 64z" />
<glyph unicode="&#xe917;" glyph-name="delete" d="M384 448c-38.4 0-64-25.6-64-64v-192c0-38.4 25.6-64 64-64s64 25.6 64 64v192c0 38.4-25.6 64-64 64zM960 704h-192v76.8c0 38.4-19.2 64-44.8 83.2-25.6 25.6-51.2 32-83.2 32h-256c-32 0-57.6-6.4-83.2-25.6s-44.8-51.2-44.8-89.6v-76.8h-192c-38.4 0-64-25.6-64-64s25.6-64 64-64h6.4l51.2-544c0-44.8 19.2-83.2 51.2-115.2 32-25.6 76.8-44.8 121.6-44.8h441.6c44.8 0 89.6 19.2 121.6 44.8 32 32 51.2 70.4 51.2 115.2l44.8 544h6.4c38.4 0 64 25.6 64 64s-25.6 64-64 64zM384 768h256v-64h-256v64zM774.4 44.8c0-6.4 0-6.4 0 0 0-12.8-6.4-19.2-12.8-32-6.4-6.4-19.2-12.8-32-12.8h-435.2c-12.8 0-25.6 6.4-32 12.8s-12.8 19.2-12.8 25.6c0 0 0 6.4 0 6.4l-51.2 531.2h627.2l-51.2-531.2zM640 448c-38.4 0-64-25.6-64-64v-192c0-38.4 25.6-64 64-64s64 25.6 64 64v192c0 38.4-25.6 64-64 64z" />
<glyph unicode="&#xe918;" glyph-name="remove" d="M693.019 21.961c49.987-49.987 131.032-49.987 181.019 0 49.988 49.988 49.988 131.032 0 181.020l-181.019 181.019 181.019 181.019c49.988 49.988 49.988 131.032 0 181.020-49.987 49.987-131.032 49.987-181.019 0l-181.020-181.020-181.019 181.020c-49.987 49.987-131.032 49.987-181.019 0-49.988-49.988-49.988-131.032 0-181.020l181.019-181.019-181.019-181.019c-49.988-49.988-49.988-131.032 0-181.020 49.987-49.987 131.032-49.987 181.019 0l181.019 181.020 181.020-181.020z" />
<glyph unicode="&#xe919;" glyph-name="cancel" d="M768 236.8l-153.6 153.6 140.8 140.8c25.6 25.6 25.6 70.4 0 96s-70.4 25.6-96 0l-140.8-140.8-153.6 147.2c-25.6 25.6-70.4 25.6-96 0s-25.6-70.4 0-96l147.2-147.2-160-160c-25.6-25.6-25.6-70.4 0-96s70.4-25.6 96 0l160 160 153.6-153.6c25.6-25.6 70.4-25.6 96 0 32 25.6 32 70.4 6.4 96z" />
<glyph unicode="&#xe91a;" glyph-name="check" d="M428.8 108.8c-19.2 0-32 6.4-44.8 19.2l-217.6 211.2c-25.6 25.6-25.6 64 0 89.6s64 25.6 89.6 0l166.4-166.4 384 384c25.6 25.6 64 25.6 89.6 0s25.6-64 0-89.6l-422.4-428.8c-12.8-12.8-32-19.2-44.8-19.2z" />
<glyph unicode="&#xe91b;" glyph-name="tag" d="M188.454 609.241c-26.536 2.412-48.767-19.819-46.354-46.354l18.102-199.123c0.904-9.937 5.264-19.247 12.322-26.304l219.513-219.516c16.662-16.661 43.675-16.661 60.341 0l181.018 181.022c16.661 16.661 16.661 43.678 0 60.339l-219.513 219.513c-7.057 7.058-16.367 11.418-26.307 12.321l-199.121 18.102zM57.117 555.161c-7.237 79.607 59.455 146.3 139.063 139.063l199.121-18.102c29.821-2.711 57.746-15.791 78.921-36.965l219.511-219.513c49.988-49.988 49.988-131.034 0-181.018l-181.018-181.022c-49.988-49.988-131.033-49.988-181.020 0l-219.513 219.516c-21.174 21.171-34.254 49.097-36.965 78.921l-18.102 199.12zM361.869 389.47c33.324 33.327 33.324 87.357 0 120.681s-87.355 33.325-120.68 0c-33.325-33.325-33.325-87.354 0-120.681 33.325-33.323 87.355-33.323 120.68 0zM693.734 661.003c-16.661 16.662-43.678 16.662-60.339 0s-16.661-43.677 0-60.34l241.361-241.358c16.661-16.661 16.661-43.678 0-60.339l-241.361-241.361c-16.661-16.661-16.661-43.678 0-60.339s43.678-16.661 60.339 0l241.361 241.361c49.988 49.984 49.988 131.029 0 181.018l-241.361 241.359z" />
<glyph unicode="&#xe91c;" glyph-name="plus" d="M576 640c0 35.346-28.654 64-64 64s-64-28.654-64-64v-192h-192c-35.346 0-64-28.654-64-64s28.654-64 64-64h192v-192c0-35.347 28.654-64 64-64s64 28.653 64 64v192h192c35.347 0 64 28.654 64 64s-28.653 64-64 64h-192v192z" />
<glyph unicode="&#xe91d;" glyph-name="stock" d="M896-64h-768c-38.4 0-64 25.6-64 64s25.6 64 64 64h768c38.4 0 64-25.6 64-64s-25.6-64-64-64zM896 403.2h-768c-38.4 0-64 25.6-64 64s25.6 64 64 64h768c38.4 0 64-25.6 64-64s-25.6-64-64-64zM211.2 576c-25.6 0-44.8 12.8-57.6 38.4-12.8 32 0 70.4 32 83.2l300.8 128c19.2 6.4 32 6.4 51.2 0l300.8-128c32-12.8 44.8-51.2 32-83.2s-51.2-44.8-83.2-32l-275.2 115.2-275.2-115.2c-6.4-6.4-12.8-6.4-25.6-6.4zM172.8-64c-38.4 0-64 25.6-64 64v467.2c0 38.4 25.6 64 64 64s64-25.6 64-64v-467.2c0-38.4-32-64-64-64zM851.2-64c-38.4 0-64 25.6-64 64v467.2c0 38.4 25.6 64 64 64s64-25.6 64-64v-467.2c0-38.4-25.6-64-64-64zM403.2 108.8c-38.4 0-64 25.6-64 64v128c0 38.4 25.6 64 64 64s64-25.6 64-64v-128c0-38.4-25.6-64-64-64zM620.8 108.8c-38.4 0-64 25.6-64 64v128c0 38.4 25.6 64 64 64s64-25.6 64-64v-128c0-38.4-32-64-64-64z" />
<glyph unicode="&#xe91e;" glyph-name="add" d="M768 42.667h-512c-46.933 0-85.333 38.4-85.333 85.333v512c0 46.933 38.4 85.333 85.333 85.333h512c46.933 0 85.333-38.4 85.333-85.333v-512c0-46.933-38.4-85.333-85.333-85.333zM256 640v0-512h512v512h-512zM597.333 341.333h-170.667c-25.6 0-42.667 17.067-42.667 42.667s17.067 42.667 42.667 42.667h170.667c25.6 0 42.667-17.067 42.667-42.667s-17.067-42.667-42.667-42.667zM512 256c-25.6 0-42.667 17.067-42.667 42.667v170.667c0 25.6 17.067 42.667 42.667 42.667s42.667-17.067 42.667-42.667v-170.667c0-25.6-17.067-42.667-42.667-42.667z" />
<glyph unicode="&#xe91f;" glyph-name="edit_xs" d="M646.209 791.928c49.987 49.987 131.032 49.987 181.019 0l90.51-90.51c49.987-49.987 49.987-131.032 0-181.019l-90.51-90.51-271.529 271.529 90.51 90.51zM465.189 610.908l-295.686-295.686c-18.892-18.892-31.398-43.22-35.767-69.577l-17.985-108.495c-14.348-86.552 60.657-161.558 147.21-147.209l108.494 17.985c26.356 4.369 50.685 16.876 69.577 35.767l295.688 295.686-271.53 271.529z" />
<glyph unicode="&#xf153;" glyph-name="eur" horiz-adv-x="614" d="M588.2 74.458l5.827-24.481c2.462-10.341-3.929-20.723-14.282-23.139-18.376-4.289-48.911-9.771-84.93-9.771-168.599 0-296.775 101.201-331.285 256h-41.931c-10.603 0-19.201 8.596-19.201 19.201v12.8c0 10.603 8.596 19.201 19.201 19.201h34.042c-1.972 22.677-2.959 73.808 0.986 102.4h-35.028c-10.603 0-19.201 8.597-19.201 19.201v12.8c0 10.603 8.596 19.201 19.201 19.201h43.904c38.451 146.911 166.629 256 329.312 256 30.093 0 56.26-3.924 73.045-7.253 10.773-2.136 17.521-12.904 14.819-23.549l-6.287-24.759c-2.528-9.95-12.43-16.168-22.479-14.080-14.559 3.028-36.521 6.537-60.083 6.537-127.187 0-221.843-80.497-255.367-192.898h277.472c12.061 0 21.134-10.987 18.854-22.829l-2.466-12.8c-1.655-8.596-10.101-15.571-18.852-15.571h-285.853c-3.944-32.537-3.944-68.878-0.984-102.4h261.695c12.061 0 21.134-10.987 18.854-22.829l-2.466-12.8c-1.655-8.596-10.101-15.571-18.854-15.571v0h-248.386c30.568-118.316 128.178-192.898 257.34-192.898 29.021 0 54.102 4.599 70.123 8.486 10.359 2.514 20.792-3.829 23.261-14.199z" />
<glyph unicode="&#xf155;" glyph-name="usd" horiz-adv-x="512" d="M409.441 370.187c60.319-19.041 102.559-79.841 102.559-147.841 0-84.959-63.84-154.080-142.401-154.080h-36.8v-89.6c0-7.041-5.759-12.8-12.8-12.8h-25.599c-7.041 0-12.8 5.759-12.8 12.8v89.6h-29.92c-48.959 0-96.8 20-133.28 55.2-5.28 4.959-4.799 13.6 0.48 18.401l18.88 17.28c5.12 4.641 12.641 4.161 17.6-0.48 26.882-25.441 60.641-39.2 96.161-39.2h118.080c50.24 0 91.2 46.241 91.2 102.88 0 45.92-27.359 86.721-66.72 99.041l-189.119 59.359c-60.319 18.88-102.559 79.68-102.559 147.841 0 84.959 63.84 154.080 142.401 154.080h36.8v89.6c0 7.041 5.759 12.8 12.8 12.8h25.599c7.041 0 12.8-5.759 12.8-12.8v-89.441h30.241c48.959 0 96.8-20 133.28-55.2 5.12-5.118 4.799-13.6-0.64-18.558l-19.039-17.28c-5.12-4.641-12.641-4.161-17.6 0.48-26.881 25.441-60.641 39.2-96.161 39.2h-118.080c-50.24 0-91.2-46.080-91.2-102.88 0-45.92 27.52-86.721 66.72-99.041z" />
<glyph unicode="&#xf157;" glyph-name="yen" horiz-adv-x="638" d="M595.171 733.867c14.815 0 24.047-16.067 16.587-28.867l-160.657-278.332h92.898c10.603 0 19.201-8.596 19.201-19.201v-12.8c0-10.603-8.596-19.201-19.201-19.201h-121.083l-28.32-51.49v-50.91h149.403c10.603 0 19.201-8.597 19.201-19.201v-12.8c0-10.603-8.596-19.201-19.201-19.201h-149.404v-185.6c0-10.603-8.596-19.201-19.201-19.201h-32.973c-10.603 0-19.201 8.597-19.201 19.201v185.6h-150.422c-10.603 0-19.201 8.596-19.201 19.201v12.8c0 10.603 8.596 19.201 19.201 19.201h150.423v50.91l-29.716 51.49h-120.708c-10.603 0-19.201 8.596-19.201 19.201v12.8c0 10.603 8.596 19.201 19.201 19.201h91.158l-158.959 278.403c-7.385 12.8 1.851 28.797 16.629 28.797h36.166c6.149 0 13.615-4.332 16.667-9.667l138.567-245.238c21.414-40.786 43.845-90.749 43.845-90.749h2.039s22.431 49.962 43.842 90.749l139.74 245.291c3.058 5.309 10.511 9.616 16.638 9.616h36.042z" />
<glyph unicode="&#xf158;" glyph-name="rub" horiz-adv-x="768" d="M495.54 324.573h-169.185v-93.106h268.846c10.603 0 19.201-8.597 19.201-19.201v-22.4c0-10.603-8.597-19.201-19.201-19.201h-268.846v-134.4c0-10.603-8.596-19.201-19.201-19.201h-31.954c-10.603 0-19.201 8.597-19.201 19.201v134.4h-134.4c-10.603 0-19.201 8.597-19.201 19.201v22.4c0 10.603 8.597 19.201 19.201 19.201h134.4v92.8h-134.4c-10.603 0-19.201 8.596-19.201 19.201v25.599c0 10.603 8.597 19.201 19.201 19.201h134.4v326.4c0 10.603 8.597 19.201 19.201 19.201h220.339c128.475 0 221.261-78.6 221.261-203.21 0-125.569-92.787-206.085-221.261-206.085zM326.354 670.517v-281.88h166.41c95.847 0 158.043 53.026 158.043 142.336 0 88.376-62.198 139.544-157.024 139.544h-167.431z" />
</font>
</defs>
</svg>
