<svg width="24" height="24" viewBox="0 0 24 24" fill="none" xmlns="http://www.w3.org/2000/svg">
	<path fill-rule="evenodd" clip-rule="evenodd" d="M8 2C5.23858 2 3 4.23858 3 7V17C3 19.7614 5.23858 22 8 22H16.6316C18.4919 22 20 20.4919 20 18.6316H18C18 19.3873 17.3873 20 16.6316 20H8C6.34315 20 5 18.6569 5 17V7C5 5.34315 6.34315 4 8 4H17.1053C17.5994 4 18 4.40059 18 4.89474H20C20 3.29602 18.704 2 17.1053 2H8ZM17.7071 8.29289C17.3166 7.90237 16.6834 7.90237 16.2929 8.29289C15.9024 8.68342 15.9024 9.31658 16.2929 9.70711L17.5858 11H11.5C10.9477 11 10.5 11.4477 10.5 12C10.5 12.5523 10.9477 13 11.5 13H17.5858L16.2929 14.2929C15.9024 14.6834 15.9024 15.3166 16.2929 15.7071C16.6834 16.0976 17.3166 16.0976 17.7071 15.7071L20.7071 12.7071C21.0976 12.3166 21.0976 11.6834 20.7071 11.2929L17.7071 8.29289Z" fill="#96A5BE"/>
</svg>