<svg width="72" height="72" viewBox="0 0 72 72" fill="none" xmlns="http://www.w3.org/2000/svg">
    <circle cx="36" cy="36" r="36" fill="#F7F9FB"/>
    <path d="M35.8242 52.25C45.2131 52.25 52.8242 44.6388 52.8242 35.25C52.8242 25.8612 45.2131 18.25 35.8242 18.25C26.4354 18.25 18.8242 25.8612 18.8242 35.25C18.8242 44.6388 26.4354 52.25 35.8242 52.25Z" fill="#FFE600"/>
    <path d="M32.3478 39.268C32.2028 39.152 32.0898 38.994 32.0358 38.804C31.9018 38.344 32.1658 37.886 32.6258 37.783C37.1538 36.762 40.2028 39.146 40.3318 39.248C40.7158 39.554 40.7908 40.093 40.5048 40.453C40.2188 40.811 39.6768 40.854 39.2938 40.55C39.1838 40.466 36.7708 38.627 33.1118 39.452C32.8378 39.513 32.5578 39.436 32.3478 39.268Z" fill="#040427"/>
    <path d="M30.9434 32.062C32.117 32.062 33.0684 30.8729 33.0684 29.406C33.0684 27.9391 32.117 26.75 30.9434 26.75C29.7698 26.75 28.8184 27.9391 28.8184 29.406C28.8184 30.8729 29.7698 32.062 30.9434 32.062Z" fill="#040427"/>
    <path d="M42.1992 33.124C43.3728 33.124 44.3242 31.9349 44.3242 30.468C44.3242 29.0011 43.3728 27.812 42.1992 27.812C41.0256 27.812 40.0742 29.0011 40.0742 30.468C40.0742 31.9349 41.0256 33.124 42.1992 33.124Z" fill="#040427"/>
    <path d="M35.0997 53.3811C35.0997 53.3811 36.3647 52.9701 36.5287 52.0291C36.7017 51.0571 35.9047 50.8621 35.9047 50.8621C35.9047 50.8621 36.9457 50.6541 37.0767 49.4861C37.1997 48.3851 36.2157 48.1231 36.2157 48.1231C36.2157 48.1231 37.1857 47.7231 37.2317 46.5841C37.2697 45.6251 36.2367 45.1561 36.2367 45.1561C36.2367 45.1561 41.2747 43.9351 41.7927 43.8151C42.3087 43.6951 43.1127 43.2001 42.8617 42.1211C42.6127 41.0411 41.6577 41.0031 41.1647 41.1181C40.6707 41.2331 34.4207 42.6841 32.2647 43.1861L30.8257 43.5201C30.2857 43.6471 30.0407 43.4101 30.4217 43.0081C30.9297 42.4721 31.2547 41.8791 31.3677 40.8951C31.4867 39.8601 31.1357 38.5821 30.9347 38.0861C30.5607 37.1651 29.9297 36.4371 29.2007 36.1871C28.0637 35.7971 27.2557 36.5081 27.6587 37.7481C28.2627 39.6021 27.8667 41.1231 26.8257 42.0411C24.3767 44.1981 23.2377 45.7361 23.9957 49.0141C24.8237 52.5891 28.3727 54.8901 31.9477 54.0621L35.0997 53.3811Z" fill="#D1A300"/>
    <path d="M27.12 24.5831C26.956 24.4951 26.817 24.3591 26.729 24.1841C26.513 23.7561 26.689 23.2571 27.122 23.0721C31.388 21.2411 34.821 23.0291 34.965 23.1061C35.398 23.3371 35.573 23.8531 35.356 24.2601C35.14 24.6651 34.616 24.8061 34.183 24.5781C34.06 24.5151 31.351 23.1461 27.905 24.6251C27.648 24.7341 27.358 24.7101 27.12 24.5831ZM39.255 28.3331C39.099 28.2351 38.969 28.0901 38.893 27.9091C38.706 27.4671 38.916 26.9821 39.361 26.8251C43.742 25.2891 47.046 27.3051 47.184 27.3921C47.599 27.6521 47.739 28.1791 47.496 28.5701C47.254 28.9601 46.72 29.0651 46.305 28.8081C46.185 28.7361 43.578 27.1871 40.038 28.4291C39.772 28.5201 39.485 28.4751 39.255 28.3331Z" fill="#040427"/>
</svg>