<svg width="39" height="46" viewBox="0 0 39 46" fill="none" xmlns="http://www.w3.org/2000/svg">
<path d="M8.62001 27.8482C12.9519 34.0348 21.4788 35.5383 27.6654 31.2064C33.852 26.8745 35.3556 18.3476 31.0237 12.161C26.6918 5.97441 18.1648 4.47088 11.9782 8.80278C5.79164 13.1347 4.28811 21.6616 8.62001 27.8482ZM26.8289 15.0982C29.5386 18.9681 28.5981 24.3019 24.7282 27.0116C20.8583 29.7214 15.5245 28.7809 12.8148 24.911C10.1051 21.0411 11.0456 15.7073 14.9155 12.9976C18.7853 10.2878 24.1192 11.2283 26.8289 15.0982Z" fill="#D6D9E0"/>
<rect width="5.94969" height="18.699" rx="2.97485" transform="matrix(-0.819152 0.573576 0.573576 0.819152 28.2745 26.6868)" fill="#D6D9E0"/>
<circle cx="8.18788" cy="39.9809" r="3.19081" fill="#FF3E70"/>
</svg>
