<svg width="72" height="72" viewBox="0 0 72 72" fill="none" xmlns="http://www.w3.org/2000/svg">
    <path d="M34.1406 27.2227H37.9296C38.0436 27.0317 38.0766 26.7837 37.9876 26.5497L34.1416 21.8447V27.2227H34.1406Z" fill="#040427"/>
    <path d="M30.9673 40.1399C30.9103 39.7909 30.8433 39.4609 30.7613 39.1669C30.1413 36.9439 29.6213 36.0029 29.8433 33.6729C30.1333 32.0889 30.1163 28.9099 34.3263 29.4049C35.4383 29.5359 37.1693 30.3319 38.1603 30.3149C38.7273 30.3049 39.1403 29.1579 39.1773 28.7759C39.2283 28.2499 38.3123 27.3559 37.9293 27.2219C37.5463 27.0879 35.9173 26.5909 35.2483 26.3979C34.2093 26.0969 34.2633 24.6929 34.1973 24.1929C34.1663 23.9579 34.2813 23.7259 34.4913 23.6019C34.7013 23.4779 34.8663 23.5939 35.0703 23.7269L35.9553 24.3749C36.4523 24.8009 35.0813 25.6149 35.4523 25.7509C35.4523 25.7509 37.2073 26.4099 37.9593 26.5469C38.3713 26.6219 39.7933 25.0179 39.8763 24.0769C39.9413 23.3369 36.4783 19.9939 34.0093 18.6959C33.1413 18.2399 32.6323 17.9749 32.0603 18.0019C31.3773 18.0339 31.1623 18.3039 30.3123 19.0319C26.4653 22.3229 22.7313 29.4399 22.1833 31.0149C19.9373 37.4759 19.5863 40.8799 19.5063 42.8029C19.4573 43.3929 19.4303 43.9799 19.4303 44.5609C19.4953 44.5609 18.4303 49.5609 19.4303 50.5609C20.4303 51.5609 24.7563 51.5609 24.7563 51.5609C34.7563 55.5499 53.3263 54.5089 53.3263 44.3279C53.3263 32.1559 34.5133 33.7709 30.9673 40.1399Z" fill="#FFE600"/>
    <path d="M38.793 49.9407C35.633 49.6087 33.165 48.0597 33.026 47.9707C32.561 47.6737 32.425 47.0577 32.721 46.5917C33.017 46.1257 33.634 45.9887 34.101 46.2837C34.141 46.3087 38.104 48.7757 41.947 47.7507C44.072 47.1847 45.814 45.6357 47.124 43.1497C47.382 42.6597 47.99 42.4737 48.475 42.7307C48.963 42.9877 49.151 43.5927 48.894 44.0817C47.309 47.0877 45.14 48.9747 42.447 49.6877C41.19 50.0197 39.945 50.0617 38.793 49.9407Z" fill="#040427"/>
    <path d="M29.8619 45.7735C28.7985 43.9218 29.9869 41.3731 31.0003 40L27.6797 43.0601C27.1784 43.5221 27.2762 44.3392 27.8723 44.6699L29.8619 45.7735Z" fill="#D1A300"/>
    <path d="M30.0003 26.5C29.8605 26.8309 30.2759 28.9694 32.4448 29.4609C31.9389 29.5529 31.0315 29.9492 30.5471 30.8828C29.8805 30.3828 29.2003 28.1 30.0003 26.5Z" fill="#D1A300"/>
    <path d="M31.7338 52.3956C31.7764 52.4163 31.8178 52.4366 31.858 52.4564C32.9766 52.8658 39.4893 53.1476 42.7535 53.2403C41.0153 53.737 35.6208 53.8423 33.0357 53.579C30.6067 53.4325 26.2744 52.1308 24.9199 51.6163C24.8119 51.5753 24.7001 51.5509 24.5847 51.5466C21.6122 51.4358 19.0449 51.6197 19.0449 49.29C19.4993 49.3932 22.2084 49.907 25.2078 50.3516C28.5372 50.8451 28.3423 51.5534 31.7338 52.3956Z" fill="#D1A300"/>
</svg>