<svg width="21" height="21" viewBox="0 0 21 21" fill="none" xmlns="http://www.w3.org/2000/svg">
<path d="M7.14559 11.5383C7.15247 11.561 7.16518 11.5814 7.18103 11.5973C7.20773 11.624 7.24504 11.6403 7.28445 11.6398L8.54607 11.6399C8.59737 11.6399 8.6447 11.6129 8.67094 11.5696C8.69752 11.5256 8.69915 11.4712 8.67537 11.4258C8.5224 11.1354 8.44137 10.8082 8.44126 10.4788C8.44125 9.35511 9.35509 8.44128 10.4787 8.44139L16.0137 8.44139C16.5571 8.44151 17.0685 8.6537 17.4537 9.03892C17.8389 9.42413 18.0511 9.93573 18.051 10.4787C18.0511 11.6023 17.1372 12.5161 16.0134 12.5162L14.435 12.5165C14.3819 12.5162 14.3328 12.545 14.3068 12.5913C14.072 13.0155 13.7701 13.3957 13.4094 13.7223C13.3643 13.7626 13.3491 13.8265 13.3709 13.883C13.3921 13.939 13.4466 13.9762 13.5069 13.9763L16.0132 13.9762C16.9463 13.9765 17.8242 13.6123 18.4855 12.951C19.1468 12.2897 19.5111 11.4116 19.5105 10.4788C19.5108 9.54632 19.1466 8.66816 18.4853 8.00686C17.824 7.34556 16.9458 6.98134 16.0133 6.98157L10.4781 6.9811C8.55003 6.98099 6.98096 8.55006 6.98073 10.4785C6.9812 10.8394 7.03646 11.196 7.14559 11.5383Z" fill="#B0B4C2"/>
<path d="M2.47202 12.9505C3.1332 13.6117 4.01113 13.9759 4.94373 13.9762L10.4787 13.9762C11.3156 13.976 12.1256 13.6749 12.7603 13.1276C12.761 13.1269 12.7619 13.126 12.7627 13.1251L12.8215 13.0722C13.1105 12.8107 13.3529 12.5063 13.5405 12.1667L13.5617 12.1291C13.8327 11.6243 13.9762 11.0536 13.976 10.479C13.9762 10.1178 13.9211 9.76163 13.8116 9.41897C13.7923 9.3587 13.7363 9.31777 13.6727 9.31789L12.4109 9.31754C12.3598 9.31731 12.3123 9.34447 12.2861 9.38843C12.2592 9.43192 12.2579 9.4866 12.2823 9.53195C12.4352 9.82226 12.5163 10.1498 12.5161 10.4794C12.5163 11.0223 12.3037 11.5336 11.9185 11.9188C11.5331 12.3042 11.022 12.5165 10.4788 12.5167L4.94373 12.5161C4.40031 12.516 3.88929 12.3039 3.50408 11.9187C3.50384 11.9184 3.50384 11.9184 3.50384 11.9184C3.11886 11.5335 2.90655 11.0222 2.90667 10.479C2.90644 9.35555 3.82027 8.44172 4.94408 8.4416L6.52294 8.4416C6.57634 8.44137 6.62484 8.41269 6.65073 8.36628C6.88519 7.94248 7.18727 7.56228 7.54812 7.23571C7.59301 7.19525 7.60816 7.13159 7.58671 7.07516C7.56479 7.01873 7.51058 6.98131 7.45018 6.98154L4.94362 6.98119C3.0151 6.98108 1.44615 8.55003 1.44626 10.4785C1.44661 11.4111 1.81072 12.2892 2.47202 12.9505Z" fill="#B0B4C2"/>
</svg>
