<?xml version="1.0" standalone="no"?>
<!DOCTYPE svg PUBLIC "-//W3C//DTD SVG 20010904//EN"
 "http://www.w3.org/TR/2001/REC-SVG-20010904/DTD/svg10.dtd">
<svg version="1.0" xmlns="http://www.w3.org/2000/svg"
 width="260.000000pt" height="260.000000pt" viewBox="0 0 260.000000 260.000000"
 preserveAspectRatio="xMidYMid meet">
<metadata>
Created by potrace 1.11, written by Peter Selinger 2001-2013
</metadata>
<g transform="translate(0.000000,260.000000) scale(0.100000,-0.100000)"
fill="#000000" stroke="none">
<path d="M2025 2051 c-48 -22 -69 -44 -90 -94 -21 -51 -19 -95 8 -147 64 -128
243 -132 312 -8 37 65 27 156 -23 212 -24 27 -91 56 -132 56 -19 0 -53 -9 -75
-19z"/>
<path d="M765 1645 c-16 -15 -25 -35 -25 -56 0 -27 16 -48 108 -141 l107 -109
-354 -349 -354 -349 6 -37 c8 -47 24 -63 70 -71 37 -6 38 -4 204 160 93 91
270 266 396 389 268 264 263 255 172 346 -31 31 -60 61 -66 69 -10 11 40 13
282 13 l294 0 -434 -434 -434 -434 6 -39 c12 -72 14 -73 324 -73 l275 0 86 82
c48 46 94 91 103 101 9 9 20 17 25 17 4 0 54 -45 109 -100 86 -85 107 -100
134 -100 21 0 41 9 56 25 l25 24 0 519 0 519 -25 27 -24 26 -521 0 -521 0 -24
-25z m955 -547 l0 -291 -64 61 c-50 49 -71 62 -95 62 -31 0 -29 2 -225 -184
l-59 -56 -131 0 -131 0 350 350 c192 193 351 350 352 350 2 0 3 -131 3 -292z"/>
</g>
</svg>
