<svg width="72" height="72" viewBox="0 0 72 72" fill="none" xmlns="http://www.w3.org/2000/svg">
    <path d="M23.8647 39.6138C23.7867 40.5358 24.1857 40.8118 24.8107 41.2498C25.4287 41.6828 29.1937 38.3828 30.4247 37.8808C31.6557 37.3788 43.2117 34.9318 42.7107 32.6978C42.2097 30.4638 38.7177 30.1338 36.0277 30.5898C33.3377 31.0458 28.1897 33.4118 26.6857 34.6888C25.1817 35.9648 23.8647 39.6138 23.8647 39.6138ZM32.4867 41.1108C32.4867 41.1108 28.9297 42.2658 28.9297 45.2658C28.9297 48.2658 29.7957 49.9578 30.2057 50.7788C30.6167 51.5988 31.8937 52.3948 33.6607 51.6298C35.7127 50.7408 33.1697 45.6258 39.6607 47.9738C42.6347 49.0488 45.7197 50.5018 48.7197 49.5018C51.5657 48.5528 52.6617 44.9728 52.6617 42.9728C52.6617 38.8788 49.6617 39.9728 48.6617 40.9728C47.6617 41.9728 39.6617 43.9728 38.6617 43.9728C37.6617 43.9728 32.4867 41.1108 32.4867 41.1108Z" fill="#D1A300"/>
    <path d="M36.9738 46.1607C36.9738 46.1607 36.8538 44.8447 35.5988 44.6917C34.5678 44.5667 32.9428 44.9107 32.0988 46.5977C31.2548 48.2857 29.7548 48.0037 29.8178 49.4097C29.8798 50.8157 30.3178 51.9097 31.2238 52.1907C32.1308 52.4727 33.4118 51.9727 33.5678 50.4727C33.7238 48.9727 33.9118 47.5977 34.8798 47.0037C35.8498 46.4107 36.9738 46.1607 36.9738 46.1607Z" fill="#F0DD2D"/>
    <path d="M35.6617 43.9727C35.6617 43.9727 34.6617 42.9727 32.6617 42.9727C30.6617 42.9727 25.9977 45.1057 27.4117 49.3477C28.4117 52.3477 31.2557 50.9417 31.6617 47.9727C32.0687 44.9997 35.6617 43.9727 35.6617 43.9727Z" fill="#D1A300"/>
    <path d="M34.6617 43.9727C34.6617 43.9727 33.6617 42.9727 31.6617 42.9727C29.6617 42.9727 26.7767 44.5027 26.6617 48.9727C26.5677 52.6287 30.6927 50.9727 30.6617 47.9727C30.6307 44.9727 34.6617 43.9727 34.6617 43.9727Z" fill="#F0DD2D"/>
    <path d="M22.6619 44.9728C22.6619 48.2698 23.1189 50.2588 25.0899 49.9198C28.3589 49.3578 27.1179 45.3058 29.9789 44.1658C32.0559 43.3388 35.0799 43.5358 37.9989 45.2688C39.9219 46.4108 38.6619 41.9728 36.6619 40.9728C34.6619 39.9728 28.6619 40.9728 27.6619 40.9728C26.6619 40.9728 22.6619 44.9728 22.6619 44.9728Z" fill="#D1A300"/>
    <path d="M22.5038 45.1466C20.9128 47.8116 21.8808 50.5666 24.6618 49.9726C27.3528 49.3986 26.0048 45.9026 28.6618 43.9726C30.1508 42.8906 33.3598 42.5276 35.3598 43.5276C37.3598 44.5276 37.6618 41.9726 35.6618 40.9726C33.6618 39.9726 27.1218 40.9476 26.1238 41.0096C24.2148 41.1286 22.5038 45.1466 22.5038 45.1466Z" fill="#F0DD2D"/>
    <path d="M27.0799 47.0868C26.4009 47.8648 25.2199 47.9458 24.4409 47.2668L24.2449 47.0958C23.4659 46.4168 23.3859 45.2368 24.0649 44.4578L46.5879 18.6408C47.2669 17.8628 48.4479 17.7818 49.2269 18.4608L49.4219 18.6318C50.2009 19.3108 50.2809 20.4918 49.6029 21.2698L27.0799 47.0868Z" fill="#3B6EC9"/>
    <path d="M28.1518 45.8586C25.7918 48.5636 19.8388 53.8676 19.0848 53.2106C18.3318 52.5536 22.7778 45.9356 25.1378 43.2296C27.4978 40.5236 26.7988 42.6876 27.6308 43.4146C28.4628 44.1406 30.5118 43.1546 28.1518 45.8586Z" fill="#3B6EC9"/>
    <path d="M24.3337 42.9988C24.3337 43.9988 26.7547 44.9138 27.7547 43.9138C28.7547 42.9138 31.0957 41.6858 34.1737 42.9728C41.3777 45.9828 38.6617 41.9728 35.6617 40.9728C32.6617 39.9728 27.6617 40.9728 26.6617 40.9728C25.6617 40.9728 24.3337 42.9988 24.3337 42.9988Z" fill="#D1A300"/>
    <path d="M23.8569 40.0157C23.4989 38.9027 26.0449 32.7367 27.1979 31.7817C28.6499 30.5797 34.2669 28.7188 36.2669 28.7188C38.2669 28.7188 52.6619 35.9727 52.6619 40.9727C52.6619 45.9727 50.6619 46.5977 47.7869 47.3787C45.4879 48.0037 40.6719 47.6208 38.5679 45.6597C36.7239 43.9417 35.4429 42.7537 33.6619 41.9727C30.3599 40.5247 28.1589 42.3967 27.1589 43.3967C25.1589 45.3967 21.3909 43.2377 24.5339 39.8167C26.7829 37.3678 28.7639 36.6047 30.6619 35.9727C36.6619 33.9727 40.6619 33.9727 38.6619 31.9727C37.9549 31.2657 37.5699 32.3187 36.5859 32.4977C34.6059 32.8577 33.0299 33.0997 30.4209 33.9697C29.5189 34.2697 25.2489 36.9927 23.8569 40.0157Z" fill="#FFE600"/>
    <path d="M30.8579 34.2477C31.9219 33.8597 36.5599 33.0157 38.9729 32.1797C40.9219 31.5037 42.6319 32.8157 38.9329 34.2077C35.3629 35.5507 31.6539 35.4407 28.9489 36.5147C27.9259 36.9207 27.0389 35.6397 30.8579 34.2477Z" fill="#D1A300"/>
    <path d="M40.1489 25.9956C40.1489 25.9956 34.2209 32.7906 31.7029 35.6566C33.9569 34.7306 35.9739 34.9066 37.9009 33.7726C39.8279 32.6396 40.7069 31.4306 43.6309 28.0776C44.7169 26.8336 40.1489 25.9956 40.1489 25.9956Z" fill="#3B6EC9"/>
</svg>