<svg width="40" height="40" viewBox="0 0 40 40" fill="none" xmlns="http://www.w3.org/2000/svg">
    <path fill-rule="evenodd" clip-rule="evenodd" d="M19.9998 0C18.8952 0 17.9998 0.895431 17.9998 2V17.1429H2C0.895431 17.1429 0 18.0383 0 19.1429C0 20.2474 0.895431 21.1429 2 21.1429H17.9998V38C17.9998 39.1046 18.8952 40 19.9998 40C21.1044 40 21.9998 39.1046 21.9998 38V21.1429H38C39.1046 21.1429 40 20.2474 40 19.1429C40 18.0383 39.1046 17.1429 38 17.1429H21.9998V2C21.9998 0.895431 21.1044 0 19.9998 0Z" fill="#3B6EC9"/>
</svg>