<svg width="24" height="24" viewBox="0 0 24 24" fill="none" xmlns="http://www.w3.org/2000/svg">
<rect x="1" y="1" width="22" height="22" rx="11" stroke="white" stroke-width="2"/>
<path d="M17.995 7.22266H18.695V6.52266H17.995V7.22266ZM17.995 12.3573L18.1014 13.0492L18.695 12.9579V12.3573H17.995ZM11.8203 12.599C11.4382 12.6578 11.1761 13.0152 11.2349 13.3973C11.2937 13.7794 11.6511 14.0416 12.0332 13.9828L11.8203 12.599ZM17.295 7.22266V12.3573H18.695V7.22266H17.295ZM17.8886 11.6655L11.8203 12.599L12.0332 13.9828L18.1014 13.0492L17.8886 11.6655ZM12.245 7.92266H17.995V6.52266H12.245V7.92266Z" fill="white"/>
<path d="M11.3714 13.1211C11.3656 13.4249 11.6071 13.6757 11.9108 13.6815C12.2145 13.6873 12.4654 13.4458 12.4712 13.1421L11.3714 13.1211ZM10.9669 9.94567L10.4867 9.67752L10.2889 10.0317L10.5689 10.3252L10.9669 9.94567ZM11.9621 10.9893L12.512 10.9998L12.5163 10.7735L12.3602 10.6097L11.9621 10.9893ZM12.2464 6.52632L10.4867 9.67752L11.4471 10.2138L13.2068 7.06263L12.2464 6.52632ZM10.5689 10.3252L11.5641 11.3689L12.3602 10.6097L11.3649 9.5661L10.5689 10.3252ZM11.4122 10.9788L11.3714 13.1211L12.4712 13.1421L12.512 10.9998L11.4122 10.9788Z" fill="white"/>
<path d="M4.89549 14.0342L4.212 14.1854L4.34169 14.7718L4.94096 14.7327L4.89549 14.0342ZM3.78668 9.0207L3.62787 8.33895L2.95372 8.49599L3.1032 9.17186L3.78668 9.0207ZM11.0676 14.3339C11.4534 14.3088 11.7458 13.9757 11.7207 13.5899C11.6956 13.2041 11.3625 12.9117 10.9767 12.9368L11.0676 14.3339ZM5.57897 13.8831L4.47016 8.86954L3.1032 9.17186L4.212 14.1854L5.57897 13.8831ZM10.9767 12.9368L4.85001 13.3357L4.94096 14.7327L11.0676 14.3339L10.9767 12.9368ZM3.94549 9.70245L9.37363 8.43797L9.05601 7.07448L3.62787 8.33895L3.94549 9.70245Z" fill="white"/>
<path d="M10.4984 13.7542C10.564 14.0508 10.8576 14.238 11.1542 14.1724C11.4507 14.1069 11.638 13.8132 11.5724 13.5167L10.4984 13.7542ZM9.36045 10.7621L8.82531 10.8892L8.87644 11.1045L9.06253 11.2245L9.36045 10.7621ZM10.5727 11.5433L11.1097 11.4245L11.0608 11.2035L10.8706 11.0809L10.5727 11.5433ZM8.00399 7.42889L8.82531 10.8892L9.89558 10.6351L9.07425 7.17486L8.00399 7.42889ZM9.06253 11.2245L10.2748 12.0056L10.8706 11.0809L9.65836 10.2998L9.06253 11.2245ZM10.0357 11.662L10.4984 13.7542L11.5724 13.5167L11.1097 11.4245L10.0357 11.662Z" fill="white"/>
<path d="M11.0356 13.5409L12.1186 15.1511" stroke="white" stroke-width="1.4"/>
<path d="M17.4433 12.7391V17.1524H6.41016V14.063" stroke="white" stroke-width="1.4" stroke-linecap="round"/>
<rect x="9.71997" y="4.71973" width="4.41327" height="1.39956" fill="white"/>
</svg>
