
<svg width="24" height="17" viewBox="0 0 24 17" fill="none" xmlns="http://www.w3.org/2000/svg">
<path fill-rule="evenodd" clip-rule="evenodd" d="M17 0.999998C17 0.447713 17.4477 -1.90735e-06 18 -1.90735e-06H19C19.5523 -1.90735e-06 20 0.447713 20 0.999998C20 1.55228 19.5523 2 19 2H18C17.4477 2 17 1.55228 17 0.999998ZM22 5L19.5002 5.00001C18.9479 5.00001 18.5002 4.5523 18.5002 4.00001C18.5002 3.44773 18.9479 3.00001 19.5002 3.00001L22.1562 3C23.1745 3 24 3.82547 24 4.84375V10.3232C24 11.0263 23.6026 11.6527 23.0001 11.9627V15.1562C23.0001 16.1745 22.1746 17 21.1563 17L18.5001 17C17.9478 17 17.5001 16.5523 17.5001 16C17.5001 15.4477 17.9478 15 18.5001 15L21.0001 15V12.4688L18.7169 12.9762C18.1778 13.096 17.6436 12.7561 17.5238 12.2169C17.404 11.6778 17.7439 11.1436 18.283 11.0238L22 10.1978V5ZM5 1C5 0.447715 5.44772 0 6 0H11C11.5523 0 12 0.447715 12 1C12 1.55228 11.5523 2 11 2H6C5.44772 2 5 1.55228 5 1ZM2 5V9.39355L7.51605 10.3206C7.60057 9.85393 8.00896 9.5 8.5 9.5C8.99105 9.5 9.39943 9.85393 9.48395 10.3206L15 9.39355V5H2ZM9.5 12.346L14 11.5897V15H3V11.5897L7.5 12.346V12.5C7.5 13.0523 7.94772 13.5 8.5 13.5C9.05229 13.5 9.5 13.0523 9.5 12.5V12.346ZM17 9.52573C17 10.2315 16.6004 10.8564 16 11.1654V15.1562C16 16.1745 15.1745 17 14.1562 17H2.84375C1.82548 17 1 16.1745 1 15.1562V11.1654C0.399591 10.8564 0 10.2315 0 9.52573V4.84375C0 3.82547 0.825476 3 1.84375 3H15.1562C16.1745 3 17 3.82548 17 4.84375V9.52573Z" fill="#96A5BE"/>
</svg>
