<svg width="72" height="72" viewBox="0 0 72 72" fill="none" xmlns="http://www.w3.org/2000/svg">
    <circle cx="36" cy="36" r="36" fill="#F7F9FB"/>
    <path d="M36.0004 52.6154C45.1768 52.6154 52.6158 45.1764 52.6158 36C52.6158 26.8236 45.1768 19.3846 36.0004 19.3846C26.824 19.3846 19.385 26.8236 19.385 36C19.385 45.1764 26.824 52.6154 36.0004 52.6154Z" fill="#FFE500"/>
    <path d="M31.8573 43.439C31.8905 43.5877 32.4753 45.6923 35.9999 45.6923C40.8461 45.6922 41.5384 42.923 41.5272 42.0544C41.5678 41.8741 41.4954 41.6872 41.3522 41.5941C41.2082 41.5019 41.028 41.5293 40.9091 41.6581C40.8951 41.6739 40.5963 43.0435 35.9999 43.6153C33.1003 43.976 32.4886 43.0585 32.4753 43.0435C32.4045 42.9646 32.3099 42.9231 32.2154 42.9231C32.1534 42.9231 32.0906 42.9405 32.0338 42.9762C31.889 43.0693 31.8167 43.2579 31.8573 43.439Z" fill="#040427"/>
    <path d="M52.6153 31.8206C52.6153 31.8206 51.4369 31.8455 51.4369 32.8009C51.4369 35.1575 51.4616 40.2113 45.3558 40.2113C40.4669 40.2113 38.132 37.6609 37.7401 34.8418C37.5784 33.6704 37.1756 32.391 36.0026 32.391C34.8297 32.391 34.4269 33.6676 34.2652 34.8418C33.8706 37.6609 31.5357 40.2113 26.6467 40.2113C20.5383 40.2113 20.5629 35.1547 20.5629 32.8009C20.5629 31.8455 19.3845 31.8206 19.3845 31.8206V29.4861C19.3845 29.4861 21.6481 29.1344 25.1039 29.1344C28.5596 29.1344 29.9353 29.1344 32.6867 29.4113C34.309 29.5775 35.9999 29.5941 35.9999 29.5941C35.9999 29.5941 37.6908 29.5775 39.3131 29.4113C42.0618 29.1344 43.4402 29.1344 46.896 29.1344C50.3517 29.1344 52.6153 29.4861 52.6153 29.4861V31.8206Z" fill="#3D4656"/>
    <path d="M46.8963 29.9652C49.1407 29.9652 50.8836 30.1175 51.7935 30.22V31.1476C51.133 31.4024 50.6151 31.9646 50.6151 32.8009V32.8313C50.6151 33.9612 50.6151 35.667 49.9409 37.0406C49.1681 38.6163 47.6691 39.3806 45.3561 39.3806C41.5003 39.3806 38.9572 37.6415 38.5543 34.7255C38.1899 32.1086 36.9649 31.5603 36.003 31.5603C35.0383 31.5603 33.8161 32.1086 33.4516 34.7255C33.0433 37.6415 30.5001 39.3806 26.647 39.3806C24.3341 39.3806 22.8351 38.6135 22.0623 37.0406C21.3881 35.6643 21.3881 33.9584 21.3881 32.8313V32.8009C21.3881 31.9618 20.8674 31.4024 20.2097 31.1476V30.22C21.1168 30.1175 22.8597 29.9652 25.1042 29.9652C28.59 29.9652 29.8945 29.9652 32.6048 30.2393C34.2463 30.4055 35.9208 30.4249 35.992 30.4249H36.0084C36.0797 30.4249 37.7541 30.4055 39.3957 30.2393C42.1032 29.9652 43.4077 29.9652 46.8963 29.9652ZM46.8963 29.1344C43.4406 29.1344 42.0649 29.1344 39.3162 29.4113C37.6911 29.5775 36.0002 29.5941 36.0002 29.5941C36.0002 29.5941 34.3094 29.5775 32.687 29.4113C29.9383 29.1344 28.5599 29.1344 25.1069 29.1344C21.6512 29.1344 19.3876 29.4861 19.3876 29.4861V31.8206C19.3876 31.8206 20.566 31.8455 20.566 32.8009C20.5632 35.1547 20.5386 40.2113 26.647 40.2113C31.536 40.2113 33.8709 37.6609 34.2628 34.8418C34.4245 33.6704 34.8273 32.391 36.0002 32.391C37.1731 32.391 37.576 33.6676 37.7377 34.8418C38.1296 37.6609 40.4644 40.2113 45.3534 40.2113C51.4591 40.2113 51.4345 35.1547 51.4345 32.8009C51.4345 31.8455 52.6129 31.8206 52.6129 31.8206V29.4861C52.6156 29.4861 50.3493 29.1344 46.8963 29.1344Z" fill="#040427"/>
    <path d="M24.3996 34.2025C24.3722 34.6483 24.1941 35.0637 23.7611 35.1468C23.5526 35.1858 23.3372 35.1398 23.1622 35.0189C22.9871 34.898 22.8664 34.712 22.8266 34.5015C22.6731 33.668 22.8513 32.8871 23.3308 32.3028C23.5528 32.0321 23.8313 31.8145 24.1464 31.6656C24.4615 31.5166 24.8054 31.4401 25.1532 31.4415C25.5945 31.4415 25.9863 31.7185 25.9863 32.1643C25.9863 32.6905 25.5725 32.912 25.1532 33.0588C24.7614 33.1945 24.4325 33.6597 24.3996 34.2025Z" fill="white"/>
    <path d="M42.0074 34.2025C41.98 34.6483 41.8019 35.0637 41.3689 35.1468C41.1604 35.1858 40.945 35.1398 40.7699 35.0189C40.5948 34.898 40.4742 34.712 40.4344 34.5015C40.2809 33.668 40.459 32.8871 40.9386 32.3028C41.1606 32.0321 41.4391 31.8145 41.7542 31.6656C42.0693 31.5166 42.4132 31.4401 42.761 31.4415C43.2022 31.4415 43.5941 31.7185 43.5941 32.1643C43.5941 32.6905 43.1803 32.912 42.761 33.0588C42.3691 33.1945 42.0403 33.6597 42.0074 34.2025Z" fill="white"/>
</svg>