<svg width="18" height="16" viewBox="0 0 18 16" fill="none" xmlns="http://www.w3.org/2000/svg">
    <path fill-rule="evenodd" clip-rule="evenodd" d="M0 3C0 1.34315 1.34315 0 3 0H15C16.6569 0 18 1.34315 18 3V10C18 11.6569 16.6569 13 15 13H6.3229C6.08068 13 5.84669 13.0879 5.66439 13.2474L3.31701 15.3014C2.02384 16.4329 0 15.5145 0 13.7962V3ZM3 2C2.44772 2 2 2.44772 2 3V13.7962L4.34739 11.7423C4.89426 11.2638 5.59623 11 6.3229 11H15C15.5523 11 16 10.5523 16 10V3C16 2.44772 15.5523 2 15 2H3ZM4 5C4 4.44772 4.44772 4 5 4H13C13.5523 4 14 4.44772 14 5C14 5.55228 13.5523 6 13 6H5C4.44772 6 4 5.55228 4 5ZM5 7C4.44772 7 4 7.44772 4 8C4 8.55229 4.44772 9 5 9H9C9.55228 9 10 8.55229 10 8C10 7.44772 9.55228 7 9 7H5Z" fill="#96A5BE"/>
</svg>