<svg width="23" height="11" viewBox="0 0 23 11" fill="none" xmlns="http://www.w3.org/2000/svg">
<path d="M3.42236 5C3.42236 3.34315 4.76551 2 6.42236 2H16.4224C18.0792 2 19.4224 3.34315 19.4224 5V6C19.4224 7.65685 18.0792 9 16.4224 9H6.42236C4.76551 9 3.42236 7.65685 3.42236 6V5Z" stroke="#3B6EC9" stroke-width="2"/>
<path d="M17 6.60352L18.9226 7.50002L20.8451 8.39653" stroke="white" stroke-width="3"/>
<path d="M2 2.60352L3.92257 3.50002L5.84514 4.39653" stroke="white" stroke-width="3"/>
<path d="M3.72241 2L6.38908 0V2V4L3.72241 2Z" fill="#3B6EC9"/>
<path d="M19.1223 9L16.4556 11V8.6V7L19.1223 9Z" fill="#3B6EC9"/>
</svg>
