<svg width="147" height="36" viewBox="0 0 147 36" fill="none" xmlns="http://www.w3.org/2000/svg">
<g opacity="0.4">
<mask id="path-1-inside-1" fill="white">
<path fill-rule="evenodd" clip-rule="evenodd" d="M0.998047 3.05176e-05H1.22525V36H0.998047V3.05176e-05ZM5.54053 3.05176e-05H5.76773V36H5.54053V3.05176e-05ZM10.3131 3.05176e-05H10.0859V36H10.3131V3.05176e-05ZM14.6299 3.05176e-05H14.8571V36H14.6299V3.05176e-05ZM19.401 3.05176e-05H19.1738V36H19.401V3.05176e-05ZM23.7207 3.05176e-05H23.9479V36H23.7207V3.05176e-05ZM28.4904 3.05176e-05H28.2632V36H28.4904V3.05176e-05ZM32.8071 3.05176e-05H33.0343V36H32.8071V3.05176e-05ZM37.5783 3.05176e-05H37.3511V36H37.5783V3.05176e-05ZM41.895 3.05176e-05H42.1222V36H41.895V3.05176e-05ZM46.6647 3.05176e-05H46.4375V36H46.6647V3.05176e-05ZM50.9829 3.05176e-05H51.2101V36H50.9829V3.05176e-05ZM55.7541 3.05176e-05H55.5269V36H55.7541V3.05176e-05ZM60.0737 3.05176e-05H60.3009V36H60.0737V3.05176e-05ZM64.842 3.05176e-05H64.6147V36H64.842V3.05176e-05ZM69.1602 3.05176e-05H69.3874V36H69.1602V3.05176e-05ZM73.9313 3.05176e-05H73.7041V36H73.9313V3.05176e-05ZM78.2466 3.05176e-05H78.4738V36H78.2466V3.05176e-05ZM83.0207 3.05176e-05H82.7935V36H83.0207V3.05176e-05ZM87.3345 3.05176e-05H87.5617V36H87.3345V3.05176e-05ZM92.1071 3.05176e-05H91.8799V36H92.1071V3.05176e-05ZM96.4253 3.05176e-05H96.6525V36H96.4253V3.05176e-05ZM101.198 3.05176e-05H100.971V36H101.198V3.05176e-05ZM105.512 3.05176e-05H105.739V36H105.512V3.05176e-05ZM110.284 3.05176e-05H110.057V36H110.284V3.05176e-05ZM114.601 3.05176e-05H114.828V36H114.601V3.05176e-05ZM119.372 3.05176e-05H119.145V36H119.372V3.05176e-05ZM123.688 3.05176e-05H123.915V36H123.688V3.05176e-05ZM128.459 3.05176e-05H128.231V36H128.459V3.05176e-05ZM132.778 3.05176e-05H133.006V36H132.778V3.05176e-05ZM137.549 3.05176e-05H137.322V36H137.549V3.05176e-05ZM141.865 3.05176e-05H142.092V36H141.865V3.05176e-05ZM146.639 3.05176e-05H146.412V36H146.639V3.05176e-05Z"/>
</mask>
<path fill-rule="evenodd" clip-rule="evenodd" d="M0.998047 3.05176e-05H1.22525V36H0.998047V3.05176e-05ZM5.54053 3.05176e-05H5.76773V36H5.54053V3.05176e-05ZM10.3131 3.05176e-05H10.0859V36H10.3131V3.05176e-05ZM14.6299 3.05176e-05H14.8571V36H14.6299V3.05176e-05ZM19.401 3.05176e-05H19.1738V36H19.401V3.05176e-05ZM23.7207 3.05176e-05H23.9479V36H23.7207V3.05176e-05ZM28.4904 3.05176e-05H28.2632V36H28.4904V3.05176e-05ZM32.8071 3.05176e-05H33.0343V36H32.8071V3.05176e-05ZM37.5783 3.05176e-05H37.3511V36H37.5783V3.05176e-05ZM41.895 3.05176e-05H42.1222V36H41.895V3.05176e-05ZM46.6647 3.05176e-05H46.4375V36H46.6647V3.05176e-05ZM50.9829 3.05176e-05H51.2101V36H50.9829V3.05176e-05ZM55.7541 3.05176e-05H55.5269V36H55.7541V3.05176e-05ZM60.0737 3.05176e-05H60.3009V36H60.0737V3.05176e-05ZM64.842 3.05176e-05H64.6147V36H64.842V3.05176e-05ZM69.1602 3.05176e-05H69.3874V36H69.1602V3.05176e-05ZM73.9313 3.05176e-05H73.7041V36H73.9313V3.05176e-05ZM78.2466 3.05176e-05H78.4738V36H78.2466V3.05176e-05ZM83.0207 3.05176e-05H82.7935V36H83.0207V3.05176e-05ZM87.3345 3.05176e-05H87.5617V36H87.3345V3.05176e-05ZM92.1071 3.05176e-05H91.8799V36H92.1071V3.05176e-05ZM96.4253 3.05176e-05H96.6525V36H96.4253V3.05176e-05ZM101.198 3.05176e-05H100.971V36H101.198V3.05176e-05ZM105.512 3.05176e-05H105.739V36H105.512V3.05176e-05ZM110.284 3.05176e-05H110.057V36H110.284V3.05176e-05ZM114.601 3.05176e-05H114.828V36H114.601V3.05176e-05ZM119.372 3.05176e-05H119.145V36H119.372V3.05176e-05ZM123.688 3.05176e-05H123.915V36H123.688V3.05176e-05ZM128.459 3.05176e-05H128.231V36H128.459V3.05176e-05ZM132.778 3.05176e-05H133.006V36H132.778V3.05176e-05ZM137.549 3.05176e-05H137.322V36H137.549V3.05176e-05ZM141.865 3.05176e-05H142.092V36H141.865V3.05176e-05ZM146.639 3.05176e-05H146.412V36H146.639V3.05176e-05Z" fill="#5E8FF2"/>
<path d="M1.22525 3.05176e-05H2.22525V-0.999969H1.22525V3.05176e-05ZM0.998047 3.05176e-05V-0.999969H-0.00195312V3.05176e-05H0.998047ZM1.22525 36V37H2.22525V36H1.22525ZM0.998047 36H-0.00195312V37H0.998047V36ZM5.76773 3.05176e-05H6.76773V-0.999969H5.76773V3.05176e-05ZM5.54053 3.05176e-05V-0.999969H4.54053V3.05176e-05H5.54053ZM5.76773 36V37H6.76773V36H5.76773ZM5.54053 36H4.54053V37H5.54053V36ZM10.0859 3.05176e-05V-0.999969H9.08594V3.05176e-05H10.0859ZM10.3131 3.05176e-05H11.3131V-0.999969H10.3131V3.05176e-05ZM10.0859 36H9.08594V37H10.0859V36ZM10.3131 36V37H11.3131V36H10.3131ZM14.8571 3.05176e-05H15.8571V-0.999969H14.8571V3.05176e-05ZM14.6299 3.05176e-05V-0.999969H13.6299V3.05176e-05H14.6299ZM14.8571 36V37H15.8571V36H14.8571ZM14.6299 36H13.6299V37H14.6299V36ZM19.1738 3.05176e-05V-0.999969H18.1738V3.05176e-05H19.1738ZM19.401 3.05176e-05H20.401V-0.999969H19.401V3.05176e-05ZM19.1738 36H18.1738V37H19.1738V36ZM19.401 36V37H20.401V36H19.401ZM23.9479 3.05176e-05H24.9479V-0.999969H23.9479V3.05176e-05ZM23.7207 3.05176e-05V-0.999969H22.7207V3.05176e-05H23.7207ZM23.9479 36V37H24.9479V36H23.9479ZM23.7207 36H22.7207V37H23.7207V36ZM28.2632 3.05176e-05V-0.999969H27.2632V3.05176e-05H28.2632ZM28.4904 3.05176e-05H29.4904V-0.999969H28.4904V3.05176e-05ZM28.2632 36H27.2632V37H28.2632V36ZM28.4904 36V37H29.4904V36H28.4904ZM33.0343 3.05176e-05H34.0343V-0.999969H33.0343V3.05176e-05ZM32.8071 3.05176e-05V-0.999969H31.8071V3.05176e-05H32.8071ZM33.0343 36V37H34.0343V36H33.0343ZM32.8071 36H31.8071V37H32.8071V36ZM37.3511 3.05176e-05V-0.999969H36.3511V3.05176e-05H37.3511ZM37.5783 3.05176e-05H38.5783V-0.999969H37.5783V3.05176e-05ZM37.3511 36H36.3511V37H37.3511V36ZM37.5783 36V37H38.5783V36H37.5783ZM42.1222 3.05176e-05H43.1222V-0.999969H42.1222V3.05176e-05ZM41.895 3.05176e-05V-0.999969H40.895V3.05176e-05H41.895ZM42.1222 36V37H43.1222V36H42.1222ZM41.895 36H40.895V37H41.895V36ZM46.4375 3.05176e-05V-0.999969H45.4375V3.05176e-05H46.4375ZM46.6647 3.05176e-05H47.6647V-0.999969H46.6647V3.05176e-05ZM46.4375 36H45.4375V37H46.4375V36ZM46.6647 36V37H47.6647V36H46.6647ZM51.2101 3.05176e-05H52.2101V-0.999969H51.2101V3.05176e-05ZM50.9829 3.05176e-05V-0.999969H49.9829V3.05176e-05H50.9829ZM51.2101 36V37H52.2101V36H51.2101ZM50.9829 36H49.9829V37H50.9829V36ZM55.5269 3.05176e-05V-0.999969H54.5269V3.05176e-05H55.5269ZM55.7541 3.05176e-05H56.7541V-0.999969H55.7541V3.05176e-05ZM55.5269 36H54.5269V37H55.5269V36ZM55.7541 36V37H56.7541V36H55.7541ZM60.3009 3.05176e-05H61.3009V-0.999969H60.3009V3.05176e-05ZM60.0737 3.05176e-05V-0.999969H59.0737V3.05176e-05H60.0737ZM60.3009 36V37H61.3009V36H60.3009ZM60.0737 36H59.0737V37H60.0737V36ZM64.6147 3.05176e-05V-0.999969H63.6147V3.05176e-05H64.6147ZM64.842 3.05176e-05H65.8419V-0.999969H64.842V3.05176e-05ZM64.6147 36H63.6147V37H64.6147V36ZM64.842 36V37H65.8419V36H64.842ZM69.3874 3.05176e-05H70.3874V-0.999969H69.3874V3.05176e-05ZM69.1602 3.05176e-05V-0.999969H68.1602V3.05176e-05H69.1602ZM69.3874 36V37H70.3874V36H69.3874ZM69.1602 36H68.1602V37H69.1602V36ZM73.7041 3.05176e-05V-0.999969H72.7041V3.05176e-05H73.7041ZM73.9313 3.05176e-05H74.9313V-0.999969H73.9313V3.05176e-05ZM73.7041 36H72.7041V37H73.7041V36ZM73.9313 36V37H74.9313V36H73.9313ZM78.4738 3.05176e-05H79.4738V-0.999969H78.4738V3.05176e-05ZM78.2466 3.05176e-05V-0.999969H77.2466V3.05176e-05H78.2466ZM78.4738 36V37H79.4738V36H78.4738ZM78.2466 36H77.2466V37H78.2466V36ZM82.7935 3.05176e-05V-0.999969H81.7935V3.05176e-05H82.7935ZM83.0207 3.05176e-05H84.0207V-0.999969H83.0207V3.05176e-05ZM82.7935 36H81.7935V37H82.7935V36ZM83.0207 36V37H84.0207V36H83.0207ZM87.5617 3.05176e-05H88.5617V-0.999969H87.5617V3.05176e-05ZM87.3345 3.05176e-05V-0.999969H86.3345V3.05176e-05H87.3345ZM87.5617 36V37H88.5617V36H87.5617ZM87.3345 36H86.3345V37H87.3345V36ZM91.8799 3.05176e-05V-0.999969H90.8799V3.05176e-05H91.8799ZM92.1071 3.05176e-05H93.1071V-0.999969H92.1071V3.05176e-05ZM91.8799 36H90.8799V37H91.8799V36ZM92.1071 36V37H93.1071V36H92.1071ZM96.6525 3.05176e-05H97.6525V-0.999969H96.6525V3.05176e-05ZM96.4253 3.05176e-05V-0.999969H95.4253V3.05176e-05H96.4253ZM96.6525 36V37H97.6525V36H96.6525ZM96.4253 36H95.4253V37H96.4253V36ZM100.971 3.05176e-05V-0.999969H99.9707V3.05176e-05H100.971ZM101.198 3.05176e-05H102.198V-0.999969H101.198V3.05176e-05ZM100.971 36H99.9707V37H100.971V36ZM101.198 36V37H102.198V36H101.198ZM105.739 3.05176e-05H106.739V-0.999969H105.739V3.05176e-05ZM105.512 3.05176e-05V-0.999969H104.512V3.05176e-05H105.512ZM105.739 36V37H106.739V36H105.739ZM105.512 36H104.512V37H105.512V36ZM110.057 3.05176e-05V-0.999969H109.057V3.05176e-05H110.057ZM110.284 3.05176e-05H111.284V-0.999969H110.284V3.05176e-05ZM110.057 36H109.057V37H110.057V36ZM110.284 36V37H111.284V36H110.284ZM114.828 3.05176e-05H115.828V-0.999969H114.828V3.05176e-05ZM114.601 3.05176e-05V-0.999969H113.601V3.05176e-05H114.601ZM114.828 36V37H115.828V36H114.828ZM114.601 36H113.601V37H114.601V36ZM119.145 3.05176e-05V-0.999969H118.145V3.05176e-05H119.145ZM119.372 3.05176e-05H120.372V-0.999969H119.372V3.05176e-05ZM119.145 36H118.145V37H119.145V36ZM119.372 36V37H120.372V36H119.372ZM123.915 3.05176e-05H124.915V-0.999969H123.915V3.05176e-05ZM123.688 3.05176e-05V-0.999969H122.688V3.05176e-05H123.688ZM123.915 36V37H124.915V36H123.915ZM123.688 36H122.688V37H123.688V36ZM128.231 3.05176e-05V-0.999969H127.231V3.05176e-05H128.231ZM128.459 3.05176e-05H129.459V-0.999969H128.459V3.05176e-05ZM128.231 36H127.231V37H128.231V36ZM128.459 36V37H129.459V36H128.459ZM133.006 3.05176e-05H134.006V-0.999969H133.006V3.05176e-05ZM132.778 3.05176e-05V-0.999969H131.778V3.05176e-05H132.778ZM133.006 36V37H134.006V36H133.006ZM132.778 36H131.778V37H132.778V36ZM137.322 3.05176e-05V-0.999969H136.322V3.05176e-05H137.322ZM137.549 3.05176e-05H138.549V-0.999969H137.549V3.05176e-05ZM137.322 36H136.322V37H137.322V36ZM137.549 36V37H138.549V36H137.549ZM142.092 3.05176e-05H143.092V-0.999969H142.092V3.05176e-05ZM141.865 3.05176e-05V-0.999969H140.865V3.05176e-05H141.865ZM142.092 36V37H143.092V36H142.092ZM141.865 36H140.865V37H141.865V36ZM146.412 3.05176e-05V-0.999969H145.412V3.05176e-05H146.412ZM146.639 3.05176e-05H147.639V-0.999969H146.639V3.05176e-05ZM146.412 36H145.412V37H146.412V36ZM146.639 36V37H147.639V36H146.639ZM1.22525 -0.999969H0.998047V1.00003H1.22525V-0.999969ZM2.22525 36V3.05176e-05H0.225253V36H2.22525ZM0.998047 37H1.22525V35H0.998047V37ZM-0.00195312 3.05176e-05V36H1.99805V3.05176e-05H-0.00195312ZM5.76773 -0.999969H5.54053V1.00003H5.76773V-0.999969ZM6.76773 36V3.05176e-05H4.76773V36H6.76773ZM5.54053 37H5.76773V35H5.54053V37ZM4.54053 3.05176e-05V36H6.54053V3.05176e-05H4.54053ZM10.0859 1.00003H10.3131V-0.999969H10.0859V1.00003ZM11.0859 36V3.05176e-05H9.08594V36H11.0859ZM10.3131 35H10.0859V37H10.3131V35ZM9.31314 3.05176e-05V36H11.3131V3.05176e-05H9.31314ZM14.8571 -0.999969H14.6299V1.00003H14.8571V-0.999969ZM15.8571 36V3.05176e-05H13.8571V36H15.8571ZM14.6299 37H14.8571V35H14.6299V37ZM13.6299 3.05176e-05V36H15.6299V3.05176e-05H13.6299ZM19.1738 1.00003H19.401V-0.999969H19.1738V1.00003ZM20.1738 36V3.05176e-05H18.1738V36H20.1738ZM19.401 35H19.1738V37H19.401V35ZM18.401 3.05176e-05V36H20.401V3.05176e-05H18.401ZM23.9479 -0.999969H23.7207V1.00003H23.9479V-0.999969ZM24.9479 36V3.05176e-05H22.9479V36H24.9479ZM23.7207 37H23.9479V35H23.7207V37ZM22.7207 3.05176e-05V36H24.7207V3.05176e-05H22.7207ZM28.2632 1.00003H28.4904V-0.999969H28.2632V1.00003ZM29.2632 36V3.05176e-05H27.2632V36H29.2632ZM28.4904 35H28.2632V37H28.4904V35ZM27.4904 3.05176e-05V36H29.4904V3.05176e-05H27.4904ZM33.0343 -0.999969H32.8071V1.00003H33.0343V-0.999969ZM34.0343 36V3.05176e-05H32.0343V36H34.0343ZM32.8071 37H33.0343V35H32.8071V37ZM31.8071 3.05176e-05V36H33.8071V3.05176e-05H31.8071ZM37.3511 1.00003H37.5783V-0.999969H37.3511V1.00003ZM38.3511 36V3.05176e-05H36.3511V36H38.3511ZM37.5783 35H37.3511V37H37.5783V35ZM36.5783 3.05176e-05V36H38.5783V3.05176e-05H36.5783ZM42.1222 -0.999969H41.895V1.00003H42.1222V-0.999969ZM43.1222 36V3.05176e-05H41.1222V36H43.1222ZM41.895 37H42.1222V35H41.895V37ZM40.895 3.05176e-05V36H42.895V3.05176e-05H40.895ZM46.4375 1.00003H46.6647V-0.999969H46.4375V1.00003ZM47.4375 36V3.05176e-05H45.4375V36H47.4375ZM46.6647 35H46.4375V37H46.6647V35ZM45.6647 3.05176e-05V36H47.6647V3.05176e-05H45.6647ZM51.2101 -0.999969H50.9829V1.00003H51.2101V-0.999969ZM52.2101 36V3.05176e-05H50.2101V36H52.2101ZM50.9829 37H51.2101V35H50.9829V37ZM49.9829 3.05176e-05V36H51.9829V3.05176e-05H49.9829ZM55.5269 1.00003H55.7541V-0.999969H55.5269V1.00003ZM56.5269 36V3.05176e-05H54.5269V36H56.5269ZM55.7541 35H55.5269V37H55.7541V35ZM54.7541 3.05176e-05V36H56.7541V3.05176e-05H54.7541ZM60.3009 -0.999969H60.0737V1.00003H60.3009V-0.999969ZM61.3009 36V3.05176e-05H59.3009V36H61.3009ZM60.0737 37H60.3009V35H60.0737V37ZM59.0737 3.05176e-05V36H61.0737V3.05176e-05H59.0737ZM64.6147 1.00003H64.842V-0.999969H64.6147V1.00003ZM65.6147 36V3.05176e-05H63.6147V36H65.6147ZM64.842 35H64.6147V37H64.842V35ZM63.842 3.05176e-05V36H65.8419V3.05176e-05H63.842ZM69.3874 -0.999969H69.1602V1.00003H69.3874V-0.999969ZM70.3874 36V3.05176e-05H68.3874V36H70.3874ZM69.1602 37H69.3874V35H69.1602V37ZM68.1602 3.05176e-05V36H70.1602V3.05176e-05H68.1602ZM73.7041 1.00003H73.9313V-0.999969H73.7041V1.00003ZM74.7041 36V3.05176e-05H72.7041V36H74.7041ZM73.9313 35H73.7041V37H73.9313V35ZM72.9313 3.05176e-05V36H74.9313V3.05176e-05H72.9313ZM78.4738 -0.999969H78.2466V1.00003H78.4738V-0.999969ZM79.4738 36V3.05176e-05H77.4738V36H79.4738ZM78.2466 37H78.4738V35H78.2466V37ZM77.2466 3.05176e-05V36H79.2466V3.05176e-05H77.2466ZM82.7935 1.00003H83.0207V-0.999969H82.7935V1.00003ZM83.7935 36V3.05176e-05H81.7935V36H83.7935ZM83.0207 35H82.7935V37H83.0207V35ZM82.0207 3.05176e-05V36H84.0207V3.05176e-05H82.0207ZM87.5617 -0.999969H87.3345V1.00003H87.5617V-0.999969ZM88.5617 36V3.05176e-05H86.5617V36H88.5617ZM87.3345 37H87.5617V35H87.3345V37ZM86.3345 3.05176e-05V36H88.3345V3.05176e-05H86.3345ZM91.8799 1.00003H92.1071V-0.999969H91.8799V1.00003ZM92.8799 36V3.05176e-05H90.8799V36H92.8799ZM92.1071 35H91.8799V37H92.1071V35ZM91.1071 3.05176e-05V36H93.1071V3.05176e-05H91.1071ZM96.6525 -0.999969H96.4253V1.00003H96.6525V-0.999969ZM97.6525 36V3.05176e-05H95.6525V36H97.6525ZM96.4253 37H96.6525V35H96.4253V37ZM95.4253 3.05176e-05V36H97.4253V3.05176e-05H95.4253ZM100.971 1.00003H101.198V-0.999969H100.971V1.00003ZM101.971 36V3.05176e-05H99.9707V36H101.971ZM101.198 35H100.971V37H101.198V35ZM100.198 3.05176e-05V36H102.198V3.05176e-05H100.198ZM105.739 -0.999969H105.512V1.00003H105.739V-0.999969ZM106.739 36V3.05176e-05H104.739V36H106.739ZM105.512 37H105.739V35H105.512V37ZM104.512 3.05176e-05V36H106.512V3.05176e-05H104.512ZM110.057 1.00003H110.284V-0.999969H110.057V1.00003ZM111.057 36V3.05176e-05H109.057V36H111.057ZM110.284 35H110.057V37H110.284V35ZM109.284 3.05176e-05V36H111.284V3.05176e-05H109.284ZM114.828 -0.999969H114.601V1.00003H114.828V-0.999969ZM115.828 36V3.05176e-05H113.828V36H115.828ZM114.601 37H114.828V35H114.601V37ZM113.601 3.05176e-05V36H115.601V3.05176e-05H113.601ZM119.145 1.00003H119.372V-0.999969H119.145V1.00003ZM120.145 36V3.05176e-05H118.145V36H120.145ZM119.372 35H119.145V37H119.372V35ZM118.372 3.05176e-05V36H120.372V3.05176e-05H118.372ZM123.915 -0.999969H123.688V1.00003H123.915V-0.999969ZM124.915 36V3.05176e-05H122.915V36H124.915ZM123.688 37H123.915V35H123.688V37ZM122.688 3.05176e-05V36H124.688V3.05176e-05H122.688ZM128.231 1.00003H128.459V-0.999969H128.231V1.00003ZM129.231 36V3.05176e-05H127.231V36H129.231ZM128.459 35H128.231V37H128.459V35ZM127.459 3.05176e-05V36H129.459V3.05176e-05H127.459ZM133.006 -0.999969H132.778V1.00003H133.006V-0.999969ZM134.006 36V3.05176e-05H132.006V36H134.006ZM132.778 37H133.006V35H132.778V37ZM131.778 3.05176e-05V36H133.778V3.05176e-05H131.778ZM137.322 1.00003H137.549V-0.999969H137.322V1.00003ZM138.322 36V3.05176e-05H136.322V36H138.322ZM137.549 35H137.322V37H137.549V35ZM136.549 3.05176e-05V36H138.549V3.05176e-05H136.549ZM142.092 -0.999969H141.865V1.00003H142.092V-0.999969ZM143.092 36V3.05176e-05H141.092V36H143.092ZM141.865 37H142.092V35H141.865V37ZM140.865 3.05176e-05V36H142.865V3.05176e-05H140.865ZM146.412 1.00003H146.639V-0.999969H146.412V1.00003ZM147.412 36V3.05176e-05H145.412V36H147.412ZM146.639 35H146.412V37H146.639V35ZM145.639 3.05176e-05V36H147.639V3.05176e-05H145.639Z" fill="white" mask="url(#path-1-inside-1)"/>
</g>
</svg>
