<svg width="48" height="48" viewBox="0 0 48 48" fill="none" xmlns="http://www.w3.org/2000/svg">
<path fill-rule="evenodd" clip-rule="evenodd" d="M43.4539 15.9064C42.4762 15.4347 41.0028 15.6335 40.3819 14.679C37.3897 10.0847 29.5508 6.08032 24.3854 8.62289C21.593 9.99725 20.4972 13.1904 17.818 14.5997C14.1671 16.5225 10.0644 16.2872 7.86055 20.7598C6.79007 22.9319 10.0958 23.7358 11.6125 24.5271C16.6588 27.1685 21.7008 29.8179 26.7385 32.4755C32.4064 35.4697 31.0255 31.4407 32.1358 27.6982C32.673 25.9008 32.7995 23.1978 33.0106 21.3972C33.2632 19.1983 32.9306 13.796 36.0796 14.7509C40.4416 16.0705 34.9898 17.7681 40.0924 22.2838C41.5824 23.6005 44.0319 22.5274 44.9643 20.7623C45.3092 20.1024 45.4442 19.353 45.3513 18.6146C45.2584 17.8762 44.942 17.1841 44.4445 16.6312C44.1654 16.3265 43.8288 16.0802 43.4539 15.9064Z" fill="#3B6EC9"/>
<path fill-rule="evenodd" clip-rule="evenodd" d="M28.313 42.664C27.5736 44.0636 25.7632 44.5569 24.2759 43.7712L2.69744 32.3719C1.21008 31.5862 0.599086 29.8138 1.33849 28.4141L2.67659 25.8811C3.41496 24.4834 5.22337 23.9891 6.71073 24.7749L28.2892 36.1741C29.7765 36.9599 30.3895 38.7333 29.6511 40.131L28.313 42.664Z" fill="#3B6EC9"/>
</svg>
