<svg width="27" height="13" viewBox="0 0 27 13" fill="none" xmlns="http://www.w3.org/2000/svg">
<path d="M9.41309 5.51758C9.41309 6.18848 9.19336 6.70264 8.75391 7.06006C8.31445 7.41748 7.68896 7.59619 6.87744 7.59619H6.20947V10H5.15918V3.5752H7.00928C7.81201 3.5752 8.4126 3.73926 8.81104 4.06738C9.2124 4.39551 9.41309 4.87891 9.41309 5.51758ZM6.20947 6.71289H6.76758C7.30664 6.71289 7.70215 6.61914 7.9541 6.43164C8.20605 6.24414 8.33203 5.95117 8.33203 5.55273C8.33203 5.18359 8.21924 4.9082 7.99365 4.72656C7.76807 4.54492 7.4165 4.4541 6.93896 4.4541H6.20947V6.71289ZM11.7466 6.56348H12.4761C12.9653 6.56348 13.3198 6.47266 13.5396 6.29102C13.7593 6.10938 13.8691 5.83984 13.8691 5.48242C13.8691 5.11914 13.7505 4.8584 13.5132 4.7002C13.2759 4.54199 12.9185 4.46289 12.4409 4.46289H11.7466V6.56348ZM11.7466 7.43359V10H10.6963V3.5752H12.5112C13.3403 3.5752 13.9541 3.73047 14.3525 4.04102C14.751 4.35156 14.9502 4.82031 14.9502 5.44727C14.9502 6.24707 14.5342 6.81689 13.7021 7.15674L15.5171 10H14.3218L12.7837 7.43359H11.7466ZM22.1572 6.77881C22.1572 7.82471 21.895 8.6377 21.3706 9.21777C20.8491 9.79785 20.1094 10.0879 19.1514 10.0879C18.1816 10.0879 17.436 9.80078 16.9146 9.22656C16.396 8.64941 16.1367 7.83057 16.1367 6.77002C16.1367 5.70947 16.3975 4.89502 16.9189 4.32666C17.4434 3.7583 18.1904 3.47412 19.1602 3.47412C20.1152 3.47412 20.8535 3.7627 21.375 4.33984C21.8965 4.91699 22.1572 5.72998 22.1572 6.77881ZM17.2529 6.77881C17.2529 7.56982 17.4126 8.17041 17.7319 8.58057C18.0513 8.98779 18.5244 9.19141 19.1514 9.19141C19.7754 9.19141 20.2456 8.98926 20.562 8.58496C20.8813 8.18066 21.041 7.57861 21.041 6.77881C21.041 5.99072 20.8828 5.39307 20.5664 4.98584C20.2529 4.57861 19.7842 4.375 19.1602 4.375C18.5303 4.375 18.0542 4.57861 17.7319 4.98584C17.4126 5.39307 17.2529 5.99072 17.2529 6.77881Z" fill="#B0B4C2"/>
<rect x="0.6" y="0.6" width="25.8" height="11.8" rx="1.4" stroke="#B0B4C2" stroke-width="1.2"/>
</svg>
