<svg width="240" height="67" viewBox="0 0 240 67" fill="none" xmlns="http://www.w3.org/2000/svg">
    <rect x="-0.00390625" y="43.3671" width="97" height="24" rx="4" transform="rotate(-25 -0.00390625 43.3671)" fill="#FF3E70"/>
    <path d="M21.4559 53.5918C19.8173 54.3559 18.19 54.4439 16.574 53.8557C14.9726 53.2608 13.7932 52.1513 13.0358 50.5272C12.2785 48.9031 12.1867 47.2864 12.7603 45.6772C13.3485 44.0612 14.4619 42.8712 16.1005 42.1071C17.159 41.6135 18.2417 41.4176 19.3484 41.5194C20.4551 41.6212 21.4327 41.9951 22.2812 42.641L20.5261 45.1807C20.099 44.8326 19.5998 44.6329 19.0285 44.5815C18.4718 44.5233 17.9179 44.6227 17.3669 44.8796C16.5258 45.2718 15.9616 45.8792 15.6743 46.7017C15.3802 47.5097 15.436 48.3487 15.8417 49.2187C16.2407 50.0743 16.8475 50.6564 17.6623 50.9649C18.4703 51.259 19.2948 51.21 20.1359 50.8178C20.7014 50.5541 21.1442 50.1975 21.4643 49.7481C21.7921 49.2775 21.9599 48.7667 21.9678 48.2158L25.0531 48.4719C24.9736 49.5505 24.6205 50.5538 23.9938 51.4815C23.3604 52.3948 22.5145 53.0982 21.4559 53.5918ZM37.8261 45.5875L34.5634 47.109L28.3022 44.0174L30.6046 48.955L27.7987 50.2634L22.7273 39.3877L25.5332 38.0793L27.7646 42.8646L29.2744 36.3347L32.6242 34.7727L30.7574 42.184L37.8261 45.5875ZM42.0075 30.3972L44.0956 29.4235L49.1671 40.2992L46.4264 41.5771L43.5458 35.3998L41.3148 43.9607L39.2267 44.9344L34.1553 34.0587L36.8959 32.7807L39.7765 38.9581L42.0075 30.3972ZM60.2988 31.9041L61.7344 31.2347L64.3208 36.7813L61.5802 38.0593L60.221 35.1446L53.4781 38.2889L54.8372 41.2036L52.0965 42.4816L49.5101 36.935L50.837 36.3163C51.0277 35.0974 50.7411 33.6687 49.977 32.0301L47.9281 27.6363L56.4547 23.6603L60.2988 31.9041ZM53.8386 34.9165L57.5581 33.1821L54.8906 27.4615L51.8454 28.8815L52.7177 30.7521C53.4344 32.2892 53.8081 33.6774 53.8386 34.9165ZM74.7652 28.3625L71.5025 29.884L65.2413 26.7924L67.5438 31.73L64.7378 33.0384L59.6664 22.1627L62.4723 20.8543L64.7038 25.6396L66.2136 19.1097L69.5633 17.5477L67.6965 24.959L74.7652 28.3625ZM78.574 13.3459L81.3799 12.0375L86.4513 22.9132L83.6454 24.2216L83.047 22.9383C82.6995 24.3891 81.7645 25.4694 80.2419 26.1794C78.7918 26.8556 77.2878 26.8861 75.7298 26.2709C74.1796 25.6344 73.0292 24.5114 72.2786 22.9018C71.528 21.2922 71.4106 19.6963 71.9262 18.1141C72.4497 16.5107 73.4364 15.3709 74.8865 14.6947C76.4091 13.9847 77.8377 13.9629 79.1724 14.6293L78.574 13.3459ZM76.9674 23.4164C77.7967 23.7183 78.6463 23.6663 79.5164 23.2606C80.3864 22.8549 80.9724 22.2374 81.2742 21.4082C81.5838 20.5576 81.5289 19.6829 81.1097 18.7838C80.6904 17.8847 80.0589 17.2877 79.2152 16.9926C78.3792 16.6763 77.5261 16.721 76.6561 17.1267C75.786 17.5324 75.2035 18.1572 74.9084 19.0009C74.6066 19.8302 74.6653 20.6943 75.0845 21.5934C75.5038 22.4924 76.1314 23.1001 76.9674 23.4164Z" fill="white"/>
    <rect x="90.0522" y="32.3778" width="46" height="24" rx="4" transform="rotate(-25 90.0522 32.3778)" fill="#51545F"/>
    <path d="M108.256 30.5095L111.062 29.201L116.134 40.0767L113.328 41.3852L111.401 37.2524L107.072 39.2708L108.999 43.4036L106.193 44.712L101.122 33.8363L103.928 32.5279L105.845 36.6389L110.173 34.6205L108.256 30.5095ZM121.899 24.1479L124.705 22.8395L129.776 33.7152L126.97 35.0236L126.372 33.7403C126.024 35.191 125.089 36.2714 123.567 36.9814C122.116 37.6576 120.612 37.6881 119.054 37.0729C117.504 36.4364 116.354 35.3134 115.603 33.7038C114.853 32.0942 114.735 30.4983 115.251 28.9161C115.774 27.3127 116.761 26.1729 118.211 25.4967C119.734 24.7867 121.162 24.7649 122.497 25.4313L121.899 24.1479ZM120.292 34.2184C121.121 34.5202 121.971 34.4683 122.841 34.0626C123.711 33.6569 124.297 33.0394 124.599 32.2101C124.908 31.3596 124.854 30.4848 124.434 29.5858C124.015 28.6867 123.384 28.0897 122.54 27.7946C121.704 27.4783 120.851 27.523 119.981 27.9287C119.111 28.3344 118.528 28.9591 118.233 29.8029C117.931 30.6321 117.99 31.4963 118.409 32.3953C118.828 33.2944 119.456 33.9021 120.292 34.2184Z" fill="white"/>
    <rect x="133.835" y="44.2664" width="105" height="24" rx="4" transform="rotate(-25 133.835 44.2664)" fill="#A566E4"/>
    <path d="M153.475 41.7286L154.733 44.4257L151.339 46.008L155.153 54.1865L152.347 55.495L148.533 47.3164L145.097 48.919L143.839 46.2218L153.475 41.7286ZM162.814 37.3736L165.62 36.0652L170.691 46.9409L167.885 48.2493L167.287 46.966C166.94 48.4168 166.005 49.4971 164.482 50.2071C163.032 50.8833 161.528 50.9138 159.97 50.2986C158.42 49.6621 157.269 48.5391 156.519 46.9295C155.768 45.3199 155.651 43.724 156.166 42.1418C156.69 40.5384 157.676 39.3986 159.127 38.7224C160.649 38.0124 162.078 37.9906 163.412 38.657L162.814 37.3736ZM161.207 47.4441C162.037 47.7459 162.886 47.694 163.756 47.2883C164.626 46.8826 165.212 46.2651 165.514 45.4358C165.824 44.5853 165.769 43.7105 165.35 42.8115C164.93 41.9124 164.299 41.3154 163.455 41.0203C162.619 40.704 161.766 40.7487 160.896 41.1544C160.026 41.5601 159.444 42.1848 159.148 43.0286C158.847 43.8578 158.905 44.722 159.325 45.621C159.744 46.5201 160.371 47.1278 161.207 47.4441ZM174.352 31.6226C175.817 30.9397 177.324 30.9165 178.874 31.5529C180.432 32.1681 181.586 33.2806 182.337 34.8902C183.088 36.4998 183.201 38.1063 182.678 39.7097C182.162 41.2919 181.172 42.4244 179.707 43.1074C178.185 43.8174 176.763 43.8358 175.443 43.1627L178.07 48.7963L175.264 50.1047L168.164 34.8787L170.97 33.5703L171.569 34.8536C171.902 33.4096 172.829 32.3326 174.352 31.6226ZM175.389 40.8312C176.218 41.133 177.068 41.0811 177.938 40.6754C178.808 40.2697 179.394 39.6522 179.696 38.8229C180.005 37.9724 179.95 37.0976 179.531 36.1986C179.112 35.2995 178.48 34.7025 177.637 34.4074C176.801 34.0911 175.948 34.1358 175.078 34.5415C174.207 34.9472 173.625 35.5719 173.33 36.4157C173.028 37.2449 173.087 38.1091 173.506 39.0082C173.925 39.9072 174.553 40.5149 175.389 40.8312ZM189.632 24.868L191.721 23.8943L196.792 34.77L194.051 36.048L191.171 29.8706L188.94 38.4315L186.852 39.4052L181.78 28.5296L184.521 27.2516L187.401 33.4289L189.632 24.868ZM206.578 19.0584C208.015 19.6417 209.071 20.6583 209.748 22.1084C210.424 23.5585 210.523 25.0215 210.046 26.4974C209.569 27.9732 208.551 29.2159 206.992 30.2256L208.939 34.4018L206.199 35.6798L204.251 31.5036C202.475 32.0492 200.869 32.0303 199.432 31.4471C197.995 30.8638 196.938 29.8471 196.262 28.397C195.585 26.9469 195.486 25.4839 195.963 24.0081C196.44 22.5322 197.458 21.2895 199.017 20.2799L197.07 16.1036L199.811 14.8256L201.758 19.0019C203.534 18.4563 205.14 18.4751 206.578 19.0584ZM199.024 27.1089C199.362 27.8339 199.878 28.3526 200.571 28.6651C201.264 28.9775 202.075 29.0318 203.004 28.8282L200.265 22.9553C199.512 23.536 199.032 24.1922 198.826 24.9238C198.613 25.641 198.679 26.3693 199.024 27.1089ZM205.734 27.5284C206.487 26.9477 206.963 26.3022 207.161 25.5918C207.367 24.8601 207.301 24.1318 206.963 23.4067C206.618 22.6672 206.103 22.1484 205.417 21.8505C204.738 21.5314 203.935 21.4736 203.006 21.6773L205.734 27.5284ZM215.721 16.9399C216.953 16.3651 218.105 16.2427 219.177 16.5726C220.242 16.8881 221.035 17.6041 221.556 18.7206C222.076 19.8372 222.119 20.9121 221.682 21.9452C221.239 22.9639 220.402 23.7606 219.169 24.3354L214.253 26.6276L209.182 15.752L211.988 14.4435L213.611 17.9237L215.721 16.9399ZM219.405 10.9848L222.211 9.67639L227.282 20.5521L224.476 21.8605L219.405 10.9848ZM218.035 21.8456C218.426 21.663 218.694 21.4055 218.839 21.073C218.992 20.7193 218.984 20.3612 218.815 19.9986C218.646 19.6361 218.377 19.3997 218.008 19.2894C217.653 19.1723 217.28 19.2051 216.888 19.3877L214.757 20.3817L215.903 22.8396L218.035 21.8456Z" fill="white"/>
</svg>