<svg xmlns="http://www.w3.org/2000/svg" viewBox="0 0 471.14 290.42">
    <defs>
        <style>
            .cls-1{fill:#ffe600;}.cls-2{fill:#f7f9fb;}.cls-3{fill:#ff9a51;}.cls-4{fill:#040427;}.cls-5{fill:#5e8ff2;}.cls-6{fill:#fff;}.cls-7{fill:#ff3e70;}.cls-8{fill:#51545f;}.cls-9{fill:#a566e4;}
        </style>
    </defs>
    <path class="cls-1"
          d="M295.78,288.48c75.38,0,86.06-33.53,97.49-39.69s4.32-18.53,11.82-27.86c12-14.9,19.23-7.22,23.19-26.55S425,169.58,425,152.33c0-34.57,16.56-50.94-4.59-69s-56.47-16-91.4-16c-64.83,0-103.68-88.88-190.15-62.21-29.8,9.19-26.51,21.71-20,66,2.84,19.22-18.63,43.65-14.9,65.49,6.8,39.89,24.77,34.48,58.67,61.4,5.69,4.52,14,4.47,20.18,9.1,10.4,7.77,11.06,19.85,30.5,28C244.73,248.23,242.08,288.48,295.78,288.48Z"/>
    <ellipse class="cls-2" cx="151.69" cy="185.52" rx="19.06" ry="17.92"/>
    <path class="cls-2"
          d="M144.21,121.63c-3.25-8.11-.41-13,1.41-19.32,1.52-5.3,13.4-13.91,18.87-4.93,1.61,2.64,1,5.14,4.48,7.46,8.51,5.62,3.87-6,4.18-9,.15-1.44-1.06-4.75-.61-6.14s3-3.52,3-6.54S170.41,79,169,78.24c-12.76-6.59-20.88-17.59-16.83-23.18,5.63-7.78,27.72,4.46,34.35,5.59.09,0,1.27-6.17,2.24-7.59a43.28,43.28,0,0,1,6.63-7.88,8,8,0,0,1,4.22-1.87,54.42,54.42,0,0,1,13.79-.56c1.61.2,11.23-10.93,15-14.52,28.76-27.53,86.4,6,55,51.61-5.78,8.38-13.16,11-14.11,14-2.12,6.58,11.22,5.71,16.87,6.42,9.65,1.2,14.41,6.16,8.42,14.65-3.73,5.29-25.63,5-35.22,1.2-3.56-1.42-8-7.63-11.32-2.54-2.32,3.51-11.36,11-21.05,15.17-4.38,1.9-9.36.76-13.1,2.45-5.26,2.39-20.77,12.43-27.31,12.43s-15.1-7.92-16.09-8.44c-1.5-.79-13.12-3.06-18.86-11.92C149.81,120.6,145.4,124.6,144.21,121.63Z"/>
    <ellipse class="cls-3" cx="255.98" cy="74.59" rx="2.02" ry="1.99"/>
    <circle class="cls-3" cx="241.2" cy="70.44" r="1.96"/>
    <circle class="cls-2" cx="384" cy="68.76" r="26.6"/>
    <ellipse class="cls-2" cx="300.83" cy="219.66" rx="77.29" ry="66.06"/>
    <path class="cls-4"
          d="M235.3,255.68l.87.63c-2,1.76-4.9-.43-6.56-2.47-2.65-3.29-5.35-6.79-6.16-10.94a26.83,26.83,0,0,1-.09-7.2l.75-9.68c.33-4.29.66-8.58,1.41-12.82A67.43,67.43,0,0,1,240,181.88l.07-.09c1.32-1.58,2.75-3.3,2.73-5.35-.05-4.33,2.44-8.38,5.71-11.21s7.29-4.65,11.23-6.44c1.79-.81,4.13-1.53,5.51-.14,2.85,2.86,7.61,1,11.38-.41a42.41,42.41,0,0,1,14.52-2.82h.44c3,0,6.32-.09,8.14-2.4,1.15-1.47,3.37-1.38,5.22-1.16l12.76,1.53c1,.12,2.14.38,2.45,1.31.82,2.5,3.73,3.52,6.25,4.28,9,2.7,17.72,6.37,25.32,11.82s14,12.78,17.45,21.5c-5.55-7.58-11.24-15.3-18.93-20.69a64.31,64.31,0,0,0-6.92-4.12,100.8,100.8,0,0,0-17.52-7.36c-28.17-8.6-60.76-.62-81.78,20a34,34,0,0,0-7.63,10.19l2.28.71a12.08,12.08,0,0,0-6.89,9.08,17.84,17.84,0,0,1,6-6.14c-.7,2.35-2.53,4.24-4.32,6.09-2.28,2.36-4.51,4.65-4.27,7.77a8.64,8.64,0,0,1,6.84-5.38c-4.79,4.68-9.94,10.18-9.78,16.88a20.88,20.88,0,0,1,8.37-9.33l-5.27,7.08c-2,2.68-4.09,5.74-3.63,9a22.76,22.76,0,0,1,7.17-7.78,28.6,28.6,0,0,1-6,8.7,12.65,12.65,0,0,0,6.52-2.8,6.68,6.68,0,0,0-1.5,3.63,2.85,2.85,0,0,0,2.15,2.94,1.78,1.78,0,0,1,2.47-.74,6.84,6.84,0,0,0-.05,9.38,3,3,0,0,1,2.35-2.35,12.88,12.88,0,0,0-.88,10.73,8.83,8.83,0,0,1,3-5.06A31.38,31.38,0,0,1,235.3,255.68Zm-1.09-1.49c1.56,0,2.53-1.76,2.69-3.31a15.94,15.94,0,0,0-.72-5.51l-2.71-10.72c-.51.16-.57.72-.63,1.3a2,2,0,0,1-.45,1.32,2.73,2.73,0,0,1-.18-3.07,2.44,2.44,0,0,0-.63-3,4.85,4.85,0,0,0-3.09-1,2.81,2.81,0,0,0-1.72.37,1.18,1.18,0,0,0-.4,1.56,15.28,15.28,0,0,1,2.28,4.79l.1.39a5.06,5.06,0,0,0,1.13,2.44,3.27,3.27,0,0,1,.73,1.93l.83,5.63a10,10,0,0,1,.13,3.09,3.37,3.37,0,0,1-1.65,2.5l3,1A4.05,4.05,0,0,0,234.21,254.2Zm32.26-92.33c-.58.12-1.07-.39-1.49-.83l0-.05c-.43-.45-1.16-.84-1.61-.41a74.38,74.38,0,0,1-17.68,12.34c-1.17.58-1.33,2.16-1.33,3.47,0,.44.42,1.05.69.71a25,25,0,0,1,4.77-4.24c4.81-3.59,9.68-7.21,15.19-9.57C265.63,163,266.41,162.6,266.47,161.87Zm52.79-5.56a2.38,2.38,0,0,0-1.89-1.09,60.58,60.58,0,0,0-6.17-.73,43.75,43.75,0,0,1-8.41-1.26c-.87-.25-1.62.64-2.1,1.41a35.46,35.46,0,0,1,4.34-.18,71.14,71.14,0,0,1,7.52.67,20.51,20.51,0,0,1,3.77.71l.43.14A4,4,0,0,0,319.26,156.31Zm-26.89,10.74a1.35,1.35,0,0,1,.39,2.59,4.49,4.49,0,0,1-1.69.46l-1.76.23a1.31,1.31,0,0,0-.51.14.89.89,0,0,0-.05,1.34,2,2,0,0,0,1.43.46,5.86,5.86,0,0,0,5.39-4,2.47,2.47,0,0,0,0-1.67,2.22,2.22,0,0,0-.49-.7,4.73,4.73,0,0,0-3.68-1.28,7.3,7.3,0,0,0-3.69,1.45,4.14,4.14,0,0,0-1.31,1.38,1.92,1.92,0,0,0,0,1.84.86.86,0,0,0,.56.43.48.48,0,0,0,.55-.36,2.26,2.26,0,0,1,1.16-1.59,6.17,6.17,0,0,1,1.93-.63A4.23,4.23,0,0,1,292.37,167.05Zm-47.13,33.4c.66-3.89,3.8-7,7.46-8.51a8.83,8.83,0,0,1,6.35-.38,3.45,3.45,0,0,1,1.35.85,3.66,3.66,0,0,1,.71,1.32,9.14,9.14,0,0,1-2.23,8.94,13.17,13.17,0,0,1-8.65,3.81,4.65,4.65,0,0,1-3-.55,2,2,0,0,1-.62-2.69c.31,0,.48.29.65.57a2.35,2.35,0,0,0,.28.39,1.85,1.85,0,0,0,1.47.39,11.91,11.91,0,0,0,6.45-2,7.21,7.21,0,0,0,3.15-5.78,3.79,3.79,0,0,0-.59-2.09,3.57,3.57,0,0,0-3.18-1.37,7.44,7.44,0,0,0-3.36,1.25,10.56,10.56,0,0,0-3.44,3.24,6.12,6.12,0,0,0-.9,4.56c-.32.57-1.26.46-1.65-.07A2.47,2.47,0,0,1,245.24,200.45Zm21,32a7,7,0,0,0-3.31,4.72,10.45,10.45,0,0,0,.85,4.69,11.1,11.1,0,0,0,1.62,3.37c1.41,1.77,3.75,2.5,6,2.86.61.1,1.53-.18,1.31-.75a8.39,8.39,0,0,1-8.16-9.52,5.06,5.06,0,0,1,.39-1.43,5.34,5.34,0,0,1,2-2.16,9.92,9.92,0,0,1,6.18-1.54,7.63,7.63,0,0,1,5.42,2.74,5.26,5.26,0,0,1,.45,5.85c-.18.29-.32.79,0,.85a5.58,5.58,0,0,0,2.7-5.15,8.15,8.15,0,0,0-2.66-5.36,6.52,6.52,0,0,0-2.89-1.7,9.12,9.12,0,0,0-4.41.39A19,19,0,0,0,266.25,232.49Zm82,2.54a42.2,42.2,0,0,0-19-2.43,22.48,22.48,0,0,0-7.8,2,15.29,15.29,0,0,0-2.74,25.59,30.57,30.57,0,0,0,4.93,3h0c1.17.62,2.34,1.24,3.45,2,.32.3-.4.6-.81.47a23.94,23.94,0,0,1-10.39-6.14,16.92,16.92,0,0,1,3.41-25.8,22.45,22.45,0,0,1,11.18-3.11,62,62,0,0,1,11.68,1C344.53,232,347.36,232.73,348.21,235Zm-63.5,7.56c-.27-.63-1.38-.79-1.58-.14a10.94,10.94,0,0,1-9.7,7.51,20.78,20.78,0,0,1-2.95-.14,15.39,15.39,0,0,1-6.14-1.49,8.88,8.88,0,0,1-4.28-7.62,11.45,11.45,0,0,1,3.63-8.13c-.3-.85-1.61-.44-2.27.19a11.71,11.71,0,0,0-1.69,13.89,13.39,13.39,0,0,0,12.82,6.23,15.66,15.66,0,0,0,11.83-8.35A2.35,2.35,0,0,0,284.71,242.59Zm-31.28,21.1a21,21,0,0,0-.22,9.58,14.37,14.37,0,0,1,.34,2.34v0h0v0a14.36,14.36,0,0,1,.35-2.35A18.68,18.68,0,0,0,253.43,263.68Zm4.32,1.89a8.32,8.32,0,0,0,.37,7.72c.31.52.55.94.72,1.25h0c.23.42.36.64.4.62s0-.31-.11-.92h0c0-.24-.09-.54-.15-.89Zm3.26,3.1a4.9,4.9,0,0,0,.92,4.57c1.07,1.26,1.42,1.67,1.1,0A11.89,11.89,0,0,0,261,268.66Zm94.2-17.6c-1.48,5.92-6.19,10.41-10.76,14.46.21.45.88.29,1.32,0a22,22,0,0,0,10.09-11.88,18.8,18.8,0,0,0-1.41-15.39,1.61,1.61,0,0,0-1-.88c-.44-.09-.94.42-.68.79A15.93,15.93,0,0,1,355.2,251.07Zm-66.57-53.5a4.31,4.31,0,0,1,.57-2.7c.78-1,2.26-1.14,3.55-1.15a7,7,0,0,1,1.72.12,6.46,6.46,0,0,1,3,2.05.89.89,0,0,1,.34.71c-.06.33-.47.48-.8.42a2.21,2.21,0,0,1-.61-.26l-.3-.16c-1.19-.54-2.58.05-3.65.81-.17.12-.35.27-.35.48a.66.66,0,0,0,.34.49,7.25,7.25,0,0,0,5.06,1.34c.42,0,.92-.2,1-.62a1.61,1.61,0,0,0,0-.53c0-.31-.05-.6.21-.7a.65.65,0,0,1,.43,0c1,.28,2.08.73,2.27,1.71a1.72,1.72,0,0,1-.08.85,2.37,2.37,0,0,1-1.84,1.56,4.64,4.64,0,0,1-1.12,0c-1-.08-2-.17-2.92-.32a19.86,19.86,0,0,1-5.15-1.57,2.86,2.86,0,0,1-1.44-1.14A3.07,3.07,0,0,1,288.64,197.57Zm36.51-23.11a5.1,5.1,0,0,0-3.55-3.14,1.87,1.87,0,0,0-1.48.14.85.85,0,0,0-.16,1.3.71.71,0,0,1-.32,1.16,1.14,1.14,0,0,1-1.22-.62,3,3,0,0,1-.26-1.44,1.85,1.85,0,0,1,1.19-2.22,4.91,4.91,0,0,1,3-.56,5,5,0,0,1,2.41,1.66,24,24,0,0,1,1.56,1.87,5.14,5.14,0,0,1,1,1.88,2,2,0,0,1-.52,2,1.89,1.89,0,0,1-2,.21,1.56,1.56,0,0,1-1-1.42C323.87,174.63,324.63,174.11,325.15,174.45Zm5.1,43.42a3.31,3.31,0,0,0,3-2.52,2.15,2.15,0,0,0-.78-2.3,3.09,3.09,0,0,0-1.84-.27,5.75,5.75,0,0,0-2.53.57,2,2,0,0,0-1.08,2.17A3.31,3.31,0,0,0,330.24,217.87Zm.18-2c-.27.07-.66,0-.69-.28a.48.48,0,0,1,.13-.32,1.55,1.55,0,0,1,1.78-.47A1.85,1.85,0,0,1,330.43,215.82Zm.73-21a1.12,1.12,0,0,1,.76-1.36,3.51,3.51,0,0,1,1.38-.13h.35a2,2,0,0,0,1.6-.53.52.52,0,0,0,.12-.56c-.11-.19-.36-.22-.57-.23-1.48-.08-3.23,0-4.08,1.18a.51.51,0,0,1-.8-.1,1.11,1.11,0,0,1,0-.92,3.56,3.56,0,0,1,2.45-2.19,6.82,6.82,0,0,1,3.38,0,2.09,2.09,0,0,1,1,.47,1.75,1.75,0,0,1,.42.8,3.67,3.67,0,0,1-5.47,4.07A1.29,1.29,0,0,1,331.16,194.85Zm-5.07,24.89a6.82,6.82,0,0,0,2.49,2A4.8,4.8,0,0,0,334.3,220c.43-.66.62-1.67,0-2.14a4.52,4.52,0,0,1-6,1.93,5.33,5.33,0,0,1-1.08-.81,5.1,5.1,0,0,1-1.39-5.61,5.7,5.7,0,0,1,1.2-1.6c1-1,2.53-1.87,3.92-1.41l.17.06a1.5,1.5,0,0,0,.6.13c.27,0,.54-.25.47-.51a.56.56,0,0,0-.12-.2,3,3,0,0,0-3.76-.75,8.65,8.65,0,0,0-3.68,3.22C323.34,214.66,324.36,217.67,326.09,219.74Zm23-36.79a.49.49,0,0,0,0,.34c0,.14,0,.28-.08.34a1.93,1.93,0,0,1-1.41.05,5.7,5.7,0,0,1-2.81-2.65,4.81,4.81,0,0,1-.9-2.1,1.74,1.74,0,0,1,1.06-1.85c.82-.24,1.63.37,2.27.94a8,8,0,0,1,1.91,2.17A2.73,2.73,0,0,1,349.1,182.95Zm-2.74-2.87a1.86,1.86,0,0,1,.37.64,1.86,1.86,0,0,0,.36.63,1,1,0,0,0,.85.25,15.35,15.35,0,0,0-2-2.43c-.2.06-.21.35-.1.52a1.18,1.18,0,0,0,.27.25h0ZM238.67,259.16c-.07,1.15,0,2.48.94,3.17.31-.17.29-.61.25-1a15.23,15.23,0,0,1,1.1-6.3,22.23,22.23,0,0,0,1.12-4.53c0-.45-.07-1.06-.52-1.07s-.55.34-.69.65A26.48,26.48,0,0,0,238.67,259.16Zm89.19-41.43a4.85,4.85,0,0,0,3.27.6,4.78,4.78,0,0,0,1.19-.63,1.53,1.53,0,0,1-1.15,1.35,3.81,3.81,0,0,1-1.88-.05C328.6,218.85,327.75,218.43,327.86,217.73Zm-82.06,53a3.71,3.71,0,0,0,.35-1.57l.31-4.3a45.88,45.88,0,0,0,.17-6.33,1.45,1.45,0,0,0-.2-.76.52.52,0,0,0-.69-.17.76.76,0,0,0-.22.53,57,57,0,0,0-.54,7.36A11.93,11.93,0,0,0,245.79,270.69ZM241.1,267a.62.62,0,0,1-.88-.3,1.77,1.77,0,0,1,0-1.06q1-5.56,2.31-11.07a.63.63,0,0,1,.1-.26c.23-.28.68,0,.85.32a3.9,3.9,0,0,1,0,2.6l-2.12,9.26A.9.9,0,0,1,241.1,267Zm7.35.16a17.9,17.9,0,0,0,.3,4.17c.07.49.43,1.14.87.92l.87-9.25a1.51,1.51,0,0,0-.18-1.09c-.23-.3-.82-.29-.9.08l-.64,3.17A17.84,17.84,0,0,0,248.45,267.16Zm89.33-28.35a9.71,9.71,0,0,0-8-.71c-1.91.79-7.31,4.22-8,8.61a17.35,17.35,0,0,0,.55,8.79l.17.45c.31.8,1.28,1.73,1.83,1.06a11.71,11.71,0,0,1,5.81-16.5,7.06,7.06,0,0,1,2-.53,7.46,7.46,0,0,1,4,1c2.69,1.38,6,3.66,7.29,6.4s2.14,5.78,1,8.47-8.44,4.63-8.44,4.63l.81,1.48a19.94,19.94,0,0,0,6.61-2.63C353.94,251.61,340.14,240,337.78,238.81Z"/>
    <path class="cls-4"
          d="M151.91,201a14.4,14.4,0,0,1-10.56-2.82,16.11,16.11,0,0,1-4.51-6.44,24.8,24.8,0,0,1-1.86-8.38,9.52,9.52,0,0,1,.3-3.22,10.58,10.58,0,0,1,3.07-4.3c2.74-2.62,6-5,9.7-5.57a19.54,19.54,0,0,1,7.66.78,23.34,23.34,0,0,1,5.69,2.1,14.11,14.11,0,0,1,7,10.87c.39,4.47-.09,7.43-6.12,13A23.89,23.89,0,0,1,151.91,201Zm6.56-14a4,4,0,0,1-1.83.42c-1.27-.22-1.5-2-1.22-3.23a12.58,12.58,0,0,1,6.65-8.42c-.75-1.36-2.75-1.46-4.16-.81s-2.52,1.84-3.88,2.58a2.93,2.93,0,0,1-2.23.4,2.51,2.51,0,0,1-1.28-3.19,7.31,7.31,0,0,1,2.35-3,20.13,20.13,0,0,0-9.83,3c-2.31,1.43-4.49,3.76-4.18,6.46a17.23,17.23,0,0,1,6.51-3.26c.5-.13,1.13-.19,1.45.22a1.15,1.15,0,0,1,0,1.12c-.76,1.8-3,2.4-4.37,3.77a1.26,1.26,0,0,0-.4.64,1,1,0,0,0,.88,1,2.88,2.88,0,0,0,1.46-.27l2.93-1.1a2.44,2.44,0,0,1,2.17-.1,1.65,1.65,0,0,1,.34,2.11,4.8,4.8,0,0,1-1.69,1.59l-4.69,3.14c-1.31.88-2.77,2.06-2.65,3.63a3,3,0,0,0,3.22,2.39,6.63,6.63,0,0,0,3.87-2,22.47,22.47,0,0,1,3.35-2.92c.83-.5,2-.78,2.68-.08a2.22,2.22,0,0,1,.27,2.12,7.5,7.5,0,0,1-4,4.78,13.27,13.27,0,0,0,4.87.2,4.48,4.48,0,0,0,2.54-1,2,2,0,0,0,.35-2.53,4,4,0,0,1-.28-4,11.65,11.65,0,0,1,2.5-3.31C159.88,186.83,159.07,186.79,158.47,187Zm7.36,2.47a12.93,12.93,0,0,0,.68-6.44c-.24-2.4-1.08-5.15-3.34-6a11.35,11.35,0,0,0-6.63,8,1.5,1.5,0,0,0,0,.89.57.57,0,0,0,.73.34,3.39,3.39,0,0,1,3-.3,1.68,1.68,0,0,1,.63,2.56,8.35,8.35,0,0,0-2.14,2.65,2.85,2.85,0,0,0,.46,3.18,1.61,1.61,0,0,1,0,2.29c1.8-.53,3.09-2.08,4.26-3.55A16.4,16.4,0,0,0,165.83,189.45ZM145.07,179.1a43.3,43.3,0,0,0-5.45,2.72,3.13,3.13,0,0,0-1.83,2.69,10.29,10.29,0,0,0,.25,6.21,11.83,11.83,0,0,0,1,1.73.86.86,0,0,0,.43.4c.19.05.44-.1.4-.29a1.8,1.8,0,0,1,.76-1.58c2.61-2.46,6.12-3.87,8.47-6.57-.36-.42-1-.22-1.54,0a27.07,27.07,0,0,1-3.73,1.28,2.76,2.76,0,0,1-2,0,2,2,0,0,1-.56-2.62,5.55,5.55,0,0,1,2.19-2,6.17,6.17,0,0,0,2.25-1.91C145.66,178.94,145.31,179,145.07,179.1Zm6.42,16.45A4,4,0,0,0,153.3,193c0-.55-.31-1.23-.86-1.18a1.17,1.17,0,0,0-.47.19c-2.41,1.44-4,4.26-6.72,5a13.23,13.23,0,0,0,2.39.81,1.73,1.73,0,0,0,.74.06,1.86,1.86,0,0,0,.75-.43Zm2.24-23-1.61,1.78c-.42.47-.88,1.09-.64,1.68a1.14,1.14,0,0,0,1.15.62,2.8,2.8,0,0,0,1.28-.53c1.39-.91,2.64-2.16,4.27-2.52l-3.38-1.23a.77.77,0,0,0-1.07.21Z"/>
    <path class="cls-4"
          d="M174.68,101.63c-.14,2.81-2.31,5.86-5.11,5.52a28.72,28.72,0,0,1-3.23-5.06c-1.87-3.44-3.71-6.8-7.36-7.44s-6.92,2-9.16,4.88a29.7,29.7,0,0,0-6,14.43c-.39,3.07.87,7.34,4,7,3.52-.39,6,2.38,8.57,5.19,2.36,2.61,4.75,5.25,8,5.47,3.89.27,7.07,2.6,10.29,5h0a33.18,33.18,0,0,0,6.72,4.16c4.53,1.87,9.75,1.51,14.38-.12a46.84,46.84,0,0,0,12.63-7.4l.2-.16c2.13-1.63,4.35-3.33,7-3.69a48.48,48.48,0,0,0,33.57-21.17,43,43,0,0,0,38.43,7.51,14.14,14.14,0,0,0,6.07-3.15,6.17,6.17,0,0,0,1.76-6.29c-.88-2.36-3.51-3.62-6-3.93a26.27,26.27,0,0,0-4.13-.07,32.42,32.42,0,0,1-3.41,0c-6.87-.49-12.6-5.23-17.8-9.74,7.54-2.31,13.65-8.12,17.69-14.9s6.2-14.49,7.84-22.21c.87-4.06,1.51-8.63-.81-12.07a16.45,16.45,0,0,0-4.08-3.79,14.25,14.25,0,0,1-4.4-4.36c-1.91-3.54-5.65-5.64-9.19-7.55-9.27-5-19.91-10.15-29.9-6.81-3.89,1.3-7.25,3.8-10.53,6.26-5.44,4.1-11.27,8.91-12.3,15.64a21.88,21.88,0,0,0-26,7.18,42.64,42.64,0,0,0-3.24,5.85,36,36,0,0,1-3.95,6.79q-9.86-4.49-20.07-8.16c-3-1.08-6.62-2-9.21-.17-2.08,1.5-2.72,4.45-2.11,6.94a15.22,15.22,0,0,0,4,6.49,45.14,45.14,0,0,0,13.38,9.86l.49.23a10.93,10.93,0,0,1,4.23,2.89c1.15,1.52,1.23,4.05-.39,5.06-2.39,1.49-2.83,4.82-2.34,7.59.17.95.41,1.89.66,2.82A18.1,18.1,0,0,1,174.68,101.63Zm64.93,14.83c-6,6.33-14.51,10-23.18,11.11s-17.52-.32-25.81-3.11a3.31,3.31,0,0,0,2.65-4.81c-4.56,5.32-11.52,7.81-18.15,10.09a17.16,17.16,0,0,1-17.55-4,15.29,15.29,0,0,1-2.5-17.56c1.35-2.4,3.63-4.49,6.37-4.73s5.7,2,5.44,4.78a2.85,2.85,0,0,0-3.2,2.58,20.54,20.54,0,0,0,14.73-9,40.5,40.5,0,0,0,2.85-5.44c.58-1.25,1.15-2.51,1.81-3.71,1.64-3,4-5.87,7.27-6.91,2.62-.83,5.46-.37,8.17.1l12,2.08c.9-.78-.56-2-1.72-2.27-3.76-.79-7.58-1.27-11.39-1.76h0c-3.54-.45-7.07-.9-10.57-1.59-7.27-1.43-14.57-4.06-19.86-9.24a16.22,16.22,0,0,0,7.44-9.56c.23-.81-.31-2.13-1-1.61-.75,2.59-1.56,5.29-3.43,7.22s-5.16,2.78-7.28,1.12c-2.75-2.15-5.65-4.5-6.74-7.83s.63-7.78,4.11-8.19a9,9,0,0,1,4.52,1.09l14.5,6.36c4.32,1.89,8.7,3.8,13.36,4.49a53,53,0,0,0,9.91.21l9.37-.39a3.19,3.19,0,0,0,1.13-.18c.94-.4,1.26-1.55,1.47-2.55,2.51-12.14,5.89-24.94,15-33.31A31.71,31.71,0,0,1,244,22.42c5.34-1.16,11.24-.82,15.83,2.14a34.82,34.82,0,0,0-20.89,9.07c-2.39-2.55-6.83-.47-8.73,2.46a14.22,14.22,0,0,0,.13,15.33c2.55,3.78,3.49,8.28,4.44,12.8.87,4.15,1.74,8.31,3.86,11.92,3.35,5.71,9.6,9.38,16.13,10.51s13.29-.05,19.49-2.38a26.35,26.35,0,0,1-27.21,5.88c-.67-.25-1.34-.53-2-.81a16.48,16.48,0,0,0-6.49-1.75,11.31,11.31,0,0,0,4.86,3q-3.19,5.36-6.69,10.53a2.34,2.34,0,0,1-1.15,1.06,2.29,2.29,0,0,1-1.68-.4,39.85,39.85,0,0,1-11.27-9.3l-6.28,7.64a55.6,55.6,0,0,0,11.17,10.35,33.36,33.36,0,0,1-22.77,12.1,28.72,28.72,0,0,0,23.86-11.06A67.14,67.14,0,0,0,239.6,116.46Zm28.8-67.22a11.31,11.31,0,0,0,2.59-8.3,27.72,27.72,0,0,0-2.28-8.6,11.35,11.35,0,0,1,8.11,2.52,21.66,21.66,0,0,1,5.44,6.73,30.58,30.58,0,0,1,3.6,9.87c1.34,8.18-1.52,16.51-5.61,23.72a16.84,16.84,0,0,1-2.8,3.91,14.63,14.63,0,0,1-4.07,2.62A31.7,31.7,0,0,1,253.79,84a31.34,31.34,0,0,0,9-13.38A62.43,62.43,0,0,0,266,54.67v0a8.07,8.07,0,0,1,1-3.93,7.7,7.7,0,0,1,.9-1ZM260.84,71.8a24.43,24.43,0,0,1-8.39,10.68,3.36,3.36,0,0,1-1.45.66,3.39,3.39,0,0,1-1.4-.22,16.83,16.83,0,0,1-8.33-5.49,18.71,18.71,0,0,1-1.91-3.14,32.19,32.19,0,0,1-1-26c.16-.4.38-.84.8-.92s1,.45,1.26.91c2.48,3.76,7.13,5.67,11.63,5.86s8.93-1.08,13.2-2.53a21.1,21.1,0,0,0-1.17,6h0c0,.26,0,.52-.08.77A45.36,45.36,0,0,1,260.84,71.8Zm-.92-39.2c2.3-.52,5-.67,6.75.91A6.24,6.24,0,0,1,268,35.35a11.82,11.82,0,0,1-2,13.29c-3.87,4-10,4.6-15.51,4.14a12.78,12.78,0,0,1-5.7-1.52c-2.18-1.35-3.48-3.73-4.68-6C245.41,39.33,252.15,34.37,259.92,32.61Zm18.63,71.66a23,23,0,0,0-1.69,5.62,7.75,7.75,0,0,0,1.26,5.61,42.64,42.64,0,0,1-27.7-8.41,44.87,44.87,0,0,0,5.93-11.74c.55-1.65,2.64-2.34,4.33-2a11.17,11.17,0,0,1,4.15,2.33l.17.13.16.12A110.65,110.65,0,0,0,278.56,104.27Zm-68.73,24.92a32,32,0,0,1-5.3,4.56c-4,2.85-8.26,5.45-13.07,6.28a19.89,19.89,0,0,1-18.92-7.55l15.36-5.73a2.86,2.86,0,0,1,1.14-.25,2.79,2.79,0,0,1,.65.14h0l.43.11a4.28,4.28,0,0,0,1.49-.07,5.24,5.24,0,0,1,4.18.9l.79.38C200.66,129.84,205.36,129.53,209.83,129.19Zm-22.17-65.7a.94.94,0,0,1,.12-.76,71.66,71.66,0,0,1,12.29-18,38.3,38.3,0,0,1,6.75,16.5c.18,1.19,0,2.82-1.2,3a61.39,61.39,0,0,1-17.18-.29C188.13,63.85,187.78,63.76,187.66,63.49Zm21.48-.41A51.05,51.05,0,0,0,202,44.87c3-1.57,6.51-1.6,9.88-1.58,2.13,0,4.45.08,6.07,1.46l-4.21,12.41a18.25,18.25,0,0,0-1.35,6.5l-2.66,0a.69.69,0,0,1-.28,0C209.24,63.57,209.18,63.31,209.14,63.08Zm34.21,31.77A8.77,8.77,0,0,0,244.8,91,23.56,23.56,0,0,0,255,93c.55,0,.53.83.3,1.33-.68,1.51-1.36,3-2.15,4.48s-1.72,2.93-2.64,4.37l-2.19,3.44a4.68,4.68,0,0,1-1.06,1.29c-1.2.9-2.9.47-4.27-.15a21.37,21.37,0,0,1-6.13-4.17A51.35,51.35,0,0,0,243.35,94.85Zm-82.27,3a14.26,14.26,0,0,1,2.41,3.76l-3.16.45a8.79,8.79,0,0,0-3.07.82A7.25,7.25,0,0,0,155,105a20.66,20.66,0,0,0-4,12.13,2.69,2.69,0,0,1-3.37,2.28,4.19,4.19,0,0,1-2.8-3.44,10.08,10.08,0,0,1,.57-4.61,27.85,27.85,0,0,1,8.84-13.66A6.17,6.17,0,0,1,157,96.26,4.82,4.82,0,0,1,161.08,97.82Zm132.8,8.8a2.61,2.61,0,0,1,.62,1.64,3.23,3.23,0,0,1-1,2c-3.05,3.27-7.74,4.39-12.19,4.91a1.81,1.81,0,0,1-.87,0,1.55,1.55,0,0,1-.57-.44,6.27,6.27,0,0,1-1.41-4.5,12.48,12.48,0,0,1,1.33-4.62,1.65,1.65,0,0,1,.61-.79,1.7,1.7,0,0,1,.79-.15l5.38-.14a17,17,0,0,1,4,.21A5.72,5.72,0,0,1,293.88,106.62ZM233.94,55.81a51.28,51.28,0,0,1-4.86-12.92l.88-2.36a26.78,26.78,0,0,1,4.09-5.85,2.52,2.52,0,0,1,2.71-.45,7.4,7.4,0,0,1,2.35,1.7l3.18,3a.69.69,0,0,1,.22.31c.06.24-.14.45-.31.62a23,23,0,0,0-3.87,4.76,41.16,41.16,0,0,0-3.54,8.58ZM242.06,33c6.46-3.46,13.54-6.72,20.83-5.94a23.67,23.67,0,0,1,10.63,4.07,31,31,0,0,0-26.59,5.66c-1.14.9-2.84,1.88-3.86.84a3.51,3.51,0,0,1-.6-1c-.26-.58-.52-1.14-1.11-1.2s-.82-.82-.58-1.34A2.68,2.68,0,0,1,242.06,33ZM224.3,96.33a48.64,48.64,0,0,0,4.08,3.39l5.66,4.36q-2.62,2.31-5.12,4.74a38.77,38.77,0,0,1-10.4-9q2.37-2.47,4.56-5.13A4.44,4.44,0,0,0,224.3,96.33Zm-36.42-11.8c-3,2.33-6.07,4.78-7.71,8.19-.32.67-.58,1.37-.85,2.07a11.56,11.56,0,0,1-2.21,4.1c-.48-.14-.67-.71-.79-1.2L175.19,93a4,4,0,0,1,.5-3.75L179,83.14a1.23,1.23,0,0,1,.27-.37,1.26,1.26,0,0,1,1.1-.08Zm48.45,20.9a18.88,18.88,0,0,0,7.32,4.65,1.1,1.1,0,0,1,1.71.46,31,31,0,0,1-3.11,3.46,2.16,2.16,0,0,1-2,.22,32.19,32.19,0,0,1-9.39-3.79c-.2-.12-.41-.28-.39-.51a.63.63,0,0,1,.24-.37l4.08-3.75C235.24,105.41,235.92,105,236.33,105.43Zm52-52.44a1.74,1.74,0,0,1-.46,1.26,22.46,22.46,0,0,0-2.59-10.42,17.51,17.51,0,0,0-1-1.69l-.14-.21a4.18,4.18,0,0,1-.84-1.73l4.37,4.56a4.07,4.07,0,0,1,1,1.41,4.07,4.07,0,0,1,.09,1.67Zm-5-5.8-1-1.25c-1.09-1.37-2.42-2.87-4.17-2.87a5.89,5.89,0,0,0-2.83,1l-1.37.79a3.32,3.32,0,0,0-1,.78c-.76,1-.21,2.42.51,3.44a4.72,4.72,0,0,0,1.88,1.71,5,5,0,0,0,3.28-.05A18.85,18.85,0,0,0,282.86,49c.42-.24.89-.59.87-1.08A1.39,1.39,0,0,0,283.35,47.19Zm-8.64,1a1.76,1.76,0,0,1-.35-.88c0-.63.62-1,1.17-1.35l2-1.06a2.34,2.34,0,0,1,.94-.35.8.8,0,0,1,.82.46,3.09,3.09,0,0,0,2.12,1.92.56.56,0,0,1,.26.8,1.54,1.54,0,0,1-.74.6,18.87,18.87,0,0,1-3.21,1.24,2.72,2.72,0,0,1-1.36.13A3,3,0,0,1,274.71,48.15Zm-13.89,9.64c-1.94.23-2.3,3.72-1.4,5.58a1.31,1.31,0,0,0,.9.83c.72.09,1.12-.8,1.28-1.51v0C261.81,61.74,262.75,57.57,260.82,57.79Zm-10,4.58a5.33,5.33,0,0,0,.37-2.89,2.43,2.43,0,0,0-.51-1.25,1.18,1.18,0,0,0-1.23-.39,1.64,1.64,0,0,0-.82.89,7.58,7.58,0,0,0-.74,4.25,1.2,1.2,0,0,0,1.57.83A2.44,2.44,0,0,0,250.84,62.37Zm5.71-2.07c.3-.25.68.2.8.57a34.06,34.06,0,0,1,1,3.72,5.77,5.77,0,0,1,.13,2.41,4.24,4.24,0,0,1-2.08,2.61,12.58,12.58,0,0,1-3.21,1.18c-.29.08-.66.13-.85-.1a.54.54,0,0,1,.1-.69,1.63,1.63,0,0,1,.67-.34h0c1.72-.57,3.56-1.59,4-3.35a6,6,0,0,0-.32-2.93,6.81,6.81,0,0,1-.37-2.69A.57.57,0,0,1,256.55,60.3Zm-12-4a1.48,1.48,0,0,1,.57-2,3.43,3.43,0,0,1,2.26-.3,11.14,11.14,0,0,1,2.68.69.78.78,0,0,1,.46.34c.15.33-.24.7-.6.7a1.8,1.8,0,0,1-.82-.28h0l-.19-.1A3.68,3.68,0,0,0,244.52,56.33Zm16.54-.22a2.77,2.77,0,0,1,2,.43c.24.16.58-.11.58-.4a1,1,0,0,0-.44-.71,3.08,3.08,0,0,0-1.72-.65,1.32,1.32,0,0,0-1.1.36.63.63,0,0,0,.21,1,1,1,0,0,0,.43,0ZM252.6,73.83c.19-.11.44.08.47.3a.81.81,0,0,1-.24.6,3.23,3.23,0,0,1-3,.91,8.09,8.09,0,0,1-3-1.4q-.65-.44-1.27-.9a2,2,0,0,1-.95-1.25c-.05-.54.64-1.08,1-.71a12.55,12.55,0,0,0,3.15,2.39A4.25,4.25,0,0,0,252.6,73.83Zm-20.66,4.3A55.41,55.41,0,0,1,227.13,50a.79.79,0,0,1,.14-.46.41.41,0,0,1,.61,0,91.06,91.06,0,0,0,.76,15.76,30.5,30.5,0,0,0,6,14.42l.3.36h0a8.3,8.3,0,0,1,1.48,2.21C234.28,82.28,232.85,80.1,231.94,78.13Zm3.94-39.45a.8.8,0,0,0-.26-.19.93.93,0,0,0-.88.19,2.12,2.12,0,0,0,0,3.25A4.84,4.84,0,0,0,236,40.5,1.65,1.65,0,0,0,235.88,38.68Zm8.72,9.23A12.38,12.38,0,0,0,248.26,50c4.27,1.51,9.07.56,13.19-1.32a1.73,1.73,0,0,1,1.92.36,15.86,15.86,0,0,1-9.14,2.92c-.72,0-1.43,0-2.15-.11a16.37,16.37,0,0,1-4.31-.83,6.77,6.77,0,0,1-3.44-2.62Zm46.51,57.56c0,.14.07.28.18.39l1.62,1.61a1.36,1.36,0,0,0-.36-1.36,4,4,0,0,0-1.25-.79A.22.22,0,0,0,291.12,105.47Z"/>
    <path class="cls-2"
          d="M438.33,43.36c3.55,1.23,6.89-2,10-4.15a21.27,21.27,0,0,1,16.59-3.43A4.43,4.43,0,0,1,467.42,37a4.48,4.48,0,0,1,.82,2.47,24,24,0,0,1-3.73,15.44c-1.44,2.2-3.24,4.16-4.52,6.45s-2,5.09-1.1,7.55a48.16,48.16,0,0,1-46,64.93c-8-.15-15.81-2.28-23.33-5-3.28-1.17-6.89-2.45-10.15-1.22a68.82,68.82,0,0,1-18.54,4.21,9.74,9.74,0,0,1-4.66-.42,6.82,6.82,0,0,1-3.73-5.63,15.46,15.46,0,0,1,1.22-6.91c2.47-6.68,10.15-17.11,14.8-19.52-.37-8.11-.33-16.32,1.42-24.25s5.33-15.62,11.2-21.23A42,42,0,0,1,389.19,48,60.3,60.3,0,0,1,438.33,43.36Z"/>
    <path class="cls-2"
          d="M415.94,42.7c-11.24.26-22.19,4.78-31,11.8a36.73,36.73,0,0,0-6.94,7,34.16,34.16,0,0,0-3.74,6.83,49.33,49.33,0,0,0,3.55,44.45,1.51,1.51,0,0,0,.7.7,1.53,1.53,0,0,0,1.18-.26,215.94,215.94,0,0,0,66.69-55.3,2.6,2.6,0,0,0,.79-1.85,2.51,2.51,0,0,0-.8-1.31C438.64,46.64,427.18,42.44,415.94,42.7Z"/>
    <path class="cls-2"
          d="M431.65,127.7c12.19-5.72,21.45-17,25.4-29.9a33,33,0,0,0,1.61-9,48,48,0,0,0-.66-7.65l-1.55-11c-.14-1-1.08-2.26-1.76-1.56A460.86,460.86,0,0,1,392.54,122c-.74.53-1.56,1.19-1.6,2.1s1,1.82,1.87,2.34C404.48,133.21,419.47,133.42,431.65,127.7Z"/>
    <path class="cls-2"
          d="M356.47,126.2c.89,1.42,2.81,1.71,4.48,1.76,8.79.24,17.48-2.33,25.35-6.27s15-9.19,21.9-14.62c9.23-7.24,18.18-14.83,26.9-22.67,10.8-9.71,21.42-20,28.51-32.68,1.37-2.45,2.64-5.14,2.42-7.94s-2.45-5.63-5.26-5.52a27,27,0,0,0-16.35,6.39c-.9.77-.26,2.41.85,2.82a4.66,4.66,0,0,0,3.43-.48,6.81,6.81,0,0,1,3.39-.91,4,4,0,0,1,3.19,3.85A9,9,0,0,1,453.65,55a48.07,48.07,0,0,1-6.32,7.8,310.76,310.76,0,0,1-69.82,55.33,53.19,53.19,0,0,1-7.17,3.65,5.32,5.32,0,0,1-4.09.34c-2.1-1-2.26-3.91-1.64-6.13a16.43,16.43,0,0,1,5.73-8.46l-1.56-4.39a28.52,28.52,0,0,0-12.69,19.64A5,5,0,0,0,356.47,126.2Z"/>
    <path class="cls-2"
          d="M375.74,116.15a.56.56,0,0,0-.12-.44L373,111.53c-.4-.63-1.16-1.34-1.76-.89a11.36,11.36,0,0,0-4.23,6.63,2.09,2.09,0,0,0,.11,1.54c.52.83,1.77.65,2.7.32a30.83,30.83,0,0,0,5.66-2.71A.55.55,0,0,0,375.74,116.15Z"/>
    <path class="cls-2"
          d="M451.88,49.95c-.09-.36-.52-.52-.89-.53a2.11,2.11,0,0,0-2.23,2c.07,1.13,1.74,1.84,2.45,1a2.45,2.45,0,0,0,.38-.94l.25-1A1,1,0,0,0,451.88,49.95Z"/>
    <path class="cls-4"
          d="M435.5,46.36c3.55,1.23,6.89-2,10-4.15A21.27,21.27,0,0,1,462,38.78,4.44,4.44,0,0,1,464.6,40a4.48,4.48,0,0,1,.82,2.47,24,24,0,0,1-3.73,15.44c-1.44,2.2-3.24,4.16-4.52,6.45s-2,5.09-1.1,7.55a48.16,48.16,0,0,1-46,64.93c-8-.15-15.81-2.28-23.33-5-3.28-1.17-6.89-2.45-10.15-1.22A68.82,68.82,0,0,1,358,134.9a9.74,9.74,0,0,1-4.66-.42,6.82,6.82,0,0,1-3.73-5.63,15.47,15.47,0,0,1,1.22-6.91c2.47-6.68,10.15-17.11,14.8-19.52-.38-8.11-.34-16.32,1.42-24.25s5.33-15.62,11.2-21.23A41.93,41.93,0,0,1,386.37,51,60.3,60.3,0,0,1,435.5,46.36Zm-22.39-.66c-11.24.26-22.19,4.78-31,11.8a36.73,36.73,0,0,0-6.94,7,34.16,34.16,0,0,0-3.74,6.83A49.33,49.33,0,0,0,375,115.81a1.51,1.51,0,0,0,.7.7,1.53,1.53,0,0,0,1.18-.26,215.93,215.93,0,0,0,66.69-55.3,2.6,2.6,0,0,0,.79-1.85,2.51,2.51,0,0,0-.8-1.31C435.82,49.65,424.36,45.44,413.11,45.7Zm15.72,85c12.19-5.72,21.45-17,25.4-29.9a33,33,0,0,0,1.61-9,48,48,0,0,0-.66-7.65l-1.55-11c-.14-1-1.08-2.26-1.76-1.56A460.86,460.86,0,0,1,389.72,125c-.74.53-1.56,1.19-1.6,2.1s1,1.82,1.87,2.34C401.66,136.21,416.64,136.42,428.83,130.7Zm-75.18-1.5c.89,1.42,2.81,1.71,4.48,1.76,8.79.24,17.49-2.33,25.35-6.27s15-9.19,21.9-14.62c9.23-7.24,18.18-14.83,26.9-22.67,10.8-9.71,21.42-20,28.51-32.68,1.37-2.45,2.64-5.14,2.42-7.94s-2.45-5.63-5.26-5.52a27,27,0,0,0-16.35,6.39c-.9.77-.26,2.41.85,2.82a4.66,4.66,0,0,0,3.43-.48,6.81,6.81,0,0,1,3.39-.91,4,4,0,0,1,3.19,3.85A9,9,0,0,1,450.83,58a48.07,48.07,0,0,1-6.32,7.8,310.74,310.74,0,0,1-69.82,55.33,53.19,53.19,0,0,1-7.17,3.65,5.32,5.32,0,0,1-4.09.34c-2.1-1-2.26-3.91-1.64-6.13a16.43,16.43,0,0,1,5.73-8.46L366,106.17a28.52,28.52,0,0,0-12.69,19.64A5,5,0,0,0,353.65,129.2Zm19.27-10.05a.56.56,0,0,0-.12-.44l-2.62-4.17c-.4-.63-1.16-1.34-1.76-.89a11.36,11.36,0,0,0-4.23,6.63,2.09,2.09,0,0,0,.11,1.54c.52.83,1.77.65,2.7.32a30.83,30.83,0,0,0,5.66-2.71A.55.55,0,0,0,372.92,119.15Zm76.14-66.2c-.09-.36-.52-.52-.89-.53a2.11,2.11,0,0,0-2.23,2c.07,1.13,1.75,1.84,2.45,1a2.44,2.44,0,0,0,.38-.94l.25-1A1,1,0,0,0,449.06,52.95Z"/>
    <path class="cls-5"
          d="M139.37,229.75A25.39,25.39,0,0,0,103.88,197,25.39,25.39,0,0,0,56,190.87a25,25,0,0,0-1.8,5.48c-6,21.22,6.35,52.32,19.5,65.41,18.48,1.66,50.25-8.87,62.63-27.1A24.76,24.76,0,0,0,139.37,229.75Z"/>
    <path class="cls-6"
          d="M61,220.52l1.29-2.77,11.1-4.17q4-1.46,5-3.47a3.43,3.43,0,0,0,.18-2.88,3.61,3.61,0,0,0-2-2,4.66,4.66,0,0,0-5.26.81l-2.17-3.15A8.09,8.09,0,0,1,73.51,201a8.61,8.61,0,0,1,4.62.8,7.86,7.86,0,0,1,4,4.06,6.78,6.78,0,0,1-.24,5.82Q80.39,214.94,75,217l-7.14,2.6,8.94,4.17-1.59,3.42ZM92.29,231.9a8,8,0,0,1-7.65.15,8.09,8.09,0,0,1-4.83-6q-.8-4.08,1.57-9.17t6-7.1a8.09,8.09,0,0,1,7.68-.13,8,8,0,0,1,4.8,6q.83,4.1-1.54,9.18T92.29,231.9Zm-6-3.3a4.49,4.49,0,0,0,4.6-.29,15,15,0,0,0,5.35-11.46,4.5,4.5,0,0,0-2.73-3.71,4.55,4.55,0,0,0-4.6.29,15,15,0,0,0-5.35,11.46A4.55,4.55,0,0,0,86.26,228.6Zm19.86-2.48a5.1,5.1,0,0,1-2.74-2.89,5,5,0,0,1,.18-3.93,4.84,4.84,0,0,1,2.88-2.63,5.34,5.34,0,0,1,6.72,3.13,4.84,4.84,0,0,1-.17,3.9,5,5,0,0,1-2.86,2.68A5.07,5.07,0,0,1,106.11,226.11Zm-.74-3.57a3.12,3.12,0,0,0,3.94,1.84,3.21,3.21,0,0,0,1.84-3.94,3.12,3.12,0,0,0-3.94-1.84,3.21,3.21,0,0,0-1.84,3.94Zm-7.45,11.64,22-9.5,1,1.36-22.06,9.49Zm14.8,9.3a5.43,5.43,0,0,1-6.72-3.13,5,5,0,0,1,.18-3.93,4.84,4.84,0,0,1,2.88-2.63,5.34,5.34,0,0,1,6.72,3.13,4.84,4.84,0,0,1-.17,3.9A5,5,0,0,1,112.72,243.49ZM108,239.68a3.12,3.12,0,0,0,3.94,1.84,3.21,3.21,0,0,0,1.84-3.94,3.12,3.12,0,0,0-3.94-1.84,3.21,3.21,0,0,0-1.84,3.94Z"/>
    <rect class="cls-7" x="51.42" y="51.91" width="97" height="24" rx="4" ry="4"
          transform="translate(-17.65 48.22) rotate(-25)"/>
    <path class="cls-6"
          d="M72.36,83.75a6.34,6.34,0,1,1-2.11-12.07,5.59,5.59,0,0,1,2.93,1.12l-1.76,2.54a2.7,2.7,0,0,0-1.5-.6,3.3,3.3,0,0,0-3.35,2.12,3.18,3.18,0,0,0,.17,2.52,3.23,3.23,0,0,0,1.82,1.75A3.12,3.12,0,0,0,71,81a3.3,3.3,0,0,0,1.33-1.07,2.7,2.7,0,0,0,.5-1.53l3.09.26a6.1,6.1,0,0,1-1.06,3A6.22,6.22,0,0,1,72.36,83.75Zm16.37-8-3.26,1.52L79.2,74.18l2.3,4.94L78.7,80.42,73.63,69.55l2.81-1.31L78.66,73l1.51-6.53,3.35-1.56-1.87,7.41Zm4.18-15.19,2.09-1,5.07,10.88-2.74,1.28-2.88-6.18-2.23,8.56-2.09,1L85.05,64.22l2.74-1.28,2.88,6.18Zm18.29,1.51,1.44-.67,2.59,5.55-2.74,1.28-1.36-2.91-6.74,3.14,1.36,2.91L103,72.64l-2.59-5.55,1.33-.62a7.55,7.55,0,0,0-.86-4.29l-2-4.39,8.53-4Zm-6.46,3,3.72-1.73-2.67-5.72-3,1.42.87,1.87A10.64,10.64,0,0,1,104.74,65.08Zm20.93-6.55L122.4,60,116.14,57l2.3,4.94-2.81,1.31-5.07-10.88L113.37,51l2.23,4.79,1.51-6.53,3.35-1.56-1.87,7.41Zm3.81-15,2.81-1.31,5.07,10.88-2.81,1.31-.6-1.28a4.71,4.71,0,0,1-2.8,3.24,5.49,5.49,0,0,1-4.51.09,6.41,6.41,0,0,1-3.45-3.37,6.33,6.33,0,0,1-.35-4.79,5.46,5.46,0,0,1,3-3.42,4.71,4.71,0,0,1,4.29-.07Zm-1.61,10.07a3.48,3.48,0,0,0,4.31-2,3.31,3.31,0,0,0-.16-2.62,3.24,3.24,0,0,0-1.9-1.79,3.42,3.42,0,0,0-4.31,2,3.28,3.28,0,0,0,.18,2.59A3.36,3.36,0,0,0,127.87,53.58Z"/>
    <rect class="cls-8" x="65.58" y="90.91" width="24" height="46" rx="4" ry="4"
          transform="translate(-58.44 136.08) rotate(-65)"/>
    <path class="cls-6"
          d="M74.94,106.05l2.81,1.31-5.07,10.88-2.81-1.31,1.93-4.13-4.33-2-1.93,4.13-2.81-1.31,5.07-10.87L70.61,104l-1.92,4.11,4.33,2Zm13.64,6.36,2.81,1.31L86.31,124.6l-2.81-1.31.6-1.28a4.71,4.71,0,0,1-4.29-.07,5.49,5.49,0,0,1-3-3.4,6.41,6.41,0,0,1,.36-4.81,6.33,6.33,0,0,1,3.44-3.35,5.46,5.46,0,0,1,4.52.07A4.71,4.71,0,0,1,88,113.7Zm-8.75,5.24a3.48,3.48,0,0,0,4.31,2,3.32,3.32,0,0,0,1.9-1.81,3.24,3.24,0,0,0,.15-2.6,3.42,3.42,0,0,0-4.31-2A3.28,3.28,0,0,0,80,115,3.36,3.36,0,0,0,79.83,117.66Z"/>
    <rect class="cls-9" x="-0.94" y="153.77" width="105" height="24" rx="4" ry="4"
          transform="translate(-65.23 37.32) rotate(-25)"/>
    <path class="cls-6"
          d="M18.54,174.54l1.26,2.7-3.39,1.58L20.22,187l-2.81,1.31-3.81-8.18-3.44,1.6L8.91,179Zm9.34-4.35,2.81-1.31,5.07,10.88L33,181.06l-.6-1.28A4.71,4.71,0,0,1,29.55,183a5.49,5.49,0,0,1-4.51.09,6.42,6.42,0,0,1-3.45-3.37,6.33,6.33,0,0,1-.35-4.79,5.46,5.46,0,0,1,3-3.42,4.71,4.71,0,0,1,4.29-.07Zm-1.61,10.07a3.48,3.48,0,0,0,4.31-2,3.32,3.32,0,0,0-.16-2.62,3.24,3.24,0,0,0-1.89-1.79,3.42,3.42,0,0,0-4.31,2,3.28,3.28,0,0,0,.18,2.59A3.36,3.36,0,0,0,26.28,180.26Zm13.14-15.82a5.41,5.41,0,0,1,4.52-.07,6.28,6.28,0,0,1,3.46,3.34,6.36,6.36,0,0,1,.34,4.82,5.44,5.44,0,0,1-3,3.4,4.64,4.64,0,0,1-4.26.05l2.63,5.63-2.81,1.31-7.1-15.23L36,166.38l.6,1.28A4.64,4.64,0,0,1,39.42,164.43Zm1,9.21a3.48,3.48,0,0,0,4.31-2A3.32,3.32,0,0,0,44.6,169a3.24,3.24,0,0,0-1.89-1.79,3.42,3.42,0,0,0-4.31,2,3.28,3.28,0,0,0,.18,2.59A3.36,3.36,0,0,0,40.46,173.64Zm14.24-16,2.09-1,5.07,10.88-2.74,1.28-2.88-6.18L54,171.24l-2.09,1-5.07-10.87,2.74-1.28,2.88,6.18Zm16.94-5.81a6.11,6.11,0,0,1,3.47,7.44A7,7,0,0,1,72.06,163L74,167.21l-2.74,1.28-1.95-4.18a7,7,0,0,1-4.82-.06A6.11,6.11,0,0,1,61,156.82a7,7,0,0,1,3.05-3.73l-1.95-4.18,2.74-1.28,1.95,4.18A7,7,0,0,1,71.65,151.87Zm-7.55,8.05a3.06,3.06,0,0,0,1.55,1.56,3.81,3.81,0,0,0,2.43.16l-2.74-5.87a3.82,3.82,0,0,0-1.44,2A3,3,0,0,0,64.09,159.92Zm6.71.42a3.77,3.77,0,0,0,1.43-1.94,3.06,3.06,0,0,0-.2-2.18,3,3,0,0,0-1.55-1.56,3.7,3.7,0,0,0-2.41-.17Zm10-10.59a4.71,4.71,0,0,1,3.46-.37,3.74,3.74,0,0,1,2.38,2.15,3.82,3.82,0,0,1,.13,3.22,4.78,4.78,0,0,1-2.51,2.39l-4.92,2.29-5.07-10.88,2.81-1.31,1.62,3.48Zm3.68-6,2.81-1.31,5.07,10.88-2.81,1.31ZM83.1,154.66a1.54,1.54,0,0,0,.8-.77,1.34,1.34,0,0,0-.83-1.78,1.47,1.47,0,0,0-1.12.1l-2.13,1L81,155.65Z"/>
</svg>