<svg xmlns="http://www.w3.org/2000/svg" viewBox="0 0 800 200">
    <defs>
        <style>.cls-1{fill:#fff;}.cls-2{fill:#ffe600;}</style>
    </defs>
    <path class="cls-1" d="M0-5,378.89,39.83"/>
    <rect class="cls-2" x="227.97" y="19.41" width="16" height="9" transform="translate(184.51 255.44) rotate(-83.25)"/>
    <rect class="cls-2" x="210.1" y="17.29" width="16" height="9" transform="translate(170.84 235.82) rotate(-83.25)"/>
    <rect class="cls-2" x="192.22" y="15.18" width="16" height="9" transform="translate(157.16 216.2) rotate(-83.25)"/>
    <rect class="cls-2" x="174.35" y="13.06" width="16" height="9" transform="translate(143.48 196.58) rotate(-83.25)"/>
    <rect class="cls-2" x="156.47" y="10.95" width="16" height="9" transform="translate(129.8 176.96) rotate(-83.25)"/>
    <rect class="cls-2" x="138.6" y="8.83" width="16" height="9" transform="translate(116.12 157.34) rotate(-83.25)"/>
    <rect class="cls-2" x="120.72" y="6.72" width="16" height="9" transform="translate(102.45 137.73) rotate(-83.25)"/>
    <rect class="cls-2" x="102.85" y="4.6" width="16" height="9" transform="translate(88.79 118.11) rotate(-83.25)"/>
    <rect class="cls-2" x="84.97" y="2.49" width="16" height="9" transform="translate(75.11 98.49) rotate(-83.25)"/>
    <rect class="cls-2" x="67.09" y="0.37" width="16" height="9" transform="translate(61.43 78.87) rotate(-83.25)"/>
    <rect class="cls-2" x="49.22" y="-1.74" width="16" height="9" transform="translate(47.76 59.26) rotate(-83.25)"/>
    <rect class="cls-2" x="31.34" y="-3.86" width="16" height="9" transform="translate(34.08 39.64) rotate(-83.25)"/>
    <rect class="cls-2" x="13.47" y="-5.97" width="16" height="9" transform="translate(20.41 20.02) rotate(-83.25)"/>
    <path class="cls-1" d="M215,21,593.89,65.83"/>
    <rect class="cls-2" x="442.97" y="45.41" width="16" height="9" transform="translate(348.44 491.9) rotate(-83.25)"/>
    <rect class="cls-2" x="425.1" y="43.29" width="16" height="9" transform="translate(334.76 472.28) rotate(-83.25)"/>
    <rect class="cls-2" x="407.22" y="41.18" width="16" height="9" transform="translate(321.09 452.66) rotate(-83.25)"/>
    <rect class="cls-2" x="389.35" y="39.06" width="16" height="9" transform="translate(307.39 433.04) rotate(-83.25)"/>
    <rect class="cls-2" x="371.47" y="36.95" width="16" height="9" transform="translate(293.72 413.42) rotate(-83.25)"/>
    <rect class="cls-2" x="353.6" y="34.83" width="16" height="9" transform="translate(280.02 393.8) rotate(-83.25)"/>
    <rect class="cls-2" x="335.72" y="32.72" width="16" height="9" transform="translate(266.37 374.18) rotate(-83.25)"/>
    <rect class="cls-2" x="317.85" y="30.6" width="16" height="9" transform="translate(252.71 354.57) rotate(-83.25)"/>
    <rect class="cls-2" x="299.97" y="28.49" width="16" height="9" transform="translate(239.04 334.95) rotate(-83.25)"/>
    <rect class="cls-2" x="282.09" y="26.37" width="16" height="9" transform="translate(225.35 315.33) rotate(-83.25)"/>
    <rect class="cls-2" x="264.22" y="24.26" width="16" height="9" transform="translate(211.67 295.71) rotate(-83.25)"/>
    <rect class="cls-2" x="246.34" y="22.14" width="16" height="9" transform="translate(198 276.09) rotate(-83.25)"/>
    <rect class="cls-2" x="228.47" y="20.03" width="16" height="9" transform="translate(184.33 256.48) rotate(-83.25)"/>
    <path class="cls-1" d="M412,44,790.89,88.83"/>
    <rect class="cls-2" x="639.97" y="68.41" width="16" height="9" transform="translate(499.46 707.83) rotate(-83.25)"/>
    <rect class="cls-2" x="622.1" y="66.29" width="16" height="9" transform="translate(485.78 688.21) rotate(-83.25)"/>
    <rect class="cls-2" x="604.22" y="64.18" width="16" height="9" transform="translate(472.11 668.59) rotate(-83.25)"/>
    <rect class="cls-2" x="586.35" y="62.06" width="16" height="9" transform="translate(458.4 648.97) rotate(-83.25)"/>
    <rect class="cls-2" x="568.47" y="59.95" width="16" height="9" transform="translate(444.73 629.35) rotate(-83.25)"/>
    <rect class="cls-2" x="550.6" y="57.83" width="16" height="9" transform="translate(431.02 609.73) rotate(-83.25)"/>
    <rect class="cls-2" x="532.72" y="55.72" width="16" height="9" transform="translate(417.38 590.12) rotate(-83.25)"/>
    <rect class="cls-2" x="514.85" y="53.6" width="16" height="9" transform="translate(403.73 570.5) rotate(-83.25)"/>
    <rect class="cls-2" x="496.97" y="51.49" width="16" height="9" transform="translate(390.06 550.89) rotate(-83.25)"/>
    <rect class="cls-2" x="479.09" y="49.37" width="16" height="9" transform="translate(376.35 531.26) rotate(-83.25)"/>
    <rect class="cls-2" x="461.22" y="47.26" width="16" height="9" transform="translate(362.68 511.65) rotate(-83.25)"/>
    <rect class="cls-2" x="443.34" y="45.14" width="16" height="9" transform="translate(349.01 492.03) rotate(-83.25)"/>
    <rect class="cls-2" x="425.47" y="43.03" width="16" height="9" transform="translate(335.35 472.41) rotate(-83.25)"/>
    <path class="cls-1" d="M591,65l378.89,44.83"/>
    <rect class="cls-2" x="783.22" y="85.18" width="16" height="9" transform="translate(609.23 864.89) rotate(-83.25)"/>
    <rect class="cls-2" x="765.35" y="83.06" width="16" height="9" transform="translate(595.51 845.26) rotate(-83.25)"/>
    <rect class="cls-2" x="747.47" y="80.95" width="16" height="9" transform="translate(581.84 825.64) rotate(-83.25)"/>
    <rect class="cls-2" x="729.6" y="78.83" width="16" height="9" transform="translate(568.12 806.02) rotate(-83.25)"/>
    <rect class="cls-2" x="711.72" y="76.72" width="16" height="9" transform="translate(554.49 786.41) rotate(-83.25)"/>
    <rect class="cls-2" x="693.85" y="74.6" width="16" height="9" transform="translate(540.85 766.8) rotate(-83.25)"/>
    <rect class="cls-2" x="675.97" y="72.49" width="16" height="9" transform="translate(527.18 747.18) rotate(-83.25)"/>
    <rect class="cls-2" x="658.09" y="70.37" width="16" height="9" transform="translate(513.46 727.55) rotate(-83.25)"/>
    <rect class="cls-2" x="640.22" y="68.26" width="16" height="9" transform="translate(499.79 707.94) rotate(-83.25)"/>
    <rect class="cls-2" x="622.34" y="66.14" width="16" height="9" transform="translate(486.12 688.32) rotate(-83.25)"/>
    <rect class="cls-2" x="604.47" y="64.03" width="16" height="9" transform="translate(472.47 668.71) rotate(-83.25)"/>
</svg>