<svg width="53" height="42" viewBox="0 0 53 42" fill="none" xmlns="http://www.w3.org/2000/svg">
<path d="M9 6.5C9 5.94772 9.44772 5.5 10 5.5H12C12.5523 5.5 13 5.94772 13 6.5V8.5H9V6.5Z" fill="#FFE600"/>
<circle cx="11" cy="19" r="11" fill="#447BDD"/>
<circle cx="11" cy="19" r="11" fill="url(#paint0_radial)" fill-opacity="0.5"/>
<rect x="10.7715" width="0.456522" height="5.5" fill="#84ABEF"/>
<path d="M26.0166 14.6087C26.0166 14.0564 26.4643 13.6087 27.0166 13.6087H29.0166C29.5689 13.6087 30.0166 14.0564 30.0166 14.6087V16.6087H26.0166V14.6087Z" fill="#FFE600"/>
<rect x="27.7881" width="0.5" height="13.6087" fill="#84ABEF"/>
<circle cx="28" cy="29" r="13" fill="#3B6EC9"/>
<circle cx="28" cy="29" r="13" fill="url(#paint1_radial)" fill-opacity="0.3"/>
<path d="M19.4348 33.2609V32.2709L22.1188 29.5319C22.7714 28.8792 23.0978 28.3145 23.0978 27.8379C23.0978 27.4639 22.9841 27.1742 22.7568 26.9689C22.5368 26.7562 22.2544 26.6499 21.9098 26.6499C21.2644 26.6499 20.7878 26.9689 20.4798 27.6069L19.4128 26.9799C19.6548 26.4665 19.9958 26.0779 20.4358 25.8139C20.8758 25.5499 21.3634 25.4179 21.8988 25.4179C22.5734 25.4179 23.1528 25.6305 23.6368 26.0559C24.1208 26.4812 24.3628 27.0605 24.3628 27.7939C24.3628 28.5785 23.9264 29.4145 23.0538 30.3019L21.3158 32.0399H24.5058V33.2609H19.4348ZM30.4956 32.3149C29.9676 33.0409 29.2269 33.4039 28.2736 33.4039C27.3203 33.4039 26.5759 33.0409 26.0406 32.3149C25.5126 31.5889 25.2486 30.6209 25.2486 29.4109C25.2486 28.2009 25.5126 27.2329 26.0406 26.5069C26.5759 25.7809 27.3203 25.4179 28.2736 25.4179C29.2269 25.4179 29.9676 25.7809 30.4956 26.5069C31.0309 27.2329 31.2986 28.2009 31.2986 29.4109C31.2986 30.6209 31.0309 31.5889 30.4956 32.3149ZM28.2736 32.1719C28.8456 32.1719 29.2819 31.9335 29.5826 31.4569C29.8833 30.9802 30.0336 30.2982 30.0336 29.4109C30.0336 28.5235 29.8833 27.8415 29.5826 27.3649C29.2819 26.8882 28.8456 26.6499 28.2736 26.6499C27.7089 26.6499 27.2726 26.8882 26.9646 27.3649C26.6639 27.8415 26.5136 28.5235 26.5136 29.4109C26.5136 30.2982 26.6639 30.9802 26.9646 31.4569C27.2726 31.9335 27.7089 32.1719 28.2736 32.1719ZM34.0473 30.1879C33.8326 30.4025 33.562 30.5099 33.2353 30.5099C32.9086 30.5099 32.6356 30.4025 32.4163 30.1879C32.197 29.9685 32.0873 29.7025 32.0873 29.3899C32.0873 29.0772 32.197 28.8135 32.4163 28.5989C32.6356 28.3795 32.9086 28.2699 33.2353 28.2699C33.562 28.2699 33.8326 28.3772 34.0473 28.5919C34.2666 28.8065 34.3763 29.0725 34.3763 29.3899C34.3763 29.7025 34.2666 29.9685 34.0473 30.1879ZM33.2283 29.8939C33.3776 29.8939 33.499 29.8449 33.5923 29.7469C33.6856 29.6489 33.7323 29.5299 33.7323 29.3899C33.7323 29.2452 33.6856 29.1239 33.5923 29.0259C33.499 28.9279 33.3776 28.8789 33.2283 28.8789C33.0836 28.8789 32.9646 28.9279 32.8713 29.0259C32.778 29.1239 32.7313 29.2452 32.7313 29.3899C32.7313 29.5299 32.778 29.6489 32.8713 29.7469C32.9646 29.8449 33.0836 29.8939 33.2283 29.8939ZM32.5003 32.5399L35.7273 28.9489L36.1053 29.1659L32.8783 32.7639L32.5003 32.5399ZM35.4753 33.3449C35.1486 33.3449 34.8756 33.2375 34.6563 33.0229C34.437 32.8035 34.3273 32.5375 34.3273 32.2249C34.3273 31.9122 34.437 31.6485 34.6563 31.4339C34.8756 31.2145 35.1486 31.1049 35.4753 31.1049C35.7973 31.1049 36.068 31.2145 36.2873 31.4339C36.5066 31.6485 36.6163 31.9122 36.6163 32.2249C36.6163 32.5375 36.5066 32.8035 36.2873 33.0229C36.068 33.2375 35.7973 33.3449 35.4753 33.3449ZM35.4683 32.7289C35.6176 32.7289 35.739 32.6799 35.8323 32.5819C35.9256 32.4839 35.9723 32.3649 35.9723 32.2249C35.9723 32.0802 35.9256 31.9589 35.8323 31.8609C35.739 31.7629 35.6176 31.7139 35.4683 31.7139C35.3236 31.7139 35.2046 31.7629 35.1113 31.8609C35.018 31.9589 34.9713 32.0802 34.9713 32.2249C34.9713 32.3649 35.018 32.4839 35.1113 32.5819C35.2046 32.6799 35.3236 32.7289 35.4683 32.7289Z" fill="white"/>
<path d="M41.5 7C41.5 6.44772 41.9477 6 42.5 6H43.5C44.0523 6 44.5 6.44772 44.5 7V9H41.5V7Z" fill="#FFE600"/>
<circle cx="43" cy="18" r="10" fill="#84ABEF"/>
<circle cx="43" cy="18" r="10" fill="url(#paint2_radial)" fill-opacity="0.5"/>
<rect x="42.75" y="0.00390625" width="0.5" height="6" fill="#84ABEF"/>
<defs>
<radialGradient id="paint0_radial" cx="0" cy="0" r="1" gradientUnits="userSpaceOnUse" gradientTransform="translate(11 19) rotate(90) scale(11)">
<stop stop-color="white"/>
<stop offset="1" stop-color="white" stop-opacity="0"/>
</radialGradient>
<radialGradient id="paint1_radial" cx="0" cy="0" r="1" gradientUnits="userSpaceOnUse" gradientTransform="translate(28 29) rotate(90) scale(13)">
<stop stop-color="white"/>
<stop offset="1" stop-color="white" stop-opacity="0"/>
</radialGradient>
<radialGradient id="paint2_radial" cx="0" cy="0" r="1" gradientUnits="userSpaceOnUse" gradientTransform="translate(43 18) rotate(90) scale(10)">
<stop stop-color="white"/>
<stop offset="1" stop-color="white" stop-opacity="0"/>
</radialGradient>
</defs>
</svg>
