<svg width="16" height="7" viewBox="0 0 16 7" fill="none" xmlns="http://www.w3.org/2000/svg">
<path d="M12.5937 0H9.42794C9.08585 0 8.80858 0.284879 8.80858 0.636364C8.80858 0.987848 9.08585 1.27273 9.42794 1.27273H12.5935C13.7889 1.27273 14.7613 2.27182 14.7613 3.5C14.7613 4.095 14.5358 4.65415 14.1264 5.075C13.717 5.49564 13.1726 5.72727 12.5937 5.72727H9.42794C9.08585 5.72727 8.80858 6.01215 8.80858 6.36364C8.80858 6.71512 9.08585 7 9.42794 7H12.5935C13.5031 7 14.3589 6.636 15.0022 5.97482C15.6455 5.31364 16 4.43482 16 3.5C16.0002 1.57012 14.4718 0 12.5937 0ZM6.57185 5.72727H3.4065C2.21113 5.72727 1.23873 4.72818 1.23873 3.5C1.23873 2.905 1.46417 2.34564 1.87357 1.925C2.28277 1.50436 2.82698 1.27273 3.40608 1.27273H6.57206C6.91415 1.27273 7.19142 0.987848 7.19142 0.636364C7.19142 0.284879 6.91415 0 6.57206 0H3.40629C2.49665 0 1.6409 0.364 0.997587 1.02497C0.354276 1.68615 0 2.56497 0 3.49979C0 5.42988 1.52817 6.99979 3.4065 6.99979H6.57185C6.91395 6.99979 7.19122 6.71491 7.19122 6.36342C7.19122 6.01194 6.91395 5.72727 6.57185 5.72727ZM3.87081 3.5C3.87081 3.85148 4.14808 4.13636 4.49017 4.13636L11.5098 4.13615C11.8519 4.13615 12.1292 3.85127 12.1292 3.49979C12.1292 3.1483 11.8519 2.86342 11.5098 2.86342L4.49017 2.86364C4.14787 2.86364 3.87081 3.14873 3.87081 3.5Z" fill="#B0B4C2"/>
</svg>
