<svg width="284" height="283" viewBox="0 0 284 283" fill="none" xmlns="http://www.w3.org/2000/svg">
<circle r="110" transform="matrix(-1 0 0 1 143 141.373)" fill="#F7F9FB"/>
<mask id="mask0" mask-type="alpha" maskUnits="userSpaceOnUse" x="0" y="0" width="284" height="283">
<circle r="110" transform="matrix(-0.937658 -0.347559 -0.347559 0.937658 141.999 141.374)" fill="#F7F9FB"/>
</mask>
<g mask="url(#mask0)">
<path d="M19.595 222.691C19.595 222.691 31.2592 251.288 52.2105 284.063C60.283 284.113 63.0871 278.532 63.0647 272.639L89.5865 271.658C96.9603 270.492 131.781 256.49 133.593 245.086C133.398 237.467 131.162 222.502 128.118 206.279L116.493 195.954C92.11 174.07 47.2851 133.116 42.1662 129.934C38.2783 132.828 35.1904 136.461 32.773 139.471C31.43 147.638 22.8837 195.959 22.8837 195.959L19.595 222.691Z" fill="white"/>
<path d="M19.595 222.691C19.595 222.691 31.2592 251.288 52.2105 284.063C60.283 284.113 63.0871 278.532 63.0647 272.639L89.5865 271.658C96.9603 270.492 131.781 256.49 133.593 245.086C133.398 237.467 131.162 222.502 128.118 206.279L116.493 195.954C92.11 174.07 47.2851 133.116 42.1662 129.934C38.2783 132.828 35.1904 136.461 32.773 139.471C31.43 147.638 22.8837 195.959 22.8837 195.959L19.595 222.691Z" fill="url(#paint0_linear)"/>
<path d="M164.999 212.373C182.999 206.873 199.499 163.873 207.904 149.794L195.906 136.52L164.07 172.53C130.999 143.873 153.999 130.373 124.792 116.045L102.709 105.954L67.7584 106.584L64.3149 115.874C56.055 121.869 43.5097 127.441 38.3958 133.093L58 151L79.5 166.5L102.616 185.793L128.289 207.814L128.094 166.808C129.676 175.737 153.748 209.56 164.999 212.373Z" fill="white"/>
<path d="M164.999 212.373C182.999 206.873 199.499 163.873 207.904 149.794L195.906 136.52L164.07 172.53C130.999 143.873 153.999 130.373 124.792 116.045L102.709 105.954L67.7584 106.584L64.3149 115.874C56.055 121.869 43.5097 127.441 38.3958 133.093L58 151L79.5 166.5L102.616 185.793L128.289 207.814L128.094 166.808C129.676 175.737 153.748 209.56 164.999 212.373Z" fill="url(#paint1_linear)"/>
<path d="M103.123 125.31C99.9301 124.044 95.0686 122.961 92.3805 125.355L90.3978 129.126L97.3978 137.628L94.9407 235.813L103.337 249.785L108.645 235.463L100.808 137.535L102.437 133.139L103.123 125.31Z" fill="#192F56"/>
<path d="M97.3978 137.628L90.3978 129.126L92.3805 125.355C95.0686 122.961 99.9301 124.044 103.123 125.31L102.437 133.139L100.808 137.535M97.3978 137.628L100.808 137.535M97.3978 137.628L94.9407 235.813L103.337 249.785L108.645 235.463L100.808 137.535" stroke="#192F56"/>
<path d="M88.7157 137.19C88.4659 127.409 92.774 124.327 96.2765 122.719C99.505 123.592 102.961 125.373 105.578 131.073C104.436 125.542 109.344 118.369 107.887 111.735C107.916 111.62 107.943 111.504 107.968 111.386L107.818 111.438L95.7572 115.579L96.2765 122.719C90.9924 120.246 86.2006 130.035 84.6568 135.072C86.0576 135.871 87.43 136.591 88.7157 137.19Z" fill="#F1F6F8"/>
<path d="M187.189 147.532C190.16 151.54 195.225 158.261 200.872 161.323C201.962 161.728 206.584 153.753 207.847 150.346C203.684 145.896 198.206 140.636 195.672 136.145C193.558 139.236 188.988 145.293 187.189 147.532Z" fill="#F1F6F8"/>
<path d="M64.7114 115.697C65.362 118.092 66.9927 120.655 69.2418 123.189C70.9629 125.129 72.301 126.449 74.5843 128.268C77.5266 130.611 81.1797 133.087 84.6568 135.072M96.2765 122.719C92.774 124.327 88.4659 127.409 88.7157 137.19C87.43 136.591 86.0576 135.871 84.6568 135.072M96.2765 122.719C99.505 123.592 102.961 125.373 105.578 131.073M96.2765 122.719L95.7572 115.579L107.968 111.386C106.61 117.664 100.753 120.565 105.578 131.073M96.2765 122.719C90.9924 120.246 86.2006 130.035 84.6568 135.072M105.578 131.073C103.845 122.68 116.045 110.505 98.7894 102.171M47.5688 276.948C52.9439 281.265 58.392 271.271 58.583 265.529L62.651 272.85M200.872 161.323C195.225 158.261 190.16 151.54 187.189 147.532C188.988 145.293 193.558 139.236 195.672 136.145C198.206 140.636 203.684 145.896 207.847 150.346C206.584 153.753 201.962 161.728 200.872 161.323Z" stroke="#F1F6F8"/>
<path d="M54.5376 174.592C52.6245 180.839 44.1869 204.59 42.4232 215.861C45.981 223.717 49.8426 233.47 53.9176 241.517C56.9909 219.326 61.9128 191.196 54.5376 174.592Z" fill="#F7F9FB"/>
<path d="M97.2983 120.553L98.2822 117.899L76.5105 99.2625L73.067 108.552C75.851 114.616 79.8972 118.631 91.8412 123.059C93.6603 122.223 94.9874 122.715 97.2983 120.553Z" fill="#DEDDDD" stroke="#DEDDDD"/>
<path d="M112.642 91.1145C114.12 85.6496 112.867 79.4454 112.61 74.9771L85.3966 61.7487L68.8093 85.119C68.4878 89.9195 70.1053 99.8389 79.1468 101.112C84.7081 109.46 94.5746 119.949 105.248 118.439C111.565 111.351 112.788 101.418 112.642 91.1145Z" fill="#E8E8E8" stroke="#E8E8E8"/>
<path d="M192.979 120.404C192.297 122.794 195.696 124.826 197.62 129.641C197.599 131.677 196.918 134.86 198.108 138.176C198.787 140.066 200.517 141.443 202.209 144.071C204.424 146.091 205.97 148.344 209.764 147.743C213.5 145.373 218.965 145.676 224.951 138.943C224.489 132.546 221.624 125.055 217.325 121.016C212.449 122.033 207.787 122.95 205.53 127.722C202.027 122.892 193.635 117.853 192.979 120.404Z" fill="#E8E8E8" stroke="#E8E8E8"/>
<path d="M209.724 123.366C209.548 123.492 209.392 123.621 209.254 123.752C204.644 127.426 204.833 124.145 205.477 138.235C205.363 140.962 203.376 146.921 207.194 147.965C209.241 148.525 214.94 145.873 219.501 143.373C216.901 144.798 215.38 141.292 216.722 138.609C215.38 139.615 211.957 136.438 214.172 134.359C212.606 134.135 210.08 132.815 212.495 129.327C210.371 129.592 206.634 126.233 209.254 123.752C209.405 123.631 209.562 123.503 209.724 123.366Z" fill="#DEDDDD" stroke="#DEDDDD"/>
<path d="M84.319 81.9853C82.9903 79.6708 81.4484 74.1706 85.9102 70.6859C88.9432 73.3887 103.296 79.8649 108.334 78.6356C113.372 77.4064 114.128 78.0904 119.296 72.9014C121.077 70.3534 122.763 68.8377 124.537 63.9675C119.252 65.014 121.494 53.6428 115.329 54.8885C105.374 56.9002 109.042 44.7174 90.4831 47.2243C80.057 47.8244 73.4407 51.0826 67.1529 64.1442C65.0956 69.9413 64.8223 78.1761 68.4388 86.4858C69.1782 83.7534 71.2032 82.8351 73.6465 83.4962C75.0127 83.8659 79.7382 88.077 79.6257 93.9116C80.7348 89.8129 79.3685 89.4433 84.319 81.9853Z" fill="#040427"/>
</g>
<defs>
<linearGradient id="paint0_linear" x1="88.5283" y1="205.051" x2="145.301" y2="106.325" gradientUnits="userSpaceOnUse">
<stop stop-color="white"/>
<stop offset="1" stop-color="white"/>
</linearGradient>
<linearGradient id="paint1_linear" x1="91.8112" y1="147.034" x2="122.24" y2="108.843" gradientUnits="userSpaceOnUse">
<stop stop-color="white"/>
<stop offset="1" stop-color="white"/>
</linearGradient>
</defs>
</svg>
