<svg width="220" height="220" viewBox="0 0 220 220" fill="none" xmlns="http://www.w3.org/2000/svg">
<circle cx="110" cy="110" r="110" fill="#F7F9FB"/>
<path d="M74.0039 112.072L80.0039 133.572M80.0039 133.572L84.0039 108.572M80.0039 133.572L70.0039 124.572M80.0039 133.572L70.0039 138.572M80.0039 133.572L75.0039 152.072M80.0039 133.572L86.0039 161.072M80.0039 133.572L96.0039 148.572M80.0039 133.572L97.0039 129.572M139.504 115.072L134.504 142.072M134.504 142.072L148.504 128.072M134.504 142.072L151.504 143.072M134.504 142.072L151.004 157.072M134.504 142.072L140.504 168.572M134.504 142.072L130.504 159.572M134.504 142.072L126.504 147.072M134.504 142.072L125.004 133.072M134.504 142.072L128.004 120.072" stroke="#040427" stroke-opacity="0.14"/>
<path d="M91.5043 138.572C86.5043 137.072 78.5044 136.072 79.0043 132.572C79.4044 131.772 87.8377 135.072 92.0044 136.572L91.5043 138.572Z" fill="#96A5BE" stroke="#96A5BE"/>
<path d="M155.017 138.665C157.391 158.21 151.883 173.957 142.717 175.07C133.55 176.183 124.195 162.241 121.822 142.695C119.449 123.15 124.956 107.403 134.123 106.291C143.29 105.178 152.644 119.12 155.017 138.665ZM125.923 142.198C127.71 156.914 134.753 168.164 141.655 167.326C148.557 166.488 152.703 153.879 150.917 139.163C149.13 124.447 142.086 113.196 135.185 114.034C128.283 114.872 124.136 127.481 125.923 142.198Z" fill="#3D4656"/>
<path d="M151.567 138.511C153.464 154.135 148.971 167.534 141.532 168.437C134.093 169.341 126.524 157.406 124.627 141.781C122.73 126.157 127.223 112.758 134.662 111.855C142.101 110.951 149.67 122.886 151.567 138.511ZM125.657 141.656C127.409 156.086 134.399 167.108 141.269 166.274C148.139 165.439 152.289 153.065 150.537 138.636C148.785 124.206 141.795 113.184 134.925 114.018C128.054 114.852 123.905 127.226 125.657 141.656Z" fill="#4F5D75"/>
<path d="M98.9776 132.344C101.058 149.48 95.7172 164.225 87.0481 165.278C78.3791 166.33 69.6648 153.292 67.5842 136.156C65.5036 119.02 70.8446 104.275 79.5136 103.222C88.1827 102.17 96.897 115.208 98.9776 132.344ZM70.0738 135.854C71.8244 150.272 79.1566 161.242 86.4506 160.356C93.7446 159.471 98.2385 147.065 96.4879 132.646C94.7373 118.228 87.4052 107.258 80.1111 108.144C72.8171 109.029 68.3233 121.435 70.0738 135.854Z" fill="#3D4656"/>
<path d="M127.504 93.5724H130.504L132.004 98.5724L106.004 143.072C105.504 147.072 104.004 148.572 101.504 150.072C100.439 150.214 99.4343 150.125 98.5044 149.846C97.9803 149.688 97.563 149.405 97.1691 149.072C96.9785 148.911 96.7934 148.739 96.6043 148.563L96.0613 148.072C92.7137 145.217 90.8589 139.773 92.3906 135.072L83.5044 132.572C82.6809 132.696 81.7368 133.072 79.5044 133.072L95.5044 100.572C96.5044 96.0724 96.1711 93.9058 95.5044 92.5724L98.5044 92.0724C98.0044 94.5724 97.1044 100.572 97.5044 100.572L81.5044 132.072L83.0044 131.572L91.6948 117.01L92.605 119.172L85.0044 131.572L93.0044 133.572L94.5044 132.072C95.0246 131.668 95.5449 131.335 96.0613 131.072C96.4219 130.889 96.7807 130.739 97.1362 130.622C97.5987 130.471 98.0557 130.375 98.5044 130.333C101.49 130.054 104.107 132.16 105.504 136.072L127.504 98.5724V93.5724Z" fill="#96A5BE"/>
<path d="M101.504 100.572H104.004L94.5704 115.965L93.6196 113.785L101.504 100.572Z" fill="#96A5BE"/>
<path d="M100.5 140H99.0005L100.504 150.572L90.5044 152.072L91.5044 154.572L103.004 153.072L100.5 140Z" fill="#4F5D75" stroke="#4F5D75"/>
<path d="M127.004 99.5724L96.0044 100.572L96.5044 98.0724L127.004 97.0724V99.5724Z" fill="#96A5BE" stroke="#96A5BE"/>
<path d="M142.004 141.572C142.338 141.906 143.104 142.572 143.504 142.572C146.985 141.412 142.39 134.441 135.965 114.472H135.464L142.004 139.072L135.004 141.072L127.004 93.5724L128.504 106.572C129.671 119.072 132.504 141.572 133.504 144.072C134.171 144.406 135.504 144.672 135.504 143.072L142.004 141.572Z" fill="#96A5BE"/>
<path d="M133.233 105.449L131.796 99.9408C131.202 97.7549 130.603 95.4667 130.004 93.0724L131.796 99.9408C132.314 101.846 132.83 103.674 133.339 105.427L133.233 105.449Z" fill="#96A5BE"/>
<path d="M142.004 141.572C142.338 141.906 143.104 142.572 143.504 142.572C146.985 141.412 142.39 134.441 135.965 114.472H135.464L142.004 139.072L135.004 141.072L127.004 93.5724L128.504 106.572C129.671 119.072 132.504 141.572 133.504 144.072C134.171 144.406 135.504 144.672 135.504 143.072L142.004 141.572Z" stroke="#96A5BE"/>
<path d="M133.233 105.449L131.796 99.9408C131.202 97.7549 130.603 95.4667 130.004 93.0724L131.796 99.9408C132.314 101.846 132.83 103.674 133.339 105.427L133.233 105.449Z" stroke="#96A5BE"/>
<path d="M93.0042 87.5725C90.0043 87.5725 91.3042 92.5725 94.5042 92.5725L98.0044 92.0725C102.004 91.5725 108.004 91.5725 108.004 89.5725C107.838 88.9058 103.004 87.5725 93.0042 87.5725Z" fill="#4F5D75" stroke="#4F5D75"/>
<g filter="url(#filter0_d)">
<g filter="url(#filter1_f)">
<ellipse rx="49.8981" ry="5.95356" transform="matrix(-0.982683 -0.185294 -0.185294 0.982683 104.67 165.437)" fill="#040427" fill-opacity="0.05"/>
</g>
<g filter="url(#filter2_f)">
<ellipse rx="16.7421" ry="7.10973" transform="matrix(-0.906136 -0.422986 -0.422986 0.906136 112.182 147.096)" fill="#040427" fill-opacity="0.05"/>
</g>
<path d="M112.919 152.082C110.314 150.752 105.926 148.665 107.309 147.608L113.284 145.063C115.698 148.442 121.177 150.32 120.995 153.83C119.299 155.8 115.959 153.634 112.919 152.082Z" fill="#152F4E"/>
<path d="M91.4977 149.007C91.6672 147.023 92.1497 144.127 93.389 142.001L96.8984 142.183C98.2554 144.179 98.0729 147.688 97.8905 151.198C97.2644 153.024 96.4947 153.781 95.4249 153.925C93.2462 152.838 91.6283 151.603 91.4977 149.007Z" fill="#152F4E"/>
<path d="M112.919 152.082C110.314 150.752 105.926 148.665 107.309 147.608L113.284 145.063C115.698 148.442 121.177 150.32 120.995 153.83C119.299 155.8 115.959 153.634 112.919 152.082Z" stroke="#152F4E"/>
<path d="M91.4977 149.007C91.6672 147.023 92.1497 144.127 93.389 142.001L96.8984 142.183C98.2554 144.179 98.0729 147.688 97.8905 151.198C97.2644 153.024 96.4947 153.781 95.4249 153.925C93.2462 152.838 91.6283 151.603 91.4977 149.007Z" stroke="#152F4E"/>
<path d="M113.284 145.063C113.14 143.993 113.114 137.554 113.284 135.571C113.379 135.067 113.5 131.571 114.5 128.571L107 141.571L107 144.571L107 147.071C108.218 147.488 110.661 148.247 113.284 145.063Z" fill="#3D4165"/>
<path d="M106 107.072C106.131 109.669 108.298 111.902 108.69 119.69C105.981 124.705 105.538 131.646 106 135.571C109.5 129.571 115.5 119.071 116.583 117.071C118.806 109.088 120.186 99.8568 119.582 95.3585L93.9464 94.2251C93.1119 102.614 93.3732 107.806 94.2346 114.225C93.9086 116.665 98.9676 128.044 98.9547 129.571C96.0039 133.071 92.1118 136.348 93.4299 142.923C94.4482 144.102 95.6586 144.309 97.9547 143.566C97.9806 140.513 100.65 135.77 102 133.071C103.5 130.071 105.953 128.537 106.004 127.572C106.508 118.074 106.36 114.225 106 107.072Z" fill="#3D4165"/>
<path d="M94.5048 104.072C107.971 103.234 120.8 100.362 119.005 96.0725L93.5048 94.0724L92.4999 103.227C92.6167 105.549 93.5926 109.567 94.8698 113.94C95.9197 119.557 97.7098 125.623 98.0048 128.572C97.0571 131.889 93.4111 134.755 93.0318 141.429C92.8288 142.1 92.8039 142.504 92.9999 142.571C92.9999 142.178 93.0109 141.798 93.0318 141.429C93.7157 139.166 96.4204 133.856 99.5048 128.072C98.1034 124.168 96.2982 118.832 94.8698 113.94C94.1398 110.035 93.7676 106.346 94.5048 104.072Z" fill="#192F56"/>
<path d="M106.645 108.475C106.601 107.989 106.555 107.519 106.505 107.072C106.543 107.485 106.588 107.954 106.645 108.475C106.99 112.338 107.162 117.202 107.776 119.377C105.632 121.118 105.301 129.315 106 134.571L106.999 133.071C107.215 128.391 107.59 123.504 109.005 119.377C107.512 115.031 106.931 111.107 106.645 108.475Z" fill="#192F56"/>
<path d="M99.5048 128.072C99.6721 127.403 99.5421 128.716 99.5048 128.072ZM99.5048 128.072C96.8505 120.677 92.7474 108.146 92.4999 103.227L93.5048 94.0724L119.005 96.0725C120.8 100.362 107.971 103.234 94.5048 104.072C92.7074 109.616 97.5048 123.572 98.0048 128.572C97.0048 132.072 92.9999 135.071 92.9999 142.571C92.1435 142.277 95.5048 135.572 99.5048 128.072ZM106.505 107.072C106.954 111.072 107.085 116.929 107.776 119.377C105.632 121.118 105.301 129.315 106 134.571L106.999 133.071C107.215 128.391 107.59 123.504 109.005 119.377C107.217 114.172 106.737 109.572 106.505 107.072Z" stroke="#192F56"/>
<path d="M106.004 128.072L105.504 117.572L97.0044 143.572C97.3377 142.906 104.004 132.072 106.004 128.072Z" fill="#3D4165" stroke="#3D4165"/>
<path d="M83.1595 89.3777C83.1595 89.3777 86.8461 91.6466 92.9718 93.2427C92.4225 96.3405 92.0039 99.6242 92.0039 103.072L107.504 101.072C114.004 99.5725 120.135 98.6686 120.005 96.0724C119.874 93.4762 119.197 88.3724 118.022 82.8668L106.099 72.0723C98.9304 65.419 91.3359 58.3044 90.0728 57.5619C88.7716 58.5813 87.7495 59.8461 86.9506 60.8926C86.5616 63.6887 84.0553 80.2357 84.0553 80.2357L83.1595 89.3777Z" fill="white"/>
<path d="M83.1595 89.3777C83.1595 89.3777 86.8461 91.6466 92.9718 93.2427C92.4225 96.3405 92.0039 99.6242 92.0039 103.072L107.504 101.072C114.004 99.5725 120.135 98.6686 120.005 96.0724C119.874 93.4762 119.197 88.3724 118.022 82.8668L106.099 72.0723C98.9304 65.419 91.3359 58.3044 90.0728 57.5619C88.7716 58.5813 87.7495 59.8461 86.9506 60.8926C86.5616 63.6887 84.0553 80.2357 84.0553 80.2357L83.1595 89.3777Z" fill="url(#paint0_linear)"/>
<path d="M135.5 89.5708C132.504 87.0724 132.004 87.0724 127.004 83.3886L122.004 80.0972L119.685 70.0699L118.093 83.3886L109.504 77.0724L101.504 70.0699L95.0039 64.0724L88.8133 58.6706C90.5092 56.7005 94.7395 54.6948 97.5052 52.5811L98.6009 49.3847L110.512 48.8751L118.126 52.1294L123.145 57.7983L126.504 76.0972L140.5 89.0708L135.5 89.5708Z" fill="white"/>
<path d="M135.5 89.5708C132.504 87.0724 132.004 87.0724 127.004 83.3886L122.004 80.0972L119.685 70.0699L118.093 83.3886L109.504 77.0724L101.504 70.0699L95.0039 64.0724L88.8133 58.6706C90.5092 56.7005 94.7395 54.6948 97.5052 52.5811L98.6009 49.3847L110.512 48.8751L118.126 52.1294L123.145 57.7983L126.504 76.0972L140.5 89.0708L135.5 89.5708Z" fill="url(#paint1_linear)"/>
<path d="M108.954 56.7466C108.119 56.7278 106.919 56.8916 106.509 57.6646L106.375 58.6919L108.231 60.1646L108.232 86.0724L110.004 89.0724L110.004 85.0724L109.003 59.953L109.46 58.5896L108.954 56.7466Z" fill="#192F56"/>
<path d="M108.231 60.1646L106.375 58.6919L106.509 57.6646C106.919 56.8916 108.119 56.7278 108.954 56.7466L109.46 58.5896L109.003 59.953M108.231 60.1646L109.003 59.953M108.231 60.1646L108.232 86.0724L110.004 89.0724L110.004 85.0724L109.003 59.953" stroke="#192F56"/>
<path d="M148.42 91.1301L105.999 94.9735L107.698 93.7029L147.007 90.4213L148.42 91.1301Z" fill="#3D4656" stroke="#3D4656"/>
<g filter="url(#filter3_d)">
<path d="M138.999 90.5707C136.999 91.0707 137.499 90.5707 136.499 90.0707L136.999 88.5707C143.038 88.5707 146.377 88.9064 148.499 91.4441C147.549 92.7272 145.259 91.4089 144.5 90.5707L138.999 90.5707Z" fill="#E8E8E8"/>
<path d="M138.999 90.5707C136.999 91.0707 137.499 90.5707 136.499 90.0707L136.999 88.5707C143.038 88.5707 146.377 88.9064 148.499 91.4441C147.549 92.7272 145.259 91.4089 144.5 90.5707L138.999 90.5707Z" stroke="#E8E8E8"/>
</g>
<g filter="url(#filter4_d)">
<path d="M111.712 95.1864C109.712 95.6864 110.212 95.1864 109.212 94.6864L109.712 93.1864C115.751 93.1864 115.504 92.5724 116.004 94.0725C115.054 95.3556 115.504 95.5724 114.212 95.1864L111.712 95.1864Z" fill="#E8E8E8"/>
<path d="M111.712 95.1864C109.712 95.6864 110.212 95.1864 109.212 94.6864L109.712 93.1864C115.751 93.1864 115.504 92.5724 116.004 94.0725C115.054 95.3556 115.504 95.5724 114.212 95.1864L111.712 95.1864Z" stroke="#E8E8E8"/>
</g>
<path d="M128.448 90.2959C125.948 90.9625 124.948 93.2958 127.448 93.7958C128.948 93.7959 129.448 93.7958 130.948 93.2958C133.266 92.5232 133.448 88.9625 128.448 90.2959Z" fill="#4F5D75" stroke="#4F5D75"/>
<path d="M128.951 90.9518C127.416 91.303 126.801 92.5324 128.337 92.7959C129.258 92.7959 129.565 92.7959 130.486 92.5324C131.91 92.1253 132.022 90.2493 128.951 90.9518Z" fill="#B5BACA" stroke="#B5BACA"/>
<path d="M108.005 96.0724C108.38 96.201 109.103 93.7447 109.505 92.5724C108.005 91.5724 107.505 91.5724 105.795 90.8824C105.795 92.5724 104.599 94.2936 104.005 95.0724C105.005 95.5724 107.505 96.0724 108.005 96.0724Z" fill="#F1F6F8"/>
<path d="M134.915 89.6865C134.943 89.6466 135.125 89.624 136 90.0708C136.375 90.1994 139.098 89.2431 139.5 88.0708C138.043 86.5888 138.198 86.6266 137.296 85.1166C136.601 86.1885 135.094 88.292 134.5 89.0708C134.807 89.4648 134.894 89.6277 134.915 89.6865C134.898 89.7094 134.933 89.738 134.915 89.6865Z" fill="#F1F6F8"/>
<path d="M97.6404 52.5184C97.8825 53.3295 98.4601 54.1895 99.2483 55.0346C99.8515 55.6814 100.319 56.1202 101.113 56.7209C102.136 57.4951 103.402 58.3086 104.604 58.9558M107.797 55.3448C106.616 55.9227 105.838 56.3111 106.006 59.6437C105.563 59.4504 105.089 59.2166 104.604 58.9558M107.797 55.3448C108.905 55.6155 109.171 56.1434 111.022 57.4328M107.797 55.3448L108.225 52.2163L112.353 50.6837C111.942 52.8357 109.288 53.8909 111.022 57.4328M107.797 55.3448C105.974 54.5465 105.088 57.2257 104.604 58.9558M111.022 57.4328C110.36 54.5858 115.099 50.3151 109.145 47.6192M136 90.0708C134.049 89.0745 135.546 90.4121 134.5 89.0708M136 90.0708C136.375 90.1994 139.098 89.2431 139.5 88.0708C138.043 86.5888 138.198 86.6266 137.296 85.1166C136.601 86.1885 135.094 88.292 134.5 89.0708M136 90.0708C135.125 89.624 134.943 89.6466 134.915 89.6865M134.5 89.0708C134.807 89.4648 134.894 89.6277 134.915 89.6865M134.915 89.6865C134.898 89.7094 134.933 89.738 134.915 89.6865ZM108.005 96.0724C107.505 96.0724 105.005 95.5724 104.005 95.0724C104.599 94.2936 105.795 92.5724 105.795 90.8824C107.505 91.5724 108.005 91.5724 109.505 92.5724C109.103 93.7447 108.38 96.201 108.005 96.0724Z" stroke="#F1F6F8"/>
<path d="M94.6689 72.6844C94.0693 74.8303 92.3928 79.9995 91.8866 83.8571C94.6689 85.5724 95.504 86.5724 97.5049 87.0724C96.5049 79.5724 97.3235 78.2833 94.6689 72.6844Z" fill="#F7F9FB"/>
<path d="M108.791 53.8985L109.105 52.9853L101.524 46.8149L100.429 50.0113C101.429 52.0551 102.842 53.3901 106.952 54.7988C107.565 54.4987 108.022 54.6553 108.791 53.8985Z" fill="#DEDDDD" stroke="#DEDDDD"/>
<path d="M113.604 44.3219C114.23 42.4954 113.943 40.3558 113.956 38.8294L104.992 33.7158L98.8219 41.296C98.6045 42.9224 98.9319 46.3345 101.98 46.9712C103.685 49.9369 106.807 53.7286 110.473 53.4545C112.782 51.1843 113.422 47.8315 113.604 44.3219Z" fill="#E8E8E8" stroke="#E8E8E8"/>
<path d="M104.17 40.5782C103.77 39.7606 103.369 37.8542 104.965 36.7686C105.937 37.7566 110.676 40.2833 112.418 39.9782C114.16 39.6732 114.402 39.923 116.277 38.2733C116.94 37.4462 117.549 36.9683 118.262 35.3508C116.44 35.5881 117.458 31.7688 115.332 32.0541C111.899 32.5148 113.421 28.4513 107.049 28.8872C103.488 28.8569 101.163 29.817 98.7292 34.1206C97.8987 36.0472 97.6206 38.8434 98.6644 41.7527C98.9775 40.8394 99.6873 40.5724 100.504 40.8524C100.961 41.0089 102.474 42.5483 102.305 44.5313C102.774 43.1614 102.317 43.0049 104.17 40.5782Z" fill="#040427"/>
</g>
<defs>
<filter id="filter0_d" x="50.5327" y="26.1369" width="108.274" height="162.396" filterUnits="userSpaceOnUse" color-interpolation-filters="sRGB">
<feFlood flood-opacity="0" result="BackgroundImageFix"/>
<feColorMatrix in="SourceAlpha" type="matrix" values="0 0 0 0 0 0 0 0 0 0 0 0 0 0 0 0 0 0 127 0"/>
<feOffset dy="4"/>
<feGaussianBlur stdDeviation="2"/>
<feColorMatrix type="matrix" values="0 0 0 0 0 0 0 0 0 0 0 0 0 0 0 0 0 0 0.03 0"/>
<feBlend mode="normal" in2="BackgroundImageFix" result="effect1_dropShadow"/>
<feBlend mode="normal" in="SourceGraphic" in2="effect1_dropShadow" result="shape"/>
</filter>
<filter id="filter1_f" x="50.5327" y="146.34" width="108.274" height="38.1925" filterUnits="userSpaceOnUse" color-interpolation-filters="sRGB">
<feFlood flood-opacity="0" result="BackgroundImageFix"/>
<feBlend mode="normal" in="SourceGraphic" in2="BackgroundImageFix" result="shape"/>
<feGaussianBlur stdDeviation="2" result="effect1_foregroundBlur"/>
</filter>
<filter id="filter2_f" x="92.7129" y="133.522" width="38.9375" height="27.1474" filterUnits="userSpaceOnUse" color-interpolation-filters="sRGB">
<feFlood flood-opacity="0" result="BackgroundImageFix"/>
<feBlend mode="normal" in="SourceGraphic" in2="BackgroundImageFix" result="shape"/>
<feGaussianBlur stdDeviation="2" result="effect1_foregroundBlur"/>
</filter>
<filter id="filter3_d" x="130.888" y="84.0707" width="21.2471" height="12.4079" filterUnits="userSpaceOnUse" color-interpolation-filters="sRGB">
<feFlood flood-opacity="0" result="BackgroundImageFix"/>
<feColorMatrix in="SourceAlpha" type="matrix" values="0 0 0 0 0 0 0 0 0 0 0 0 0 0 0 0 0 0 127 0"/>
<feOffset dx="-1"/>
<feGaussianBlur stdDeviation="2"/>
<feColorMatrix type="matrix" values="0 0 0 0 0.239216 0 0 0 0 0.254902 0 0 0 0 0.396078 0 0 0 0.02 0"/>
<feBlend mode="normal" in2="BackgroundImageFix" result="effect1_dropShadow"/>
<feBlend mode="normal" in="SourceGraphic" in2="effect1_dropShadow" result="shape"/>
</filter>
<filter id="filter4_d" x="103.6" y="88.5621" width="15.9604" height="11.3314" filterUnits="userSpaceOnUse" color-interpolation-filters="sRGB">
<feFlood flood-opacity="0" result="BackgroundImageFix"/>
<feColorMatrix in="SourceAlpha" type="matrix" values="0 0 0 0 0 0 0 0 0 0 0 0 0 0 0 0 0 0 127 0"/>
<feOffset dx="-1"/>
<feGaussianBlur stdDeviation="2"/>
<feColorMatrix type="matrix" values="0 0 0 0 0.239216 0 0 0 0 0.254902 0 0 0 0 0.396078 0 0 0 0.02 0"/>
<feBlend mode="normal" in2="BackgroundImageFix" result="effect1_dropShadow"/>
<feBlend mode="normal" in="SourceGraphic" in2="effect1_dropShadow" result="shape"/>
</filter>
<linearGradient id="paint0_linear" x1="106.514" y1="82.7819" x2="125.038" y2="48.6426" gradientUnits="userSpaceOnUse">
<stop stop-color="white"/>
<stop offset="1" stop-color="white"/>
</linearGradient>
<linearGradient id="paint1_linear" x1="107.143" y1="62.9733" x2="117.195" y2="49.6954" gradientUnits="userSpaceOnUse">
<stop stop-color="white"/>
<stop offset="1" stop-color="white"/>
</linearGradient>
</defs>
</svg>
