<svg width="220" height="220" viewBox="0 0 220 220" fill="none" xmlns="http://www.w3.org/2000/svg">
<circle cx="110" cy="110" r="110" fill="#F7F9FB"/>
<ellipse opacity="0.1" cx="114" cy="187" rx="60" ry="2" fill="#C4C4C4"/>
<path d="M144 173.5L145 175L142.667 177.333L146 179L145 180L142 178.5V183H140V177.5L138 173L139.5 172L141 176.5L144 173.5Z" fill="#040427" fill-opacity="0.14"/>
<path d="M142 177L146 179L145 180L142 178.5V183H140V177.5L138 173L139.5 172L141 176.5L144 173.5L145 175L142.5 177.5" stroke="#040427" stroke-opacity="0.14"/>
<path d="M66 151.5L79 84L83.5 86.5L71 153L66 151.5Z" fill="#96A5BE" stroke="#96A5BE"/>
<path d="M75 135.5C75.5 134.333 76.2 131.5 75 129.5L74 135.5H75Z" fill="#3D4656"/>
<path d="M72 146L71 150.5M76.5 123L75 129.5M75 129.5C76.2 131.5 75.5 134.333 75 135.5H74L75 129.5Z" stroke="#3D4656"/>
<circle cx="63" cy="177" r="8.5" fill="#3D4656" stroke="#3D4656"/>
<mask id="path-9-inside-1" fill="white">
<path d="M150 177.5C150 182.747 145.971 187 141 187C136.029 187 132 182.747 132 177.5C132 172.253 136.029 168 141 168C145.971 168 150 172.253 150 177.5ZM134.264 177.5C134.264 181.427 137.28 184.61 141 184.61C144.72 184.61 147.736 181.427 147.736 177.5C147.736 173.573 144.72 170.39 141 170.39C137.28 170.39 134.264 173.573 134.264 177.5Z"/>
</mask>
<path d="M150 177.5C150 182.747 145.971 187 141 187C136.029 187 132 182.747 132 177.5C132 172.253 136.029 168 141 168C145.971 168 150 172.253 150 177.5ZM134.264 177.5C134.264 181.427 137.28 184.61 141 184.61C144.72 184.61 147.736 181.427 147.736 177.5C147.736 173.573 144.72 170.39 141 170.39C137.28 170.39 134.264 173.573 134.264 177.5Z" fill="#3D4656" stroke="#3D4656" stroke-width="2" mask="url(#path-9-inside-1)"/>
<mask id="path-10-inside-2" fill="white">
<path d="M148 177.5C148 181.642 144.866 185 141 185C137.134 185 134 181.642 134 177.5C134 173.358 137.134 170 141 170C144.866 170 148 173.358 148 177.5ZM136.278 177.5C136.278 180.294 138.392 182.559 141 182.559C143.608 182.559 145.722 180.294 145.722 177.5C145.722 174.706 143.608 172.441 141 172.441C138.392 172.441 136.278 174.706 136.278 177.5Z"/>
</mask>
<path d="M148 177.5C148 181.642 144.866 185 141 185C137.134 185 134 181.642 134 177.5C134 173.358 137.134 170 141 170C144.866 170 148 173.358 148 177.5ZM136.278 177.5C136.278 180.294 138.392 182.559 141 182.559C143.608 182.559 145.722 180.294 145.722 177.5C145.722 174.706 143.608 172.441 141 172.441C138.392 172.441 136.278 174.706 136.278 177.5Z" fill="#4F5D75" stroke="#4F5D75" stroke-width="2" mask="url(#path-10-inside-2)"/>
<circle cx="63" cy="177" r="6.5" fill="#4F5D75" stroke="#4F5D75"/>
<circle cx="63" cy="177" r="5" fill="#040427" fill-opacity="0.14"/>
<circle cx="63" cy="177" r="4.5" stroke="#040427" stroke-opacity="0.14"/>
<path d="M65.5 151.5L71 153L70 157C72.5 160.5 82 173 87.5 174.5C91 175.455 114.833 175.667 128 175.5C131.2 169.9 136.333 167.167 138.5 166.5C146.5 164.9 149.167 168.833 149.5 171C140 163 134 172 134 175.5C139.5 175.5 142.5 176.333 143 177.5C142.5 181 133 179.5 126 180C125.5 180.036 124.833 179.667 125 179H91.5C84.5 178.5 82.5 176.5 80 173.5C77.7537 170.131 72.7043 164.238 68 162.33L67.5 166C70.5 167.5 72.5 173.167 73 176C72.6 176.4 68.8333 172.167 67 170C67.4 170.8 66.5 176 64.5 177.5C62.5 178.5 61 177 61 176C61 174 61.3333 170.5 62 168L57 170.5C56.6 171.3 55.1667 171.5 54.5 171.5C56 168 58.5 167 61.5 166.5L63.5 165L64.0864 161.83C63.8881 161.873 63.6925 161.93 63.5 162C63.4999 158.501 64.4993 155.003 65.4987 151.504L65.5 151.5Z" fill="#3D4656"/>
<path d="M76 86C76.3333 86.6667 77 88.5 83.5 88.5C83.5 85.8333 85 82.5 84.5 82C83.5 83.5 75 83 76 86Z" fill="#3D4656"/>
<path d="M68 162.33C72.7043 164.238 77.7537 170.131 80 173.5C82.5 176.5 84.5 178.5 91.5 179H125C124.833 179.667 125.5 180.036 126 180C133 179.5 142.5 181 143 177.5C142.5 176.333 139.5 175.5 134 175.5C134 172 140 163 149.5 171C149.167 168.833 146.5 164.9 138.5 166.5C136.333 167.167 131.2 169.9 128 175.5C114.833 175.667 91 175.455 87.5 174.5C82 173 72.5 160.5 70 157L71 153L65.5 151.5C64.5001 155 63.4999 158.5 63.5 162C63.6925 161.93 63.8881 161.873 64.0864 161.83M68 162.33L67.5 166M68 162.33C66.6414 161.779 65.3116 161.56 64.0864 161.83M67.5 166L63.5 165M67.5 166C70.5 167.5 72.5 173.167 73 176C72.6 176.4 68.8333 172.167 67 170C67.4 170.8 66.5 176 64.5 177.5C62.5 178.5 61 177 61 176C61 174 61.3333 170.5 62 168L57 170.5C56.6 171.3 55.1667 171.5 54.5 171.5C56 168 58.5 167 61.5 166.5L63.5 165M63.5 165L64.0864 161.83M83.5 88.5C77 88.5 76.3333 86.6667 76 86C75 83 83.5 83.5 84.5 82C85 82.5 83.5 85.8333 83.5 88.5Z" stroke="#3D4656"/>
<path d="M104 50C102.48 48.8604 102.5 43 102.775 38.5634C104.675 39.1332 109.233 38.1835 110.373 38.1835C110.373 39.893 110.563 43.236 111.322 42.9321C111.133 42.1723 111.133 40.8427 111.702 40.2729C112.272 39.7031 113.488 39.3612 113.792 41.0326C113.892 41.4831 113.942 42.1233 113.826 42.7518C113.768 43.0664 113.668 43.378 113.512 43.6614C113.184 46.0552 113.596 52.4234 115.311 54.1386C113.412 56.038 108.963 59.9302 107 60.5C106.5 58.5 106.004 55.4682 106.004 53.3788C106.194 51.6693 106.194 50.7196 106.004 49.8501C105.5 50 104.415 50.3112 104 50Z" fill="#E8E8E8"/>
<path d="M154.959 144.237C153.566 144.681 150.856 146.099 151.16 148.226L154.959 151.5C155.529 151.88 157.393 152.804 158 152.5C158.633 151.55 158.608 148.682 158 148.226L154.959 144.237Z" fill="#E8E8E8"/>
<path d="M113.412 162.405C112.019 162.215 109.157 162.025 108.853 162.785V167.533L111.322 170.193L113.792 168.103L113.412 162.405Z" fill="#E8E8E8"/>
<path d="M82.5 89C82.5 88 85.5 87 81 84C81.3558 83.8814 81.8888 83.6446 82.5 83.4609C82.1 81.4922 83 81.6667 84 81.5C87 81 87.6667 81.6667 88 82L86 84V89.5C85 89.5 84 89.5 82.5 89Z" fill="#E8E8E8"/>
<path d="M111.702 44.8315C111.639 45.7812 111.322 46.9419 110.373 47.6806C109.078 48.6874 107.457 49.8847 106.004 49.8501M111.702 44.8315C113.982 44.5276 114.045 42.1723 113.792 41.0326C113.488 39.3612 112.272 39.7031 111.702 40.2729C111.133 40.8427 111.133 42.1723 111.322 42.9321C110.563 43.236 110.373 39.893 110.373 38.1835C109.233 38.1835 104.675 39.1332 102.775 38.5634C102.5 43 102.48 48.8604 104 50C104.415 50.3112 105.5 50 106.004 49.8501M111.702 44.8315L113.826 42.7518C113.067 43.0557 113.222 52.0492 115.311 54.1386C113.412 56.038 108.963 59.9302 107 60.5C106.5 58.5 106.004 55.4682 106.004 53.3788C106.194 51.6693 106.194 50.7196 106.004 49.8501M86 84V89.5C85 89.5 84 89.5 82.5 89C82.5 88 85.5 87 81 84C81.3558 83.8814 81.8888 83.6446 82.5 83.4609M86 84C84.9693 82.9693 83.6066 83.1282 82.5 83.4609M86 84L88 82C87.6667 81.6667 87 81 84 81.5C83 81.6667 82.1 81.4922 82.5 83.4609M151.16 148.226C150.856 146.099 153.566 144.681 154.959 144.237L158 148.226C158.608 148.682 158.633 151.55 158 152.5C157.393 152.804 155.529 151.88 154.959 151.5L151.16 148.226ZM108.853 162.785C109.157 162.025 112.019 162.215 113.412 162.405L113.792 168.103L111.322 170.193L108.853 167.533V162.785Z" stroke="#E8E8E8"/>
<path d="M105.5 54V50.5C107.399 50.3101 109.419 49.1396 110.559 48C109.482 50.216 107.399 52.6704 105.5 54Z" fill="#DEDDDD"/>
<path d="M111.071 41.1329C110.702 39.8371 110.783 40.2015 110.702 38.3471C109.555 38.9272 104.649 39.7264 103.215 38.9273C101.782 38.1281 101.495 38.2759 100.349 36.2452C100.016 35.3113 99.6274 34.7033 99.4885 33.0541C101.012 33.8175 101.267 30.1252 103.042 31.0234C105.909 32.4739 105.796 28.4124 111.242 30.7333C114.369 31.7879 116.116 33.3442 116.955 37.8951C116.393 39.1497 114.204 47.0101 113.698 46.6952C113.567 46.6141 113.698 45.6665 113.698 44.2092C114.791 42.0232 113.892 40.482 112.653 41.1329C112.288 41.3247 111.958 42.4012 111.512 44.2092C111.512 42.8532 111.715 43.3905 111.071 41.1329Z" fill="#040427"/>
<path d="M99.0009 92.5C106.409 94.5893 113.983 96.1156 120.251 96.1156C122.074 100.522 116.84 123.056 115.501 143C115.286 146.202 115.501 148.5 114.732 154.807C114.229 157.328 114.363 161.265 114.363 162.785C112.653 161.898 109.994 162.025 107.488 162.785V146.993C105.625 133.5 101.734 116.913 101.001 113C100.001 101 97.4812 99.9077 99.0009 92.5Z" fill="#192F56"/>
<path d="M107.488 146.993C105.625 133.5 101.734 116.913 101.001 113C100.001 101 97.4812 99.9077 99.0009 92.5C106.409 94.5893 113.983 96.1156 120.251 96.1156C122.074 100.522 116.84 123.056 115.501 143C115.286 146.202 115.501 148.5 114.732 154.807M107.488 146.993V162.785C109.994 162.025 112.653 161.898 114.363 162.785C114.363 161.265 114.229 157.328 114.732 154.807M107.488 146.993C110.072 149.635 112.608 152.291 114.732 154.807" stroke="#192F56"/>
<path d="M98.4057 94.406L102.584 94.9759L120.087 97C123.5 100 118.5 110.5 127.5 123L137 128.5C144 132.15 147.5 135 156 144.5C154 144.5 152 146 151 148.5L135 141C132.151 138.531 124 136.5 120.087 133C117.352 131.632 95.4932 105.549 98.4057 94.406Z" fill="#3D4165"/>
<path d="M98.596 56.6078C100.875 55.6581 103.291 55.1396 105 54C105 57.0391 105.171 61.5698 106.5 61C109.349 60.2402 113.918 55.7848 115.501 54.1386C119.11 56.6078 122.528 56.6078 124.238 58.6972C125.302 59.457 122.338 85.3522 120.439 97.4451C118.16 98.2049 104.838 98.1592 98.0002 95.5L98.4746 86.4871L95.0002 88L86.4924 90.0083V84.5L86.9611 84.3054C87.8917 83.5264 89.6799 80.8204 90.5002 80C91.6692 78.831 95.9747 68.2322 96.1267 67.6244C95.8735 63.699 95.557 58.6972 98.596 56.6078Z" fill="white"/>
<path d="M86.4924 84.5C87.0623 84.8016 89.5002 81 90.5002 80C91.6692 78.831 95.9747 68.2322 96.1267 67.6244C95.8735 63.699 95.557 58.6972 98.596 56.6078C100.875 55.6581 103.291 55.1396 105 54C105 57.0391 105.171 61.5698 106.5 61C109.349 60.2402 113.918 55.7848 115.501 54.1386C119.11 56.6078 122.528 56.6078 124.238 58.6972C125.302 59.457 122.338 85.3522 120.439 97.4451C118.16 98.2049 104.838 98.1592 98.0002 95.5L98.5002 86L95.0002 88M86.4924 84.5V90.0083L95.0002 88M86.4924 84.5L96.1267 80.5L95.0002 88M86.4924 84.5L95.0002 88M122.908 71.0434L117.59 72.3729C114.741 75.9818 108.701 83.0856 107.333 82.6298L95.0002 88" stroke="white"/>
<path d="M111 58C111.058 58 111.055 58.075 111.002 58.206C111.144 58.4486 111.922 58.0779 111.5 58.5C110.744 59.6267 108.05 62.5693 107 63.1452C107 63.4821 106.889 64.0702 106.5 64.3473C106.122 66.2975 106.372 68.1443 106.5 71L105.438 72C105.354 68.726 105.417 65.8425 105.66 64C105.233 63.3067 104.869 62.124 105.5 62C104.917 60.3592 104.382 58.1623 105 56L105.403 55.1937C105.433 55.1147 105.465 55.0496 105.5 55L105.403 55.1937C104.956 56.3867 105.132 60.7355 106 62.5C106.114 62.5 106.212 62.5456 106.3 62.6131C107.763 62.8211 110.627 59.1279 111.002 58.206C110.976 58.1612 110.971 58.0955 111 58Z" fill="#192F56"/>
<path d="M108 90L107 89C106.538 86.4598 106.156 83.2797 105.882 80L106.869 79.5C107.224 82.3978 107.649 85.0688 108 87V90Z" fill="#192F56"/>
<path d="M115.502 97.635C116.831 98.0149 118.921 98.2049 120.63 97.635L122.434 77.9761L123.859 68.3841L124.619 59.6468C118.541 64.3954 109.993 73.8924 106.195 78.451C101.5 81.5 90.9387 92.2692 86.0002 89.5C88.8002 93.9 101.39 86.6265 107.334 82.4398L117.591 72.9427L115.502 97.635Z" fill="#F1F6F8"/>
<path d="M99.0002 78.5C94.0002 82.4398 91.5002 83.4398 86.0002 84.5L93.5002 79.5L99.0002 74C99.0002 76.5 98.5002 77 99.0002 78.5Z" fill="#F1F6F8"/>
<path d="M103.5 54L105.5 53C105.695 55 106.442 58.5351 106.442 62.0351C105.942 60.5351 105.656 55.6 103.5 54Z" fill="#F1F6F8"/>
<path d="M117 54.5L115.502 53.5C113.573 54.602 113.122 55.2488 110 58.5C110.736 58.2723 110.5 58 112 58.5C115 55 117.591 55 117 54.5Z" fill="#F1F6F8"/>
<path d="M113.981 174.751V168.293C113.221 168.293 112.271 169.433 111.322 170.382C110.245 169.876 109.422 168.673 108.662 167.533C106.89 168.863 103.724 170.422 102.204 171.142C101.001 171.712 98.7855 171.522 97.2661 172.282C97.076 172.852 96.6962 173.801 97.2661 174.941L113.981 174.751Z" fill="#152F4E" stroke="#152F4E"/>
<path d="M162.941 152.283L157.988 148.139C158.663 149.301 158.531 151.812 158.108 151.983C157.627 152.314 156.454 152.857 155.605 152.381C155.283 154.286 155.16 155.839 155.733 158.27C155.727 159.775 155.673 161.163 153.95 162.474C153.706 163.392 153.744 163.992 154.452 164.73L162.024 161.668L162.941 152.283Z" fill="#152F4E" stroke="#152F4E"/>
</svg>
