<svg width="220" height="220" viewBox="0 0 220 220" fill="none" xmlns="http://www.w3.org/2000/svg">
<circle cx="110" cy="110" r="110" fill="#F7F9FB"/>
<g filter="url(#filter0_f)">
<ellipse rx="10.271" ry="8" transform="matrix(0.039089 -0.999236 -0.999236 -0.039089 125.358 173.007)" fill="#040427" fill-opacity="0.05"/>
</g>
<g filter="url(#filter1_f)">
<ellipse rx="12.664" ry="6.97443" transform="matrix(0.65652 -0.754309 -0.754309 -0.65652 95.575 163.131)" fill="#040427" fill-opacity="0.05"/>
</g>
<path d="M122.245 165.992V162.466L126.314 162.195V165.992H122.245Z" fill="#E8E8E8" stroke="#E8E8E8"/>
<path d="M90.0193 169.361L90.2478 169.383L90.0913 169.816L90.6377 169.613L90.5706 169.799L90.0789 169.981L90.3694 170.355L90.1061 170.559L89.9286 170.331L89.751 170.672L89.4588 170.672L89.751 170.102L89.1972 169.932L89.3301 169.696L89.8181 169.917L90.0193 169.361Z" fill="#040427" fill-opacity="0.14"/>
<mask id="path-6-inside-1" fill="white">
<path d="M91.067 169.08C91.4057 169.516 91.15 170.282 90.4957 170.79C89.8414 171.298 89.0364 171.356 88.6976 170.92C88.3589 170.484 88.6146 169.718 89.2689 169.21C89.9232 168.702 90.7282 168.644 91.067 169.08ZM88.9956 170.689C89.2492 171.015 89.8517 170.971 90.3414 170.591C90.8311 170.211 91.0225 169.638 90.769 169.311C90.5154 168.985 89.9129 169.029 89.4232 169.409C88.9335 169.789 88.7421 170.362 88.9956 170.689Z"/>
</mask>
<path d="M91.067 169.08C91.4057 169.516 91.15 170.282 90.4957 170.79C89.8414 171.298 89.0364 171.356 88.6976 170.92C88.3589 170.484 88.6146 169.718 89.2689 169.21C89.9232 168.702 90.7282 168.644 91.067 169.08ZM88.9956 170.689C89.2492 171.015 89.8517 170.971 90.3414 170.591C90.8311 170.211 91.0225 169.638 90.769 169.311C90.5154 168.985 89.9129 169.029 89.4232 169.409C88.9335 169.789 88.7421 170.362 88.9956 170.689Z" fill="#3D4656" stroke="#3D4656" stroke-width="2" mask="url(#path-6-inside-1)"/>
<mask id="path-7-inside-2" fill="white">
<path d="M90.8041 169.284C91.0716 169.628 90.8759 170.228 90.367 170.623C89.8581 171.018 89.2287 171.06 88.9613 170.715C88.6939 170.371 88.8896 169.771 89.3985 169.376C89.9073 168.981 90.5367 168.94 90.8041 169.284ZM89.2612 170.482C89.4416 170.715 89.8661 170.687 90.2094 170.42C90.5526 170.154 90.6846 169.749 90.5042 169.517C90.3238 169.285 89.8993 169.312 89.5561 169.579C89.2128 169.846 89.0808 170.25 89.2612 170.482Z"/>
</mask>
<path d="M90.8041 169.284C91.0716 169.628 90.8759 170.228 90.367 170.623C89.8581 171.018 89.2287 171.06 88.9613 170.715C88.6939 170.371 88.8896 169.771 89.3985 169.376C89.9073 168.981 90.5367 168.94 90.8041 169.284ZM89.2612 170.482C89.4416 170.715 89.8661 170.687 90.2094 170.42C90.5526 170.154 90.6846 169.749 90.5042 169.517C90.3238 169.285 89.8993 169.312 89.5561 169.579C89.2128 169.846 89.0808 170.25 89.2612 170.482Z" fill="#4F5D75" stroke="#4F5D75" stroke-width="2" mask="url(#path-7-inside-2)"/>
<path d="M87.3307 169.088L87.563 169.116L87.4125 169.556L87.9631 169.359L87.8986 169.548L87.403 169.725L87.705 170.114L87.4418 170.318L87.2572 170.081L87.0835 170.427L86.787 170.421L87.0727 169.843L86.5074 169.659L86.6377 169.419L87.1372 169.654L87.3307 169.088Z" fill="#040427" fill-opacity="0.14"/>
<mask id="path-9-inside-3" fill="white">
<path d="M88.389 168.821C88.7411 169.274 88.4962 170.054 87.8419 170.562C87.1876 171.07 86.3718 171.114 86.0197 170.661C85.6675 170.208 85.9125 169.428 86.5668 168.92C87.221 168.412 88.0369 168.368 88.389 168.821ZM86.3177 170.43C86.5812 170.769 87.1918 170.736 87.6815 170.355C88.1712 169.975 88.3545 169.392 88.091 169.052C87.8275 168.713 87.2168 168.746 86.7271 169.127C86.2374 169.507 86.0541 170.09 86.3177 170.43Z"/>
</mask>
<path d="M88.389 168.821C88.7411 169.274 88.4962 170.054 87.8419 170.562C87.1876 171.07 86.3718 171.114 86.0197 170.661C85.6675 170.208 85.9125 169.428 86.5668 168.92C87.221 168.412 88.0369 168.368 88.389 168.821ZM86.3177 170.43C86.5812 170.769 87.1918 170.736 87.6815 170.355C88.1712 169.975 88.3545 169.392 88.091 169.052C87.8275 168.713 87.2168 168.746 86.7271 169.127C86.2374 169.507 86.0541 170.09 86.3177 170.43Z" fill="#3D4656" stroke="#3D4656" stroke-width="2" mask="url(#path-9-inside-3)"/>
<mask id="path-10-inside-4" fill="white">
<path d="M88.1262 169.025C88.4042 169.383 88.217 169.993 87.7081 170.389C87.1993 170.784 86.5614 170.814 86.2834 170.456C86.0054 170.098 86.1926 169.488 86.7014 169.092C87.2103 168.697 87.8482 168.667 88.1262 169.025ZM86.5833 170.223C86.7708 170.465 87.2011 170.444 87.5443 170.178C87.8876 169.911 88.0138 169.499 87.8263 169.258C87.6388 169.016 87.2085 169.037 86.8653 169.303C86.522 169.57 86.3958 169.982 86.5833 170.223Z"/>
</mask>
<path d="M88.1262 169.025C88.4042 169.383 88.217 169.993 87.7081 170.389C87.1993 170.784 86.5614 170.814 86.2834 170.456C86.0054 170.098 86.1926 169.488 86.7014 169.092C87.2103 168.697 87.8482 168.667 88.1262 169.025ZM86.5833 170.223C86.7708 170.465 87.2011 170.444 87.5443 170.178C87.8876 169.911 88.0138 169.499 87.8263 169.258C87.6388 169.016 87.2085 169.037 86.8653 169.303C86.522 169.57 86.3958 169.982 86.5833 170.223Z" fill="#4F5D75" stroke="#4F5D75" stroke-width="2" mask="url(#path-10-inside-4)"/>
<path d="M92.3172 167.07L92.5456 167.093L92.3892 167.525L92.9355 167.323L92.8685 167.508L92.3767 167.69L92.6673 168.065L92.404 168.269L92.116 167.898L91.8826 168.5L91.628 168.269L91.8817 167.761L91.4951 167.642L91.628 167.406L92.116 167.626L92.3172 167.07Z" fill="#040427" fill-opacity="0.14"/>
<mask id="path-12-inside-5" fill="white">
<path d="M93.3648 166.79C93.7036 167.226 93.4478 167.991 92.7935 168.5C92.1392 169.008 91.3342 169.066 90.9955 168.63C90.6567 168.194 90.9125 167.428 91.5668 166.92C92.221 166.412 93.0261 166.354 93.3648 166.79ZM91.2935 168.398C91.547 168.725 92.1495 168.681 92.6392 168.301C93.1289 167.921 93.3204 167.348 93.0668 167.021C92.8133 166.695 92.2107 166.738 91.7211 167.119C91.2314 167.499 91.0399 168.072 91.2935 168.398Z"/>
</mask>
<path d="M93.3648 166.79C93.7036 167.226 93.4478 167.991 92.7935 168.5C92.1392 169.008 91.3342 169.066 90.9955 168.63C90.6567 168.194 90.9125 167.428 91.5668 166.92C92.221 166.412 93.0261 166.354 93.3648 166.79ZM91.2935 168.398C91.547 168.725 92.1495 168.681 92.6392 168.301C93.1289 167.921 93.3204 167.348 93.0668 167.021C92.8133 166.695 92.2107 166.738 91.7211 167.119C91.2314 167.499 91.0399 168.072 91.2935 168.398Z" fill="#3D4656" stroke="#3D4656" stroke-width="2" mask="url(#path-12-inside-5)"/>
<mask id="path-13-inside-6" fill="white">
<path d="M93.102 166.994C93.3694 167.338 93.1737 167.938 92.6648 168.333C92.1559 168.728 91.5266 168.769 91.2592 168.425C90.9917 168.081 91.1874 167.481 91.6963 167.086C92.2052 166.691 92.8345 166.649 93.102 166.994ZM91.559 168.192C91.7394 168.424 92.164 168.397 92.5072 168.13C92.8505 167.863 92.9825 167.459 92.8021 167.227C92.6217 166.994 92.1972 167.022 91.8539 167.289C91.5107 167.555 91.3786 167.96 91.559 168.192Z"/>
</mask>
<path d="M93.102 166.994C93.3694 167.338 93.1737 167.938 92.6648 168.333C92.1559 168.728 91.5266 168.769 91.2592 168.425C90.9917 168.081 91.1874 167.481 91.6963 167.086C92.2052 166.691 92.8345 166.649 93.102 166.994ZM91.559 168.192C91.7394 168.424 92.164 168.397 92.5072 168.13C92.8505 167.863 92.9825 167.459 92.8021 167.227C92.6217 166.994 92.1972 167.022 91.8539 167.289C91.5107 167.555 91.3786 167.96 91.559 168.192Z" fill="#4F5D75" stroke="#4F5D75" stroke-width="2" mask="url(#path-13-inside-6)"/>
<path d="M123.364 176.508C123.374 177.158 122.965 177.514 122.651 177.519C122.337 177.524 121.916 177.181 121.906 176.531C121.896 175.881 122.305 175.525 122.619 175.52C122.933 175.514 123.353 175.858 123.364 176.508Z" fill="#3D4656" stroke="#3D4656"/>
<path d="M126.87 176.508C126.88 177.158 126.471 177.514 126.157 177.519C125.843 177.524 125.422 177.181 125.412 176.531C125.401 175.881 125.811 175.525 126.125 175.52C126.439 175.514 126.859 175.858 126.87 176.508Z" fill="#3D4656" stroke="#3D4656"/>
<path d="M93.223 162.195C93.4943 167.891 86.3336 171.363 84.8145 168.976C84.0007 165.178 89.1545 160.567 90.2392 155.956C91.5954 156.318 94.5792 156.553 95.6641 154.6C96.1162 155.052 96.9118 156.228 96.4779 157.313C95.2121 158.669 93.4943 161.11 93.223 162.195Z" fill="#152F4E"/>
<path d="M119.804 173.316C120.889 170.874 120.889 166.806 121.703 164.907C123.005 163.388 125.5 164.093 126.314 165.45C127.941 168.162 128.665 171.598 128.755 173.316C128.841 174.943 126.856 176.299 124.144 176.028C122.842 176.028 120.618 176.028 119.804 173.316Z" fill="#152F4E"/>
<path d="M93.223 162.195C93.4943 167.891 86.3336 171.363 84.8145 168.976C84.0007 165.178 89.1545 160.567 90.2392 155.956C91.5954 156.318 94.5792 156.553 95.6641 154.6C96.1162 155.052 96.9118 156.228 96.4779 157.313C95.2121 158.669 93.4943 161.11 93.223 162.195Z" stroke="#152F4E"/>
<path d="M119.804 173.316C120.889 170.874 120.889 166.806 121.703 164.907C123.005 163.388 125.5 164.093 126.314 165.45C127.941 168.162 128.665 171.598 128.755 173.316C128.841 174.943 126.856 176.299 124.144 176.028C122.842 176.028 120.618 176.028 119.804 173.316Z" stroke="#152F4E"/>
<path d="M90.8823 157C90.3823 160 88.8823 162 87.3823 164" stroke="white"/>
<path d="M122.382 165C121.882 168 122.383 169 122.381 172M125.383 165C125.883 168 125.382 169 125.383 172" stroke="white"/>
<path d="M98.2325 157.231L98.2775 157.505L97.8237 157.717L98.173 158.145L97.9786 158.236L97.6642 157.851L97.3952 158.509L97.1259 158.399L97.3983 157.732L96.8823 157.732L96.8823 157.504L97.4546 157.505L97.4544 156.827L97.7161 156.763L97.6491 157.504L98.2325 157.231Z" fill="#040427" fill-opacity="0.14"/>
<mask id="path-20-inside-7" fill="white">
<path d="M98.8009 158.146C98.4873 158.912 97.6904 159.312 97.021 159.038C96.3516 158.764 96.0633 157.921 96.3769 157.154C96.6906 156.387 97.4875 155.988 98.1568 156.261C98.8262 156.535 99.1146 157.379 98.8009 158.146ZM96.6818 157.279C96.447 157.853 96.6629 158.484 97.1639 158.689C97.6648 158.894 98.2613 158.595 98.496 158.021C98.7308 157.447 98.5149 156.816 98.014 156.611C97.513 156.406 96.9165 156.705 96.6818 157.279Z"/>
</mask>
<path d="M98.8009 158.146C98.4873 158.912 97.6904 159.312 97.021 159.038C96.3516 158.764 96.0633 157.921 96.3769 157.154C96.6906 156.387 97.4875 155.988 98.1568 156.261C98.8262 156.535 99.1146 157.379 98.8009 158.146ZM96.6818 157.279C96.447 157.853 96.6629 158.484 97.1639 158.689C97.6648 158.894 98.2613 158.595 98.496 158.021C98.7308 157.447 98.5149 156.816 98.014 156.611C97.513 156.406 96.9165 156.705 96.6818 157.279Z" fill="#3D4656" stroke="#3D4656" stroke-width="2" mask="url(#path-20-inside-7)"/>
<mask id="path-21-inside-8" fill="white">
<path d="M98.5329 158.036C98.2853 158.641 97.6625 158.959 97.1419 158.746C96.6213 158.533 96.4 157.87 96.6476 157.264C96.8952 156.659 97.518 156.341 98.0386 156.554C98.5592 156.767 98.7805 157.43 98.5329 158.036ZM96.9544 157.39C96.7874 157.798 96.9367 158.246 97.2878 158.389C97.639 158.533 98.0591 158.318 98.2261 157.91C98.3931 157.502 98.2439 157.054 97.8927 156.911C97.5415 156.767 97.1214 156.982 96.9544 157.39Z"/>
</mask>
<path d="M98.5329 158.036C98.2853 158.641 97.6625 158.959 97.1419 158.746C96.6213 158.533 96.4 157.87 96.6476 157.264C96.8952 156.659 97.518 156.341 98.0386 156.554C98.5592 156.767 98.7805 157.43 98.5329 158.036ZM96.9544 157.39C96.7874 157.798 96.9367 158.246 97.2878 158.389C97.639 158.533 98.0591 158.318 98.2261 157.91C98.3931 157.502 98.2439 157.054 97.8927 156.911C97.5415 156.767 97.1214 156.982 96.9544 157.39Z" fill="#4F5D75" stroke="#4F5D75" stroke-width="2" mask="url(#path-21-inside-8)"/>
<path d="M96.6997 159.422L96.736 159.693L96.3027 159.913L96.6228 160.329L96.4371 160.423L96.149 160.05L95.88 160.707L95.6281 160.604L95.8753 160L95.3825 160L95.3825 159.706L95.9569 159.8L95.9741 159.04L96.2228 158.971L96.1426 159.706L96.6997 159.422Z" fill="#040427" fill-opacity="0.14"/>
<mask id="path-23-inside-9" fill="white">
<path d="M97.2164 160.315C96.9028 161.082 96.1411 161.496 95.5152 161.24C94.8894 160.984 94.6363 160.155 94.9499 159.388C95.2636 158.622 96.0252 158.208 96.6511 158.464C97.2769 158.72 97.5301 159.549 97.2164 160.315ZM95.235 159.505C95.0002 160.079 95.1897 160.699 95.6581 160.891C96.1265 161.083 96.6966 160.773 96.9313 160.199C97.1661 159.625 96.9766 159.004 96.5082 158.813C96.0398 158.621 95.4697 158.931 95.235 159.505Z"/>
</mask>
<path d="M97.2164 160.315C96.9028 161.082 96.1411 161.496 95.5152 161.24C94.8894 160.984 94.6363 160.155 94.9499 159.388C95.2636 158.622 96.0252 158.208 96.6511 158.464C97.2769 158.72 97.5301 159.549 97.2164 160.315ZM95.235 159.505C95.0002 160.079 95.1897 160.699 95.6581 160.891C96.1265 161.083 96.6966 160.773 96.9313 160.199C97.1661 159.625 96.9766 159.004 96.5082 158.813C96.0398 158.621 95.4697 158.931 95.235 159.505Z" fill="#3D4656" stroke="#3D4656" stroke-width="2" mask="url(#path-23-inside-9)"/>
<mask id="path-24-inside-10" fill="white">
<path d="M96.9651 160.213C96.7175 160.818 96.1221 161.147 95.6353 160.948C95.1486 160.749 94.9547 160.097 95.2023 159.492C95.4499 158.886 96.0453 158.557 96.5321 158.756C97.0188 158.955 97.2127 159.607 96.9651 160.213ZM95.4892 159.609C95.3221 160.017 95.4529 160.457 95.7813 160.591C96.1096 160.726 96.5112 160.504 96.6782 160.095C96.8453 159.687 96.7145 159.247 96.3861 159.113C96.0578 158.979 95.6562 159.201 95.4892 159.609Z"/>
</mask>
<path d="M96.9651 160.213C96.7175 160.818 96.1221 161.147 95.6353 160.948C95.1486 160.749 94.9547 160.097 95.2023 159.492C95.4499 158.886 96.0453 158.557 96.5321 158.756C97.0188 158.955 97.2127 159.607 96.9651 160.213ZM95.4892 159.609C95.3221 160.017 95.4529 160.457 95.7813 160.591C96.1096 160.726 96.5112 160.504 96.6782 160.095C96.8453 159.687 96.7145 159.247 96.3861 159.113C96.0578 158.979 95.6562 159.201 95.4892 159.609Z" fill="#4F5D75" stroke="#4F5D75" stroke-width="2" mask="url(#path-24-inside-10)"/>
<path d="M122 161.5L121.5 165H126.5V161.5H122Z" fill="#E8E8E8" stroke="#E8E8E8"/>
<path d="M98.3776 136.97C104.345 130.46 103.991 129.307 110.5 119C117.01 118.729 116.821 126.12 117.906 136.156C118.134 138.264 118.5 140 119.805 142.395C120.89 148.633 122.789 159.211 121.975 160.567C120.89 160.025 120.89 163.551 121.432 163.551C123.06 162.466 125.501 163.009 127.4 164.093C127.761 163.189 128.213 161.381 127.128 161.381C128.304 158.307 127.4 151.888 127.4 150.26C127.128 144.564 127.128 139.682 127.128 136.97C127.128 126.5 127.128 115.5 124.145 111.745H101.361C97.654 118.254 91.3877 131.274 91.0539 133.986C90.3306 139.863 89.6979 151.617 89.6979 152.973C89.3362 153.696 89.1556 155.143 89.4266 155.685C91.1445 155.776 94.7429 155.685 95.3939 154.6C96.2076 153.786 97.0213 151.345 96.2076 151.074C97.2925 148.633 98.3776 145.921 98.92 142.395C98.92 140.5 98.92 139.14 98.3776 136.97Z" fill="#3D4165" stroke="#3D4165"/>
<path d="M110.5 120C106.9 120 100.834 131.167 98.5002 137C103.5 131.5 107 125 110.5 120Z" fill="#192F56"/>
<path d="M119.5 142.5C122 144.5 122.5 143.5 125 143C127 147.4 126.334 156.167 125.5 160C123.939 159.219 122.14 159.486 122.007 159.964C122.005 159.976 122.003 159.988 122 160C122.001 159.988 122.004 159.976 122.007 159.964C122.378 157.875 120.494 147.305 119.5 142.5Z" fill="#192F56"/>
<path d="M110.5 120C106.9 120 100.834 131.167 98.5002 137C103.5 131.5 107 125 110.5 120Z" stroke="#192F56"/>
<path d="M119.5 142.5C122 144.5 122.5 143.5 125 143C127 147.4 126.334 156.167 125.5 160C123.939 159.219 122.14 159.486 122.007 159.964C122.005 159.976 122.003 159.988 122 160C122.001 159.988 122.004 159.976 122.007 159.964C122.378 157.875 120.494 147.305 119.5 142.5Z" stroke="#192F56"/>
<path d="M98.1052 67.5331C101.089 65.6344 105.429 64.007 108.412 62.6508H120.889L131.739 68.3468C133.366 68.3468 133.637 72.4153 133.366 74.314C133.366 75.3989 134.994 77.2976 137.164 79.4675C136.711 80.2812 136.892 81.0949 137.164 81.9086C138.791 83.2648 138.248 84.621 137.977 87.0621C134.451 96.2842 129.764 101.235 124.882 111C124.729 110.729 124.627 110.232 124.562 109.589C124.524 110.295 124.476 111.012 124.415 111.745C118.177 113.372 113.023 111.473 108.955 111.473C107.19 111.473 105.7 112.558 101.089 111.473C101.214 110.66 101.33 109.748 101.436 108.761C101.165 108.49 96.7492 100.353 96.478 99.539C94.8505 96.2842 93.2231 90.317 91.5957 86.5196C91.5957 85.9772 92.1382 85.4347 92.4094 84.3498C92.4094 83.2648 91.8669 81.9086 91.3245 80.01C91.8669 79.7387 92.6806 79.7387 93.2229 79.1962C93.1325 78.2921 92.1378 77.8401 93.7654 77.2976C95.664 74.5852 96.749 70.2454 98.1052 67.5331Z" fill="white" stroke="white"/>
<path d="M129.84 83.5361C123.601 95.4705 124.645 92.5 124.381 99.5C126.145 96.5 125.381 97.5 127.882 94.5C129.385 92.697 130.382 87.6046 130.653 87.6046C130.653 87.3334 130.979 86.2485 131.196 86.2485C131.196 85.9772 130.382 85.706 130.382 85.1635C130.382 84.8923 130.653 84.3498 129.84 83.5361Z" fill="#F7F9FB" stroke="#F7F9FB"/>
<path d="M110.502 66.1809C110.347 63.7725 110.795 59.0946 110.844 57.9135C113.918 60.0842 117.788 58.8461 119.666 58.2785C119.79 60.5423 119.988 63.6695 119.999 66.0361C118.826 68.031 117.495 71.2025 115.119 73.2552C114.087 71.8144 111.82 68.6016 110.502 66.1809Z" fill="#E8E8E8" stroke="#E8E8E8"/>
<path d="M110.461 64.4691C110.554 62.2212 110.766 59.7638 110.717 58.2606C113.301 58.4032 118.741 58.5068 119.836 57.7801L119.788 58.9576C119.677 61.6336 112.991 62.322 110.461 64.4691Z" fill="#DEDDDD" stroke="#DEDDDD"/>
<path d="M110.674 58.2323C110.271 54.9879 110.075 49.3573 110.221 45.8233C112.125 44.7914 115.456 43.8534 116.631 44.0061C117.69 44.3623 118.758 44.5106 120.297 46.2401C120.288 46.448 120.378 46.8682 120.043 47.1668C119.79 50.6964 119.704 55.3782 119.6 57.8728C118.98 59.0272 117.349 60.3827 115.921 61.1565L114.206 61.0856C112.843 60.3003 111.913 59.4289 110.674 58.2323Z" fill="#E8E8E8" stroke="#E8E8E8"/>
<path d="M106.498 69.1406C108.444 65.4776 109.375 66.7073 109.771 67.4681C109.504 65.6704 109.242 63.0882 109.5 62C109.271 62.9652 109.771 64.7328 110.254 66.1055C111.148 67.7377 113.557 71.4532 114.872 73.2092C115.746 72.7349 115.876 73.038 115.831 73.2489C115.822 74.9319 115.486 82.04 115.217 88.3247C115.183 89.1207 115.15 89.9034 115.118 90.6603C115.518 92.3217 115.876 96.5965 116.194 100.907C116.597 106.352 116.936 111.854 117.219 112.222C116.762 112.278 116.129 112.257 115.369 112.19C115.371 112.205 115.372 112.212 115.373 112.222C115.16 112.213 115.021 112.17 114.808 112.162C114.806 112.153 114.804 112.144 114.802 112.135C112.816 103.625 115.518 78.2301 114.828 74.2708C113.553 72.4102 111.793 70.2104 110.545 69.4143C108.696 67.6363 108.576 67.9504 106.498 69.1406Z" fill="#F1F6F8"/>
<path d="M120.847 61.9563C121.5 61.9563 122.013 62.8809 122.5 64C123.788 66.9558 123.814 67.7231 124.191 69.1281C123.269 68.9836 121.664 66.4713 120.27 66.6263C119.147 67.9623 118.002 69.8292 115.769 72.1828C117.238 70.223 119.182 67.113 119.643 66.2813C120.27 64.801 120.465 63.4294 120.847 61.9563Z" fill="#F1F6F8"/>
<path d="M110 61.5C108.388 61.7523 107.553 66.0292 106.498 69.1406M106.498 69.1406C108.444 65.4776 109.375 66.7073 109.771 67.4681C109.504 65.6704 109.242 63.0882 109.5 62C109.271 62.9652 109.771 64.7328 110.254 66.1055C111.148 67.7377 113.557 71.4532 114.872 73.2092C115.746 72.7349 115.876 73.038 115.831 73.2489C115.822 74.9319 115.486 82.04 115.217 88.3247M106.498 69.1406C108.576 67.9504 108.696 67.6363 110.545 69.4143C111.793 70.2104 113.553 72.4102 114.828 74.2708C115.518 78.2342 112.81 103.678 114.808 112.162C115.021 112.17 115.16 112.213 115.373 112.222C115.363 112.113 115.298 112.414 115.286 98.1809M115.118 90.6603C116.023 94.4199 116.712 111.563 117.219 112.222C114.643 112.541 106.513 110.389 101.36 111.6C103.529 112.016 110.874 111.639 114.379 112.103M115.118 90.6603C114.823 92.8289 115.125 96.4082 115.286 98.1809M115.118 90.6603C115.15 89.9034 115.183 89.1207 115.217 88.3247M115.286 98.1809C116.185 98.2551 117.703 111.142 118.447 112.625M117.885 109.441C117.076 108.344 115.96 90.9432 115.217 88.3247M120.847 61.9563C121.5 61.9563 122.013 62.8809 122.5 64C123.788 66.9558 123.814 67.7231 124.191 69.1281M120.847 61.9563C121.425 63.4691 120.534 62.8087 120.847 65.5867C121.98 66.5907 123.299 68.2405 124.191 69.1281M120.847 61.9563C120.465 63.4294 120.27 64.801 119.643 66.2813C119.182 67.113 117.238 70.223 115.769 72.1828C118.002 69.8292 119.147 67.9623 120.27 66.6263C121.664 66.4713 123.269 68.9836 124.191 69.1281M124.219 69.2357C124.21 69.2004 124.2 69.1645 124.191 69.1281" stroke="#F1F6F8"/>
<path d="M98.9185 84.8922C99.6418 85.7964 101.034 87.8758 100.817 88.9608C102.382 93.5 103.382 97 103.382 102.5C104.382 94.5 102.37 86.7909 100.817 81.3661L99.7322 82.4511C99.913 83.084 100.003 84.0785 98.9185 84.8922Z" fill="#F7F9FB" stroke="#F7F9FB"/>
<path d="M111.163 70.2999C110.962 70.0796 110.766 69.7535 110.255 69.4143C110.77 72.1917 111.791 75.4141 113.739 76.5547C113.712 77.1896 113.586 77.7144 114.293 78.3797C113.179 85.0118 112.423 103.353 114.293 105.778C114.921 106.591 116.006 107.676 116.548 108.219C117.091 105.778 117.091 106.049 117.091 105.235C116.277 102.251 115.725 81.8311 115.468 77.8983C115.8 77.488 115.813 77.1705 115.844 76.4298C117.777 73.683 120.046 68.7594 120.744 67.0922C120.544 66.8719 120.334 66.8633 119.701 66.9431C118.831 70.1932 116.005 75.0584 115.333 76.0906C115.162 75.9776 114.704 76.0646 114.071 76.1444C113.052 75.3956 111.778 73.1875 111.163 70.2999Z" fill="#192F56" stroke="#192F56"/>
<path d="M119.935 50.5105C120.013 48.6383 120.261 47.6969 119.451 46.573C118.757 47.3362 113.252 48.567 110.626 46.8537C110.228 46.5941 109.942 46.4083 109.743 46.2797C109.775 46.314 109.808 46.3468 109.842 46.3779C110.007 46.4913 110.139 46.5833 110.098 46.5611C110.224 47.9208 110.016 48.5373 110.131 50.1637C110.112 50.625 110.374 52.1986 110.218 53.3382C110.174 51.7736 109.366 47.5727 109.018 45.2662C108.851 45.0401 108.668 44.7414 108.441 44.3246C108.206 43.6107 107.915 43.1404 107.855 41.8945C109.046 42.5193 109.364 39.7489 110.751 40.4834C112.991 41.6696 113.027 38.6092 117.296 40.5355C119.756 41.4324 120.83 41.699 121.357 45.1516C121.414 46.6306 120.499 50.0717 119.809 53.735C119.809 53.735 119.836 52.9027 119.935 50.5105Z" fill="#040427"/>
<defs>
<filter id="filter0_f" x="113.354" y="158.739" width="24.0083" height="28.5361" filterUnits="userSpaceOnUse" color-interpolation-filters="sRGB">
<feFlood flood-opacity="0" result="BackgroundImageFix"/>
<feBlend mode="normal" in="SourceGraphic" in2="BackgroundImageFix" result="shape"/>
<feGaussianBlur stdDeviation="2" result="effect1_foregroundBlur"/>
</filter>
<filter id="filter1_f" x="81.7349" y="148.536" width="27.6801" height="29.1914" filterUnits="userSpaceOnUse" color-interpolation-filters="sRGB">
<feFlood flood-opacity="0" result="BackgroundImageFix"/>
<feBlend mode="normal" in="SourceGraphic" in2="BackgroundImageFix" result="shape"/>
<feGaussianBlur stdDeviation="2" result="effect1_foregroundBlur"/>
</filter>
</defs>
</svg>
