<svg width="52" height="52" viewBox="0 0 52 52" fill="none" xmlns="http://www.w3.org/2000/svg">
    <path d="M38 26C38 32.6273 32.6273 38 26 38C19.3733 38 14 32.6273 14 26C14 19.3733 19.3733 14 26 14C32.6273 14 38 19.3733 38 26Z" fill="#FFE600"/>
    <path d="M18.6666 28.1753C18.6666 30.818 21.7306 34.1753 26 34.1753C30.2693 34.1753 33.3333 30.842 33.3333 28.1753C33.3333 28.1753 26.4446 30.0126 18.6666 28.1753Z" fill="#040427"/>
    <path d="M22 29.3352V33.9759C22 35.9759 23.3333 37.9759 26 37.9759C28.6667 37.9759 30 35.9759 30 33.9759V29.3625C25.806 30.2239 22 29.3352 22 29.3352Z" fill="#6CC11A"/>
    <path d="M22.1894 22.2201C21.6854 22.0254 21.2087 21.8414 21.2087 21.5747C21.2087 21.1354 21.7981 21.1127 21.9161 21.1127C22.3327 21.1127 22.5401 21.2687 22.7227 21.4067C22.8627 21.5127 23.0081 21.6221 23.2101 21.6221C23.5861 21.6221 23.7574 21.3574 23.7574 21.1114C23.7574 20.6207 23.1561 20.2741 22.5187 20.1287V19.8667C22.5187 19.5214 22.2381 19.2407 21.8927 19.2407C21.5474 19.2407 21.2667 19.5214 21.2667 19.8667V20.1507C20.5041 20.3727 20.0367 20.9334 20.0367 21.6407C20.0367 22.5147 20.8987 22.8734 21.6594 23.1894C22.2041 23.4161 22.7187 23.6301 22.7187 23.9641C22.7187 24.2081 22.4121 24.4721 21.9167 24.4721C21.4167 24.4721 21.1301 24.2721 20.8767 24.0961C20.7021 23.9741 20.5367 23.8587 20.3394 23.8587C20.0527 23.8587 19.8287 24.1001 19.8287 24.4081C19.8287 24.8607 20.4494 25.3121 21.2667 25.4707V25.7841C21.2667 26.1294 21.5474 26.4094 21.8927 26.4094C22.2381 26.4094 22.5187 26.1287 22.5187 25.7841L22.5154 25.4521C23.3794 25.2421 23.8901 24.6374 23.8901 23.8127C23.8907 22.8767 22.9474 22.5127 22.1894 22.2201ZM31.7961 23.8241C31.7961 22.8881 30.8527 22.5241 30.0947 22.2314C29.5907 22.0367 29.1147 21.8527 29.1147 21.5861C29.1147 21.1467 29.7041 21.1241 29.8221 21.1241C30.2387 21.1241 30.4454 21.2801 30.6287 21.4181C30.7694 21.5241 30.9141 21.6334 31.1154 21.6334C31.4921 21.6334 31.6634 21.3687 31.6634 21.1227C31.6634 20.6314 31.0621 20.2854 30.4247 20.1401V19.8787C30.4247 19.5334 30.1434 19.2527 29.7987 19.2527C29.4534 19.2527 29.1721 19.5334 29.1721 19.8787V20.1627C28.4101 20.3847 27.9421 20.9454 27.9421 21.6527C27.9421 22.5267 28.8041 22.8854 29.5647 23.2014C30.1094 23.4281 30.6241 23.6421 30.6241 23.9761C30.6241 24.2201 30.3181 24.4841 29.8227 24.4841C29.3227 24.4841 29.0361 24.2841 28.7834 24.1081C28.6081 23.9861 28.4427 23.8707 28.2461 23.8707C27.9587 23.8707 27.7347 24.1121 27.7347 24.4201C27.7347 24.8727 28.3554 25.3241 29.1721 25.4827V25.7961C29.1721 26.1407 29.4541 26.4214 29.7994 26.4214C30.1447 26.4214 30.4247 26.1407 30.4247 25.7961L30.4227 25.4641C31.2861 25.2527 31.7961 24.6487 31.7961 23.8241Z" fill="#040427"/>
    <path d="M27.98 34.7128C27.98 33.8008 27.0607 33.4454 26.322 33.1601C25.8307 32.9708 25.366 32.7908 25.366 32.5314C25.366 32.1028 25.94 32.0814 26.0554 32.0814C26.4614 32.0814 26.6634 32.2341 26.842 32.3681C26.9787 32.4714 27.1207 32.5781 27.3174 32.5781C27.684 32.5781 27.8514 32.3194 27.8514 32.0801C27.8514 31.6021 27.2654 31.2641 26.6434 31.1221V30.8668C26.6434 30.5301 26.3694 30.2561 26.0327 30.2561C25.696 30.2561 25.422 30.5301 25.422 30.8668V31.1434C24.6787 31.3594 24.2227 31.9068 24.2227 32.5961C24.2227 33.4481 25.0634 33.7981 25.8047 34.1061C26.336 34.3268 26.8374 34.5354 26.8374 34.8608C26.8374 35.0988 26.5387 35.3561 26.0554 35.3561C25.568 35.3561 25.2887 35.1614 25.042 34.9888C24.872 34.8701 24.7107 34.7574 24.5187 34.7574C24.2394 34.7574 24.02 34.9934 24.02 35.2934C24.02 35.7354 24.6247 36.1748 25.4214 36.3294V36.6354C25.4214 36.9714 25.6954 37.2448 26.0327 37.2448C26.3694 37.2448 26.6427 36.9714 26.6427 36.6354L26.6407 36.3114C27.4827 36.1054 27.98 35.5161 27.98 34.7128Z" fill="white"/>
</svg>