<svg width="52" height="52" viewBox="0 0 52 52" fill="none" xmlns="http://www.w3.org/2000/svg">
    <path d="M36 34.6667C36 36.1334 34.8 37.3334 33.3333 37.3334H18.6667C17.2 37.3334 16 36.1334 16 34.6667V23.3334C16 21.8667 17.2 20.6667 18.6667 20.6667H33.3333C34.8 20.6667 36 21.8667 36 23.3334V34.6667Z" fill="#3B6EC9"/>
    <path d="M38 21.3334C38 22.8001 36.8 24.0001 35.3333 24.0001H16.6667C15.2 24.0001 14 22.8001 14 21.3334C14 19.8667 15.2 18.6667 16.6667 18.6667H35.3333C36.8 18.6667 38 19.8667 38 21.3334Z" fill="#3B6EC9"/>
    <path d="M16 24H36V25.3333H16V24Z" fill="#3565BC"/>
    <path d="M26.6667 16H25.3333C24.8029 16 24.2942 16.2107 23.9191 16.5858C23.5441 16.9609 23.3333 17.4696 23.3333 18V37.3333H28.6667V18C28.6667 17.4696 28.456 16.9609 28.0809 16.5858C27.7058 16.2107 27.1971 16 26.6667 16Z" fill="#FFE600"/>
    <path d="M24.6667 18.6667C25.4 18.6667 25.5087 18.3227 24.9073 17.902L20.426 14.7647C20.2885 14.6646 20.1313 14.5949 19.9647 14.5603C19.7982 14.5258 19.6262 14.5271 19.4602 14.5643C19.2942 14.6015 19.1381 14.6736 19.0022 14.7758C18.8663 14.8781 18.7537 15.0082 18.672 15.1573L17.328 17.5093C16.964 18.146 17.2667 18.6667 18 18.6667H24.6667ZM27.3333 18.6667C26.6 18.6667 26.4913 18.3227 27.0927 17.902L31.5747 14.7647C31.7122 14.6647 31.8695 14.5951 32.036 14.5606C32.2025 14.5261 32.3745 14.5275 32.5404 14.5646C32.7064 14.6018 32.8625 14.6739 32.9984 14.7761C33.1343 14.8783 33.2469 15.0082 33.3287 15.1573L34.6727 17.5087C35.036 18.146 34.7333 18.6667 34 18.6667H27.3333Z" fill="#FFE600"/>
</svg>