<svg width="16" height="16" viewBox="0 0 16 16" fill="none" xmlns="http://www.w3.org/2000/svg">
    <path d="M1 3.5L0.359816 2.73178C0.131823 2.92177 0 3.20322 0 3.5C0 3.79678 0.131823 4.07823 0.359816 4.26822L1 3.5ZM5.5 13.5C4.94772 13.5 4.5 13.9477 4.5 14.5C4.5 15.0523 4.94772 15.5 5.5 15.5V13.5ZM4.64018 1.76822C5.06446 1.41466 5.12179 0.784093 4.76822 0.359816C4.41466 -0.0644614 3.78409 -0.121785 3.35982 0.231779L4.64018 1.76822ZM3.35982 6.76822C3.78409 7.12179 4.41466 7.06446 4.76822 6.64018C5.12179 6.21591 5.06446 5.58534 4.64018 5.23178L3.35982 6.76822ZM13.5 9C13.5 10.4938 12.9088 11.5772 11.9775 12.3105C11.0192 13.0652 9.62996 13.5 8 13.5V15.5C9.95989 15.5 11.8206 14.9798 13.2149 13.8818C14.6361 12.7627 15.5 11.0961 15.5 9H13.5ZM8 4.5C9.62996 4.5 11.0192 4.93483 11.9775 5.68946C12.9088 6.42284 13.5 7.50622 13.5 9H15.5C15.5 6.90393 14.6361 5.23731 13.2149 4.11816C11.8206 3.02025 9.95989 2.5 8 2.5V4.5ZM8 2.5H1V4.5H8V2.5ZM8 13.5H5.5V15.5H8V13.5ZM1.64018 4.26822L4.64018 1.76822L3.35982 0.231779L0.359816 2.73178L1.64018 4.26822ZM0.359816 4.26822L3.35982 6.76822L4.64018 5.23178L1.64018 2.73178L0.359816 4.26822Z" fill="#96A5BE"/>
</svg>