<svg width="16" height="16" viewBox="0 0 16 16" fill="none" xmlns="http://www.w3.org/2000/svg">
    <path d="M6.70711 10.8284C6.31658 10.4379 6.31658 9.80474 6.70711 9.41422L10.9497 5.17158C11.3403 4.78105 11.9734 4.78105 12.364 5.17158C12.7545 5.5621 12.7545 6.19526 12.364 6.58579L8.12132 10.8284C7.7308 11.219 7.09763 11.219 6.70711 10.8284Z" fill="#FFFFFF"/>
    <path d="M3.7072 6.34314C4.09772 5.95261 4.73089 5.95261 5.12141 6.34314L7.94984 9.17157C8.34036 9.56209 8.34036 10.1953 7.94984 10.5858C7.55932 10.9763 6.92615 10.9763 6.53563 10.5858L3.7072 7.75735C3.31668 7.36683 3.31668 6.73366 3.7072 6.34314Z" fill="#FFFFFF"/>
</svg>