<svg width="19" height="18" viewBox="0 0 19 18" fill="none" xmlns="http://www.w3.org/2000/svg">
<path d="M11.1847 2.55337C11.5161 2.55337 11.7847 2.28474 11.7847 1.95337C11.7847 1.622 11.5161 1.35337 11.1847 1.35337V2.55337ZM17.1378 7.31051C17.1378 6.97914 16.8692 6.71051 16.5378 6.71051C16.2064 6.71051 15.9378 6.97914 15.9378 7.31051H17.1378ZM15.5378 16.3534H2.54913V17.5534H15.5378V16.3534ZM2.14913 15.9534V2.95337H0.949133V15.9534H2.14913ZM2.54913 2.55337H11.1847V1.35337H2.54913V2.55337ZM15.9378 7.31051V15.9534H17.1378V7.31051H15.9378ZM2.54913 16.3534C2.32822 16.3534 2.14913 16.1743 2.14913 15.9534H0.949133C0.949133 16.837 1.66548 17.5534 2.54913 17.5534V16.3534ZM15.5378 17.5534C16.4215 17.5534 17.1378 16.837 17.1378 15.9534H15.9378C15.9378 16.1743 15.7587 16.3534 15.5378 16.3534V17.5534ZM2.14913 2.95337C2.14913 2.73246 2.32822 2.55337 2.54913 2.55337V1.35337C1.66548 1.35337 0.949133 2.06971 0.949133 2.95337H2.14913Z" fill="#3D4656"/>
<path d="M9.51996 11.9369L9.75073 12.4907C9.83161 12.457 9.90412 12.406 9.96318 12.3413L9.51996 11.9369ZM16.6917 4.07693L16.2674 3.65267L16.2577 3.66237L16.2485 3.67251L16.6917 4.07693ZM14.3373 1.93992L13.9131 1.51566L13.9043 1.52439L13.896 1.53349L14.3373 1.93992ZM7.11641 9.78175L6.67503 9.37532C6.60623 9.45004 6.55753 9.541 6.53348 9.63968L7.11641 9.78175ZM16.7185 1.72996L16.2978 2.15782L16.7185 1.72996ZM6.62495 13.1432L6.39418 12.5893L6.62495 13.1432ZM6.35372 12.9112L5.77078 12.7691L6.35372 12.9112ZM9.96318 12.3413L17.1349 4.48135L16.2485 3.67251L9.07673 11.5324L9.96318 12.3413ZM13.896 1.53349L6.67503 9.37532L7.55779 10.1882L14.7787 2.34635L13.896 1.53349ZM6.71586 10.2285L9.11941 12.3836L9.9205 11.4901L7.51696 9.33503L6.71586 10.2285ZM9.28918 11.383L6.39418 12.5893L6.85573 13.697L9.75073 12.4907L9.28918 11.383ZM6.93665 13.0533L7.69935 9.92382L6.53348 9.63968L5.77078 12.7691L6.93665 13.0533ZM14.7616 2.36418C15.1049 2.02088 15.3238 1.79584 15.4984 1.64399C15.6855 1.48129 15.7102 1.50722 15.6517 1.51309C15.5588 1.52241 15.539 1.46438 15.6768 1.57249C15.8169 1.68232 15.9948 1.85993 16.2978 2.15782L17.1391 1.3021C16.8673 1.03492 16.6252 0.791218 16.4173 0.628189C16.2072 0.463446 15.9114 0.281021 15.532 0.319083C15.1869 0.353696 14.9144 0.561515 14.7109 0.738531C14.4949 0.926394 14.2298 1.1989 13.9131 1.51566L14.7616 2.36418ZM16.2978 2.15782C16.6238 2.47835 16.8265 2.67101 16.9586 2.82479C17.0983 2.98736 17.0395 2.9769 17.0411 2.87925C17.0425 2.78926 17.0942 2.78715 16.9456 2.9598C16.8068 3.12111 16.5979 3.32223 16.2674 3.65267L17.116 4.5012C17.414 4.20317 17.6775 3.94894 17.8551 3.74266C18.0229 3.54772 18.235 3.26578 18.2409 2.8984C18.2469 2.52337 18.0365 2.23796 17.8687 2.04268C17.6933 1.83861 17.4325 1.59053 17.1391 1.3021L16.2978 2.15782ZM6.39418 12.5893C6.6968 12.4632 7.01428 12.7347 6.93665 13.0533L5.77078 12.7691C5.61552 13.4062 6.25049 13.9492 6.85573 13.697L6.39418 12.5893Z" fill="#3D4656"/>
<path d="M14.0365 4.54408L15.4833 3.02281" stroke="#3D4656" stroke-width="1.2" stroke-linecap="round"/>
</svg>
