<svg width="15" height="11" viewBox="0 0 15 11" fill="none" xmlns="http://www.w3.org/2000/svg">
<path fill-rule="evenodd" clip-rule="evenodd" d="M9.51667 0.394936C10.1447 0.647237 10.7055 1.0119 11.2 1.48824L11.225 1.46301L14.75 5.01239C14.9167 5.12996 15 5.28706 15 5.48318C15 5.61791 14.9498 5.74658 14.85 5.87021L14.8083 5.90351L11.5502 9.19201L11.5417 9.17519C11.0362 9.75279 10.4362 10.1982 9.7415 10.5122C9.025 10.8375 8.2695 11 7.47483 11C6.775 11 6.09983 10.8708 5.44983 10.613C4.82783 10.3662 4.2665 10.0074 3.7665 9.53649V9.55364L0.208333 5.96239C0.0693333 5.84481 0 5.69629 0 5.51699C0 5.37671 0.0446667 5.25359 0.1335 5.14678L3.40817 1.84163C3.9195 1.26437 4.5195 0.818634 5.20833 0.504603C5.93067 0.168201 6.68617 1.60907e-07 7.475 1.60907e-07C8.18617 -0.00016804 8.8665 0.131533 9.51667 0.394936ZM7.4915 3.7169C7.986 3.7169 8.40817 3.89368 8.7585 4.24674C9.114 4.59996 9.29167 5.02332 9.29167 5.51682C9.29167 6.02142 9.114 6.45017 8.7585 6.80322C8.40817 7.15678 7.986 7.33305 7.4915 7.33305C6.997 7.33305 6.57483 7.15661 6.22483 6.80322C5.87483 6.45 5.69983 6.02142 5.69983 5.51682C5.69983 5.02332 5.875 4.59996 6.22483 4.24674C6.57467 3.89351 6.997 3.7169 7.4915 3.7169ZM7.475 1.78259C6.45833 1.78259 5.589 2.14725 4.86667 2.8759C4.14467 3.60488 3.78333 4.48239 3.78333 5.50824C3.78333 6.53982 4.14467 7.41732 4.86667 8.14059C5.589 8.86957 6.4585 9.23389 7.475 9.23389C8.503 9.23389 9.375 8.86957 10.0918 8.14059C10.8138 7.41715 11.1752 6.53965 11.1752 5.50824C11.1752 4.48222 10.8138 3.60488 10.0918 2.8759C9.375 2.14725 8.503 1.78259 7.475 1.78259Z" fill="#3B6EC9"/>
</svg>
