<svg width="54" height="54" viewBox="0 0 54 54" fill="none" xmlns="http://www.w3.org/2000/svg">
    <rect x="1" y="1" width="52" height="52" rx="26" stroke="#CACED5"/>
    <rect x="12" y="12" width="31" height="22" rx="3" stroke="#3B6EC9" stroke-width="2"/>
    <rect x="34.5" y="29.5" width="3" height="1" rx="0.5" stroke="#3B6EC9"/>
    <rect x="32.7071" y="24.8284" width="3" height="1" rx="0.5" transform="rotate(-45 32.7071 24.8284)" stroke="#3B6EC9"/>
    <rect x="18.5" y="29.5" width="3" height="1" rx="0.5" stroke="#3B6EC9"/>
    <rect x="-0.707107" width="3" height="1" rx="0.5" transform="matrix(-0.707107 -0.707107 -0.707107 0.707107 23.0355 24.3284)" stroke="#3B6EC9"/>
    <rect x="-0.5" y="-0.5" width="3" height="1" rx="0.5" transform="matrix(0 -1 -1 0 28 23)" stroke="#3B6EC9"/>
    <rect x="19.5" y="42.5" width="17" height="1" rx="0.5" stroke="#3B6EC9"/>
    <path fill-rule="evenodd" clip-rule="evenodd" d="M28 26C25.7909 26 24 27.7909 24 30C24 30.3453 24.0438 30.6804 24.126 31H26.2676C26.0974 30.7058 26 30.3643 26 30C26 28.8954 26.8954 28 28 28C29.1046 28 30 28.8954 30 30C30 30.3643 29.9026 30.7058 29.7324 31H31.874C31.9562 30.6804 32 30.3453 32 30C32 27.7909 30.2091 26 28 26Z" fill="#3B6EC9"/>
</svg>