<svg width="54" height="54" viewBox="0 0 54 54" fill="none" xmlns="http://www.w3.org/2000/svg">
    <rect x="1" y="1" width="52" height="52" rx="26" stroke="#CACED5"/>
    <path fill-rule="evenodd" clip-rule="evenodd" d="M16.3682 15.385C17.033 14.1835 17.3654 13.5827 17.839 13.1452C18.258 12.7581 18.7549 12.4652 19.2964 12.2859C19.9085 12.0833 20.5951 12.0833 21.9682 12.0833L33.0317 12.0833C34.4049 12.0833 35.0915 12.0833 35.7036 12.2859C36.2451 12.4652 36.742 12.7581 37.161 13.1452C37.6346 13.5827 37.967 14.1835 38.6318 15.385L43.6204 24.4017C44.2462 25.5327 44.5591 26.0983 44.6818 26.6969C44.7904 27.2268 44.7904 27.7732 44.6818 28.3031C44.5591 28.9018 44.2462 29.4673 43.6204 30.5984L38.6318 39.615C37.967 40.8166 37.6346 41.4173 37.161 41.8548C36.742 42.2419 36.2451 42.5349 35.7036 42.7141C35.0915 42.9167 34.4049 42.9167 33.0317 42.9167H21.9682C20.5951 42.9167 19.9085 42.9167 19.2964 42.7141C18.7549 42.5349 18.258 42.2419 17.839 41.8548C17.3654 41.4173 17.033 40.8166 16.3682 39.615L11.3795 30.5984C10.7537 29.4673 10.4408 28.9018 10.3182 28.3031C10.2096 27.7732 10.2096 27.2268 10.3182 26.6969C10.4408 26.0983 10.7537 25.5327 11.3795 24.4017L16.3682 15.385Z" stroke="#3B6EC9" stroke-width="2"/>
    <path fill-rule="evenodd" clip-rule="evenodd" d="M27.3997 32.125C29.954 32.125 32.0247 30.0543 32.0247 27.5C32.0247 24.9457 29.954 22.875 27.3997 22.875C24.8454 22.875 22.7747 24.9457 22.7747 27.5C22.7747 30.0543 24.8454 32.125 27.3997 32.125Z" stroke="#3B6EC9" stroke-width="2"/>
</svg>