<svg width="54" height="54" viewBox="0 0 54 54" fill="none" xmlns="http://www.w3.org/2000/svg">
    <rect x="1" y="1" width="52" height="52" rx="26" stroke="#CACED5"/>
    <rect x="12" y="16" width="31" height="22" rx="3" stroke="#3B6EC9" stroke-width="2"/>
    <mask id="path-5-inside-1" fill="white">
        <path d="M26.3237 31.6888C26.0834 31.4484 26.0834 31.0588 26.3237 30.8185L40.435 16.7071C40.8256 16.3166 41.4587 16.3166 41.8493 16.7071C42.2398 17.0976 42.2398 17.7308 41.8493 18.1213L28.2818 31.6888C27.7411 32.2295 26.8644 32.2295 26.3237 31.6888Z"/>
    </mask>
    <path d="M27.7379 32.2327L41.8493 18.1213L39.0208 15.2929L24.9095 29.4043L27.7379 32.2327ZM40.435 16.7071L26.8676 30.2745L29.696 33.103L43.2635 19.5355L40.435 16.7071ZM26.8676 30.2745C27.1079 30.0342 27.4976 30.0342 27.7379 30.2745L24.9095 33.103C26.2313 34.4247 28.3743 34.4247 29.696 33.103L26.8676 30.2745ZM40.435 18.1213C40.0445 17.7308 40.0445 17.0976 40.435 16.7071L43.2635 19.5355C44.435 18.364 44.435 16.4645 43.2635 15.2929L40.435 18.1213ZM41.8493 18.1213C41.4587 18.5118 40.8256 18.5118 40.435 18.1213L43.2635 15.2929C42.0919 14.1213 40.1924 14.1213 39.0208 15.2929L41.8493 18.1213ZM24.9095 29.4043C23.8881 30.4256 23.8881 32.0816 24.9095 33.103L27.7379 30.2745C28.2786 30.8153 28.2786 31.692 27.7379 32.2327L24.9095 29.4043Z" fill="#3B6EC9" mask="url(#path-5-inside-1)"/>
    <rect x="-0.707107" width="20.6026" height="1" rx="0.5" transform="matrix(-0.707107 -0.707107 -0.707107 0.707107 27.4824 30.7753)" stroke="#3B6EC9"/>
    <rect x="-0.707107" width="13.0363" height="1" rx="0.5" transform="matrix(-0.707107 -0.707107 -0.707107 0.707107 41.4824 35.7753)" stroke="#3B6EC9"/>
    <rect x="12.7071" y="35.9251" width="13.0363" height="1" rx="0.5" transform="rotate(-45 12.7071 35.9251)" stroke="#3B6EC9"/>
</svg>