<svg width="24" height="24" viewBox="0 0 24 24" fill="none" xmlns="http://www.w3.org/2000/svg">
    <rect x="1" y="1" width="22" height="22" rx="11" stroke="#3B6EC9" stroke-width="2"/>
    <mask id="path-3-inside-1" fill="white">
        <path d="M12 4C9.23858 4 7 6.23858 7 9C7 11.3819 8.89114 13.6377 9.67042 15.0668C9.93483 15.5516 10.4477 16 11 16H13C13.5523 16 14.0652 15.5516 14.3296 15.0668C15.1089 13.6377 17 11.3819 17 9C17 6.23858 14.7614 4 12 4Z"/>
    </mask>
    <path d="M7 9H5H7ZM14.3296 15.0668L12.5737 14.1092L12.5737 14.1092L14.3296 15.0668ZM9.67042 15.0668L11.4263 14.1092L11.4263 14.1092L9.67042 15.0668ZM9 9C9 7.34315 10.3431 6 12 6V2C8.13401 2 5 5.13401 5 9H9ZM12 6C13.6569 6 15 7.34315 15 9H19C19 5.13401 15.866 2 12 2V6ZM11 18H13V14H11V18ZM16.0855 16.0243C16.2389 15.7428 16.456 15.4058 16.7617 14.9266C17.0491 14.476 17.3907 13.9362 17.7109 13.352C18.3359 12.2116 19 10.6949 19 9H15C15 9.68699 14.7185 10.4892 14.2032 11.4294C13.9532 11.8855 13.6758 12.3264 13.3895 12.7752C13.1215 13.1953 12.8099 13.6762 12.5737 14.1092L16.0855 16.0243ZM11.4263 14.1092C11.1901 13.6762 10.8785 13.1953 10.6105 12.7752C10.3242 12.3264 10.0468 11.8855 9.79682 11.4294C9.28146 10.4892 9 9.68699 9 9H5C5 10.6949 5.66411 12.2116 6.28914 13.352C6.60934 13.9362 6.95088 14.476 7.23833 14.9266C7.54404 15.4058 7.76105 15.7428 7.91453 16.0243L11.4263 14.1092ZM13 18C14.5872 18 15.6446 16.8327 16.0855 16.0243L12.5737 14.1092C12.5745 14.1078 12.5714 14.1132 12.5655 14.1202C12.5595 14.1272 12.56 14.1247 12.5729 14.1151C12.5854 14.1057 12.73 14 13 14V18ZM11 14C11.27 14 11.4146 14.1057 11.4271 14.1151C11.44 14.1247 11.4405 14.1272 11.4345 14.1202C11.4286 14.1132 11.4255 14.1078 11.4263 14.1092L7.91453 16.0243C8.35538 16.8327 9.4128 18 11 18V14Z" fill="#3B6EC9" mask="url(#path-3-inside-1)"/>
    <path d="M11 18L13 18C13 18.5523 12.5523 19 12 19C11.4477 19 11 18.5523 11 18Z" stroke="#3B6EC9" stroke-width="2"/>
</svg>