<svg width="52" height="52" viewBox="0 0 52 52" fill="none" xmlns="http://www.w3.org/2000/svg">
    <path d="M38 26C38 32.6273 32.6273 38 26 38C19.3733 38 14 32.6273 14 26C14 19.3733 19.3733 14 26 14C32.6273 14 38 19.3733 38 26Z" fill="#FFE600"/>
    <path d="M21.6667 27.3334C22.5871 27.3334 23.3333 26.2887 23.3333 25.0001C23.3333 23.7114 22.5871 22.6667 21.6667 22.6667C20.7462 22.6667 20 23.7114 20 25.0001C20 26.2887 20.7462 27.3334 21.6667 27.3334Z" fill="#040427"/>
    <path d="M30.3337 27.3334C31.2541 27.3334 32.0003 26.2887 32.0003 25.0001C32.0003 23.7114 31.2541 22.6667 30.3337 22.6667C29.4132 22.6667 28.667 23.7114 28.667 25.0001C28.667 26.2887 29.4132 27.3334 30.3337 27.3334Z" fill="#040427"/>
    <path d="M20.6667 33.9999C20.6667 35.8413 19.1747 37.3333 17.3333 37.3333C15.492 37.3333 14 35.8413 14 33.9999C14 32.1586 16.6667 27.3333 17.3333 27.3333C18 27.3333 20.6667 32.1586 20.6667 33.9999Z" fill="#3B6EC9"/>
    <path d="M32.4615 22C29.4709 22 28.2605 19.0892 28.2104 18.9652C28.0774 18.636 28.1851 18.2354 28.4511 18.0707C28.716 17.9061 29.0391 18.0387 29.1726 18.366C29.213 18.4633 30.1532 20.6669 32.4615 20.6669C32.7593 20.6669 33 20.9655 33 21.3335C33 21.7014 32.7593 22 32.4615 22ZM19.5385 22C19.2412 22 19 21.7014 19 21.3335C19 20.9655 19.2412 20.6669 19.5385 20.6669C22.2755 20.6669 22.7671 18.5873 22.787 18.4987C22.8651 18.1467 23.1585 17.9334 23.4434 18.0261C23.7288 18.1187 23.9016 18.4747 23.83 18.8293C23.8036 18.9586 23.1483 22 19.5385 22Z" fill="#040427"/>
    <path d="M29.7157 33.0302C29.5165 33.7899 28.6331 32.7462 27.2976 32.3958C25.962 32.0455 24.6801 32.5211 24.8794 31.7615C25.0787 31.0018 26.3229 30.67 27.6584 31.0204C28.9939 31.3707 29.915 32.2706 29.7157 33.0302Z" fill="#040427"/>
</svg>