<svg width="20" height="15" viewBox="0 0 20 15" fill="none" xmlns="http://www.w3.org/2000/svg">
    <path fill-rule="evenodd" clip-rule="evenodd" d="M0 12C0 13.6569 1.34315 15 3 15L17 15C18.6569 15 20 13.6569 20 12V6C20 5.44771 19.5523 5 19 5C18.4477 5 18 5.44771 18 6V12C18 12.5523 17.5523 13 17 13L3 13C2.44772 13 2 12.5523 2 12L2 6C2 5.44771 1.55228 5 1 5C0.447715 5 0 5.44771 0 6L0 12ZM6.29289 7.20711C5.90237 6.81658 5.90237 6.18342 6.29289 5.79289C6.68342 5.40237 7.31658 5.40237 7.70711 5.79289L9 7.08579V1C9 0.447715 9.44772 0 10 0C10.5523 0 11 0.447715 11 1V7.08579L12.2929 5.79289C12.6834 5.40237 13.3166 5.40237 13.7071 5.79289C14.0976 6.18342 14.0976 6.81658 13.7071 7.20711L10.7071 10.2071C10.3166 10.5976 9.68342 10.5976 9.29289 10.2071L6.29289 7.20711Z" fill="#3B6EC9"/>
</svg>