<svg width="24" height="24" viewBox="0 0 24 24" fill="none" xmlns="http://www.w3.org/2000/svg">
    <path d="M21 13C21 12.4477 20.5523 12 20 12C19.4477 12 19 12.4477 19 13H21ZM11 5C11.5523 5 12 4.55228 12 4C12 3.44772 11.5523 3 11 3V5ZM3.00013 7.99995L3.00004 16L5.00004 16L5.00013 7.99997L3.00013 7.99995ZM8.00004 21H16V19H8.00004V21ZM21 16V13H19V16H21ZM8.00013 5H11V3H8.00013V5ZM16 21C18.7614 21 21 18.7615 21 16H19C19 17.6569 17.6569 19 16 19V21ZM3.00004 16C3.00001 18.7614 5.2386 21 8.00004 21V19C6.34317 19 5.00003 17.6569 5.00004 16L3.00004 16ZM5.00013 7.99997C5.00015 6.34313 6.34329 5 8.00013 5V3C5.23872 3 3.00016 5.23854 3.00013 7.99995L5.00013 7.99997Z" fill="#96A5BE"/>
    <path d="M16.6175 4.82843C17.3986 4.04738 18.6649 4.04738 19.446 4.82843C20.227 5.60948 20.227 6.87581 19.446 7.65685L12.8817 14.2211L9.8963 14.3781L10.0533 11.3927L16.6175 4.82843Z" stroke="#96A5BE" stroke-width="2" stroke-linejoin="round"/>
</svg>
