<svg width="18" height="17" viewBox="0 0 18 17" fill="none" xmlns="http://www.w3.org/2000/svg">
    <path fill-rule="evenodd" clip-rule="evenodd" d="M7 3C7 2.44772 7.44772 2 8 2H10C10.5523 2 11 2.44772 11 3V4H9H7V3ZM4.05214 6H6H9H12H13.9479L13.1769 14.0948C13.128 14.608 12.697 15 12.1814 15H5.81857C5.30302 15 4.87196 14.608 4.82308 14.0948L4.05214 6ZM2.04309 6H1.5C0.947715 6 0.5 5.55228 0.5 5C0.5 4.44772 0.947715 4 1.5 4H5V3C5 1.34315 6.34315 0 8 0H10C11.6569 0 13 1.34315 13 3V4H16.5C17.0523 4 17.5 4.44772 17.5 5C17.5 5.55228 17.0523 6 16.5 6H15.9569L15.1679 14.2844C15.0213 15.8241 13.7281 17 12.1814 17H5.81857C4.2719 17 2.97873 15.8241 2.83209 14.2844L2.04309 6ZM8 9C8 8.44772 7.55228 8 7 8C6.44772 8 6 8.44772 6 9V12C6 12.5523 6.44772 13 7 13C7.55228 13 8 12.5523 8 12V9ZM12 9C12 8.44772 11.5523 8 11 8C10.4477 8 10 8.44772 10 9V12C10 12.5523 10.4477 13 11 13C11.5523 13 12 12.5523 12 12V9Z" fill="#96A5BE"/>
</svg>