<svg width="24" height="24" viewBox="0 0 24 24" fill="none" xmlns="http://www.w3.org/2000/svg">
    <path d="M11.9997 19C11.4474 19 10.9997 19.4477 10.9997 20C10.9997 20.5523 11.4474 21 11.9997 21V19ZM17.6565 6.34315L18.3636 5.63604V5.63604L17.6565 6.34315ZM18.9997 12C18.9997 15.866 15.8657 19 11.9997 19V21C16.9702 21 20.9997 16.9706 20.9997 12H18.9997ZM4.99966 12C4.99966 8.13401 8.13367 5 11.9997 5V3C7.0291 3 2.99966 7.02944 2.99966 12H4.99966ZM11.9997 5C13.9329 5 15.6816 5.78241 16.9494 7.05025L18.3636 5.63604C16.736 4.00845 14.4847 3 11.9997 3V5ZM16.9494 7.05025C18.2173 8.3181 18.9997 10.0667 18.9997 12H20.9997C20.9997 9.515 19.9912 7.26362 18.3636 5.63604L16.9494 7.05025Z" fill="#96A5BE"/>
    <path fill-rule="evenodd" clip-rule="evenodd" d="M1.87874 10.9032C1.48821 11.2938 1.48821 11.9269 1.87874 12.3175L3.29295 13.7317C3.68348 14.1222 4.31664 14.1222 4.70716 13.7317L6.12138 12.3175C6.5119 11.9269 6.5119 11.2938 6.12138 10.9032C5.73085 10.5127 5.09769 10.5127 4.70716 10.9032L4.00006 11.6104L3.29295 10.9032C2.90243 10.5127 2.26926 10.5127 1.87874 10.9032Z" fill="#96A5BE"/>
    <path fill-rule="evenodd" clip-rule="evenodd" d="M11.9997 8.53296C11.4474 8.53296 10.9997 8.98067 10.9997 9.53296V12.533C10.9997 12.5906 11.0045 12.647 11.0139 12.702C10.9473 13.1933 11.2547 13.6692 11.7463 13.8009L15.61 14.8362C16.1435 14.9791 16.6918 14.6625 16.8347 14.1291C16.9777 13.5956 16.6611 13.0473 16.1276 12.9043L12.9997 12.0662V9.53296C12.9997 8.98067 12.5519 8.53296 11.9997 8.53296Z" fill="#96A5BE"/>
    <circle cx="4.55084" cy="16.6975" r="1" fill="#96A5BE"/>
    <circle cx="8.08035" cy="19.4456" r="1" fill="#96A5BE"/>
</svg>
