<svg width="54" height="54" viewBox="0 0 54 54" fill="none" xmlns="http://www.w3.org/2000/svg">
    <rect opacity="0.2" x="1" y="1" width="52" height="52" rx="26" stroke="#979797"/>
    <path d="M26.9995 40.6666C26.4472 40.6666 25.9995 41.1143 25.9995 41.6666C25.9995 42.2189 26.4472 42.6666 26.9995 42.6666V40.6666ZM40.6662 26.9999C40.6662 34.5478 34.5474 40.6666 26.9995 40.6666V42.6666C35.652 42.6666 42.6662 35.6524 42.6662 26.9999H40.6662ZM13.3328 26.9999C13.3328 19.452 19.4516 13.3333 26.9995 13.3333V11.3333C18.347 11.3333 11.3328 18.3475 11.3328 26.9999H13.3328ZM26.9995 13.3333C30.7737 13.3333 34.189 14.8619 36.6633 17.3361L38.0775 15.9219C35.2435 13.0879 31.3254 11.3333 26.9995 11.3333V13.3333ZM36.6633 17.3361C39.1376 19.8104 40.6662 23.2257 40.6662 26.9999H42.6662C42.6662 22.674 40.9115 18.7559 38.0775 15.9219L36.6633 17.3361Z" fill="#3B6EC9"/>
    <path fill-rule="evenodd" clip-rule="evenodd" d="M9.25038 24.9736C8.85986 25.3641 8.85986 25.9972 9.25038 26.3878L11.6263 28.7637L11.6263 28.7637C12.0169 29.1543 12.65 29.1543 13.0406 28.7637C13.0421 28.7622 13.0437 28.7606 13.0453 28.759L15.2685 26.5357C15.6591 26.1452 15.6591 25.512 15.2685 25.1215C14.878 24.731 14.2448 24.731 13.8543 25.1215L12.3334 26.6424L10.6646 24.9736C10.2741 24.583 9.6409 24.583 9.25038 24.9736Z" fill="#3B6EC9"/>
    <path fill-rule="evenodd" clip-rule="evenodd" d="M27.2358 22C26.6835 22 26.2358 22.4477 26.2358 23V27.9706C26.1602 28.4676 26.469 28.9526 26.9659 29.0857L34.6986 31.1577C35.2321 31.3006 35.7804 30.9841 35.9234 30.4506C36.0663 29.9171 35.7497 29.3688 35.2163 29.2258L28.2358 27.3554V23C28.2358 22.4477 27.7881 22 27.2358 22Z" fill="#3B6EC9"/>
    <ellipse cx="13.5099" cy="34.7788" rx="0.999999" ry="1" fill="#3B6EC9"/>
    <ellipse cx="20" cy="41" rx="1" ry="1" fill="#3B6EC9"/>
</svg>
