<svg width="24" height="24" viewBox="0 0 24 24" fill="none" xmlns="http://www.w3.org/2000/svg">
    <path d="M12 24C18.6274 24 24 18.6274 24 12C24 5.37258 18.6274 0 12 0C5.37258 0 0 5.37258 0 12C0 18.6274 5.37258 24 12 24Z" fill="#FFE500"/>
    <path d="M9.00809 17.3727C9.03209 17.4801 9.45448 19.0001 12 19.0001C15.5 19 16 17 15.9919 16.3727C16.0212 16.2425 15.969 16.1075 15.8655 16.0403C15.7615 15.9737 15.6314 15.9935 15.5455 16.0865C15.5354 16.0979 15.3196 17.0871 12 17.5C9.9058 17.7605 9.46408 17.0979 9.45448 17.0871C9.40328 17.0301 9.33501 17.0001 9.26675 17.0001C9.22195 17.0001 9.17662 17.0127 9.13555 17.0385C9.03102 17.1057 8.97875 17.2419 9.00809 17.3727Z" fill="#040427"/>
    <path d="M24 8.9815C24 8.9815 23.1489 8.9995 23.1489 9.6895C23.1489 11.3915 23.1667 15.0415 18.7571 15.0415C15.2261 15.0415 13.5398 13.1995 13.2568 11.1635C13.14 10.3175 12.8491 9.3935 12.002 9.3935C11.1549 9.3935 10.8639 10.3155 10.7472 11.1635C10.4621 13.1995 8.77585 15.0415 5.24493 15.0415C0.833251 15.0415 0.851064 11.3895 0.851064 9.6895C0.851064 8.9995 0 8.9815 0 8.9815V7.2955C0 7.2955 1.63483 7.0415 4.13063 7.0415C6.62642 7.0415 7.61999 7.0415 9.60713 7.2415C10.7788 7.3615 12 7.3735 12 7.3735C12 7.3735 13.2212 7.3615 14.3929 7.2415C16.378 7.0415 17.3736 7.0415 19.8694 7.0415C22.3652 7.0415 24 7.2955 24 7.2955V8.9815Z" fill="#3D4656"/>
    <path d="M19.8694 7.6415C21.4903 7.6415 22.7491 7.7515 23.4062 7.8255V8.4955C22.9292 8.6795 22.5552 9.0855 22.5552 9.6895V9.7115C22.5552 10.5275 22.5552 11.7595 22.0683 12.7515C21.5101 13.8895 20.4275 14.4415 18.757 14.4415C15.9723 14.4415 14.1356 13.1855 13.8446 11.0795C13.5814 9.1895 12.6967 8.7935 12.002 8.7935C11.3053 8.7935 10.4225 9.1895 10.1593 11.0795C9.8644 13.1855 8.02769 14.4415 5.2449 14.4415C3.57444 14.4415 2.49181 13.8875 1.93367 12.7515C1.44678 11.7575 1.44678 10.5255 1.44678 9.7115V9.6895C1.44678 9.0835 1.07073 8.6795 0.595719 8.4955V7.8255C1.25084 7.7515 2.50962 7.6415 4.1306 7.6415C6.64817 7.6415 7.59028 7.6415 9.54773 7.8395C10.7333 7.9595 11.9426 7.9735 11.994 7.9735H12.0059C12.0574 7.9735 13.2667 7.9595 14.4522 7.8395C16.4077 7.6415 17.3498 7.6415 19.8694 7.6415ZM19.8694 7.0415C17.3736 7.0415 16.38 7.0415 14.3948 7.2415C13.2212 7.3615 12 7.3735 12 7.3735C12 7.3735 10.7788 7.3615 9.6071 7.2415C7.62195 7.0415 6.6264 7.0415 4.13258 7.0415C1.63679 7.0415 0.00195312 7.2955 0.00195312 7.2955V8.9815C0.00195312 8.9815 0.853017 8.9995 0.853017 9.6895C0.851038 11.3895 0.833225 15.0415 5.2449 15.0415C8.77583 15.0415 10.4621 13.1995 10.7452 11.1635C10.8619 10.3175 11.1529 9.3935 12 9.3935C12.8471 9.3935 13.138 10.3155 13.2548 11.1635C13.5378 13.1995 15.2241 15.0415 18.7551 15.0415C23.1648 15.0415 23.1469 11.3895 23.1469 9.6895C23.1469 8.9995 23.998 8.9815 23.998 8.9815V7.2955C24 7.2955 22.3632 7.0415 19.8694 7.0415Z" fill="#040427"/>
    <path d="M3.62208 10.7018C3.60229 11.0238 3.47364 11.3238 3.16092 11.3838C3.01033 11.4119 2.85481 11.3788 2.72836 11.2914C2.6019 11.2041 2.51478 11.0698 2.48601 10.9178C2.37518 10.3158 2.50382 9.75178 2.85019 9.32978C3.01048 9.13429 3.21165 8.97713 3.43923 8.86958C3.6668 8.76203 3.91514 8.70677 4.16637 8.70778C4.48502 8.70778 4.76805 8.90778 4.76805 9.22978C4.76805 9.60978 4.46919 9.76978 4.16637 9.87578C3.88334 9.97378 3.64583 10.3098 3.62208 10.7018Z" fill="white"/>
    <path d="M16.3389 10.7018C16.3191 11.0238 16.1904 11.3238 15.8777 11.3838C15.7271 11.4119 15.5716 11.3788 15.4452 11.2914C15.3187 11.2041 15.2316 11.0698 15.2028 10.9178C15.092 10.3158 15.2206 9.75178 15.567 9.32978C15.7273 9.13429 15.9284 8.97713 16.156 8.86958C16.3836 8.76203 16.6319 8.70677 16.8832 8.70778C17.2018 8.70778 17.4848 8.90778 17.4848 9.22978C17.4848 9.60978 17.186 9.76978 16.8832 9.87578C16.6001 9.97378 16.3626 10.3098 16.3389 10.7018Z" fill="white"/>
</svg>
