<svg width="16" height="16" viewBox="0 0 16 16" fill="none" xmlns="http://www.w3.org/2000/svg">
    <path d="M11.9975 14.6667L9.28139 14.6666C8.44748 14.6666 7.63441 14.4059 6.95592 13.9211L6.08536 13.299C5.82266 13.1113 5.66676 12.8084 5.66675 12.4855L5.66676 7.74736C5.66675 7.48207 5.78114 7.23748 6.01543 7.11303C6.63934 6.78162 7.84254 6.19202 8.66675 4.33332C9.36723 2.75363 9.66393 1.66666 10.332 1.66666C11.0001 1.66666 11.482 3.50007 10.8136 6.66666H13.9968C15.837 6.66666 16.4087 8.63548 14.0329 8.69774C15.5544 8.9709 15.8353 10.5462 13.7463 10.6601C14.9836 10.7383 15.1859 12.5312 13.2247 12.6594C14.4413 12.7291 13.8913 14.6667 11.9975 14.6667Z" fill="#3B6EC9"/>
    <path d="M0 6.11113C0 5.31339 0.6467 4.66669 1.44444 4.66669C3.03993 4.66669 4.33333 5.96009 4.33333 7.55558V12.4445C4.33333 14.04 3.03993 15.3334 1.44444 15.3334C0.6467 15.3334 0 14.6867 0 13.8889V6.11113Z" fill="#3B6EC9"/>
</svg>
