<svg width="16" height="16" viewBox="0 0 16 16" fill="none" xmlns="http://www.w3.org/2000/svg">
    <path d="M4.00246 1.33334L6.71861 1.3334C7.55252 1.33342 8.36559 1.59407 9.04408 2.0789L9.91464 2.70098C10.1773 2.8887 10.3332 3.19157 10.3332 3.51445L10.3332 8.25264C10.3332 8.51793 10.2189 8.76252 9.98457 8.88697C9.36066 9.21838 8.15746 9.80798 7.33325 11.6667C6.63277 13.2464 6.33607 14.3333 5.66797 14.3333C4.99988 14.3333 4.51795 12.4999 5.18638 9.33334H2.00316C0.162993 9.33334 -0.408731 7.36452 1.96714 7.30226C0.445618 7.0291 0.164656 5.45382 2.25375 5.33986C1.01636 5.26168 0.814059 3.46877 2.77526 3.34057C1.55866 3.27093 2.1087 1.33334 4.00246 1.33334Z" fill="#96A5BE"/>
    <path d="M16 9.88887C16 10.6866 15.3533 11.3333 14.5556 11.3333C12.9601 11.3333 11.6667 10.0399 11.6667 8.44442V3.55554C11.6667 1.96005 12.9601 0.666646 14.5556 0.666646C15.3533 0.666646 16 1.31335 16 2.11109V9.88887Z" fill="#96A5BE"/>
</svg>