<svg width="16" height="16" viewBox="0 0 16 16" fill="none" xmlns="http://www.w3.org/2000/svg">
<path d="M7.35138 0.552747C7.72514 0.234234 8.27486 0.234234 8.64862 0.552748L10.2028 1.87721C10.363 2.0137 10.5621 2.09618 10.7719 2.11292L12.8074 2.27536C13.2969 2.31442 13.6856 2.70313 13.7246 3.19264L13.8871 5.22814C13.9038 5.43791 13.9863 5.63704 14.1228 5.79721L15.4473 7.35138C15.7658 7.72514 15.7658 8.27486 15.4473 8.64862L14.1228 10.2028C13.9863 10.363 13.9038 10.5621 13.8871 10.7719L13.7246 12.8074C13.6856 13.2969 13.2969 13.6856 12.8074 13.7246L10.7719 13.8871C10.5621 13.9038 10.363 13.9863 10.2028 14.1228L8.64862 15.4473C8.27486 15.7658 7.72514 15.7658 7.35138 15.4473L5.79721 14.1228C5.63704 13.9863 5.43791 13.9038 5.22814 13.8871L3.19264 13.7246C2.70313 13.6856 2.31442 13.2969 2.27536 12.8074L2.11292 10.7719C2.09618 10.5621 2.0137 10.363 1.87721 10.2028L0.552747 8.64862C0.234234 8.27486 0.234234 7.72514 0.552748 7.35138L1.87721 5.79721C2.0137 5.63704 2.09618 5.43791 2.11292 5.22814L2.27536 3.19264C2.31442 2.70313 2.70313 2.31442 3.19264 2.27536L5.22814 2.11292C5.43791 2.09618 5.63704 2.0137 5.79721 1.87721L7.35138 0.552747Z" fill="#3B6EC9"/>
<path fill-rule="evenodd" clip-rule="evenodd" d="M12 6.08391L10.9046 5L7.03184 8.83215L5.0954 6.91602L4 7.99992L5.93645 9.91606L5.93641 9.91609L7.03181 11L12 6.08391Z" fill="white"/>
</svg>
