<?xml version="1.0" encoding="UTF-8"?>
<svg width="40px" height="39px" viewBox="0 0 40 39" version="1.1" xmlns="http://www.w3.org/2000/svg" xmlns:xlink="http://www.w3.org/1999/xlink">
    <!-- Generator: Sketch 43.1 (39012) - http://www.bohemiancoding.com/sketch -->
    <title>Group 6</title>
    <desc>Created with Sketch.</desc>
    <defs>
        <path d="M18,23.4002456 C18,14.0012868 22.2041016,6.08203307 24,6.00061389 C25.7958984,5.91919472 30,13.9478334 30,23.4002456 C30,32.8526578 29.0430228,32.2976847 29.0430228,32.2976847 C28.3665618,33.7901322 26.4705315,35 24.822006,35 L23.177994,35 C21.5232518,35 19.5034371,33.8353984 18.9569772,32.2761413 C18.9569772,32.2761413 18,32.7992043 18,23.4002456 Z" id="path-1"></path>
    </defs>
    <g id="Page-1" stroke="none" stroke-width="1" fill="none" fill-rule="evenodd">
        <g id="prices" transform="translate(-579.000000, -230.000000)">
            <g id="Group-5" transform="translate(568.000000, 221.000000)">
                <g id="Group-6" transform="translate(30.000000, 29.500000) rotate(45.000000) translate(-30.000000, -29.500000) translate(6.000000, 12.000000)">
                    <path d="M17.8181818,27 C11.9938219,27 15,33 15,33 L22.939209,33 C22.939209,33 23.3725759,27 17.8181818,27 Z" id="Path-11" stroke="#495867" stroke-width="2"></path>
                    <path d="M28.5878366,27 C22.7634767,27 25.7696548,33 25.7696548,33 L33.7572067,33 C33.7572067,33 34.1422307,27 28.5878366,27 Z" id="Path-11" stroke="#495867" stroke-width="2" transform="translate(29.378481, 30.000000) scale(-1, 1) translate(-29.378481, -30.000000) "></path>
                    <circle id="Oval-6" stroke="#495867" stroke-width="2" cx="24" cy="6" r="3"></circle>
                    <rect id="Rectangle-2" stroke="#495867" stroke-width="2" x="1" y="10" width="46" height="10" rx="5"></rect>
                    <path d="M16.5,1 L31.5,1" id="Line" stroke="#495867" stroke-width="2" stroke-linecap="square"></path>
                    <mask id="mask-2" fill="white">
                        <use xlink:href="#path-1"></use>
                    </mask>
                    <use id="Rectangle-3" stroke="#495867" stroke-width="2" fill="#FFFFFF" transform="translate(24.000000, 20.500000) scale(1, -1) translate(-24.000000, -20.500000) " xlink:href="#path-1"></use>
                    <rect id="Rectangle-6" stroke="#495867" stroke-width="2" mask="url(#mask-2)" x="22" y="12" width="4" height="6" rx="2"></rect>
                </g>
            </g>
        </g>
    </g>
</svg>