<?xml version="1.0" encoding="UTF-8"?>
<svg width="38px" height="23px" viewBox="0 0 38 23" version="1.1" xmlns="http://www.w3.org/2000/svg" xmlns:xlink="http://www.w3.org/1999/xlink">
    <!-- Generator: Sketch 43.1 (39012) - http://www.bohemiancoding.com/sketch -->
    <title>Group 7</title>
    <desc>Created with Sketch.</desc>
    <defs>
        <path d="M20,4 C30,4 38.1773424,8.17435169 38.1773424,8.17435169 C39.1839684,8.63034466 39.182859,9.38403936 38.1773424,9.82564831 C38.1773424,9.82564831 30,14 20,14 C10,14 1.82265759,9.82564831 1.82265759,9.82564831 C0.816031597,9.36965534 0.817141011,8.61596064 1.82265759,8.17435169 C1.82265759,8.17435169 10,4 20,4 Z" id="path-1"></path>
    </defs>
    <g id="Page-1" stroke="none" stroke-width="1" fill="none" fill-rule="evenodd">
        <g id="prices" transform="translate(-1069.000000, -240.000000)">
            <g id="Group-9" transform="translate(1066.000000, 236.000000)">
                <g id="Group-7" transform="translate(21.982963, 14.129410) rotate(15.000000) translate(-21.982963, -14.129410) translate(1.982963, 5.129410)">
                    <circle id="Oval-5" stroke="#495867" stroke-width="2" cx="20" cy="6" r="6"></circle>
                    <path d="M20,12.5 L20,16.6231056" id="Line" stroke="#495867" stroke-width="2" stroke-linecap="square"></path>
                    <g id="Rectangle-5">
                        <use fill="#FFFFFF" fill-rule="evenodd" xlink:href="#path-1"></use>
                        <path stroke="#495867" stroke-width="2" d="M37.5911307,9.00002659 C37.53049,9.02931607 37.4623078,9.06185709 37.3814729,9.09980664 C37.0887934,9.23721087 36.744914,9.39104697 36.352983,9.55724529 C35.2273382,10.0345749 33.946794,10.512814 32.5366791,10.9595137 C28.509985,12.2351 24.2630144,13 20,13 C15.7369856,13 11.490015,12.2351 7.46332087,10.9595137 C6.05320596,10.512814 4.77266178,10.0345749 3.64701702,9.55724529 C3.25508605,9.39104697 2.91120662,9.23721087 2.61852708,9.09980664 C2.5350182,9.06060173 2.46501293,9.0271691 2.40886929,8.99997341 C2.46950996,8.97068393 2.53769218,8.93814291 2.61852708,8.90019336 C2.91120662,8.76278913 3.25508605,8.60895303 3.64701702,8.44275471 C4.77266178,7.96542509 6.05320596,7.48718603 7.46332087,7.04048628 C11.490015,5.76489999 15.7369856,5 20,5 C24.2630144,5 28.509985,5.76489999 32.5366791,7.04048628 C33.946794,7.48718603 35.2273382,7.96542509 36.352983,8.44275471 C36.744914,8.60895303 37.0887934,8.76278913 37.3814729,8.90019336 C37.4649818,8.93939827 37.5349871,8.9728309 37.5911307,9.00002659 Z"></path>
                    </g>
                    <path d="M13.5,10.5 L6.98079759,17.0192024" id="Line" stroke="#495867" stroke-width="2" stroke-linecap="square"></path>
                    <path d="M34.5,10.5 L27.9807976,17.0192024" id="Line" stroke="#495867" stroke-width="2" stroke-linecap="square" transform="translate(31.000000, 14.000000) scale(-1, 1) translate(-31.000000, -14.000000) "></path>
                </g>
            </g>
        </g>
    </g>
</svg>