<svg width="346" height="131" viewBox="0 0 346 131" fill="none" xmlns="http://www.w3.org/2000/svg">
<path d="M309.288 5.63827L313.718 2.30951L315.337 7.60862L309.288 5.63827Z" stroke="#DCDCDC"/>
<circle cx="301.987" cy="119.745" r="3.5" transform="rotate(62.489 301.987 119.745)" stroke="#DCDCDC"/>
<path d="M336.62 82.5914L341.05 79.2626L342.669 84.5617L336.62 82.5914Z" stroke="#DCDCDC"/>
<g opacity="0.3">
<rect x="214.674" y="29.2297" width="105.326" height="80.9875" rx="20" fill="#F6F9FC"/>
<rect x="208.29" y="23" width="105.326" height="80.9875" rx="10" fill="#F7F9FB" stroke="#C4C4C4" stroke-width="2"/>
<g filter="url(#filter0_i)">
<path d="M208.29 30.7873C208.29 26.4865 211.777 23 216.078 23H305.829C310.13 23 313.616 26.4865 313.616 30.7873H208.29Z" fill="#EBF1FA"/>
</g>
<path d="M208.29 30.7873C208.29 26.4865 211.777 23 216.078 23H305.829C310.13 23 313.616 26.4865 313.616 30.7873H208.29Z" stroke="#C4C4C4" stroke-width="2"/>
<path opacity="0.3" d="M213.993 26.8937C213.993 27.0927 213.82 27.2954 213.556 27.2954C213.292 27.2954 213.12 27.0927 213.12 26.8937C213.12 26.6946 213.292 26.4919 213.556 26.4919C213.82 26.4919 213.993 26.6946 213.993 26.8937Z" stroke="#577399" stroke-width="2"/>
<path opacity="0.3" d="M218.142 26.8937C218.142 27.0927 217.97 27.2954 217.706 27.2954C217.442 27.2954 217.27 27.0927 217.27 26.8937C217.27 26.6946 217.442 26.4919 217.706 26.4919C217.97 26.4919 218.142 26.6946 218.142 26.8937Z" stroke="#577399" stroke-width="2"/>
<path opacity="0.3" d="M222.291 26.8937C222.291 27.0927 222.119 27.2954 221.855 27.2954C221.591 27.2954 221.419 27.0927 221.419 26.8937C221.419 26.6946 221.591 26.4919 221.855 26.4919C222.119 26.4919 222.291 26.6946 222.291 26.8937Z" stroke="#577399" stroke-width="2"/>
<rect x="214.674" y="37.0171" width="19.1502" height="1.86894" fill="#EBF1FA"/>
<rect x="214.674" y="41.3779" width="12.7668" height="1.86894" fill="#EBF1FA"/>
<rect x="214.674" y="45.7388" width="15.9585" height="1.86894" fill="#EBF1FA"/>
<rect x="214.674" y="50.0996" width="15.001" height="1.86894" fill="#EBF1FA"/>
<rect x="237.229" y="37.2063" width="69.9787" height="7.89234" fill="#040427"/>
<rect x="239.709" y="39.291" width="12.7668" height="1.86894" fill="#6CC11A"/>
<rect x="255.418" y="39.291" width="6.98185" height="1.16364" fill="#FF3E70"/>
<path d="M251.435 66.6086C249.036 66.6086 246.707 67.3819 244.824 68.8037C242.941 70.2254 241.614 72.2127 241.057 74.4446C240.499 76.6765 240.745 79.023 241.753 81.1051C242.762 83.1872 244.474 84.8835 246.614 85.9202C248.755 86.9569 251.198 87.2735 253.549 86.8189C255.901 86.3642 258.023 85.1649 259.574 83.4145C261.126 81.6641 262.015 79.4647 262.099 77.1714C262.183 74.8781 261.456 72.6248 260.036 70.775L251.435 76.8149V66.6086Z" fill="#B0B4C2"/>
<path d="M282.982 65.6809C280.583 65.6809 278.254 66.4542 276.371 67.8759C274.488 69.2977 273.16 71.2849 272.603 73.5169C272.046 75.7488 272.292 78.0952 273.3 80.1773C274.308 82.2595 276.021 83.9558 278.161 84.9925C280.301 86.0292 282.744 86.3458 285.096 85.8911C287.447 85.4365 289.57 84.2372 291.121 82.4868C292.672 80.7364 293.562 78.537 293.645 76.2437C293.729 73.9504 293.003 71.697 291.583 69.8473L282.982 75.8872V65.6809Z" fill="#B0B4C2"/>
<path d="M261.52 67.5349C259.719 65.4472 257.124 64.1295 254.307 63.8716L253.291 74.0315L261.52 67.5349Z" fill="#FF3E70"/>
<path d="M291.211 69.3906C289.41 67.3029 286.815 65.9852 283.998 65.7273L282.982 75.8872L291.211 69.3906Z" fill="#3B6EC9"/>
<path d="M291.211 82.3836C289.41 84.4712 286.815 85.789 283.998 86.0468L282.982 75.887L291.211 82.3836Z" fill="#6CC11A"/>
<path d="M293.652 75.887C293.652 73.1801 292.528 70.5841 290.527 68.6701L282.982 75.887L293.652 75.887Z" fill="#FF3E70"/>
</g>
<g opacity="0.3">
<rect x="38.3835" y="29.2297" width="105.326" height="80.9875" rx="20" fill="#F6F9FC"/>
<rect x="32" y="23" width="105.326" height="80.9875" rx="10" fill="#F7F9FB" stroke="#C4C4C4" stroke-width="2"/>
<g filter="url(#filter1_i)">
<path d="M32 30.7873C32 26.4865 35.4865 23 39.7873 23H129.539C133.84 23 137.326 26.4865 137.326 30.7873H32Z" fill="#EBF1FA"/>
</g>
<path d="M32 30.7873C32 26.4865 35.4865 23 39.7873 23H129.539C133.84 23 137.326 26.4865 137.326 30.7873H32Z" stroke="#C4C4C4" stroke-width="2"/>
<path opacity="0.3" d="M37.7026 26.8937C37.7026 27.0927 37.5304 27.2954 37.2663 27.2954C37.0023 27.2954 36.8301 27.0927 36.8301 26.8937C36.8301 26.6946 37.0023 26.4919 37.2663 26.4919C37.5304 26.4919 37.7026 26.6946 37.7026 26.8937Z" stroke="#577399" stroke-width="2"/>
<path opacity="0.3" d="M41.8516 26.8937C41.8516 27.0927 41.6794 27.2954 41.4154 27.2954C41.1513 27.2954 40.9791 27.0927 40.9791 26.8937C40.9791 26.6946 41.1513 26.4919 41.4154 26.4919C41.6794 26.4919 41.8516 26.6946 41.8516 26.8937Z" stroke="#577399" stroke-width="2"/>
<path opacity="0.3" d="M46.0011 26.8937C46.0011 27.0927 45.8289 27.2954 45.5648 27.2954C45.3008 27.2954 45.1286 27.0927 45.1286 26.8937C45.1286 26.6946 45.3008 26.4919 45.5648 26.4919C45.8289 26.4919 46.0011 26.6946 46.0011 26.8937Z" stroke="#577399" stroke-width="2"/>
<rect x="38.3835" y="37.0171" width="19.1502" height="1.86894" fill="#EBF1FA"/>
<rect x="38.3835" y="41.3779" width="12.7668" height="1.86894" fill="#EBF1FA"/>
<rect x="38.3835" y="45.7388" width="15.9585" height="1.86894" fill="#EBF1FA"/>
<rect x="38.3835" y="50.0996" width="15.001" height="1.86894" fill="#EBF1FA"/>
<rect x="60.7632" y="36.9177" width="70.5161" height="59.382" fill="white"/>
<path d="M67.0106 86.5572L72.1137 80.5263L75.3612 81.4541L82.7839 78.6706L91.1345 82.8459L99.0212 75.4231L105.516 78.6706L115.258 73.1035M115.258 73.1035H111.547M115.258 73.1035V76.351" stroke="#3B6EC9"/>
<rect x="64.4745" y="38.7734" width="48.2479" height="1.85569" fill="#68687D"/>
<rect x="64.4745" y="43.4126" width="33.4024" height="1.85569" fill="#68687D"/>
<rect x="64.4745" y="48.0518" width="38.9694" height="1.85569" fill="#68687D"/>
<rect x="64.4745" y="51.7632" width="38.9694" height="1.85569" fill="#68687D"/>
</g>
<g opacity="0.3">
<rect x="128.384" y="49.6423" width="105.326" height="80.9875" rx="20" fill="#F6F9FC"/>
<rect x="122.001" y="43.4126" width="105.326" height="80.9875" rx="10" fill="#F7F9FB" stroke="#C4C4C4" stroke-width="2"/>
<g filter="url(#filter2_i)">
<path d="M122.001 51.1999C122.001 46.8991 125.487 43.4126 129.788 43.4126H219.54C223.84 43.4126 227.327 46.8991 227.327 51.1999H122.001Z" fill="#EBF1FA"/>
</g>
<path d="M122.001 51.1999C122.001 46.8991 125.487 43.4126 129.788 43.4126H219.54C223.84 43.4126 227.327 46.8991 227.327 51.1999H122.001Z" stroke="#C4C4C4" stroke-width="2"/>
<path opacity="0.3" d="M127.703 47.3062C127.703 47.5053 127.531 47.708 127.267 47.708C127.003 47.708 126.831 47.5053 126.831 47.3062C126.831 47.1072 127.003 46.9045 127.267 46.9045C127.531 46.9045 127.703 47.1072 127.703 47.3062Z" stroke="#577399" stroke-width="2"/>
<path opacity="0.3" d="M131.853 47.3062C131.853 47.5053 131.681 47.708 131.417 47.708C131.152 47.708 130.98 47.5053 130.98 47.3062C130.98 47.1072 131.152 46.9045 131.417 46.9045C131.681 46.9045 131.853 47.1072 131.853 47.3062Z" stroke="#577399" stroke-width="2"/>
<path opacity="0.3" d="M136.002 47.3062C136.002 47.5053 135.83 47.708 135.566 47.708C135.302 47.708 135.129 47.5053 135.129 47.3062C135.129 47.1072 135.302 46.9045 135.566 46.9045C135.83 46.9045 136.002 47.1072 136.002 47.3062Z" stroke="#577399" stroke-width="2"/>
<rect x="147.535" y="90.1362" width="3.1917" height="26.7882" fill="#EBF1FA"/>
<rect x="153.918" y="84.5293" width="3.1917" height="32.395" fill="#EBF1FA"/>
<rect x="160.301" y="74.5618" width="3.1917" height="42.3627" fill="#EBF1FA"/>
<rect x="166.685" y="77.6765" width="3.1917" height="39.2478" fill="#EBF1FA"/>
<rect x="173.068" y="96.366" width="3.1917" height="20.5584" fill="#EBF1FA"/>
<rect x="179.452" y="102.596" width="3.1917" height="14.3286" fill="#EBF1FA"/>
<path fill-rule="evenodd" clip-rule="evenodd" d="M185.835 100.727H189.027V116.924H185.835V100.727Z" fill="#EBF1FA"/>
<rect x="192.218" y="108.826" width="3.1917" height="8.09875" fill="#EBF1FA"/>
<rect x="198.602" y="100.727" width="3.1917" height="16.1975" fill="#EBF1FA"/>
<rect x="204.985" y="87.9558" width="3.1917" height="28.9686" fill="#EBF1FA"/>
<rect x="211.368" y="84.5293" width="3.1917" height="32.395" fill="#EBF1FA"/>
<rect x="217.752" y="68.3318" width="3.1917" height="48.5925" fill="#EBF1FA"/>
<rect x="128.384" y="57.4297" width="19.1502" height="1.86894" fill="#EBF1FA"/>
<rect x="128.384" y="61.7905" width="12.7668" height="1.86894" fill="#EBF1FA"/>
<rect x="128.384" y="66.1514" width="15.9585" height="1.86894" fill="#EBF1FA"/>
<rect x="128.384" y="70.5122" width="15.001" height="1.86894" fill="#EBF1FA"/>
<rect x="150.939" y="57.6189" width="69.9787" height="7.89234" fill="#040427"/>
<rect x="153.419" y="59.7036" width="12.7668" height="1.86894" fill="#6CC11A"/>
<rect x="169.128" y="59.7036" width="6.98185" height="1.16364" fill="#FF3E70"/>
</g>
<circle cx="12" cy="54" r="3.5" stroke="#DCDCDC"/>
<path d="M4.93055 30.4371L4.02433 24.9708L9.47212 25.9825L4.93055 30.4371Z" stroke="#DCDCDC"/>
<g opacity="0.7">
<path d="M169.181 74.5044C171.952 70.3581 178.048 70.3581 180.819 74.5043L194.427 94.8597C197.537 99.511 194.203 105.75 188.608 105.75H161.392C155.797 105.75 152.463 99.511 155.573 94.8597L169.181 74.5044Z" stroke="#FF3E70" stroke-width="2"/>
<path d="M176.25 93.2109H174.344L173.945 85.5781H176.648L176.25 93.2109ZM173.914 95.8828C173.914 95.4453 174.031 95.1146 174.266 94.8906C174.5 94.6667 174.841 94.5547 175.289 94.5547C175.721 94.5547 176.055 94.6693 176.289 94.8984C176.529 95.1276 176.648 95.4557 176.648 95.8828C176.648 96.2943 176.529 96.6198 176.289 96.8594C176.049 97.0938 175.716 97.2109 175.289 97.2109C174.852 97.2109 174.513 97.0964 174.273 96.8672C174.034 96.6328 173.914 96.3047 173.914 95.8828Z" fill="#FF3E70"/>
</g>
<defs>
<filter id="filter0_i" x="207.29" y="22" width="107.326" height="9.78726" filterUnits="userSpaceOnUse" color-interpolation-filters="sRGB">
<feFlood flood-opacity="0" result="BackgroundImageFix"/>
<feBlend mode="normal" in="SourceGraphic" in2="BackgroundImageFix" result="shape"/>
<feColorMatrix in="SourceAlpha" type="matrix" values="0 0 0 0 0 0 0 0 0 0 0 0 0 0 0 0 0 0 127 0" result="hardAlpha"/>
<feOffset dx="6" dy="4"/>
<feComposite in2="hardAlpha" operator="arithmetic" k2="-1" k3="1"/>
<feColorMatrix type="matrix" values="0 0 0 0 1 0 0 0 0 1 0 0 0 0 1 0 0 0 1 0"/>
<feBlend mode="normal" in2="shape" result="effect1_innerShadow"/>
</filter>
<filter id="filter1_i" x="31" y="22" width="107.326" height="9.78726" filterUnits="userSpaceOnUse" color-interpolation-filters="sRGB">
<feFlood flood-opacity="0" result="BackgroundImageFix"/>
<feBlend mode="normal" in="SourceGraphic" in2="BackgroundImageFix" result="shape"/>
<feColorMatrix in="SourceAlpha" type="matrix" values="0 0 0 0 0 0 0 0 0 0 0 0 0 0 0 0 0 0 127 0" result="hardAlpha"/>
<feOffset dx="6" dy="4"/>
<feComposite in2="hardAlpha" operator="arithmetic" k2="-1" k3="1"/>
<feColorMatrix type="matrix" values="0 0 0 0 1 0 0 0 0 1 0 0 0 0 1 0 0 0 1 0"/>
<feBlend mode="normal" in2="shape" result="effect1_innerShadow"/>
</filter>
<filter id="filter2_i" x="121.001" y="42.4126" width="107.326" height="9.78726" filterUnits="userSpaceOnUse" color-interpolation-filters="sRGB">
<feFlood flood-opacity="0" result="BackgroundImageFix"/>
<feBlend mode="normal" in="SourceGraphic" in2="BackgroundImageFix" result="shape"/>
<feColorMatrix in="SourceAlpha" type="matrix" values="0 0 0 0 0 0 0 0 0 0 0 0 0 0 0 0 0 0 127 0" result="hardAlpha"/>
<feOffset dx="6" dy="4"/>
<feComposite in2="hardAlpha" operator="arithmetic" k2="-1" k3="1"/>
<feColorMatrix type="matrix" values="0 0 0 0 1 0 0 0 0 1 0 0 0 0 1 0 0 0 1 0"/>
<feBlend mode="normal" in2="shape" result="effect1_innerShadow"/>
</filter>
</defs>
</svg>
