<svg width="30" height="30" viewBox="0 0 30 30" fill="none" xmlns="http://www.w3.org/2000/svg">
<path d="M16.6685 20.7823C16.6685 22.0099 15.6714 23.0055 14.4433 23.0055C13.218 23.0055 12.2229 22.0099 12.2229 20.7823C12.2229 19.5528 13.218 18.5571 14.4433 18.5571C15.6714 18.5571 16.6685 19.5528 16.6685 20.7823Z" fill="#CE3728"/>
<path d="M8.8884 20.7818C8.8884 21.7027 8.14181 22.4489 7.22226 22.4489C6.3013 22.4489 5.55518 21.7027 5.55518 20.7818C5.55518 19.8599 6.3013 19.1128 7.22226 19.1128C8.14181 19.1128 8.8884 19.8599 8.8884 20.7818Z" fill="#CE3728"/>
<path d="M12.2122 15.003C12.2122 15.9239 11.467 16.67 10.5455 16.67C9.62552 16.67 8.87939 15.9239 8.87939 15.003C8.87939 14.0811 9.62552 13.334 10.5455 13.334C11.467 13.334 12.2122 14.0815 12.2122 15.003Z" fill="#CE3728"/>
<path d="M15.5557 9.22272C15.5557 10.1442 14.8105 10.8908 13.889 10.8908C12.9686 10.8908 12.2229 10.1442 12.2229 9.22272C12.2229 8.30176 12.9686 7.55469 13.889 7.55469C14.8105 7.55469 15.5557 8.30176 15.5557 9.22272Z" fill="#CE3728"/>
<path d="M2.22184 20.7818C2.22184 21.3951 1.72474 21.8936 1.10903 21.8936C0.496629 21.8936 0 21.3951 0 20.7818C0 20.1661 0.496629 19.6694 1.10903 19.6694C1.72474 19.6694 2.22184 20.1661 2.22184 20.7818Z" fill="#CE3728"/>
<path d="M5.54505 15.0029C5.54505 15.6158 5.04653 16.1143 4.43224 16.1143C3.82079 16.1143 3.32227 15.6158 3.32227 15.0029C3.32227 14.3877 3.82079 13.8892 4.43224 13.8892C5.04653 13.8892 5.54505 14.3877 5.54505 15.0029Z" fill="#CE3728"/>
<path d="M8.88833 9.22272C8.88833 9.83748 8.38981 10.3351 7.77693 10.3351C7.16359 10.3351 6.66602 9.83748 6.66602 9.22272C6.66602 8.60843 7.16359 8.11133 7.77693 8.11133C8.38981 8.11133 8.88833 8.60843 8.88833 9.22272Z" fill="#CE3728"/>
<path d="M20.0003 15.0025C20.0003 16.2306 19.0061 17.2267 17.7775 17.2267C16.5508 17.2267 15.5557 16.2306 15.5557 15.0025C15.5557 13.7725 16.5508 12.7773 17.7775 12.7773C19.0061 12.7773 20.0003 13.7725 20.0003 15.0025Z" fill="#CE3728"/>
<path d="M23.335 9.22278C23.335 10.4518 22.3399 11.4479 21.1103 11.4479C19.886 11.4479 18.8904 10.4518 18.8904 9.22278C18.8904 7.99562 19.886 7 21.1103 7C22.3399 7 23.335 7.99562 23.335 9.22278Z" fill="#CE3728"/>
<path d="M26.6578 15.0025C26.6578 16.2306 25.6631 17.2267 24.4369 17.2267C23.2097 17.2267 22.2141 16.2306 22.2141 15.0025C22.2141 13.7725 23.2097 12.7773 24.4369 12.7773C25.6631 12.7773 26.6578 13.7725 26.6578 15.0025Z" fill="#CE3728"/>
<path d="M30.0001 20.7823C30.0001 22.0099 29.0059 23.0055 27.7782 23.0055C26.5511 23.0055 25.5564 22.0099 25.5564 20.7823C25.5564 19.5528 26.5511 18.5571 27.7782 18.5571C29.0059 18.5571 30.0001 19.5528 30.0001 20.7823Z" fill="#CE3728"/>
</svg>
