<svg width="30" height="31" viewBox="0 0 30 31" fill="none" xmlns="http://www.w3.org/2000/svg">
<path d="M7.97091 1.69175C8.4067 1.28957 8.82986 0.906534 8.67197 0.880999C8.55197 0.861847 8.12249 1.06613 7.53512 1.40448C-3.45435 7.72449 -0.864878 27.374 13.4467 30.9234V30.9362C13.8635 30.9745 14.2867 31 14.7035 31C16.3772 31 18.0446 30.7191 19.6236 30.1637C21.013 29.6403 21.7962 29.2381 23.1225 28.4082C23.2678 28.3124 23.413 28.2103 23.552 28.1081C11.072 32.0406 -3.30909 12.5507 7.97091 1.69175ZM9.83407 3.3324C9.93512 2.78977 9.99828 2.56634 9.86565 2.43866C9.73302 2.31098 9.43618 2.63656 9.07618 3.12812C2.01512 12.9401 17.4383 27.8464 27.4741 23.9842C28.5604 22.3116 29.3246 20.4411 29.7225 18.4813V18.4749C24.2151 22.7649 8.09723 12.7167 9.83407 3.3324ZM28.3141 8.01177C27.0888 11.6825 15.6951 5.36247 13.9709 1.87688C13.7941 1.50023 13.6362 1.41086 13.573 1.43639C13.4467 1.4747 13.3583 1.61514 13.2762 2.02371C12.2151 7.18186 23.552 16.5214 29.9941 14.1211C30.0004 13.9743 29.9941 13.8275 29.9625 13.6806C29.773 11.7016 29.2109 9.78009 28.3141 8.01177Z" fill="#003166"/>
</svg>
