<svg width="30" height="30" viewBox="0 0 30 30" fill="none" xmlns="http://www.w3.org/2000/svg">
    <path d="M23.3701 2.93224C23.4924 2.98167 24.5254 3.45742 24.2809 3.16703C24.0303 2.85809 23.7247 2.59859 23.3824 2.40087C6.12593 -7.59004 -7.39557 16.1484 5.77139 26.9302C6.27264 27.3442 6.62107 27.6346 6.73721 27.6407C6.89614 27.6531 9.83028 29.7786 7.67858 26.3432C-0.488115 13.3433 9.20678 -4.03112 23.3701 2.93224ZM29.4646 13.2568V13.2506C29.2995 11.3414 28.7738 9.48163 27.9119 7.77014C22.331 0.985956 0.868926 7.97403 8.21039 25.5091C8.43657 26.0466 8.73609 26.3494 8.8828 26.2505C9.02951 26.1517 9.70192 26.0899 9.62856 25.5647C7.67858 11.8419 24.6844 8.56719 29.4646 13.2568V13.2568ZM12.1593 27.4492C12.2754 27.8323 12.2693 27.9867 12.3854 28.0424C12.4404 28.0671 13.987 28.5367 14.0298 28.1412C14.5188 23.915 25.9253 19.5343 26.6955 23.1612C27.7102 21.6227 28.7677 20.0842 29.1773 18.1874C29.1895 17.9217 29.2751 17.8352 29.2751 17.8352C28.2604 14.5296 9.28013 17.829 12.1593 27.4492" fill="#A8A9AD"/>
    <path d="M8.19835 1.63355C8.62013 1.24429 9.02969 0.873569 8.87687 0.848855C8.76073 0.830319 8.34506 1.02804 7.77657 1.35551C-2.8597 7.47239 -0.353453 26.4903 13.4981 29.9257V29.938C13.9016 29.9751 14.3111 29.9998 14.7146 29.9998C16.3345 29.9998 17.9483 29.728 19.4765 29.1904C20.8213 28.6838 21.5793 28.2945 22.8629 27.4913C23.0035 27.3986 23.1441 27.2998 23.2786 27.2009C11.1997 31.007 -2.7191 12.1435 8.19835 1.63355ZM10.0016 3.22147C10.0994 2.69628 10.1606 2.48002 10.0322 2.35645C9.90382 2.23288 9.61652 2.54799 9.26809 3.02375C2.43398 12.5204 17.3614 26.9476 27.0747 23.2095C28.1261 21.5907 28.8657 19.7803 29.2508 17.8835V17.8773C23.9205 22.0293 8.3206 12.3041 10.0016 3.22147V3.22147ZM27.8877 7.75043C26.7018 11.3032 15.6743 5.18628 14.0055 1.81273C13.8343 1.44819 13.6815 1.36168 13.6204 1.3864C13.4981 1.42347 13.4126 1.5594 13.3331 1.95484C12.3061 6.94721 23.2786 15.9866 29.5137 13.6634C29.5198 13.5213 29.5137 13.3792 29.4831 13.2371C29.2997 11.3217 28.7557 9.46193 27.8877 7.75043" fill="#003166"/>
</svg>
