<svg width="30" height="31" viewBox="0 0 30 31" fill="none" xmlns="http://www.w3.org/2000/svg">
<g style="mix-blend-mode:luminosity">
<path d="M23.6467 3.0334C23.773 3.08447 24.8404 3.57602 24.5878 3.27598C24.3288 2.95679 24.013 2.68867 23.6594 2.48438C5.82988 -7.83831 -8.14065 16.6885 5.46356 27.8283C5.98146 28.256 6.34146 28.556 6.46146 28.5624C6.62567 28.5752 9.65725 30.7712 7.43409 27.2218C-1.00381 13.7902 9.01303 -4.16121 23.6467 3.0334ZM29.9436 13.7008V13.6944C29.773 11.7218 29.2299 9.80028 28.3394 8.03195C22.573 1.02248 0.398298 8.24262 7.98356 26.36C8.21725 26.9154 8.52672 27.2282 8.6783 27.1261C8.82988 27.0239 9.52462 26.9601 9.44883 26.4174C7.43409 12.2389 25.0046 8.85547 29.9436 13.7008ZM12.0636 28.3645C12.1836 28.7603 12.1772 28.9199 12.2972 28.9774C12.3541 29.0029 13.952 29.4881 13.9962 29.0795C14.5015 24.713 26.2867 20.1868 27.0825 23.9341C28.1309 22.3446 29.2236 20.755 29.6467 18.7951C29.6594 18.5206 29.7478 18.4312 29.7478 18.4312C28.6994 15.0159 9.08883 18.4249 12.0636 28.3645Z" fill="#A8A9AD"/>
<path d="M7.97091 1.69175C8.4067 1.28957 8.82986 0.906534 8.67197 0.880999C8.55197 0.861847 8.12249 1.06613 7.53512 1.40448C-3.45435 7.72449 -0.864878 27.374 13.4467 30.9234V30.9362C13.8635 30.9745 14.2867 31 14.7035 31C16.3772 31 18.0446 30.7191 19.6236 30.1637C21.013 29.6403 21.7962 29.2381 23.1225 28.4082C23.2678 28.3124 23.413 28.2103 23.552 28.1081C11.072 32.0406 -3.30909 12.5507 7.97091 1.69175ZM9.83407 3.3324C9.93512 2.78977 9.99828 2.56634 9.86565 2.43866C9.73302 2.31098 9.43618 2.63656 9.07618 3.12812C2.01512 12.9401 17.4383 27.8464 27.4741 23.9842C28.5604 22.3116 29.3246 20.4411 29.7225 18.4813V18.4749C24.2151 22.7649 8.09723 12.7167 9.83407 3.3324ZM28.3141 8.01177C27.0888 11.6825 15.6951 5.36247 13.9709 1.87688C13.7941 1.50023 13.6362 1.41086 13.573 1.43639C13.4467 1.4747 13.3583 1.61514 13.2762 2.02371C12.2151 7.18186 23.552 16.5214 29.9941 14.1211C30.0004 13.9743 29.9941 13.8275 29.9625 13.6806C29.773 11.7016 29.2109 9.78009 28.3141 8.01177Z" fill="#003166"/>
</g>
</svg>
