<svg width="30" height="30" viewBox="0 0 30 30" fill="none" xmlns="http://www.w3.org/2000/svg">
<path d="M4.51416 22.8218L6.06781 24.0282L7.62146 25.2346C7.84764 24.4978 8.14586 23.785 8.51181 23.1067L5.3956 20.6938C5.03177 21.3721 4.73649 22.0849 4.51416 22.8218V22.8218Z" fill="#B76722"/>
<path d="M5.62256 20.3419L8.73876 22.7592C9.11497 22.1101 9.54693 21.4949 10.0298 20.9206L6.91356 18.5078C6.42838 19.0787 5.99626 19.6926 5.62256 20.3419V20.3419Z" fill="#C48423"/>
<path d="M7.17578 18.2098L10.292 20.6227C10.8052 20.0589 11.3785 19.5529 12.0014 19.1135L8.88524 16.7007C8.26115 17.1387 7.68779 17.6449 7.17578 18.2098V18.2098Z" fill="#C6962D"/>
<path d="M19.3252 10.9533L22.4414 13.3661C22.9884 12.8522 23.5 12.3019 23.9728 11.719L20.8566 9.30615C20.3813 9.88692 19.8699 10.4371 19.3252 10.9533V10.9533Z" fill="#EFD14E"/>
<path d="M11.9038 15.205L15.02 17.6222C15.7635 17.3284 16.5648 17.0124 17.4061 16.6384L14.2899 14.2256C13.453 14.6173 12.6472 14.9112 11.9038 15.205Z" fill="#F5DD73"/>
<path d="M9.49611 16.3L9.229 16.4691L12.3452 18.882L12.6079 18.7173C13.2455 18.3592 13.9092 18.0497 14.5933 17.7913L11.4771 15.374C10.7956 15.6352 10.1336 15.9447 9.49611 16.3V16.3Z" fill="#E4A923"/>
<path d="M23.7812 4.37806L26.8975 6.79535C27.1957 6.11424 27.4762 5.38861 27.7477 4.61846L24.6315 2.20117C24.3644 2.98764 24.081 3.71327 23.7812 4.37806Z" fill="#D4931F"/>
<path d="M22.5703 6.80049L25.6865 9.21333C26.0633 8.55514 26.405 7.87753 26.7104 7.18334L23.5942 4.77051C23.2826 5.50059 22.9354 6.15944 22.5703 6.80049Z" fill="#D9A41F"/>
<path d="M14.6904 14.0385L17.8066 16.4513C18.5444 16.1054 19.2609 15.7159 19.9524 15.285L16.8362 12.8677C16.1452 13.3008 15.4286 13.6918 14.6904 14.0385V14.0385Z" fill="#FEF7BD"/>
<path d="M17.1968 12.6403L20.313 15.0531C20.9546 14.6257 21.5646 14.1526 22.1382 13.6374L19.022 11.2246C18.4463 11.7373 17.8365 12.2102 17.1968 12.6403V12.6403Z" fill="#F6DA82"/>
<path d="M21.1016 8.9945L24.2178 11.4073C24.6749 10.8152 25.0971 10.1968 25.4821 9.55541L22.3659 7.14258C21.9798 7.78329 21.5577 8.40159 21.1016 8.9945V8.9945Z" fill="#DEAF1D"/>
<path d="M0 19.3135L1.55365 20.5199L3.11621 21.7397C3.34309 20.9989 3.64127 20.2817 4.00655 19.5984L0.890344 17.1812C0.522986 17.8604 0.224711 18.5747 0 19.3135H0Z" fill="#791E19"/>
<path d="M1.10889 16.8434L4.22509 19.2562C4.60034 18.6079 5.03237 17.9941 5.51609 17.4221L2.39989 15.0093C1.91595 15.5811 1.48391 16.1949 1.10889 16.8434V16.8434Z" fill="#A0201E"/>
<path d="M2.67139 14.7016L5.78759 17.1144C6.30085 16.5507 6.87406 16.0447 7.49705 15.6053L4.38085 13.188C3.75668 13.6276 3.18333 14.1352 2.67139 14.7016V14.7016Z" fill="#A6201E"/>
<path d="M14.8066 7.44108L17.9228 9.85392C18.4709 9.34261 18.9826 8.79372 19.4542 8.21123L16.338 5.79395C15.8664 6.37783 15.3547 6.92821 14.8066 7.44108Z" fill="#C23F32"/>
<path d="M7.38965 11.6967L10.5059 14.1096C11.2448 13.8157 12.0506 13.5041 12.892 13.1302L9.77577 10.7129C8.9344 11.0913 8.13309 11.4029 7.38965 11.6967Z" fill="#DA8E8D"/>
<path d="M4.98146 12.7917L4.71436 12.9564L7.83056 15.3737L8.09321 15.2045C8.73158 14.8509 9.39347 14.5415 10.0742 14.2786L6.95802 11.8657C6.27804 12.1271 5.61752 12.4365 4.98146 12.7917V12.7917Z" fill="#C52E1A"/>
<path d="M18.061 3.28774L21.1772 5.70057C21.5583 5.04335 21.906 4.36731 22.2189 3.67504L19.1027 1.26221C18.7689 1.99229 18.4216 2.6645 18.061 3.28774Z" fill="#A7211D"/>
<path d="M10.1812 10.5262L13.2974 12.9435C14.036 12.5978 14.7526 12.2068 15.4431 11.7727L12.3269 9.35986C11.6368 9.79334 10.9202 10.1829 10.1812 10.5262V10.5262Z" fill="#EDCCCD"/>
<path d="M12.6836 9.12805L15.7998 11.5453C16.4404 11.1165 17.0503 10.6435 17.625 10.1297L14.5088 7.7124C13.9354 8.22776 13.3254 8.70089 12.6836 9.12805V9.12805Z" fill="#D98C97"/>
<path d="M16.5874 5.48272L19.7036 7.9C20.1593 7.30679 20.5814 6.68851 20.9679 6.04809L17.8517 3.63525C17.4667 4.27521 17.0445 4.89209 16.5874 5.48272Z" fill="#B4241C"/>
<path d="M9.02783 26.3337L10.5815 27.5267L12.1351 28.7376C12.3603 28.0004 12.6586 27.2876 13.0255 26.6097L9.90927 24.1924C9.54443 24.8748 9.24913 25.5922 9.02783 26.3337V26.3337Z" fill="#791E19"/>
<path d="M10.1367 23.8542L13.2529 26.2626C13.6261 25.6154 14.0567 25.003 14.5395 24.4329L11.4233 22.0156C10.9405 22.5889 10.51 23.2042 10.1367 23.8542V23.8542Z" fill="#A0201E"/>
<path d="M11.6904 21.7403L14.8066 24.1575C15.316 23.5896 15.8846 23.0778 16.5027 22.6306L13.3865 20.2178C12.7664 20.6607 12.1975 21.1714 11.6904 21.7403V21.7403Z" fill="#A6201E"/>
<path d="M23.8389 14.4613L26.9551 16.8741C27.5057 16.3625 28.019 15.812 28.4909 15.227L25.3747 12.8364C24.8997 13.4118 24.3866 13.9547 23.8389 14.4613V14.4613Z" fill="#C23F32"/>
<path d="M16.4185 18.7172L19.5347 21.1301C20.2736 20.8362 21.0794 20.5246 21.9208 20.1462L18.8046 17.7334C17.9677 18.1118 17.1619 18.4234 16.4185 18.7172Z" fill="#DA8E8D"/>
<path d="M14.0097 19.8127L13.7471 19.9774L16.8633 22.3903L17.1304 22.2256C17.7634 21.8693 18.421 21.5584 19.098 21.2952L15.9818 18.8823C15.3025 19.1435 14.6433 19.4545 14.0097 19.8127V19.8127Z" fill="#C52E1A"/>
<path d="M19.2139 17.5465L22.3301 19.9593C23.0717 19.6154 23.7913 19.2259 24.4847 18.793L21.3685 16.3979C20.6737 16.8232 19.9542 17.2067 19.2139 17.5465V17.5465Z" fill="#EDCCCD"/>
<path d="M21.7109 16.1486L24.8271 18.5614C25.4705 18.1344 26.082 17.6613 26.6568 17.1457L23.5406 14.7329C22.9655 15.2481 22.354 15.7212 21.7109 16.1486V16.1486Z" fill="#D98C97"/>
<path d="M25.6152 12.5028L28.7314 14.9156C29.1911 14.3243 29.6147 13.7059 30.0002 13.0637L26.884 10.6509C26.4975 11.2924 26.0739 11.9108 25.6152 12.5028V12.5028Z" fill="#B4241C"/>
</svg>
