<svg width="35" height="32" viewBox="0 0 35 32" fill="none" xmlns="http://www.w3.org/2000/svg">
<g style="mix-blend-mode:luminosity">
<path d="M23.5 17.7L25.3 16.3L28.4 18.7L26.5 20L23.5 17.7Z" fill="#EB8998"/>
<path d="M27.1001 14.5L25.6001 16L28.7001 18.4L30.2001 16.8L27.1001 14.5Z" fill="#D93636"/>
<path d="M27.2998 14.1L28.5998 12.3L31.6998 14.7L30.4998 16.4L27.2998 14.1Z" fill="#CB0013"/>
<path d="M21.1001 19.1L23.1001 17.9L26.2001 20.3L24.1001 21.4L21.1001 19.1Z" fill="#FFCECE"/>
<path d="M20.6002 19.2L18.2002 20.2L21.4002 22.5L23.7002 21.6L20.6002 19.2Z" fill="#FC8D8D"/>
<path d="M20.9001 22.7L17.8001 20.4L15.6001 21.4L18.7001 23.8L20.9001 22.7Z" fill="#E60000"/>
<path d="M13.2999 23.3L11.8999 25.2L15.0999 27.6L16.3999 25.8L13.2999 23.3Z" fill="#B40A1E"/>
<path d="M16.6001 25.5L18.3001 24L15.2001 21.7001L13.6001 23.1001L16.6001 25.5Z" fill="#BB001E"/>
<path d="M14.8999 27.9L11.7999 25.5L10.8999 27.6L13.9999 30L14.8999 27.9Z" fill="#880012"/>
<path d="M14.2001 11L12.1001 12.1L15.2001 14.6L17.2001 13.4L14.2001 11Z" fill="#FFCECE"/>
<path d="M19.4001 11.8L16.4001 9.40002L14.6001 10.8L17.6001 13.2L19.4001 11.8Z" fill="#EB8998"/>
<path d="M21.3001 9.9L18.1001 7.5L16.6001 9.2L19.7001 11.5L21.3001 9.9Z" fill="#D93636"/>
<path d="M22.6999 7.8L19.6999 5.40002L18.3999 7.2L21.4999 9.6L22.6999 7.8Z" fill="#CB0013"/>
<path d="M23.8998 5.5L20.8998 3.09998L19.7998 5.09998L22.8998 7.4L23.8998 5.5Z" fill="#BC001D"/>
<path d="M6.6001 14.5L8.80011 13.5L12.0001 15.9L9.80012 16.9L6.6001 14.5Z" fill="#E60000"/>
<path d="M6 21L2.8 18.6L2 20.8L5.1 23.1L6 21Z" fill="#880012"/>
<path d="M7.40012 18.9L4.40012 16.5L3.1001 18.3L6.20012 20.7L7.40012 18.9Z" fill="#B40A1E"/>
<path d="M4.6001 16.3L6.30006 14.8L9.40006 17.1L7.70006 18.6L4.6001 16.3Z" fill="#BB001E"/>
<path d="M20.8 12.8999L19 14.3L22.1 16.6L23.9 15.2L20.8 12.8999Z" fill="#FFDC7D"/>
<path d="M21.1001 12.6L22.7001 11L25.7001 13.4L24.2001 15L21.1001 12.6Z" fill="#F5D246"/>
<path d="M22.7998 10.7L24.1998 8.90002L27.1998 11.2L25.9998 13.1L22.7998 10.7Z" fill="#EBB000"/>
<path d="M24.2998 8.5L25.3998 6.5L28.4998 9L27.3998 10.9L24.2998 8.5Z" fill="#E5A40A"/>
<path d="M25.5 6.1L26.4 4L29.5 6.4L28.6 8.6L25.5 6.1Z" fill="#E39205"/>
<path d="M10.3999 24.5L7.2999 22.1L6.3999 24.2L9.4999 26.5L10.3999 24.5Z" fill="#C86400"/>
<path d="M18.7001 14.5L16.6001 15.6L19.7001 18L21.7001 16.8L18.7001 14.5Z" fill="#FFFABA"/>
<path d="M11.9001 22.3L8.8001 20L7.6001 21.8L10.6001 24.1L11.9001 22.3Z" fill="#D28214"/>
<path d="M9.1001 19.6L10.7001 18.2L13.8001 20.6L12.2001 22.1L9.1001 19.6Z" fill="#D29628"/>
<path d="M11.6999 12.4L9.3999 13.3L12.3999 15.7L14.6999 14.7L11.6999 12.4Z" fill="#FC8D8D"/>
<path d="M16.1998 15.8L13.7998 16.7L16.7998 19.1L19.1998 18.2L16.1998 15.8Z" fill="#FADE6E"/>
<path d="M13.3001 16.9L11.1001 18L14.2001 20.4L16.4001 19.3L13.3001 16.9Z" fill="#FAAA00"/>
<path d="M5.5 24C7.5 19.5 9.5 17.7 12.5 16.5C17.5 14.5 18.5 14 21 11.5C22.6326 9.86741 24 7 25.3 4" stroke="white" stroke-width="1.8"/>
<path d="M1 21C3 16.5 5 14.7 8 13.5C13 11.5 14 11 16.5 8.5C18.1326 6.86741 19.5 4 20.8 1" stroke="white" stroke-width="1.8"/>
<path d="M14 31C16 26.5 18 24.7 21 23.5C26 21.5 27 21 29.5 18.5C31.1326 16.8674 32.5 14 33.8 11" stroke="white" stroke-width="1.8"/>
<path d="M10 28C12 23.5 14 21.7 17 20.5C22 18.5 23 18 25.5 15.5C27.1326 13.8674 28.5 11 29.8 8" stroke="white" stroke-width="1.8"/>
</g>
</svg>
