<svg width="42" height="21" viewBox="0 0 42 21" fill="none" xmlns="http://www.w3.org/2000/svg">
<g style="mix-blend-mode:luminosity">
<path fill-rule="evenodd" clip-rule="evenodd" d="M4.93561 10.5211H7.40293V3.20642H4.93561V10.5211ZM9.87073 15.3933H12.3385V5.64447H9.87024V15.3933H9.87073ZM39.4834 10.5211H41.9512V5.64447H39.4829V10.5211H39.4834ZM29.6122 15.4025H32.0805V5.64886H29.6122V15.4025ZM34.5483 17.8406H37.0156V8.0874H34.5483V17.8406ZM0 15.3976H2.4678V10.5211H0V15.3976Z" fill="#A8A8A8"/>
<path fill-rule="evenodd" clip-rule="evenodd" d="M24.8782 20.7675H27.3172V8.57233H24.8782V20.7675ZM14.6343 5.6455H17.0733V0.767456H14.6343V5.6455ZM14.6343 20.7675H17.0733V8.57233H14.6343V20.7675ZM20.0001 20.7675H22.4392V0.767456H20.0001V20.7675ZM24.8782 5.6455H27.3172V0.767456H24.8782V5.6455Z" fill="#EC231A"/>
</g>
</svg>
