<svg width="30" height="30" viewBox="0 0 30 30" fill="none" xmlns="http://www.w3.org/2000/svg">
    <path fill-rule="evenodd" clip-rule="evenodd" d="M3.52953 14.8236H5.29395V9.59277H3.52953V14.8236V14.8236ZM7.05872 18.3078H8.82349V11.3363H7.05837V18.3078H7.05872ZM28.2352 14.8236H30V11.3363H28.2349V14.8236H28.2352ZM21.1762 18.3144H22.9413V11.3394H21.1762V18.3144V18.3144ZM24.706 20.0579H26.4705V13.0832H24.706V20.0579V20.0579ZM0 18.3109H1.76477V14.8236H0V18.3109Z" fill="#A8A8A8"/>
    <path fill-rule="evenodd" clip-rule="evenodd" d="M17.7907 22.151H19.5349V13.43H17.7907V22.151ZM10.4651 11.337H12.2093V7.84863H10.4651V11.337ZM10.4651 22.151H12.2093V13.43H10.4651V22.151ZM14.3023 22.151H16.0465V7.84863H14.3023V22.151ZM17.7907 11.337H19.5349V7.84863H17.7907V11.337Z" fill="#EC231A"/>
</svg>