<svg width="32" height="25" viewBox="0 0 32 25" fill="none" xmlns="http://www.w3.org/2000/svg">
<g style="mix-blend-mode:luminosity" opacity="0.9">
<path d="M31.8002 5.14785V0C31.5002 1 29.0002 2 27.5002 2.5C26.268 2.91074 26.0002 3 23.5002 4C22.0002 4.5 19.3949 5.30266 18.0002 6C17.0002 6.5 15.5002 8.5 15.0002 10.5C14.8335 9.83333 14.4296 8.92935 13.5002 8C12.5002 7 10.0002 6 7.5002 5.5C5.5002 5 1.5002 3.5 0.200195 1.69154V7.71906C1.2002 9.21906 3.5002 10.5 5.5002 11C7.5002 11.5 10.2463 12.373 11.5002 13C13.1669 13.8333 14.5002 14.5 15.0002 16.5C15.1669 15.1667 16.0931 13.7055 17.0002 13C18.5002 11.8333 20.8006 10.8642 22.5002 10.5C24.8335 10 28.3294 8.58539 29.5002 8C30.5002 7.5 31.8002 6.64785 31.8002 5.14785Z" fill="#D765AA"/>
<path d="M31.8002 5.14785V0C31.5002 1 29.0002 2 27.5002 2.5C26.268 2.91074 26.0002 3 23.5002 4C22.0002 4.5 19.3949 5.30266 18.0002 6C17.0002 6.5 15.5002 8.5 15.0002 10.5C14.8335 9.83333 14.4296 8.92935 13.5002 8C12.5002 7 10.0002 6 7.5002 5.5C5.5002 5 1.5002 3.5 0.200195 1.69154V7.71906C1.2002 9.21906 3.5002 10.5 5.5002 11C7.5002 11.5 10.2463 12.373 11.5002 13C13.1669 13.8333 14.5002 14.5 15.0002 16.5C15.1669 15.1667 16.0931 13.7055 17.0002 13C18.5002 11.8333 20.8006 10.8642 22.5002 10.5C24.8335 10 28.3294 8.58539 29.5002 8C30.5002 7.5 31.8002 6.64785 31.8002 5.14785Z" fill="url(#paint0_linear)"/>
<path d="M31.8002 13.1479V8C31.5002 9 29.0002 10 27.5002 10.5C26.5002 11 26.0002 11 23.5002 12C20.1987 13.3206 19.5002 13 18.0002 14C16.5002 15 15.5002 16.5 15.0002 18.5C14.8335 17.8333 14.4296 16.9294 13.5002 16C12.5002 15 10.0002 14 7.5002 13.5C5.5002 13 1.5002 11.5 0.200195 9.69154V15.7191C1.2002 17.2191 3.5002 18.5 5.5002 19C7.5002 19.5 10.2463 20.373 11.5002 21C13.1669 21.8333 14.5002 22.5 15.0002 24.5C15.1669 23.1667 16.0931 21.7055 17.0002 21C18.5002 19.8333 20.7958 18.8409 22.5002 18.5C25.0002 18 28.3294 16.5854 29.5002 16C30.5002 15.5 31.8002 14.6479 31.8002 13.1479Z" fill="#D765AA"/>
<path d="M31.8002 13.1479V8C31.5002 9 29.0002 10 27.5002 10.5C26.5002 11 26.0002 11 23.5002 12C20.1987 13.3206 19.5002 13 18.0002 14C16.5002 15 15.5002 16.5 15.0002 18.5C14.8335 17.8333 14.4296 16.9294 13.5002 16C12.5002 15 10.0002 14 7.5002 13.5C5.5002 13 1.5002 11.5 0.200195 9.69154V15.7191C1.2002 17.2191 3.5002 18.5 5.5002 19C7.5002 19.5 10.2463 20.373 11.5002 21C13.1669 21.8333 14.5002 22.5 15.0002 24.5C15.1669 23.1667 16.0931 21.7055 17.0002 21C18.5002 19.8333 20.7958 18.8409 22.5002 18.5C25.0002 18 28.3294 16.5854 29.5002 16C30.5002 15.5 31.8002 14.6479 31.8002 13.1479Z" fill="url(#paint1_linear)"/>
</g>
<defs>
<linearGradient id="paint0_linear" x1="8.5002" y1="8.5" x2="6.0002" y2="13.5" gradientUnits="userSpaceOnUse">
<stop stop-color="#D765AA"/>
<stop offset="1" stop-color="#F85499"/>
</linearGradient>
<linearGradient id="paint1_linear" x1="15.0002" y1="17" x2="14.5002" y2="20" gradientUnits="userSpaceOnUse">
<stop stop-color="#D765AA"/>
<stop offset="1" stop-color="#F85499"/>
</linearGradient>
</defs>
</svg>
