<svg width="31" height="30" viewBox="0 0 31 30" fill="none" xmlns="http://www.w3.org/2000/svg">
    <g opacity="0.9">
        <path d="M30.161 8.25729V3.37012C29.8761 4.31948 27.5027 5.26884 26.0787 5.74352C24.9089 6.13346 24.6547 6.2182 22.2813 7.16756C20.8572 7.64224 18.3838 8.40425 17.0598 9.06629C16.1104 9.54097 14.6864 11.4397 14.2117 13.3384C14.0535 12.7055 13.6699 11.8473 12.7876 10.965C11.8383 10.0156 9.46488 9.06629 7.09147 8.5916C5.19275 8.11692 1.39531 6.69288 0.161133 4.976V10.6983C1.11049 12.1223 3.29403 13.3384 5.19275 13.8131C7.09147 14.2878 9.69848 15.1166 10.8889 15.7118C12.4712 16.5029 13.737 17.1359 14.2117 19.0346C14.3699 17.7688 15.2493 16.3816 16.1104 15.7118C17.5344 14.6042 19.7184 13.6842 21.3319 13.3384C23.5471 12.8637 26.8659 11.5208 27.9774 10.965C28.9268 10.4903 30.161 9.68133 30.161 8.25729Z" fill="#D765AA"/>
        <path d="M30.161 8.25729V3.37012C29.8761 4.31948 27.5027 5.26884 26.0787 5.74352C24.9089 6.13346 24.6547 6.2182 22.2813 7.16756C20.8572 7.64224 18.3838 8.40425 17.0598 9.06629C16.1104 9.54097 14.6864 11.4397 14.2117 13.3384C14.0535 12.7055 13.6699 11.8473 12.7876 10.965C11.8383 10.0156 9.46488 9.06629 7.09147 8.5916C5.19275 8.11692 1.39531 6.69288 0.161133 4.976V10.6983C1.11049 12.1223 3.29403 13.3384 5.19275 13.8131C7.09147 14.2878 9.69848 15.1166 10.8889 15.7118C12.4712 16.5029 13.737 17.1359 14.2117 19.0346C14.3699 17.7688 15.2493 16.3816 16.1104 15.7118C17.5344 14.6042 19.7184 13.6842 21.3319 13.3384C23.5471 12.8637 26.8659 11.5208 27.9774 10.965C28.9268 10.4903 30.161 9.68133 30.161 8.25729Z" fill="url(#paint0_linear)"/>
        <path d="M30.161 15.8525V10.9653C29.8761 11.9147 27.5027 12.8641 26.0787 13.3387C25.1293 13.8134 24.6547 13.8134 22.2813 14.7628C19.147 16.0165 18.4838 15.7121 17.0598 16.6615C15.6357 17.6109 14.6864 19.0349 14.2117 20.9336C14.0535 20.3007 13.6699 19.4425 12.7876 18.5602C11.8383 17.6109 9.46488 16.6615 7.09147 16.1868C5.19275 15.7121 1.39531 14.2881 0.161133 12.5712V18.2935C1.11049 19.7175 3.29403 20.9336 5.19275 21.4083C7.09147 21.883 9.69848 22.7118 10.8889 23.307C12.4712 24.0982 13.737 24.7311 14.2117 26.6298C14.3699 25.364 15.2493 23.9768 16.1104 23.307C17.5344 22.1994 19.7138 21.2573 21.3319 20.9336C23.7053 20.4589 26.8659 19.116 27.9774 18.5602C28.9268 18.0855 30.161 17.2765 30.161 15.8525Z" fill="#D765AA"/>
        <path d="M30.161 15.8525V10.9653C29.8761 11.9147 27.5027 12.8641 26.0787 13.3387C25.1293 13.8134 24.6547 13.8134 22.2813 14.7628C19.147 16.0165 18.4838 15.7121 17.0598 16.6615C15.6357 17.6109 14.6864 19.0349 14.2117 20.9336C14.0535 20.3007 13.6699 19.4425 12.7876 18.5602C11.8383 17.6109 9.46488 16.6615 7.09147 16.1868C5.19275 15.7121 1.39531 14.2881 0.161133 12.5712V18.2935C1.11049 19.7175 3.29403 20.9336 5.19275 21.4083C7.09147 21.883 9.69848 22.7118 10.8889 23.307C12.4712 24.0982 13.737 24.7311 14.2117 26.6298C14.3699 25.364 15.2493 23.9768 16.1104 23.307C17.5344 22.1994 19.7138 21.2573 21.3319 20.9336C23.7053 20.4589 26.8659 19.116 27.9774 18.5602C28.9268 18.0855 30.161 17.2765 30.161 15.8525Z" fill="url(#paint1_linear)"/>
    </g>
    <defs>
        <linearGradient id="paint0_linear" x1="8.04083" y1="11.4397" x2="5.66743" y2="16.1865" gradientUnits="userSpaceOnUse">
            <stop stop-color="#D765AA"/>
            <stop offset="1" stop-color="#F85499"/>
        </linearGradient>
        <linearGradient id="paint1_linear" x1="14.2117" y1="19.5096" x2="13.737" y2="22.3577" gradientUnits="userSpaceOnUse">
            <stop stop-color="#D765AA"/>
            <stop offset="1" stop-color="#F85499"/>
        </linearGradient>
    </defs>
</svg>