<svg width="32" height="27" viewBox="0 0 32 27" fill="none" xmlns="http://www.w3.org/2000/svg">
<path d="M30.451 3.03861C31.3459 3.11997 31.8883 3.52674 31.9968 4.01488C32.0781 4.74707 30.6137 5.2352 29.6374 5.64198C29.068 5.87927 28.9052 5.9674 28.5798 6.04876C28.0917 6.29282 26.8714 6.13011 26.4646 5.64198H25.1629C24.8375 5.72334 24.7561 6.04876 24.7561 6.37418V8.16399C25.407 7.51315 26.3832 6.6996 26.9527 6.61824H28.2544L27.333 6.83661C27.396 6.95365 27.5 7 28.0917 7.15518C28.2109 7.17579 28.3451 7.18773 28.4985 7.18773C28.6091 7.21539 28.701 7.24619 28.774 7.28012L27.7177 7.2653C27.4492 7.2653 27.5 7.5 27.5222 7.59451C27.9698 7.65046 28.2635 7.7449 28.4562 7.85136C28.1731 7.83857 27.6849 7.83857 27.3595 7.75722C27.1154 7.83857 26.9527 7.91993 26.7087 8.00128L27.5222 8.81484C27.1968 8.81484 26.8171 8.38094 26.4646 8.08264C26.2205 7.91993 26.0578 8.00128 25.8951 8.16399L24.4307 9.54704C24.1866 9.70975 23.9426 9.54704 23.9426 9.30297V7.10638C23.9426 7.4318 23.0477 10.8487 21.9901 12.3945C21.5019 13.0453 21.0138 13.7775 20.2002 14.4284C20.9324 15.3233 21.6917 16.8419 21.8273 17.6826C22.0714 18.8215 21.8816 19.2826 21.4206 19.7164L20.607 21.3436V21.913C20.8023 22.0432 21.0138 22.4012 21.0951 22.5639C22.2341 22.4825 22.9392 22.8622 23.129 23.3774C22.7222 23.2147 22.4782 23.052 22.0714 22.9707L21.9901 23.1334C22.4041 23.4554 22.5986 24.23 22.6771 24.8767C22.421 24.4041 21.8273 23.5076 21.5019 23.7029C22.0226 24.3537 21.4206 25.8995 20.8511 26.4689C21.2579 25.6554 21.4206 24.7605 21.0951 23.8656C20.5257 23.2961 20.2002 23.1334 19.6308 23.052C19.224 22.9939 18.546 23.052 18.0036 23.2147C18.6477 22.8122 18.8934 22.7549 19.6867 22.5698L19.7121 22.5639C19.9562 21.8317 19.7935 21.4249 19.8748 20.8554C20.3629 19.7978 20.6884 19.391 21.0138 18.9842C21.0138 18.3334 20.5257 18.0893 20.2002 17.6826C19.7935 17.0317 19.3867 16.6249 19.0613 16.2995C18.1664 17.3571 16.6206 19.2283 15.1562 20.1232C14.2613 20.6927 13.6918 20.9368 12.5528 21.4249C11.3325 21.913 9.94947 22.2385 8.07829 22.2385C7.02068 22.2385 5.5 22 4.58002 21.5876C3.44104 21.0995 2.1936 20.2588 1.32581 19.147C0.547015 18.1491 -0.13859 16.5436 0.0241187 15.1606C0.186829 13.6148 0.430896 12.6385 1.08174 11.825C2.56374 9.97248 3.5224 9.46568 4.49866 9.0589C6.6139 8.32671 7.75287 8.24535 8.15965 8.24535C6.93932 8.65213 5.8817 8.73348 4.49866 9.38432C3.84782 9.62839 2.24783 10.7402 1.40716 11.9063C0.919028 12.7199 0.186829 14.7538 0.430896 16.2182C0.674961 17.2758 1.48851 18.8215 2.54613 19.7978C3.46147 20.6427 4.25459 21.1808 5.39357 21.4249C6.89482 21.7466 7.66005 21.6864 8.64778 21.5876C10.2749 21.4249 11.2511 21.0995 11.9833 20.6927C14.0986 19.7164 16.4579 17.7097 17.6782 15.8114C17.8409 15.2419 17.4342 15.2419 17.1087 14.6724C16.946 14.2656 17.0274 12.7199 17.2714 11.825C17.0274 11.825 15.7257 13.5334 14.9935 14.5911C14.7494 15.2419 14.5867 15.5673 14.1799 16.0555C14.5867 15.1606 14.8308 13.8589 14.424 12.964C13.9433 11.9063 13.7189 11.4996 13.041 11.2555C13.285 11.0114 13.6105 11.2284 14.0172 11.5809L14.7494 12.3945C15.1562 11.9063 14.7223 11.4996 14.2613 10.9301C15.2376 11.0114 15.4003 11.9335 15.4003 12.7199C15.8884 12.3945 16.0511 11.825 16.2952 11.3369C17.1087 10.0352 17.4342 10.0352 17.7596 10.0352C18.0693 10.221 18.3476 11.2559 18.4149 12.1342C18.4893 11.009 18.8132 9.21874 19.3867 8.32671C19.8574 7.59451 20.2816 6.53689 21.0138 6.04876C21.0138 5.88605 20.8782 5.85893 20.6884 5.9674C20.3629 6.15336 20.1189 6.4013 19.7121 6.45553C19.1426 6.13011 19.0613 5.47927 18.8985 4.90978C18.4918 4.42165 18.085 4.28606 17.5969 4.3403C17.4342 4.17759 17.7596 4.09623 18.0036 4.09623C18.6545 4.17759 18.8172 4.28606 18.8985 4.58436C19.3867 4.09623 19.5494 3.93352 19.7935 3.6081C19.977 3.14925 20.0311 2.79392 20.0289 2.46913C20.2002 3.03861 20.146 3.68945 20.0375 4.01488C20.5257 3.68945 20.8511 2.8759 20.9324 2.1437C21.4531 2.53421 20.9324 4.3403 19.7935 4.82843L19.6307 4.99114L19.7935 5.72334C20.7697 4.99114 21.2036 4.53013 21.5019 4.50301C21.6646 4.50301 21.6646 4.82843 21.6646 5.15385C22.1528 4.50301 23.1561 3.71657 23.6985 3.44539C24.0239 3.25014 23.346 3.3098 22.9663 3.36403C23.129 3.11997 23.6714 2.82166 24.1866 2.63184C24.0239 2.38777 23.59 2.17082 23.2104 2.06235C22.8199 1.93218 23.4816 1.89964 23.8612 1.89964C24.5934 1.98099 25.0002 2.1437 25.1629 2.22506C25.407 1.2488 24.9188 0.923374 24.3493 0.191177C24.1541 -0.394581 26.112 0.923374 27.1154 1.65557C27.2781 1.16744 27.0341 1.08608 26.79 0.842015L26.0578 0.0284624C26.4646 -0.215603 27.9561 1.16744 28.6612 1.98099C28.6612 1.73692 28.6341 1.43862 28.4171 1.16744C29.6537 1.68811 30.2883 2.63183 30.451 3.03861Z" fill="#8FD300"/>
</svg>
