<svg width="30" height="30" viewBox="0 0 30 30" fill="none" xmlns="http://www.w3.org/2000/svg">
    <path d="M25.14 15.78C25.14 19.44 23.22 22.68 20.16 24.3L19.5 24.6C19.26 24.72 19.02 24.78 18.78 24.78C18.3 24.78 17.94 24.6 17.7 24.18C17.52 23.88 17.46 23.52 17.52 23.16C17.64 22.62 18.06 22.38 18.18 22.32C19.98 21.48 21.12 19.68 21.12 17.64V12.3C21.12 10.26 19.98 8.4 18.18 7.62C18.18 7.62 17.64 7.38 17.52 6.78C17.46 6.42 17.52 6.06 17.7 5.76C17.94 5.4 18.3 5.16 18.78 5.16C19.02 5.16 19.26 5.22 19.5 5.34L20.16 5.64C23.22 7.26 25.14 10.56 25.14 14.22V15.78V15.78ZM11.82 22.38C11.94 22.44 12.36 22.68 12.48 23.22C12.54 23.58 12.48 23.94 12.3 24.24C12.06 24.6 11.7 24.84 11.22 24.84C10.98 24.84 10.74 24.78 10.5 24.66L9.78 24.36C6.72 22.74 4.8 19.44 4.8 15.84V14.34C4.8 10.68 6.72 7.44 9.78 5.76L10.44 5.46C10.68 5.34 10.92 5.28 11.16 5.28C11.64 5.28 12 5.46 12.24 5.88C12.42 6.18 12.48 6.54 12.42 6.9C12.3 7.5 11.76 7.74 11.76 7.74C9.96 8.52 8.82 10.38 8.82 12.42V17.76C8.88 19.68 10.02 21.54 11.82 22.38ZM15 0C6.72 0 0 6.72 0 15C0 23.28 6.72 30 15 30C23.28 30 30 23.28 30 15C30 6.72 23.28 0 15 0Z" fill="#09CCFF"/>
</svg>