<svg width="31" height="31" viewBox="0 0 31 31" fill="none" xmlns="http://www.w3.org/2000/svg">
<g style="mix-blend-mode:luminosity">
<path d="M25.978 16.306C25.978 20.088 23.994 23.436 20.832 25.11L20.15 25.42C19.902 25.544 19.654 25.606 19.406 25.606C18.91 25.606 18.538 25.42 18.29 24.986C18.104 24.676 18.042 24.304 18.104 23.932C18.228 23.374 18.662 23.126 18.786 23.064C20.646 22.196 21.824 20.336 21.824 18.228V12.71C21.824 10.602 20.646 8.68 18.786 7.874C18.786 7.874 18.228 7.626 18.104 7.006C18.042 6.634 18.104 6.262 18.29 5.952C18.538 5.58 18.91 5.332 19.406 5.332C19.654 5.332 19.902 5.394 20.15 5.518L20.832 5.828C23.994 7.502 25.978 10.912 25.978 14.694V16.306ZM12.214 23.126C12.338 23.188 12.772 23.436 12.896 23.994C12.958 24.366 12.896 24.738 12.71 25.048C12.462 25.42 12.09 25.668 11.594 25.668C11.346 25.668 11.098 25.606 10.85 25.482L10.106 25.172C6.944 23.498 4.96 20.088 4.96 16.368V14.818C4.96 11.036 6.944 7.688 10.106 5.952L10.788 5.642C11.036 5.518 11.284 5.456 11.532 5.456C12.028 5.456 12.4 5.642 12.648 6.076C12.834 6.386 12.896 6.758 12.834 7.13C12.71 7.75 12.152 7.998 12.152 7.998C10.292 8.804 9.114 10.726 9.114 12.834V18.352C9.176 20.336 10.354 22.258 12.214 23.126ZM15.5 0C6.944 0 0 6.944 0 15.5C0 24.056 6.944 31 15.5 31C24.056 31 31 24.056 31 15.5C31 6.944 24.056 0 15.5 0Z" fill="#09CCFF"/>
</g>
</svg>
