<svg width="30" height="30" viewBox="0 0 30 30" fill="none" xmlns="http://www.w3.org/2000/svg">
<g style="mix-blend-mode:luminosity">
<path fill-rule="evenodd" clip-rule="evenodd" d="M0 22.7532C0 26.7552 3.25212 30 7.26059 30H17.5228C20.8304 30 23.6544 27.7743 24.5154 24.6949H12.111C7.33987 24.6949 5.31582 22.4802 5.31582 17.2835V5.53857C2.23732 6.39389 0 9.22013 0 12.5116V22.7532Z" fill="#F57C20"/>
<path fill-rule="evenodd" clip-rule="evenodd" d="M29.8476 7.2476C29.8476 3.2448 26.5947 0 22.5822 0H12.3256C9.01722 0 6.19084 2.22492 5.33301 5.30436H17.7365C22.5037 5.30436 24.5318 7.51978 24.5318 12.7165V24.4607C27.6063 23.6061 29.8476 20.7783 29.8476 17.4868V7.2476Z" fill="#274293"/>
<path fill-rule="evenodd" clip-rule="evenodd" d="M19.2467 14.4679H18.2842V12.1378H19.2467C20.4169 12.1378 20.7356 12.7027 20.7356 13.2977C20.7356 13.8943 20.3106 14.4679 19.2467 14.4679ZM18.2842 8.74496H19.0524C20.3518 8.74496 20.4168 9.54252 20.4168 9.787C20.4168 10.1478 20.2258 10.8188 19.1143 10.8188H18.2842V8.74496ZM16.601 12.8087V14.8382C16.1951 14.5953 15.7265 14.4038 15.2366 14.191C14.703 13.9568 14.1274 13.6601 14.1274 12.9883C14.1274 12.6449 14.3415 12.1378 15.365 12.1378H16.0461H16.601H17.2638L16.601 12.8087ZM10.0775 17.9999H9.28711V15.2631H10.0775C11.0567 15.2631 11.5046 15.8596 11.5046 16.5828C11.5046 17.2546 11.1011 17.9999 10.0775 17.9999ZM20.7806 11.4454V11.4153C21.3554 11.2326 22.1236 10.757 22.1236 9.499C22.1236 8.08508 20.9709 7.43628 19.3519 7.43628H16.6009V10.8188H14.9811C12.808 10.8188 12.3593 12.3411 12.3593 13.1703C12.3593 14.35 13.0395 14.8714 14.3017 15.4973C15.0668 15.881 15.9809 16.1144 15.9809 16.9903C15.9809 17.4452 15.5575 17.9999 14.6402 17.9999H12.9349C13.1878 17.5623 13.298 17.0868 13.298 16.6691C13.298 16.1287 13.1038 13.9567 10.0776 13.9567H7.604V22.3287H9.28715V18.6811L9.96818 19.3616H14.5768C16.7261 19.3616 17.7496 18.2547 17.7496 16.9373C17.7496 16.4689 17.6648 16.0938 17.5174 15.7884H19.2465C21.9088 15.7884 22.5248 14.4679 22.5248 13.433C22.5248 12.3838 21.8437 11.6052 20.7806 11.4454Z" fill="#274293"/>
</g>
</svg>
