<svg width="30" height="30" viewBox="0 0 30 30" fill="none" xmlns="http://www.w3.org/2000/svg">
    <path fill-rule="evenodd" clip-rule="evenodd" d="M0.0761719 22.7532C0.0761719 26.7552 3.3283 30 7.33677 30H17.599C20.9066 30 23.7306 27.7743 24.5916 24.6949H12.1872C7.41605 24.6949 5.392 22.4802 5.392 17.2835V5.53857C2.3135 6.3939 0.0761719 9.22014 0.0761719 12.5116V22.7532Z" fill="#F57C20"/>
    <path fill-rule="evenodd" clip-rule="evenodd" d="M29.9239 7.24761C29.9239 3.2448 26.671 0 22.6584 0H12.4018C9.0934 0 6.26701 2.22492 5.40918 5.30437H17.8127C22.5799 5.30437 24.608 7.51979 24.608 12.7165V24.4607C27.6826 23.6061 29.9239 20.7783 29.9239 17.4868V7.24761Z" fill="#274293"/>
    <path fill-rule="evenodd" clip-rule="evenodd" d="M19.3229 14.4677H18.3604V12.1376H19.3229C20.4931 12.1376 20.8118 12.7025 20.8118 13.2975C20.8118 13.8941 20.3868 14.4677 19.3229 14.4677ZM18.3604 8.74472H19.1286C20.428 8.74472 20.493 9.54228 20.493 9.78676C20.493 10.1476 20.302 10.8186 19.1905 10.8186H18.3604V8.74472ZM16.6772 12.8085V14.838C16.2713 14.5951 15.8027 14.4036 15.3128 14.1908C14.7792 13.9566 14.2036 13.6599 14.2036 12.9881C14.2036 12.6447 14.4177 12.1376 15.4412 12.1376H16.1223H16.6772H17.34L16.6772 12.8085ZM10.1537 17.9997H9.36329V15.2629H10.1537C11.1329 15.2629 11.5808 15.8594 11.5808 16.5826C11.5808 17.2544 11.1773 17.9997 10.1537 17.9997ZM20.8568 11.4452V11.4151C21.4316 11.2324 22.1998 10.7568 22.1998 9.49876C22.1998 8.08484 21.0471 7.43604 19.4281 7.43604H16.6771V10.8186H15.0573C12.8842 10.8186 12.4355 12.3409 12.4355 13.1701C12.4355 14.3498 13.1157 14.8712 14.3779 15.4971C15.143 15.8808 16.0571 16.1142 16.0571 16.9901C16.0571 17.445 15.6337 17.9997 14.7164 17.9997H13.0111C13.264 17.5621 13.3742 17.0866 13.3742 16.6689C13.3742 16.1285 13.18 13.9565 10.1538 13.9565H7.68018V22.3285H9.36333V18.6809L10.0444 19.3614H14.653C16.8023 19.3614 17.8258 18.2545 17.8258 16.9371C17.8258 16.4687 17.741 16.0936 17.5936 15.7882H19.3227C21.985 15.7882 22.601 14.4677 22.601 13.4328C22.601 12.3836 21.9199 11.605 20.8568 11.4452Z" fill="#274293"/>
</svg>
