<svg width="30" height="30" viewBox="0 0 30 30" fill="none" xmlns="http://www.w3.org/2000/svg">
<circle cx="15" cy="15" r="15" fill="#00AF9D"/>
<path d="M11.6128 15.4838C11.6128 17.0872 10.313 18.387 8.70962 18.387C7.10621 18.387 5.8064 17.0872 5.8064 15.4838C5.8064 13.8804 7.10621 12.5806 8.70962 12.5806C10.313 12.5806 11.6128 13.8804 11.6128 15.4838ZM7.10727 15.4838C7.10727 16.3687 7.82467 17.0861 8.70962 17.0861C9.59458 17.0861 10.312 16.3687 10.312 15.4838C10.312 14.5988 9.59458 13.8814 8.70962 13.8814C7.82467 13.8814 7.10727 14.5988 7.10727 15.4838Z" fill="white"/>
<path d="M10.3859 19.0585L8.48837 18.1123L10.6941 16.9606L10.3859 19.0585Z" fill="white"/>
<path d="M16.2641 15.266V12.7988H14.9999V14.5159V15.8738C14.9999 16.3577 14.9031 16.9352 13.9354 16.9352C12.9676 16.9352 12.7741 16.3238 12.7741 15.8738V14.7662V12.7988H11.518L11.518 15.266C11.518 16.004 11.4284 16.4514 11.6862 16.8555C12.0967 17.4988 12.3249 17.6097 12.7359 17.8529C13.4515 18.261 14.4167 18.2608 15.1062 17.8529C15.9676 17.4191 16.2641 16.4514 16.2641 15.266Z" fill="white"/>
<path d="M20.4193 14.9432L20.4193 10.3546V10.1611L19.0818 11.2404V17.9734H20.4193V15.5445L22.258 17.9734H23.908L21.8709 15.2134L22.0408 14.9432L23.2258 13.4515C23.7789 12.6773 23.7849 12.6773 23.2258 12.6773H22.258L20.4193 14.9432Z" fill="white"/>
<circle cx="17.6612" cy="11.2742" r="0.822581" fill="white"/>
<path d="M18.3705 12.6777H16.9592V17.9714H18.3705V12.6777Z" fill="white"/>
</svg>
