<svg width="31" height="31" viewBox="0 0 31 31" fill="none" xmlns="http://www.w3.org/2000/svg">
<g style="mix-blend-mode:luminosity">
<circle cx="15.5" cy="15.5" r="15.5" fill="#00AF9D"/>
<path d="M12 16C12 17.6569 10.6569 19 9 19C7.34315 19 6 17.6569 6 16C6 14.3431 7.34315 13 9 13C10.6569 13 12 14.3431 12 16ZM7.34424 16C7.34424 16.9145 8.08555 17.6558 9 17.6558C9.91445 17.6558 10.6558 16.9145 10.6558 16C10.6558 15.0855 9.91445 14.3442 9 14.3442C8.08555 14.3442 7.34424 15.0855 7.34424 16Z" fill="white"/>
<path d="M10.7319 19.694L8.77109 18.7163L11.0504 17.5262L10.7319 19.694Z" fill="white"/>
<path d="M16.8061 15.7751V13.2257H15.4998V15V16.4032C15.4998 16.9032 15.3998 17.5 14.3998 17.5C13.3998 17.5 13.1998 16.8682 13.1998 16.4032V15.2587V13.2257H11.9018L11.9018 15.7751C11.9018 16.5377 11.8092 17 12.0756 17.4176C12.4998 18.0824 12.7357 18.1969 13.1603 18.4482C13.8998 18.87 14.8971 18.8698 15.6096 18.4482C16.4998 18 16.8061 17 16.8061 15.7751Z" fill="white"/>
<path d="M21.0999 15.4414L21.0999 10.7V10.5L19.7178 11.6153V18.5727H21.0999V16.0628L22.9999 18.5727H24.7049L22.5999 15.7207L22.7754 15.4414L23.9999 13.9C24.5715 13.1 24.5776 13.1 23.9999 13.1H22.9999L21.0999 15.4414Z" fill="white"/>
<circle cx="18.2499" cy="11.65" r="0.85" fill="white"/>
<path d="M18.9827 13.1H17.5244V18.5701H18.9827V13.1Z" fill="white"/>
</g>
</svg>
