<svg width="32" height="31" viewBox="0 0 32 31" fill="none" xmlns="http://www.w3.org/2000/svg">
<g style="mix-blend-mode:luminosity">
<path fill-rule="evenodd" clip-rule="evenodd" d="M32 14.8466C31.8824 23.8028 24.7535 31 16 31C7.24647 31 0.117584 23.8028 0 14.8466C0 14.4847 0.0144372 14.1227 0.0360929 13.7682L9.72343 19.404L30.2386 7.46761C31.3994 9.74568 32.0037 12.2775 32 14.8466ZM9.72343 15.2972L0.707421 10.0528C0.525828 10.6361 0.381157 11.2307 0.274306 11.833L9.72343 17.3284L29.358 5.90909C29.0359 5.41388 28.6864 4.93791 28.3113 4.48352L9.72343 15.2972ZM27.0986 3.15398C26.6512 2.72203 26.1813 2.31519 25.6909 1.93523L9.72343 11.2273L2.10061 6.78807C1.81212 7.29967 1.55185 7.82739 1.321 8.36875L9.72343 13.2585L27.0986 3.15398ZM9.72343 9.29204L24.074 0.945454C23.4722 0.587741 22.8476 0.271876 22.2044 0L9.72343 7.25341L4.16512 4.02557C3.76894 4.46576 3.39547 4.9268 3.04624 5.40682L9.72343 9.29204Z" fill="#299D37"/>
</g>
</svg>
