<svg width="30" height="30" viewBox="0 0 30 30" fill="none" xmlns="http://www.w3.org/2000/svg">
	<path d="M26.5141 5.82861C27.2172 6.74989 27.8125 7.75077 28.2877 8.81117L14.805 18.8838L9.17017 15.3041V10.9974L14.805 14.5772L26.5141 5.82861Z" fill="#21A038"/>
	<path d="M3.4195 15.0001C3.4195 14.8068 3.42415 14.6148 3.43345 14.424L0.0185979 14.2544C0.00697484 14.5018 4.12669e-06 14.7515 4.12669e-06 15.0035C-0.0014488 16.9729 0.380772 18.9231 1.12475 20.7424C1.86872 22.5617 2.9598 24.2142 4.3354 25.6051L6.75764 23.1514C5.69875 22.0826 4.85873 20.8122 4.28586 19.4134C3.71299 18.0145 3.41857 16.5146 3.4195 15.0001Z" fill="url(#paint0_linear)"/>
	<path d="M14.8018 3.46464C14.9924 3.46464 15.1818 3.47171 15.3701 3.48113L15.541 0.0191444C15.2962 0.00736498 15.0497 0.00147597 14.8018 0.00147597C12.8577 -0.000926754 10.9323 0.385879 9.13615 1.13968C7.33999 1.89349 5.70845 2.99944 4.33521 4.39405L6.75745 6.84888C7.8121 5.77539 9.06575 4.92376 10.4463 4.34298C11.8268 3.76219 13.307 3.46368 14.8018 3.46464Z" fill="url(#paint1_linear)"/>
	<path d="M14.8019 26.5354C14.6113 26.5354 14.4218 26.5354 14.2324 26.5201L14.0615 29.9809C14.3071 29.9934 14.554 29.9997 14.8019 29.9997C16.7452 30.0018 18.6696 29.6147 20.4648 28.8607C22.26 28.1067 23.8905 27.0006 25.2627 25.606L22.8451 23.1523C21.7903 24.2253 20.5367 25.0764 19.1565 25.657C17.7762 26.2376 16.2963 26.5361 14.8019 26.5354Z" fill="url(#paint2_linear)"/>
	<path d="M21.2178 5.47748L24.0956 3.32772C21.4652 1.16909 18.1818 -0.00599213 14.7971 2.29787e-05V3.46436C17.0891 3.46148 19.3278 4.16344 21.2178 5.47748Z" fill="url(#paint3_linear)"/>
	<path d="M29.603 15.0001C29.6049 14.0989 29.5271 13.1992 29.3705 12.312L26.1847 14.6915C26.1847 14.794 26.1847 14.8964 26.1847 15.0001C26.1855 16.6119 25.8521 18.2058 25.2062 19.6786C24.5603 21.1514 23.6161 22.4703 22.4351 23.5496L24.733 26.1235C26.2684 24.7186 27.4954 23.0025 28.3344 21.0863C29.1734 19.1701 29.6056 17.0965 29.603 15.0001Z" fill="#21A038"/>
	<path d="M14.8018 26.5359C13.2113 26.5365 11.6385 26.1985 10.185 25.5439C8.73163 24.8893 7.43006 23.9326 6.36464 22.7358L3.82617 25.0635C5.21217 26.6198 6.90547 27.8635 8.79628 28.714C10.6871 29.5644 12.7331 30.0027 14.8018 30.0002V26.5359Z" fill="url(#paint4_linear)"/>
	<path d="M7.16911 6.45028L4.87239 3.87646C3.33649 5.28102 2.10904 6.99707 1.26965 8.91332C0.430279 10.8295 -0.00228843 12.9032 9.10451e-06 14.9998H3.41951C3.41881 13.3881 3.75223 11.7941 4.39815 10.3213C5.04409 8.84857 5.98813 7.52972 7.16911 6.45028Z" fill="url(#paint5_linear)"/>
	<defs>
		<linearGradient id="paint0_linear" x1="5.02697" y1="25.1728" x2="1.20118" y2="14.2601" gradientUnits="userSpaceOnUse">
			<stop offset="0.14" stop-color="#F1E813"/>
			<stop offset="0.3" stop-color="#E6E418"/>
			<stop offset="0.58" stop-color="#C9DA26"/>
			<stop offset="0.89" stop-color="#A2CC39"/>
		</linearGradient>
		<linearGradient id="paint1_linear" x1="5.31154" y1="5.00658" x2="14.9665" y2="1.37605" gradientUnits="userSpaceOnUse">
			<stop offset="0.06" stop-color="#0FA7DF"/>
			<stop offset="0.54" stop-color="#0098F8"/>
			<stop offset="0.92" stop-color="#0290EA"/>
		</linearGradient>
		<linearGradient id="paint2_linear" x1="13.8361" y1="27.9088" x2="24.7315" y2="25.4802" gradientUnits="userSpaceOnUse">
			<stop offset="0.12" stop-color="#A2CC39"/>
			<stop offset="0.28" stop-color="#86C239"/>
			<stop offset="0.87" stop-color="#219F38"/>
		</linearGradient>
		<linearGradient id="paint3_linear" x1="14.0858" y1="1.1603" x2="23.4103" y2="3.99958" gradientUnits="userSpaceOnUse">
			<stop offset="0.06" stop-color="#0290EA"/>
			<stop offset="0.79" stop-color="#0C89CA"/>
		</linearGradient>
		<linearGradient id="paint4_linear" x1="4.68395" y1="24.6417" x2="14.8428" y2="28.3881" gradientUnits="userSpaceOnUse">
			<stop offset="0.13" stop-color="#F1E813"/>
			<stop offset="0.3" stop-color="#EAE616"/>
			<stop offset="0.53" stop-color="#D8DF1F"/>
			<stop offset="0.8" stop-color="#BAD52D"/>
			<stop offset="0.98" stop-color="#A2CC39"/>
		</linearGradient>
		<linearGradient id="paint5_linear" x1="1.27389" y1="15.4191" x2="5.4341" y2="4.74064" gradientUnits="userSpaceOnUse">
			<stop offset="0.07" stop-color="#A2CC39"/>
			<stop offset="0.26" stop-color="#81C45E"/>
			<stop offset="0.92" stop-color="#0FA7DF"/>
		</linearGradient>
	</defs>
</svg>