<svg width="30" height="30" viewBox="0 0 30 30" fill="none" xmlns="http://www.w3.org/2000/svg">
	<path d="M26.7126 5.82861C27.4157 6.74989 28.0109 7.75077 28.4862 8.81117L15.0035 18.8838L9.36865 15.3041V10.9974L15.0035 14.5772L26.7126 5.82861Z" fill="#21A038"/>
	<path d="M3.61799 15.0001C3.61799 14.8068 3.62264 14.6148 3.63194 14.424L0.217084 14.2544C0.205461 14.5018 0.19849 14.7515 0.19849 15.0035C0.197038 16.9729 0.579258 18.9231 1.32324 20.7424C2.06721 22.5617 3.15829 24.2142 4.53389 25.6051L6.95613 23.1514C5.89724 22.0826 5.05722 20.8122 4.48435 19.4134C3.91148 18.0145 3.61705 16.5146 3.61799 15.0001Z" fill="url(#paint0_linear)"/>
	<path d="M15.0003 3.46464C15.1909 3.46464 15.3803 3.47171 15.5686 3.48113L15.7394 0.0191444C15.4946 0.00736498 15.2482 0.00147597 15.0003 0.00147597C13.0561 -0.000926754 11.1308 0.385879 9.33463 1.13968C7.53847 1.89349 5.90693 2.99944 4.53369 4.39405L6.95593 6.84888C8.01059 5.77539 9.26423 4.92376 10.6448 4.34298C12.0253 3.76219 13.5055 3.46368 15.0003 3.46464Z" fill="url(#paint1_linear)"/>
	<path d="M15.0004 26.5354C14.8098 26.5354 14.6203 26.5354 14.4309 26.5201L14.26 29.9809C14.5056 29.9934 14.7524 29.9997 15.0004 29.9997C16.9437 30.0018 18.8681 29.6147 20.6633 28.8607C22.4585 28.1067 24.089 27.0006 25.4612 25.606L23.0436 23.1523C21.9887 24.2253 20.7352 25.0764 19.355 25.657C17.9747 26.2376 16.4948 26.5361 15.0004 26.5354Z" fill="url(#paint2_linear)"/>
	<path d="M21.4162 5.47748L24.2941 3.32772C21.6637 1.16909 18.3803 -0.00599213 14.9956 2.29787e-05V3.46436C17.2876 3.46148 19.5263 4.16344 21.4162 5.47748Z" fill="url(#paint3_linear)"/>
	<path d="M29.8015 15.0001C29.8033 14.0989 29.7256 13.1992 29.569 12.312L26.3832 14.6915C26.3832 14.794 26.3832 14.8964 26.3832 15.0001C26.384 16.6119 26.0506 18.2058 25.4047 19.6786C24.7587 21.1514 23.8146 22.4703 22.6335 23.5496L24.9315 26.1235C26.4669 24.7186 27.6939 23.0025 28.5329 21.0863C29.3719 19.1701 29.8041 17.0965 29.8015 15.0001Z" fill="#21A038"/>
	<path d="M15.0003 26.5359C13.4098 26.5365 11.837 26.1985 10.3835 25.5439C8.93012 24.8893 7.62855 23.9326 6.56312 22.7358L4.02466 25.0635C5.41066 26.6198 7.10396 27.8635 8.99477 28.714C10.8856 29.5644 12.9316 30.0027 15.0003 30.0002V26.5359Z" fill="url(#paint4_linear)"/>
	<path d="M7.36759 6.45028L5.07088 3.87646C3.53497 5.28102 2.30753 6.99707 1.46814 8.91332C0.628766 10.8295 0.196198 12.9032 0.198495 14.9998H3.618C3.61729 13.3881 3.95071 11.7941 4.59664 10.3213C5.24257 8.84857 6.18661 7.52972 7.36759 6.45028Z" fill="url(#paint5_linear)"/>
	<defs>
		<linearGradient id="paint0_linear" x1="5.22546" y1="25.1728" x2="1.39966" y2="14.2601" gradientUnits="userSpaceOnUse">
			<stop offset="0.14" stop-color="#F1E813"/>
			<stop offset="0.3" stop-color="#E6E418"/>
			<stop offset="0.58" stop-color="#C9DA26"/>
			<stop offset="0.89" stop-color="#A2CC39"/>
		</linearGradient>
		<linearGradient id="paint1_linear" x1="5.51002" y1="5.00658" x2="15.165" y2="1.37605" gradientUnits="userSpaceOnUse">
			<stop offset="0.06" stop-color="#0FA7DF"/>
			<stop offset="0.54" stop-color="#0098F8"/>
			<stop offset="0.92" stop-color="#0290EA"/>
		</linearGradient>
		<linearGradient id="paint2_linear" x1="14.0346" y1="27.9088" x2="24.93" y2="25.4802" gradientUnits="userSpaceOnUse">
			<stop offset="0.12" stop-color="#A2CC39"/>
			<stop offset="0.28" stop-color="#86C239"/>
			<stop offset="0.87" stop-color="#219F38"/>
		</linearGradient>
		<linearGradient id="paint3_linear" x1="14.2843" y1="1.1603" x2="23.6088" y2="3.99958" gradientUnits="userSpaceOnUse">
			<stop offset="0.06" stop-color="#0290EA"/>
			<stop offset="0.79" stop-color="#0C89CA"/>
		</linearGradient>
		<linearGradient id="paint4_linear" x1="4.88243" y1="24.6417" x2="15.0413" y2="28.3881" gradientUnits="userSpaceOnUse">
			<stop offset="0.13" stop-color="#F1E813"/>
			<stop offset="0.3" stop-color="#EAE616"/>
			<stop offset="0.53" stop-color="#D8DF1F"/>
			<stop offset="0.8" stop-color="#BAD52D"/>
			<stop offset="0.98" stop-color="#A2CC39"/>
		</linearGradient>
		<linearGradient id="paint5_linear" x1="1.47238" y1="15.4191" x2="5.63259" y2="4.74064" gradientUnits="userSpaceOnUse">
			<stop offset="0.07" stop-color="#A2CC39"/>
			<stop offset="0.26" stop-color="#81C45E"/>
			<stop offset="0.92" stop-color="#0FA7DF"/>
		</linearGradient>
	</defs>
</svg>
