<svg width="11" height="14" viewBox="0 0 11 14" fill="none" xmlns="http://www.w3.org/2000/svg">
<path d="M1.5 0.5V2.5" stroke="#3D4656" stroke-linecap="square"/>
<path d="M1.5 8.5V13.5" stroke="#3D4656" stroke-linecap="square"/>
<path d="M9.5 0.5V6.5" stroke="#3D4656" stroke-linecap="square"/>
<path d="M9.5 12.5V13.5" stroke="#3D4656" stroke-linecap="square"/>
<path d="M2.5 5.5C2.5 6.05228 2.05228 6.5 1.5 6.5C0.947715 6.5 0.5 6.05228 0.5 5.5C0.5 4.94772 0.947715 4.5 1.5 4.5C2.05228 4.5 2.5 4.94772 2.5 5.5Z" fill="#3D4656" stroke="#3D4656"/>
<path d="M10.5 9.5C10.5 10.0523 10.0523 10.5 9.5 10.5C8.94772 10.5 8.5 10.0523 8.5 9.5C8.5 8.94772 8.94772 8.5 9.5 8.5C10.0523 8.5 10.5 8.94772 10.5 9.5Z" fill="#3D4656" stroke="#3D4656"/>
</svg>
