<svg width="30" height="30" viewBox="0 0 30 30" fill="none" xmlns="http://www.w3.org/2000/svg">
<path d="M10.0403 12.4224C10.1816 12.8019 10.3028 13.2051 10.3028 13.6131V17.832H17.606C17.2409 17.4552 17.2505 16.9791 17.3432 16.6692C17.245 16.6223 17.1536 16.5625 17.0714 16.4913C16.7858 16.7016 15.9119 17.3352 15.6839 17.4942L15.6371 17.5224L12.7682 17.007H12.7121C12.6431 17.007 12.5411 17.0013 12.431 16.9881C12.4001 17.1174 12.2867 17.2131 12.1589 17.2131L12.1214 17.2038C12.0842 17.1983 12.0486 17.1856 12.0164 17.1663C11.9842 17.147 11.9562 17.1215 11.9339 17.0913C11.9123 17.0619 11.8971 17.0284 11.889 16.9929C11.881 16.9574 11.8803 16.9206 11.8871 16.8849L11.8964 16.8192C11.6009 16.6113 11.3255 16.1472 11.4464 15.657L11.456 15.6006L11.5028 15.5724L11.6339 15.4974L11.4182 15.4599C11.4003 15.457 11.3831 15.4505 11.3677 15.4409C11.3523 15.4313 11.339 15.4187 11.3285 15.4038C11.3181 15.389 11.3107 15.3722 11.3068 15.3545C11.303 15.3367 11.3027 15.3184 11.306 15.3006C11.3192 15.2229 11.3885 15.1638 11.4653 15.1788L11.9621 15.2631L12.0089 13.5099L12.7496 12.732L13.2089 13.6974L12.7214 15.3849L13.1621 15.4506C13.2392 15.4626 13.2863 15.5307 13.2746 15.6099C13.2694 15.6436 13.2524 15.6744 13.2266 15.6967C13.2009 15.7191 13.168 15.7316 13.1339 15.732H13.1153L12.7589 15.6756L12.7778 15.7038C12.8153 15.7824 12.8972 15.8385 12.9464 15.8631L15.131 15.8913C15.2237 15.801 15.4571 15.5853 15.6932 15.3474C15.4872 15.2721 15.3063 15.1411 15.1706 14.9689C15.0348 14.7967 14.9497 14.5902 14.9246 14.3724C14.624 14.2443 14.4113 14.0496 14.2964 13.8006C14.1563 13.4916 14.2118 13.182 14.2496 13.032C13.958 12.9258 13.6535 12.7332 13.3403 12.4224H10.0403V12.4224ZM10.3028 18.1131V21.6474C10.3028 23.0922 11.3471 24.0006 12.8903 24.0006C14.1791 24.0006 14.5202 24.0498 14.9996 24.5256C15.3302 24.1959 15.6101 24.0741 16.1714 24.0288L16.181 23.9724L16.481 23.0538C16.4645 23.0331 15.9746 22.4913 15.9746 22.4913C15.7826 22.5549 15.6263 22.557 15.356 22.557C15.0776 22.557 14.759 22.5273 14.4182 22.4631C14.3875 22.4562 14.356 22.4531 14.3246 22.4538C14.2826 22.4538 14.2793 22.4613 14.2682 22.482L14.2121 22.5756L14.0996 22.7538L13.8932 22.707L12.9932 22.4913L12.8714 22.6974L12.8903 22.7163L13.0028 22.8381L12.956 22.9974C12.8897 23.2032 12.6746 23.4468 12.6089 23.5131L12.3839 23.7474L12.1778 23.4942L12.0182 23.2974C11.8562 23.1159 11.8238 22.8387 11.9153 22.5474L11.906 22.557L11.6528 22.6599L11.531 22.407L11.456 22.2288C11.3775 22.0507 11.3626 21.851 11.4138 21.6633C11.465 21.4755 11.5791 21.311 11.7371 21.1974L12.4682 20.7849L13.1528 20.9256C13.1693 20.8593 13.1987 20.6205 13.2182 20.5599L13.181 20.5506L12.7778 20.7006L12.3932 20.4381C12.3932 20.4381 12.2477 20.292 12.3839 20.1474L12.7496 19.5849L11.8121 18.4038L13.256 18.9942L13.3496 18.882L13.5464 18.6474L13.7714 18.8538C13.8341 18.9144 13.8662 18.9948 13.8839 19.0692C14.2823 19.2246 15.0023 19.6746 15.0653 20.4192L14.8403 20.5131V20.5224C14.8916 20.5833 14.9303 20.6046 14.9432 20.607L15.9839 20.7099L16.0778 20.682C16.2062 20.6382 16.3928 20.5788 16.6214 20.5788C16.8077 20.5788 16.9919 20.6199 17.1653 20.7006C17.2286 20.6766 17.309 20.6598 17.3996 20.6538L17.4464 20.6442C17.999 20.6442 18.2762 21.0645 18.4964 21.3942L18.6089 21.5538C18.7654 21.7807 18.9154 22.012 19.0589 22.2474L19.1714 22.4256L19.0403 22.5849C18.9329 22.7091 18.764 22.857 18.4871 22.857C18.4241 22.8566 18.3614 22.8502 18.2996 22.8381C18.2408 22.8273 18.1916 22.8033 18.1403 22.782L18.1121 22.9599L17.9246 23.907C19.0076 23.6403 19.6964 22.8183 19.6964 21.6474V18.1131H10.3028V18.1131Z" fill="#FFF042"/>
<path d="M15 1.58447L14.1375 2.43767L13.2468 1.97837L12.7782 2.96267L11.8968 2.86877C12.3909 3.63647 12.5343 4.50017 12.5343 4.50017C13.0245 4.11137 13.9005 3.75017 15 3.75017C16.1013 3.75017 16.9788 4.11137 17.4657 4.50017C17.4657 4.50017 17.6187 3.63677 18.1125 2.86877L17.2218 2.96267L16.7532 1.97837L15.8625 2.43767L15 1.58447V1.58447ZM15 2.07197L15.6186 2.69087L15.7968 2.85947L16.0218 2.74697L16.5936 2.44697L16.9125 3.11267L17.0157 3.33767L17.2593 3.30947L17.4936 3.28157C17.3985 3.49803 17.3171 3.72027 17.25 3.94697C16.629 3.60137 15.8232 3.40337 15 3.40337C14.1807 3.40337 13.3731 3.60137 12.75 3.94697C12.6825 3.7204 12.6011 3.49819 12.5064 3.28157L12.7407 3.30947L12.9843 3.33767L13.0968 3.11267L13.4064 2.44697L13.9782 2.74697L14.2032 2.85947L14.3814 2.69087L15 2.07197V2.07197ZM15 4.30337C13.6422 4.30337 12.4125 4.96937 12.4125 5.70017L12.4407 5.87837L12.975 8.99087L12.4314 9.30017L11.025 10.1252C11.0124 10.1318 10.7097 10.2896 10.5657 10.3877C10.029 10.76 9.9165 11.3069 10.2282 11.5316C10.3047 11.0882 10.65 10.622 11.3064 10.622C11.7786 10.622 12.141 10.8662 12.4314 11.2316C12.5064 11.324 12.5808 11.4254 12.6468 11.5316C12.7284 11.6654 12.8094 11.7845 12.8907 11.897H9.2625C9.5292 12.4334 9.7782 12.9959 9.7782 13.6127V21.647C9.7782 23.5919 11.2731 24.5252 12.8907 24.5252C14.1408 24.5252 14.3103 24.4661 15 25.1534C15.6864 24.4661 15.8583 24.5252 17.1093 24.5252C18.7278 24.5252 20.2218 23.5919 20.2218 21.647V13.6127C20.2218 12.9959 20.4696 12.4334 20.7375 11.897H17.1093C17.1903 11.7845 17.2713 11.6654 17.3532 11.5316C17.4201 11.4254 17.4954 11.324 17.5686 11.2316C17.8617 10.865 18.2211 10.622 18.6936 10.622C19.3494 10.622 19.6941 11.0882 19.7718 11.5316C20.0835 11.3069 19.9737 10.76 19.4343 10.3877C19.2897 10.2875 18.975 10.1252 18.975 10.1252L17.5686 9.30017L17.025 8.99087L17.5686 5.87837L17.5968 5.70017C17.5968 4.96937 16.3671 4.30337 15.0093 4.30337H15ZM10.1814 4.69697C9.7317 4.69697 8.8755 4.80617 8.175 5.53157C7.5909 6.13547 7.5168 6.77567 7.5468 7.19087L7.3686 7.20017H7.3032C6.4242 7.20017 6.0069 6.27107 5.9907 6.23447L5.7468 5.65337L5.3436 6.15017C5.3214 6.17987 4.7421 6.90527 4.8843 7.81877C4.9788 8.42597 5.3637 8.94467 6.0186 9.37517C6.09 9.42077 6.1329 9.46457 6.1686 9.49697C4.9326 9.89837 4.2435 10.775 3.5157 11.7002L3.4125 11.8316C2.3001 13.2473 0.7227 13.2938 0.5343 13.2938L0 13.2752L0.1593 13.7909C0.1782 13.8527 0.6561 15.3002 2.0811 15.3002H2.1468C2.2977 15.296 2.439 15.2669 2.5593 15.2438C2.5002 16.034 2.2098 17.4941 0.9 18.0377L0.4968 18.2066L0.7125 18.5816C0.7335 18.6155 1.2243 19.4438 2.325 19.4438C2.8062 19.4426 3.1794 19.3172 3.4593 19.172C3.51376 19.6248 3.61428 20.0709 3.7593 20.5034C4.1577 21.689 3.7827 22.5233 3.7686 22.5566L3.5718 22.9688L4.0218 23.0816C4.0512 23.0888 4.3266 23.1566 4.65 23.1566C4.8012 23.1566 4.9362 23.1488 5.0625 23.1188C5.35681 23.051 5.63025 22.9127 5.8593 22.7159C5.9799 23.087 6.1845 23.5067 6.5436 23.8784C7.155 24.506 8.0394 24.8252 9.1875 24.8252L9.8814 24.8159L9.4968 24.2252C9.4959 24.2216 9.2769 23.882 9.2064 22.9502C9.1236 21.8342 8.6949 21.1775 8.2782 20.8034C8.3985 20.7461 8.5122 20.6729 8.6064 20.5877C9.2184 20.0375 9.1917 19.3925 9.1875 19.322L9.1686 18.9752L8.8125 18.9659C7.8786 18.9509 7.2324 18.6788 6.7032 18.0659C6.58728 17.9316 6.48366 17.7873 6.3936 17.6345C6.6849 17.7239 7.0404 17.7845 7.4625 17.7845C7.5756 17.7845 7.6944 17.7833 7.8186 17.7752C8.4762 17.7188 8.9226 17.3216 8.9718 17.2784L9.3375 16.9502L8.925 16.6784C7.9956 16.0841 7.0419 14.9606 7.7718 12.9845C8.2446 11.6999 9.3336 10.5374 11.1093 9.42197C11.7084 9.04337 12.0375 8.60087 12.0375 8.17517C12.0375 7.51697 11.4939 7.25417 11.0907 7.06877C10.8942 6.97487 10.6842 6.88397 10.5843 6.76877C10.272 6.40727 10.5384 5.71007 10.8282 5.33447L11.2032 4.84697L10.5936 4.73447C10.5762 4.73267 10.4223 4.69697 10.1814 4.69697V4.69697ZM19.8186 4.69697C19.5786 4.69697 19.4238 4.73267 19.4064 4.73447L18.8064 4.84697L19.1718 5.33447C19.4616 5.71007 19.7274 6.40727 19.4157 6.76877C19.3155 6.88397 19.1145 6.97487 18.9186 7.06877C18.5154 7.25417 17.9625 7.51697 17.9625 8.17517C17.9625 8.60087 18.2916 9.04337 18.8907 9.42197C20.6637 10.5374 21.7554 11.6999 22.2282 12.9845C22.9593 14.9606 22.0104 16.0841 21.0843 16.6784L20.6625 16.9502L21.0282 17.2784C21.0771 17.3213 21.5238 17.7188 22.1814 17.7752C22.3059 17.7833 22.4259 17.7845 22.5375 17.7845C22.9584 17.7845 23.3148 17.7239 23.6064 17.6345C23.5205 17.7876 23.42 17.932 23.3064 18.0659C22.7769 18.6788 22.1238 18.9509 21.1875 18.9659L20.8407 18.9752L20.8125 19.322C20.8092 19.3925 20.7813 20.0375 21.3936 20.5877C21.4875 20.6729 21.6027 20.7461 21.7218 20.8034C21.306 21.1775 20.8848 21.8342 20.8032 22.9502C20.7339 23.882 20.5155 24.2216 20.5125 24.2252L20.1282 24.8159L20.8218 24.8252C21.9705 24.8252 22.8468 24.506 23.4564 23.8784C23.8164 23.5067 24.0192 23.087 24.1407 22.7159C24.37 22.9123 24.6434 23.0505 24.9375 23.1188C25.065 23.1488 25.2078 23.1566 25.3593 23.1566C25.6836 23.1566 25.9572 23.0888 25.9875 23.0816L26.4282 22.9688L26.2314 22.5566C26.217 22.5233 25.8423 21.689 26.2407 20.5034C26.412 19.9901 26.5074 19.5299 26.55 19.172C26.8296 19.3175 27.2007 19.4426 27.6843 19.4438C28.7832 19.4438 29.2659 18.6155 29.2875 18.5816L29.5032 18.2066L29.1 18.0377C27.7905 17.4941 27.5082 16.034 27.45 15.2438C27.5682 15.2669 27.7005 15.296 27.8532 15.3002H27.9186C29.343 15.3002 29.8212 13.8527 29.8407 13.7909L30 13.2752L29.4657 13.2938C29.2776 13.2938 27.7014 13.2473 26.5875 11.8316L26.4843 11.7002C25.7562 10.775 25.0656 9.89837 23.8314 9.49697C23.8668 9.46457 23.9205 9.42077 23.9907 9.37517C24.6456 8.94467 25.0293 8.42597 25.125 7.81877C25.2651 6.90527 24.6819 6.17987 24.6564 6.15017L24.2532 5.65337L24.0093 6.23447C23.9928 6.27107 23.5734 7.20017 22.6968 7.20017H22.6314L22.4625 7.19087C22.4934 6.77567 22.4175 6.13517 21.8343 5.53157C21.1332 4.80617 20.268 4.69697 19.8186 4.69697V4.69697ZM15 4.77197C16.0932 4.77317 16.914 5.12957 17.0907 5.55017L15 6.37517L12.9093 5.55017C13.0872 5.12957 13.9086 4.77317 15 4.77197ZM10.1814 5.08157C10.3929 5.08157 10.5282 5.10017 10.5282 5.10017C10.1328 5.61827 9.8457 6.48197 10.3032 7.01267C10.6989 7.46897 11.6625 7.49567 11.6625 8.17517C11.6625 8.46347 11.3952 8.79257 10.9125 9.09377C9.4593 10.0088 8.0157 11.2271 7.4157 12.8534C6.6672 14.8826 7.5129 16.2248 8.7186 16.997C8.7186 16.997 8.3391 17.3465 7.7907 17.3909C7.6791 17.4017 7.5663 17.4095 7.4625 17.4095C6.3072 17.4095 5.7093 16.8659 5.7093 16.8659C5.7093 16.8659 5.8143 17.6135 6.4125 18.3095C6.9714 18.9518 7.7001 19.3346 8.8125 19.3502C8.8125 19.3502 8.8449 19.8692 8.3532 20.3159C8.0373 20.5982 7.3125 20.6816 7.3125 20.6816C7.3125 20.6816 8.6718 20.9564 8.8218 22.9688C8.9034 24.0596 9.1782 24.4409 9.1782 24.4409H9.1593C5.9967 24.4409 6.075 21.7316 6.075 21.7316C6.075 21.7316 5.8596 22.5344 4.9782 22.7438C4.87086 22.7703 4.76057 22.783 4.65 22.7816C4.3662 22.7816 4.1157 22.7159 4.1157 22.7159C4.1157 22.7159 4.5741 21.7448 4.1157 20.3816C3.7365 19.2506 3.7968 18.4127 3.7968 18.4127C3.7968 18.4127 3.3726 19.0535 2.3157 19.0595H2.3064C1.4271 19.0595 1.0407 18.3938 1.0407 18.3938C3.1476 17.5187 2.9439 14.6909 2.9439 14.6909C2.9439 14.6909 2.6721 14.8967 2.1375 14.9159H2.0811C0.9189 14.9159 0.5247 13.6688 0.5247 13.6688H0.5529C0.7677 13.6688 2.4921 13.6268 3.7122 12.0752C4.5162 11.0549 5.1696 10.1504 6.4683 9.79697L6.5997 9.77837L6.6279 9.64697C6.6639 9.44867 6.5334 9.26657 6.2247 9.06587C4.4298 7.89047 5.6433 6.38447 5.6433 6.38447C5.6433 6.38447 6.153 7.58447 7.3029 7.58447H7.3872C7.5162 7.57727 7.6452 7.57367 7.7715 7.54697L7.9872 7.50017C7.9872 7.50017 7.6554 6.61037 8.4465 5.79377C9.0411 5.17757 9.7632 5.08157 10.1811 5.08157H10.1814ZM19.8186 5.08157C20.2368 5.08157 20.9589 5.17757 21.5532 5.79377C22.3425 6.61037 22.0218 7.50017 22.0218 7.50017L22.2282 7.54697C22.3545 7.57367 22.482 7.57757 22.6125 7.58447H22.6968C23.8437 7.58447 24.3564 6.38447 24.3564 6.38447C24.3564 6.38447 25.5795 7.89047 23.7843 9.06587C23.4756 9.26657 23.3358 9.44867 23.3718 9.64697L23.4 9.77837L23.5314 9.79697C24.8319 10.1501 25.4838 11.0549 26.2875 12.0752C27.5088 13.6268 29.2431 13.6688 29.4564 13.6688H29.475C29.475 13.6688 29.0802 14.9159 27.9186 14.9159H27.8625C27.3291 14.8967 27.0564 14.6909 27.0564 14.6909C27.0564 14.6909 26.8512 17.5187 28.9593 18.3938C28.9593 18.3938 28.5735 19.0595 27.6936 19.0595H27.6843C26.6283 19.0535 26.2032 18.4127 26.2032 18.4127C26.2032 18.4127 26.2647 19.2503 25.8843 20.3816C25.4259 21.7448 25.8843 22.7159 25.8843 22.7159C25.8843 22.7159 25.6431 22.7816 25.3593 22.7816C25.2507 22.7816 25.1382 22.7717 25.0314 22.7438C24.1494 22.5344 23.925 21.7316 23.925 21.7316C23.925 21.7316 24.003 24.4409 20.8407 24.4409H20.8218C20.8218 24.4409 21.096 24.0596 21.1782 22.9688C21.3285 20.9564 22.6968 20.6816 22.6968 20.6816C22.6968 20.6816 21.9621 20.5982 21.6468 20.3159C21.1542 19.8692 21.1968 19.3502 21.1968 19.3502C22.3095 19.3346 23.0322 18.9521 23.5875 18.3095C24.1893 17.6138 24.2907 16.8659 24.2907 16.8659C24.2907 16.8659 23.694 17.4095 22.5375 17.4095C22.4358 17.4095 22.3209 17.4017 22.2093 17.3909C21.6618 17.3465 21.2907 16.997 21.2907 16.997C22.4949 16.2248 23.3334 14.8823 22.5843 12.8534C21.984 11.2271 20.5491 10.0088 19.0968 9.09377C18.6141 8.79257 18.3375 8.46347 18.3375 8.17517C18.3375 7.49567 19.3104 7.46897 19.7064 7.01267C20.1636 6.48197 19.8777 5.61827 19.4814 5.10017C19.4814 5.10017 19.6083 5.08157 19.8186 5.08157V5.08157ZM12.9375 6.05657L14.85 6.70337V9.70337L13.4436 8.96267L12.9375 6.05657ZM17.0625 6.05657L16.5564 8.96267L15.15 9.70337V6.70337L17.0625 6.05657ZM13.575 7.07837C13.575 7.07837 13.5783 7.35647 13.9686 7.65947C14.205 7.84667 14.3394 7.87217 14.3436 7.87517L14.4375 7.92197V7.44377L13.575 7.07837ZM16.4343 7.07837L15.5625 7.44377V7.92197L15.6564 7.87517C15.6609 7.87217 15.7956 7.84667 16.0314 7.65947C16.4229 7.35647 16.4343 7.07837 16.4343 7.07837V7.07837ZM23.2968 8.27837C23.2968 8.27837 22.0845 9.16907 19.6125 8.36267C20.2962 8.80667 21.6231 9.42947 22.8375 10.4438C25.872 13.1108 23.7093 15.7127 23.7093 15.7127C24.7998 14.5742 24.8367 13.3616 24.5157 12.3659C25.0899 13.3217 25.4634 14.4785 25.4064 15.9095C25.3227 17.9591 24.1914 19.7354 23.0064 21.1595C22.4364 21.8504 22.3125 22.697 22.3125 22.697C22.3125 22.697 22.5438 21.9494 23.2032 21.1784C24.4734 19.691 25.5546 18.1451 25.6968 15.9188C25.8279 16.3232 26.3763 17.4458 27.2343 17.8688C27.2343 17.8688 26.1552 17.2178 25.6686 14.7002V14.6816C25.3425 12.1121 23.4729 10.2605 21.3936 9.13157C21.2013 9.02777 21.0225 8.94347 20.85 8.85947C21.4842 8.95817 22.5081 8.96237 23.2968 8.27837ZM6.7686 8.31587C7.5498 8.95577 8.5395 8.95607 9.1593 8.85947C8.988 8.94347 8.8068 9.02777 8.6157 9.13157C6.5307 10.2635 4.6521 12.1208 4.3314 14.7002C3.8454 17.2178 2.775 17.8688 2.775 17.8688C3.6324 17.4458 4.1718 16.3232 4.3032 15.9188C4.4466 18.1451 5.5359 19.691 6.8064 21.1784C7.4652 21.9494 7.6968 22.697 7.6968 22.697C7.6968 22.697 7.5663 21.8504 6.9936 21.1595C5.8107 19.7357 4.6857 17.9591 4.6032 15.9095C4.5438 14.4788 4.9092 13.322 5.4843 12.3659C5.1738 13.3304 5.2113 14.4926 6.2064 15.6002C5.832 15.0659 4.506 12.7775 7.1625 10.4438C8.3763 9.42947 9.7038 8.80667 10.3875 8.36267C8.2254 9.06827 7.0335 8.47457 6.7686 8.31587V8.31587ZM3.6843 8.71877C3.2607 8.71877 2.8647 8.89427 2.5407 9.22517C1.7517 10.0304 1.0476 10.0964 1.0218 10.097L0.4686 10.1252L0.6936 10.6316C0.9207 11.1347 1.5255 11.5034 2.1186 11.5034C2.2713 11.5034 2.4183 11.4764 2.5593 11.4284C2.9565 11.2967 3.2115 10.979 3.4782 10.6502C3.7509 10.3142 4.053 9.93947 4.5843 9.65657L5.1282 9.35657L4.6218 9.00017C4.5795 8.97347 4.2003 8.71877 3.6843 8.71877V8.71877ZM26.3157 8.71877C25.7991 8.71877 25.4202 8.97347 25.3782 9.00017L24.8718 9.35657L25.4157 9.65657C25.9467 9.93947 26.2599 10.3139 26.5314 10.6502C26.7981 10.9787 27.0537 11.297 27.45 11.4284C27.5904 11.4764 27.7383 11.5034 27.8907 11.5034C28.4847 11.5034 29.0799 11.135 29.3064 10.6316L29.5314 10.1252L28.9782 10.097C28.9521 10.0964 28.2477 10.0304 27.4593 9.22517C27.1353 8.89457 26.7381 8.71877 26.3157 8.71877V8.71877ZM3.6843 9.10337C4.0941 9.10337 4.4064 9.31877 4.4064 9.31877C3.2985 9.90917 3.0705 10.859 2.4375 11.072C2.3331 11.1092 2.2269 11.1188 2.1186 11.1188C1.6533 11.1188 1.194 10.8161 1.0404 10.472C1.0404 10.472 1.8954 10.4195 2.8122 9.48767C3.1056 9.18557 3.4173 9.10337 3.684 9.10337H3.6843ZM26.3157 9.10337C26.5809 9.10337 26.895 9.18557 27.1875 9.48767C28.1055 10.4195 28.9593 10.472 28.9593 10.472C28.8042 10.8158 28.3566 11.1188 27.8907 11.1188C27.783 11.1188 27.6696 11.1092 27.5625 11.072C26.931 10.859 26.712 9.90887 25.6032 9.31877C25.6032 9.31877 25.9035 9.10337 26.3157 9.10337V9.10337ZM13.2375 9.37517L15 10.3316H15.0093L16.7718 9.37517L17.4282 9.75017L18.0657 10.1252H18.075L18.2436 10.2188C17.8812 10.3193 17.6046 10.5062 17.3718 10.7438L17.3436 10.7627C17.2905 10.8197 17.2353 10.8869 17.1843 10.9502L17.1564 10.9877C17.1069 11.0516 17.0604 11.1167 17.0157 11.1845L16.9875 11.222C16.9344 11.3015 16.8882 11.378 16.8375 11.4659C16.3803 12.2531 15.6483 12.7304 15 12.7316C14.3523 12.7304 13.6188 12.2531 13.1625 11.4659C13.1148 11.3832 13.0648 11.3018 13.0125 11.222L12.9843 11.1752C12.9399 11.1095 12.8985 11.048 12.8532 10.9877L12.8157 10.9409C12.7662 10.88 12.7173 10.8278 12.6657 10.772L12.6375 10.7345C12.3992 10.4864 12.0978 10.3081 11.7657 10.2188L11.925 10.1252H11.9343L12.5718 9.75017L13.2375 9.37517V9.37517ZM14.2875 10.6877V11.2034C14.4642 10.9886 14.8032 11.0345 14.8032 11.0345V11.7659C14.8032 11.7659 14.7915 12.1337 14.6625 12.2909H15.4032C15.276 12.1337 15.2625 11.7659 15.2625 11.7659V11.0345C15.2625 11.0345 15.603 10.9886 15.7782 11.2034V10.6877H14.2875ZM10.0407 12.422H13.3407C13.6539 12.7331 13.9587 12.9251 14.25 13.0316C14.2122 13.1813 14.1567 13.4912 14.2968 13.8002C14.4117 14.0492 14.6244 14.2442 14.925 14.372C14.95 14.5898 15.0352 14.7964 15.1709 14.9686C15.3066 15.1408 15.4876 15.2718 15.6936 15.347C15.4575 15.5849 15.2241 15.8003 15.1314 15.8909L12.9468 15.8627C12.8976 15.8381 12.8157 15.782 12.7782 15.7034L12.7593 15.6752L13.1157 15.7316H13.1343C13.1684 15.7312 13.2013 15.7188 13.2271 15.6964C13.2529 15.674 13.2699 15.6432 13.275 15.6095C13.2867 15.5306 13.2393 15.4625 13.1625 15.4502L12.7218 15.3845L13.2093 13.697L12.75 12.7316L12.0093 13.5095L11.9625 15.2627L11.4657 15.1784C11.3889 15.1634 11.3196 15.2225 11.3064 15.3002C11.303 15.318 11.3033 15.3364 11.3072 15.3541C11.311 15.3719 11.3184 15.3887 11.3289 15.4035C11.3393 15.4184 11.3526 15.431 11.3681 15.4406C11.3835 15.4502 11.4007 15.4566 11.4186 15.4595L11.6343 15.497L11.5032 15.572L11.4564 15.6002L11.4468 15.6566C11.3262 16.1471 11.6016 16.6106 11.8968 16.8188L11.8875 16.8845C11.8807 16.9202 11.8813 16.957 11.8893 16.9926C11.8974 17.0281 11.9127 17.0615 11.9343 17.0909C11.9566 17.1211 11.9846 17.1466 12.0168 17.1659C12.049 17.1852 12.0847 17.198 12.1218 17.2034L12.1593 17.2127C12.2871 17.2127 12.4002 17.1167 12.4314 16.9877C12.5412 17.0009 12.6435 17.0066 12.7125 17.0066H12.7686L15.6375 17.522L15.6843 17.4938C15.9126 17.3345 16.7862 16.7012 17.0718 16.4909C17.1504 16.5584 17.2377 16.6181 17.3436 16.6688C17.2512 16.9787 17.2503 17.4551 17.6157 17.8316H10.3032V13.6127C10.3032 13.2047 10.182 12.8015 10.0407 12.422ZM16.6686 12.422H19.9593C19.8156 12.8015 19.6968 13.2047 19.6968 13.6127V16.2566C19.146 16.1639 19.0803 15.5696 19.0782 15.5438L19.0686 15.422L18.9468 15.4127C18.7074 15.3896 18.5556 15.2897 18.4218 15.1595C18.1518 14.8895 18.1494 14.4509 18.15 14.447C18.1461 14.4695 17.8563 14.8793 18.1968 15.3284C18.3399 15.5171 18.5472 15.6293 18.8157 15.6752C18.8787 16.0043 19.119 16.4765 19.6968 16.547V17.8316H18.075C17.3256 17.4146 17.6388 16.6817 17.6532 16.6502L17.7186 16.5095L17.5782 16.4534C16.7664 16.1525 16.986 15.3446 16.9968 15.3095L17.0343 15.197L16.9218 15.1409C16.2522 14.8301 16.341 13.9949 16.35 13.9595C16.1436 14.1269 16.0674 14.4692 16.2093 14.8034C16.115 14.9089 16.0181 15.0121 15.9186 15.1127C15.7234 15.0703 15.5477 14.9646 15.4189 14.8119C15.2901 14.6593 15.2154 14.4683 15.2064 14.2688V14.1659L15.1125 14.1377C14.8416 14.0375 14.6514 13.8803 14.5593 13.6784C14.4567 13.4546 14.4936 13.2194 14.5218 13.1066C14.6016 13.1246 14.6808 13.1378 14.7564 13.1438C14.8344 13.1516 14.9196 13.1627 15 13.1627H15.0093C15.0897 13.1627 15.1653 13.1516 15.2436 13.1438C15.6762 13.1012 16.1643 12.9224 16.6686 12.422ZM12.6657 13.2284L12.9 13.7252L12.4407 15.3377L12.2436 15.3095L12.2907 13.6316L12.6657 13.2284ZM16.3686 15.0566C16.4529 15.1622 16.5585 15.2588 16.6968 15.347C16.6497 15.6035 16.6644 15.968 16.875 16.2752C16.5855 16.4888 15.8427 17.033 15.5718 17.222L12.9657 16.7534L12.9843 16.6877C13.0309 16.51 13.0561 16.3274 13.0593 16.1438L15.2436 16.1816L15.2907 16.1438C15.324 16.1108 16.0152 15.4418 16.3686 15.0566ZM12.1968 15.6095C12.3441 15.6095 12.4452 15.6767 12.5157 15.8252C12.5772 15.9548 12.6909 16.0385 12.7686 16.0877C12.7662 16.2089 12.7539 16.3997 12.7218 16.5659L12.6936 16.6688L12.675 16.7252C12.5598 16.7252 12.3354 16.7081 12.15 16.6409C11.9454 16.5653 11.6391 16.1924 11.7093 15.7784C11.7978 15.7241 12.0048 15.6095 12.1968 15.6095V15.6095ZM10.3032 18.1127H19.6968V21.647C19.6968 22.8182 19.008 23.6399 17.925 23.9066L18.1125 22.9595L18.1407 22.7816C18.192 22.8029 18.2412 22.8266 18.3 22.8377C18.3681 22.8503 18.4305 22.8566 18.4875 22.8566C18.7644 22.8566 18.9333 22.7087 19.0407 22.5845L19.1718 22.4252L19.0593 22.247C18.9161 22.0114 18.7661 21.7801 18.6093 21.5534L18.4968 21.3938C18.2766 21.0644 17.9997 20.6438 17.4468 20.6438L17.4 20.6534C17.3091 20.6591 17.229 20.6762 17.1657 20.7002C16.9955 20.6201 16.8098 20.5786 16.6218 20.5784C16.3929 20.5784 16.2066 20.6381 16.0782 20.6816L15.9843 20.7095L14.9436 20.6066C14.9307 20.6039 14.892 20.5829 14.8407 20.522V20.5127L15.0657 20.4188C15.0024 19.6742 14.2827 19.2239 13.8843 19.0688C13.8669 18.9944 13.8345 18.9143 13.7718 18.8534L13.5468 18.647L13.35 18.8816L13.2564 18.9938L11.8125 18.4034L12.75 19.5845L12.3843 20.147C12.2484 20.2913 12.3936 20.4377 12.3936 20.4377L12.7782 20.7002L13.1814 20.5502L13.2186 20.5595C13.1994 20.6201 13.1697 20.8589 13.1532 20.9252L12.4686 20.7845L11.7375 21.197C11.3649 21.4709 11.3178 21.9275 11.4564 22.2377L11.5314 22.4066L11.6532 22.6595L11.9064 22.5566L11.9157 22.547C11.8242 22.8386 11.8566 23.1158 12.0186 23.297L12.1782 23.4938L12.375 23.747L12.6093 23.5127C12.6753 23.4467 12.8904 23.2031 12.9564 22.997L13.0032 22.8377L12.8907 22.7159L12.8718 22.697L12.9936 22.4909L13.8936 22.7066L14.1 22.7534L14.2125 22.5752L14.2686 22.4816C14.2797 22.4609 14.2833 22.4534 14.325 22.4534C14.3571 22.4534 14.3844 22.4549 14.4186 22.4627C14.7591 22.5269 15.0777 22.5566 15.3564 22.5566C15.6264 22.5566 15.7827 22.5545 15.975 22.4909C15.975 22.4909 16.4646 23.0324 16.4814 23.0534L16.1814 23.972L16.1718 24.0284C15.6105 24.0734 15.3303 24.1952 15 24.5252C14.5203 24.0494 14.1795 24.0002 12.8907 24.0002C11.3475 24.0002 10.3032 23.0921 10.3032 21.647V18.1127V18.1127ZM12.5718 18.9566L13.3407 19.3409L13.575 19.0595C13.6395 19.1225 13.6125 19.2845 13.6125 19.2845C13.851 19.2902 14.5236 19.6664 14.5593 20.5316V20.6159L14.5782 20.6438C14.625 20.7092 14.7501 20.8721 14.9157 20.8877L15.975 20.9909H15.9843C16.1001 20.9909 16.3254 20.8595 16.6218 20.8595C16.7832 20.8595 16.9647 20.8982 17.1564 21.0188C17.1564 21.0188 17.2533 20.9423 17.4093 20.9345H17.4468C17.9211 20.9345 18.1203 21.3662 18.375 21.722C18.5664 21.9935 18.8157 22.397 18.8157 22.397C18.7209 22.5089 18.6348 22.5659 18.4875 22.5659C18.447 22.5659 18.4065 22.5662 18.3564 22.5566C17.8473 22.4624 17.7747 21.4106 17.4843 21.3284H17.4375C17.3439 21.3284 17.2968 21.4127 17.2968 21.4127C17.4294 21.7697 17.3601 21.9065 17.5032 22.1816C17.6097 22.3853 17.7906 22.5521 17.8686 22.6316C17.8686 22.6316 17.8536 22.7879 17.8314 22.9034L17.625 23.9627C17.4954 23.981 17.3628 23.9945 17.2218 24.0002L17.4375 22.9784C17.5014 22.6769 16.6845 22.5872 16.2843 21.9938C16.089 22.2137 15.7263 22.2752 15.3564 22.2752C15.0189 22.2752 14.6805 22.2218 14.475 22.1816C14.4253 22.1743 14.3752 22.1711 14.325 22.172C14.2068 22.172 14.0997 22.2068 14.025 22.3316L13.9593 22.4252L12.8625 22.172L12.5814 22.622C12.5427 22.6961 12.5469 22.7588 12.6093 22.8284L12.675 22.9127C12.6234 23.0735 12.3936 23.3159 12.3936 23.3159L12.2343 23.1095C12.1044 22.9646 12.1272 22.6994 12.2625 22.4534L12.7032 21.7127L13.6314 21.8438L13.4907 21.5159C13.2951 21.0776 13.59 20.5247 13.6218 20.2034C13.611 20.3006 13.5192 20.3159 13.4157 20.3159C13.3212 20.3159 13.2231 20.297 13.1532 20.297C13.1299 20.2966 13.107 20.3032 13.0875 20.3159L12.8343 20.4659L12.6375 20.2877C12.6205 20.2617 12.6132 20.2306 12.6166 20.1998C12.6201 20.169 12.6341 20.1403 12.6564 20.1188L13.125 19.5938L12.5718 18.9566V18.9566ZM13.275 19.6502C13.2571 19.6564 13.2414 19.6677 13.2298 19.6827C13.2181 19.6976 13.211 19.7156 13.2093 19.7345C13.2085 19.7475 13.2103 19.7605 13.2146 19.7728C13.2189 19.785 13.2257 19.7963 13.2344 19.8059C13.2432 19.8156 13.2538 19.8233 13.2656 19.8288C13.2774 19.8342 13.2902 19.8373 13.3032 19.8377C13.3155 19.839 13.328 19.8379 13.3399 19.8343C13.3518 19.8308 13.3628 19.8249 13.3724 19.8171C13.382 19.8093 13.39 19.7996 13.3958 19.7886C13.4016 19.7777 13.4052 19.7657 13.4064 19.7534C13.4071 19.7274 13.3977 19.7021 13.3802 19.6829C13.3627 19.6637 13.3384 19.6519 13.3125 19.6502H13.275ZM12.4968 21.0659L13.125 21.197C13.1133 21.3968 13.2375 21.5534 13.2375 21.5534L12.5718 21.422L12.1782 21.6938C12.111 21.7406 12.1059 21.8297 12.1407 21.9095L12.1968 22.0316C12.1644 22.1381 11.7936 22.2845 11.7936 22.2845L11.7186 22.1159C11.6683 21.9973 11.6595 21.8653 11.6936 21.7411C11.7277 21.6169 11.8027 21.5079 11.9064 21.4316L12.4968 21.0659V21.0659ZM16.4718 22.5845C16.7118 22.7283 16.959 22.8598 17.2125 22.9784C17.1933 23.0099 16.8564 24.0002 16.8564 24.0002C16.7136 24.0002 16.5801 24.005 16.4625 24.0095L16.7718 23.0438C16.8204 22.9103 16.5732 22.7354 16.4718 22.5845V22.5845ZM10.5468 24.6845L10.7064 25.2938L10.8657 25.847L10.3218 26.0534L9.7125 26.2784C10.4022 26.6114 11.3595 27.0983 12.2343 27.3377L12.0282 27.9002C12.0282 27.9002 13.1424 28.4111 14.9907 28.4159H15.0093C16.86 28.4111 17.9718 27.9002 17.9718 27.9002L17.7657 27.3377C18.6408 27.0983 19.6008 26.6114 20.2875 26.2784L19.6875 26.0534L19.1436 25.847L19.2936 25.2938L19.4625 24.6845C19.4625 24.6845 18.498 25.2035 17.1468 25.5938C16.7637 25.7036 16.4718 25.7534 16.4718 25.7534V26.1659C16.4718 26.1659 15.7485 26.2877 15.0186 26.2877H14.9814C14.2506 26.2877 13.5282 26.1659 13.5282 26.1659V25.7534C13.5282 25.7534 13.2357 25.7036 12.8532 25.5938C11.5023 25.2035 10.5468 24.6845 10.5468 24.6845V24.6845ZM10.9875 25.1627C11.3799 25.3847 12.2595 25.7201 12.7686 25.8752L12.3375 27.0566C11.5506 26.84 10.8966 26.5859 10.3593 26.3159L11.25 26.0252L10.9875 25.1627V25.1627ZM19.0218 25.1627L18.7593 26.0252L19.6407 26.3159C19.1028 26.5859 18.4521 26.84 17.6625 27.0566L17.2407 25.8752C17.7507 25.7201 18.6288 25.3847 19.0218 25.1627V25.1627ZM12.9657 26.3252C13.404 26.453 14.3199 26.5919 14.9814 26.5877H15.0186C15.6801 26.5919 16.5939 26.453 17.0343 26.3252L17.5593 27.7595C17.2119 27.8834 16.0317 28.1159 15 28.1159C13.9662 28.1159 12.7884 27.8834 12.4407 27.7595L12.9657 26.3252V26.3252Z" fill="black"/>
</svg>
