<svg width="35" height="31" viewBox="0 0 35 31" fill="none" xmlns="http://www.w3.org/2000/svg">
<g style="mix-blend-mode:luminosity">
<path d="M11.6001 12.5216C11.7634 12.9601 11.9034 13.4259 11.9034 13.8973V18.7717H20.3412C19.9194 18.3363 19.9305 17.7862 20.0376 17.4282C19.9242 17.3741 19.8186 17.3049 19.7236 17.2227C19.3936 17.4656 18.3839 18.1977 18.1205 18.3814L18.0664 18.414L14.7518 17.8185H14.687C14.6073 17.8185 14.4894 17.8119 14.3622 17.7966C14.3265 17.946 14.1955 18.0566 14.0478 18.0566L14.0045 18.0459C13.9616 18.0396 13.9204 18.0249 13.8832 18.0025C13.846 17.9802 13.8136 17.9508 13.7879 17.9159C13.763 17.882 13.7454 17.8433 13.7361 17.8023C13.7268 17.7612 13.726 17.7187 13.7338 17.6774L13.7446 17.6015C13.4032 17.3613 13.085 16.8251 13.2247 16.2587L13.2357 16.1936L13.2898 16.161L13.4413 16.0743L13.1921 16.031C13.1714 16.0277 13.1515 16.0202 13.1338 16.0091C13.116 15.998 13.1006 15.9834 13.0885 15.9663C13.0764 15.9491 13.0679 15.9298 13.0634 15.9093C13.0589 15.8888 13.0586 15.8676 13.0624 15.847C13.0777 15.7572 13.1578 15.6889 13.2465 15.7062L13.8205 15.8036L13.8745 13.7781L14.7303 12.8793L15.261 13.9947L14.6977 15.9444L15.2069 16.0203C15.296 16.0341 15.3504 16.1128 15.3369 16.2043C15.3309 16.2433 15.3113 16.2789 15.2815 16.3047C15.2517 16.3305 15.2137 16.345 15.1743 16.3454H15.1528L14.7411 16.2802L14.7629 16.3128C14.8062 16.4036 14.9009 16.4684 14.9577 16.4969L17.4817 16.5294C17.5888 16.4251 17.8585 16.1759 18.1312 15.901C17.8933 15.8141 17.6843 15.6627 17.5274 15.4638C17.3706 15.2648 17.2722 15.0262 17.2432 14.7746C16.8959 14.6266 16.6502 14.4016 16.5174 14.1139C16.3556 13.7569 16.4197 13.3992 16.4634 13.2259C16.1265 13.1032 15.7747 12.8807 15.4128 12.5216H11.6001ZM11.9034 19.0964V23.1798C11.9034 24.8491 13.1099 25.8986 14.8929 25.8986C16.3819 25.8986 16.776 25.9555 17.3299 26.5052C17.7119 26.1243 18.0352 25.9835 18.6837 25.9312L18.6948 25.866L19.0414 24.8047C19.0224 24.7808 18.4564 24.1548 18.4564 24.1548C18.2345 24.2283 18.054 24.2307 17.7417 24.2307C17.42 24.2307 17.0519 24.1964 16.6582 24.1223C16.6227 24.1143 16.5864 24.1107 16.55 24.1115C16.5015 24.1115 16.4977 24.1202 16.4849 24.1441L16.42 24.2522L16.2901 24.4581L16.0516 24.4041L15.0118 24.1548L14.871 24.393L14.8929 24.4148L15.0229 24.5555L14.9688 24.7396C14.8922 24.9773 14.6437 25.2588 14.5678 25.3354L14.3078 25.6061L14.0697 25.3136L13.8853 25.0862C13.6981 24.8765 13.6607 24.5562 13.7664 24.2197L13.7557 24.2307L13.4631 24.3496L13.3224 24.0574L13.2357 23.8516C13.1451 23.6458 13.1279 23.4151 13.187 23.1982C13.2462 22.9813 13.378 22.7912 13.5605 22.6599L14.4052 22.1833L15.1962 22.3459C15.2152 22.2693 15.2492 21.9934 15.2717 21.9234L15.2287 21.9126L14.7629 22.0859L14.3186 21.7826C14.3186 21.7826 14.1504 21.6139 14.3078 21.4468L14.7303 20.7969L13.6472 19.4323L15.3154 20.1144L15.4235 19.9848L15.6509 19.7137L15.9109 19.9522C15.9833 20.0222 16.0204 20.1151 16.0408 20.2011C16.5011 20.3806 17.333 20.9005 17.4058 21.7608L17.1458 21.8693V21.88C17.2051 21.9504 17.2498 21.975 17.2647 21.9778L18.4671 22.0967L18.5756 22.0644C18.7239 22.0138 18.9395 21.9452 19.2037 21.9452C19.4189 21.9452 19.6317 21.9927 19.8321 22.0859C19.9052 22.0582 19.9981 22.0388 20.1028 22.0319L20.1568 22.0208C20.7953 22.0208 21.1155 22.5064 21.37 22.8873L21.4999 23.0717C21.6808 23.3339 21.8541 23.6011 22.0199 23.873L22.1498 24.0789L21.9984 24.263C21.8743 24.4065 21.6791 24.5774 21.3592 24.5774C21.2865 24.5769 21.214 24.5696 21.1426 24.5555C21.0746 24.543 21.0178 24.5153 20.9585 24.4907L20.926 24.6962L20.7093 25.7905C21.9606 25.4824 22.7564 24.5326 22.7564 23.1798V19.0964H11.9034Z" fill="#FFF042"/>
<path d="M17.3304 0L16.3339 0.985756L15.3049 0.455097L14.7635 1.59232L13.7451 1.48383C14.316 2.3708 14.4817 3.36869 14.4817 3.36869C15.048 2.91949 16.0601 2.50217 17.3304 2.50217C18.6028 2.50217 19.6167 2.91949 20.1792 3.36869C20.1792 3.36869 20.356 2.37115 20.9265 1.48383L19.8974 1.59232L19.356 0.455097L18.3269 0.985756L17.3304 0ZM17.3304 0.563239L18.0452 1.27829L18.251 1.47309L18.511 1.34311L19.1716 0.996501L19.5401 1.76563L19.6593 2.02558L19.9408 1.993L20.2115 1.96077C20.1016 2.21085 20.0076 2.46762 19.93 2.72954C19.2125 2.33025 18.2815 2.10149 17.3304 2.10149C16.3839 2.10149 15.4508 2.33025 14.7309 2.72954C14.6529 2.46777 14.5589 2.21103 14.4494 1.96077L14.7201 1.993L15.0016 2.02558L15.1316 1.76563L15.4893 0.996501L16.1499 1.34311L16.4098 1.47309L16.6157 1.27829L17.3304 0.563239ZM17.3304 3.14132C15.7617 3.14132 14.3409 3.91079 14.3409 4.75513L14.3735 4.96101L14.9908 8.55708L14.3628 8.91443L12.7379 9.86761C12.7233 9.87523 12.3736 10.0575 12.2072 10.1709C11.5871 10.601 11.4572 11.2329 11.8173 11.4925C11.9057 10.9802 12.3046 10.4416 13.063 10.4416C13.6086 10.4416 14.0273 10.7237 14.3628 11.1459C14.4494 11.2527 14.5354 11.3698 14.6116 11.4925C14.7059 11.6471 14.7995 11.7847 14.8934 11.9147H10.7015C11.0097 12.5344 11.2974 13.1843 11.2974 13.8969V23.1795C11.2974 25.4265 13.0245 26.5048 14.8934 26.5048C16.3378 26.5048 16.5336 26.4365 17.3304 27.2306C18.1235 26.4365 18.3221 26.5048 19.7675 26.5048C21.6374 26.5048 23.3635 25.4265 23.3635 23.1795V13.8969C23.3635 13.1843 23.6498 12.5344 23.9593 11.9147H19.7675C19.861 11.7847 19.9546 11.6471 20.0492 11.4925C20.1265 11.3698 20.2135 11.2527 20.2981 11.1459C20.6367 10.7223 21.052 10.4416 21.5979 10.4416C22.3556 10.4416 22.7538 10.9802 22.8436 11.4925C23.2037 11.2329 23.0769 10.601 22.4537 10.1709C22.2866 10.0551 21.923 9.86761 21.923 9.86761L20.2981 8.91443L19.6701 8.55708L20.2981 4.96101L20.3307 4.75513C20.3307 3.91079 18.9099 3.14132 17.3412 3.14132H17.3304ZM11.7632 3.59607C11.2436 3.59607 10.2544 3.72223 9.44509 4.56033C8.77024 5.25806 8.68463 5.99772 8.71929 6.47743L8.51341 6.48817H8.43785C7.42228 6.48817 6.94015 5.41472 6.92143 5.37244L6.63964 4.70106L6.1738 5.27504C6.14815 5.30935 5.47885 6.14745 5.64314 7.20288C5.75232 7.90441 6.19702 8.5037 6.95367 9.00109C7.03616 9.05377 7.08572 9.10437 7.12697 9.14181C5.69894 9.60557 4.90278 10.6184 4.06191 11.6873L3.94268 11.8391C2.65745 13.4748 0.834981 13.5285 0.61731 13.5285L0 13.507L0.184049 14.1028C0.205886 14.1742 0.758034 15.8466 2.40443 15.8466H2.48033C2.65468 15.8418 2.81793 15.8081 2.95692 15.7814C2.88864 16.6944 2.55312 18.3814 1.03983 19.0094L0.573984 19.2046L0.823196 19.6378C0.847459 19.677 1.41451 20.634 2.68622 20.634C3.24218 20.6326 3.67336 20.4877 3.99675 20.3199C4.05967 20.8431 4.17581 21.3586 4.34336 21.8582C4.80365 23.228 4.37039 24.1919 4.3541 24.2304L4.12672 24.7066L4.64664 24.837C4.68061 24.8453 4.99879 24.9236 5.37244 24.9236C5.54713 24.9236 5.7031 24.9146 5.84902 24.8799C6.18906 24.8016 6.50498 24.6419 6.76962 24.4144C6.90895 24.8432 7.14534 25.3281 7.56023 25.7575C8.26662 26.4826 9.28842 26.8514 10.6149 26.8514L11.4166 26.8407L10.9722 26.1582C10.9712 26.1541 10.7182 25.7617 10.6367 24.6851C10.5411 23.3957 10.0458 22.637 9.56432 22.2048C9.70331 22.1386 9.83468 22.054 9.94351 21.9556C10.6506 21.3199 10.6197 20.5747 10.6149 20.4932L10.5931 20.0926L10.1816 20.0818C9.10264 20.0645 8.35605 19.7501 7.74463 19.042C7.6107 18.8869 7.49098 18.7201 7.38693 18.5436C7.72348 18.6469 8.13422 18.7169 8.62189 18.7169C8.75257 18.7169 8.88982 18.7155 9.03332 18.7061C9.79309 18.641 10.3088 18.1821 10.3657 18.1321L10.7882 17.753L10.3116 17.4389C9.23782 16.7523 8.13595 15.4542 8.97925 13.1711C9.5255 11.687 10.7837 10.3438 12.8353 9.05516C13.5275 8.61774 13.9077 8.10649 13.9077 7.61465C13.9077 6.85419 13.2796 6.55056 12.8138 6.33636C12.5868 6.22787 12.3441 6.12285 12.2287 5.98975C11.8679 5.57208 12.1757 4.76656 12.5105 4.33261L12.9438 3.76937L12.2395 3.63939C12.2193 3.63731 12.0415 3.59607 11.7632 3.59607ZM22.8977 3.59607C22.6204 3.59607 22.4415 3.63731 22.4214 3.63939L21.7282 3.76937L22.1504 4.33261C22.4852 4.76656 22.7923 5.57208 22.4322 5.98975C22.3164 6.12285 22.0842 6.22787 21.8578 6.33636C21.392 6.55056 20.7532 6.85419 20.7532 7.61465C20.7532 8.10649 21.1334 8.61774 21.8256 9.05516C23.8741 10.3438 25.1354 11.687 25.6816 13.1711C26.5263 15.4542 25.43 16.7523 24.36 17.4389L23.8727 17.753L24.2952 18.1321C24.3517 18.1817 24.8678 18.641 25.6276 18.7061C25.7714 18.7155 25.9101 18.7169 26.039 18.7169C26.5253 18.7169 26.9371 18.6469 27.274 18.5436C27.1747 18.7204 27.0586 18.8874 26.9273 19.042C26.3156 19.7501 25.561 20.0645 24.4792 20.0818L24.0786 20.0926L24.046 20.4932C24.0422 20.5747 24.0099 21.3199 24.7174 21.9556C24.8259 22.054 24.959 22.1386 25.0966 22.2048C24.6162 22.637 24.1295 23.3957 24.0352 24.6851C23.9552 25.7617 23.7028 26.1541 23.6994 26.1582L23.2554 26.8407L24.0567 26.8514C25.3839 26.8514 26.3963 26.4826 27.1007 25.7575C27.5166 25.3281 27.7509 24.8432 27.8913 24.4144C28.1562 24.6414 28.472 24.8011 28.8119 24.8799C28.9592 24.9146 29.1242 24.9236 29.2992 24.9236C29.6739 24.9236 29.99 24.8453 30.025 24.837L30.5342 24.7066L30.3068 24.2304C30.2901 24.1919 29.8572 23.228 30.3175 21.8582C30.5154 21.2651 30.6257 20.7334 30.6749 20.3199C30.9979 20.488 31.4267 20.6326 31.9854 20.634C33.255 20.634 33.8127 19.677 33.8377 19.6378L34.0869 19.2046L33.6211 19.0094C32.1081 18.3814 31.782 16.6944 31.7147 15.7814C31.8513 15.8081 32.0041 15.8418 32.1806 15.8466H32.2561C33.9018 15.8466 34.4543 14.1742 34.4768 14.1028L34.6609 13.507L34.0436 13.5285C33.8263 13.5285 32.0052 13.4748 30.7182 11.8391L30.599 11.6873C29.7578 10.6184 28.9599 9.60557 27.5339 9.14181C27.5748 9.10437 27.6369 9.05377 27.718 9.00109C28.4746 8.5037 28.9179 7.90441 29.0285 7.20288C29.1904 6.14745 28.5166 5.30935 28.4871 5.27504L28.0212 4.70106L27.7395 5.37244C27.7204 5.41472 27.2358 6.48817 26.223 6.48817H26.1475L25.9523 6.47743C25.988 5.99772 25.9003 5.25771 25.2265 4.56033C24.4165 3.72223 23.4169 3.59607 22.8977 3.59607ZM17.3304 3.68272C18.5935 3.68411 19.5418 4.09588 19.746 4.58182L17.3304 5.535L14.9149 4.58182C15.1205 4.09588 16.0695 3.68411 17.3304 3.68272ZM11.7632 4.04042C12.0076 4.04042 12.1639 4.06191 12.1639 4.06191C11.7071 4.6605 11.3754 5.65839 11.9039 6.27154C12.3611 6.79873 13.4744 6.82958 13.4744 7.61465C13.4744 7.94774 13.1656 8.32797 12.6079 8.67597C10.9289 9.73312 9.26104 11.1407 8.56782 13.0197C7.70303 15.3641 8.68013 16.9149 10.0731 17.807C10.0731 17.807 9.63469 18.2108 9.00109 18.2621C8.87215 18.2746 8.74182 18.2836 8.62189 18.2836C7.2871 18.2836 6.59631 17.6556 6.59631 17.6556C6.59631 17.6556 6.71763 18.5193 7.40876 19.3234C8.0545 20.0655 8.89641 20.5078 10.1816 20.5258C10.1816 20.5258 10.2191 21.1255 9.65098 21.6416C9.286 21.9677 8.44859 22.0641 8.44859 22.0641C8.44859 22.0641 10.0191 22.3816 10.1924 24.7066C10.2867 25.9669 10.6042 26.4074 10.6042 26.4074H10.5823C6.92836 26.4074 7.01883 23.2772 7.01883 23.2772C7.01883 23.2772 6.76996 24.2047 5.75163 24.4467C5.62762 24.4774 5.50018 24.492 5.37244 24.4903C5.04455 24.4903 4.75513 24.4144 4.75513 24.4144C4.75513 24.4144 5.28475 23.2925 4.75513 21.7175C4.31701 20.4108 4.38668 19.4427 4.38668 19.4427C4.38668 19.4427 3.89658 20.183 2.67547 20.19H2.66473C1.64882 20.19 1.20239 19.4208 1.20239 19.4208C3.63662 18.4098 3.40127 15.1426 3.40127 15.1426C3.40127 15.1426 3.08724 15.3804 2.46959 15.4026H2.40443C1.06166 15.4026 0.606219 13.9618 0.606219 13.9618H0.6388C0.886972 13.9618 2.87928 13.9132 4.28894 12.1206C5.21785 10.9417 5.97276 9.89672 7.47323 9.48842L7.62505 9.46693L7.65763 9.31511C7.69922 9.086 7.54845 8.87561 7.19179 8.64373C5.11803 7.28572 6.52006 5.54574 6.52006 5.54574C6.52006 5.54574 7.10895 6.93218 8.4375 6.93218H8.5349C8.68394 6.92386 8.83298 6.9197 8.9789 6.88885L9.22811 6.83478C9.22811 6.83478 8.84476 5.80674 9.75877 4.86327C10.4458 4.15133 11.28 4.04042 11.7629 4.04042H11.7632ZM22.8977 4.04042C23.3808 4.04042 24.2151 4.15133 24.9018 4.86327C25.8137 5.80674 25.4432 6.83478 25.4432 6.83478L25.6816 6.88885C25.8276 6.9197 25.9749 6.9242 26.1256 6.93218H26.223C27.5481 6.93218 28.1405 5.54574 28.1405 5.54574C28.1405 5.54574 29.5536 7.28572 27.4795 8.64373C27.1228 8.87561 26.9613 9.086 27.0029 9.31511L27.0355 9.46693L27.1873 9.48842C28.6899 9.89638 29.443 10.9417 30.3716 12.1206C31.7826 13.9132 33.7864 13.9618 34.0328 13.9618H34.0543C34.0543 13.9618 33.5982 15.4026 32.2561 15.4026H32.1913C31.575 15.3804 31.26 15.1426 31.26 15.1426C31.26 15.1426 31.0229 18.4098 33.4585 19.4208C33.4585 19.4208 33.0128 20.19 31.9962 20.19H31.9854C30.7653 20.183 30.2742 19.4427 30.2742 19.4427C30.2742 19.4427 30.3453 20.4104 29.9058 21.7175C29.3761 23.2925 29.9058 24.4144 29.9058 24.4144C29.9058 24.4144 29.6271 24.4903 29.2992 24.4903C29.1737 24.4903 29.0437 24.4789 28.9204 24.4467C27.9013 24.2047 27.6421 23.2772 27.6421 23.2772C27.6421 23.2772 27.7322 26.4074 24.0786 26.4074H24.0567C24.0567 26.4074 24.3735 25.9669 24.4685 24.7066C24.6422 22.3816 26.223 22.0641 26.223 22.0641C26.223 22.0641 25.3742 21.9677 25.0099 21.6416C24.4408 21.1255 24.49 20.5258 24.49 20.5258C25.7756 20.5078 26.6105 20.0659 27.2521 19.3234C27.9474 18.5197 28.0646 17.6556 28.0646 17.6556C28.0646 17.6556 27.3752 18.2836 26.039 18.2836C25.9215 18.2836 25.7887 18.2746 25.6598 18.2621C25.0272 18.2108 24.5985 17.807 24.5985 17.807C25.9898 16.9149 26.9585 15.3638 26.0931 13.0197C25.3995 11.1407 23.7417 9.73312 22.0637 8.67597C21.506 8.32797 21.1865 7.94774 21.1865 7.61465C21.1865 6.82958 22.3105 6.79873 22.768 6.27154C23.2963 5.65839 22.966 4.6605 22.5081 4.06191C22.5081 4.06191 22.6547 4.04042 22.8977 4.04042ZM14.9475 5.1669L17.1571 5.91419V9.38027L15.5322 8.5245L14.9475 5.1669ZM19.7134 5.1669L19.1286 8.5245L17.5037 9.38027V5.91419L19.7134 5.1669ZM15.6841 6.34745C15.6841 6.34745 15.6879 6.66875 16.1388 7.01883C16.4119 7.23511 16.5672 7.26458 16.5721 7.26804L16.6806 7.32211V6.76962L15.6841 6.34745ZM18.9876 6.34745L17.9803 6.76962V7.32211L18.0888 7.26804C18.094 7.26458 18.2496 7.23511 18.5221 7.01883C18.9744 6.66875 18.9876 6.34745 18.9876 6.34745ZM26.9163 7.73388C26.9163 7.73388 25.5156 8.76297 22.6596 7.83128C23.4495 8.34426 24.9825 9.06382 26.3856 10.2357C29.8915 13.3171 27.3928 16.3232 27.3928 16.3232C28.6528 15.0078 28.6954 13.6068 28.3245 12.4564C28.9879 13.5607 29.4195 14.8972 29.3536 16.5506C29.2569 18.9186 27.9498 20.9709 26.5807 22.6162C25.9222 23.4145 25.779 24.3926 25.779 24.3926C25.779 24.3926 26.0463 23.5288 26.8081 22.6381C28.2757 20.9196 29.5248 19.1335 29.6891 16.5613C29.8406 17.0285 30.4742 18.3256 31.4655 18.8143C31.4655 18.8143 30.2187 18.0621 29.6565 15.1534V15.1319C29.2798 12.1632 27.1197 10.0239 24.7174 8.71964C24.4952 8.59971 24.2886 8.50231 24.0893 8.40526C24.822 8.5193 26.005 8.52415 26.9163 7.73388ZM7.82019 7.77721C8.72276 8.51653 9.86622 8.51687 10.5823 8.40526C10.3844 8.50231 10.175 8.59971 9.95426 8.71964C7.54533 10.0274 5.37486 12.1733 5.00434 15.1534C4.44283 18.0621 3.20613 18.8143 3.20613 18.8143C4.19674 18.3256 4.81994 17.0285 4.97176 16.5613C5.13744 19.1335 6.39597 20.9196 7.86386 22.6381C8.62501 23.5288 8.8926 24.3926 8.8926 24.3926C8.8926 24.3926 8.74182 23.4145 8.08015 22.6162C6.71347 20.9712 5.41368 18.9186 5.31837 16.5506C5.24974 14.8976 5.67191 13.5611 6.33636 12.4564C5.97762 13.5708 6.02094 14.9135 7.17064 16.1932C6.73808 15.5759 5.20607 12.932 8.27529 10.2357C9.67767 9.06382 11.2114 8.34426 12.0013 7.83128C9.50332 8.6465 8.12624 7.96057 7.82019 7.77721ZM4.2567 8.24271C3.76729 8.24271 3.30977 8.44547 2.93543 8.82778C2.02385 9.75808 1.21036 9.83433 1.18055 9.83503L0.541403 9.86761L0.80136 10.4527C1.06374 11.0339 1.76251 11.4599 2.44775 11.4599C2.62418 11.4599 2.79401 11.4287 2.95692 11.3733C3.41583 11.2211 3.71045 10.8541 4.01858 10.4742C4.33365 10.086 4.68269 9.65306 5.29653 9.3262L5.92493 8.9796L5.33986 8.56782C5.29098 8.53698 4.85287 8.24271 4.2567 8.24271ZM30.4042 8.24271C29.8073 8.24271 29.3696 8.53698 29.321 8.56782L28.736 8.9796L29.3644 9.3262C29.9779 9.65306 30.3397 10.0856 30.6534 10.4742C30.9615 10.8537 31.2568 11.2215 31.7147 11.3733C31.8769 11.4287 32.0478 11.4599 32.2239 11.4599C32.9102 11.4599 33.5978 11.0343 33.8595 10.4527L34.1195 9.86761L33.4803 9.83503C33.4502 9.83433 32.6363 9.75808 31.7255 8.82778C31.3511 8.44582 30.8922 8.24271 30.4042 8.24271ZM4.2567 8.68706C4.73017 8.68706 5.09099 8.93592 5.09099 8.93592C3.81096 9.61805 3.54754 10.7154 2.8162 10.9615C2.69558 11.0045 2.57288 11.0156 2.44775 11.0156C1.91016 11.0156 1.3795 10.6658 1.20204 10.2683C1.20204 10.2683 2.18987 10.2076 3.24911 9.13106C3.58809 8.78203 3.94822 8.68706 4.25636 8.68706H4.2567ZM30.4042 8.68706C30.7106 8.68706 31.0735 8.78203 31.4114 9.13106C32.472 10.2076 33.4585 10.2683 33.4585 10.2683C33.2793 10.6655 32.7622 11.0156 32.2239 11.0156C32.0994 11.0156 31.9684 11.0045 31.8447 10.9615C31.1151 10.7154 30.8621 9.6177 29.581 8.93592C29.581 8.93592 29.9279 8.68706 30.4042 8.68706ZM15.2941 9.00109L17.3304 10.1061H17.3412L19.3775 9.00109L20.1359 9.43435L20.8724 9.86761H20.8832L21.078 9.97575C20.6593 10.0919 20.3397 10.3078 20.0707 10.5823L20.0382 10.6042C19.9768 10.67 19.913 10.7476 19.8541 10.8208L19.8219 10.8641C19.7647 10.9379 19.711 11.0131 19.6593 11.0915L19.6267 11.1348C19.5654 11.2267 19.512 11.315 19.4534 11.4166C18.9252 12.3261 18.0795 12.8776 17.3304 12.8789C16.5821 12.8776 15.7347 12.3261 15.2075 11.4166C15.1524 11.3211 15.0946 11.2271 15.0342 11.1348L15.0016 11.0807C14.9503 11.0048 14.9024 10.9338 14.8501 10.8641L14.8068 10.81C14.7496 10.7397 14.6931 10.6794 14.6335 10.6149L14.6009 10.5716C14.3256 10.285 13.9774 10.079 13.5937 9.97575L13.7777 9.86761H13.7884L14.525 9.43435L15.2941 9.00109ZM16.5072 10.5175V11.1133C16.7114 10.8651 17.1031 10.9182 17.1031 10.9182V11.7632C17.1031 11.7632 17.0896 12.1882 16.9405 12.3698H17.7963C17.6493 12.1882 17.6337 11.7632 17.6337 11.7632V10.9182C17.6337 10.9182 18.0271 10.8651 18.2295 11.1133V10.5175H16.5072ZM11.6007 12.5212H15.4133C15.7752 12.8807 16.1274 13.1025 16.4639 13.2256C16.4202 13.3985 16.3561 13.7566 16.518 14.1136C16.6507 14.4013 16.8965 14.6265 17.2438 14.7742C17.2727 15.0259 17.3711 15.2645 17.5279 15.4635C17.6847 15.6624 17.8938 15.8138 18.1318 15.9007C17.859 16.1755 17.5894 16.4244 17.4823 16.5291L14.9583 16.4965C14.9014 16.4681 14.8068 16.4033 14.7635 16.3125L14.7416 16.2799L15.1534 16.345H15.1749C15.2143 16.3447 15.2523 16.3303 15.2821 16.3044C15.3119 16.2786 15.3315 16.243 15.3374 16.204C15.351 16.1128 15.2962 16.0341 15.2075 16.0199L14.6983 15.944L15.2615 13.9943L14.7309 12.8789L13.8751 13.7777L13.821 15.8033L13.247 15.7059C13.1583 15.6886 13.0782 15.7568 13.063 15.8466C13.0591 15.8672 13.0594 15.8884 13.0639 15.9089C13.0683 15.9294 13.0769 15.9489 13.0889 15.966C13.101 15.9832 13.1164 15.9977 13.1342 16.0088C13.152 16.0199 13.1719 16.0274 13.1926 16.0307L13.4418 16.074L13.2904 16.1606L13.2363 16.1932L13.2252 16.2584C13.0859 16.8251 13.4041 17.3606 13.7451 17.6011L13.7344 17.6771C13.7265 17.7184 13.7272 17.7609 13.7365 17.8019C13.7458 17.843 13.7635 17.8816 13.7884 17.9155C13.8142 17.9504 13.8465 17.9799 13.8837 18.0022C13.9209 18.0245 13.9622 18.0393 14.0051 18.0455L14.0484 18.0562C14.1961 18.0562 14.3267 17.9453 14.3628 17.7963C14.4896 17.8115 14.6078 17.8181 14.6875 17.8181H14.7524L18.067 18.4136L18.1211 18.381C18.3848 18.197 19.3942 17.4653 19.7241 17.2223C19.8149 17.3003 19.9158 17.3693 20.0382 17.4278C19.9314 17.7859 19.9304 18.3363 20.3525 18.7713H11.9039V13.8969C11.9039 13.4255 11.7639 12.9597 11.6007 12.5212ZM19.2583 12.5212H23.0602C22.8942 12.9597 22.757 13.4255 22.757 13.8969V16.9516C22.1206 16.8445 22.0447 16.1579 22.0422 16.1281L22.0312 15.9873L21.8904 15.9766C21.6138 15.9499 21.4385 15.8345 21.2839 15.6841C20.9719 15.3721 20.9691 14.8654 20.9698 14.8609C20.9653 14.8869 20.6305 15.3603 21.0239 15.8792C21.1892 16.0972 21.4287 16.2268 21.739 16.2799C21.8117 16.6601 22.0894 17.2057 22.757 17.2871V18.7713H20.8832C20.0174 18.2895 20.3792 17.4427 20.3959 17.4064L20.4714 17.2438L20.3092 17.179C19.3713 16.8313 19.625 15.8979 19.6375 15.8574L19.6808 15.7274L19.5508 15.6626C18.7772 15.3035 18.8798 14.3385 18.8902 14.2976C18.6517 14.491 18.5637 14.8865 18.7276 15.2726C18.6187 15.3946 18.5067 15.5137 18.3918 15.63C18.1662 15.581 17.9633 15.4589 17.8144 15.2825C17.6656 15.1061 17.5793 14.8855 17.5689 14.655V14.5361L17.4604 14.5035C17.1474 14.3877 16.9277 14.2061 16.8213 13.9728C16.7027 13.7143 16.7454 13.4425 16.7779 13.3122C16.8701 13.333 16.9617 13.3483 17.049 13.3552C17.1391 13.3642 17.2376 13.377 17.3304 13.377H17.3412C17.4341 13.377 17.5214 13.3642 17.6119 13.3552C18.1117 13.306 18.6756 13.0994 19.2583 12.5212ZM14.6335 13.4529L14.9042 14.0269L14.3735 15.8899L14.1458 15.8574L14.2002 13.9188L14.6335 13.4529ZM18.9117 15.5652C19.0091 15.6872 19.1311 15.7988 19.2909 15.9007C19.2364 16.197 19.2534 16.6182 19.4967 16.9731C19.1623 17.2199 18.3041 17.8486 17.9911 18.067L14.9801 17.5256L15.0016 17.4497C15.0554 17.2444 15.0845 17.0334 15.0882 16.8213L17.6119 16.8649L17.6663 16.8213C17.7048 16.7831 18.5034 16.0102 18.9117 15.5652ZM14.0917 16.204C14.2619 16.204 14.3787 16.2816 14.4602 16.4532C14.5312 16.6029 14.6626 16.6996 14.7524 16.7565C14.7496 16.8965 14.7354 17.1169 14.6983 17.309L14.6657 17.4278L14.6442 17.493C14.5111 17.493 14.2519 17.4732 14.0377 17.3956C13.8013 17.3083 13.4474 16.8774 13.5285 16.3991C13.6307 16.3364 13.8699 16.204 14.0917 16.204ZM11.9039 19.0961H22.757V23.1795C22.757 24.5326 21.9611 25.482 20.7099 25.7901L20.9265 24.6959L20.9591 24.4903C21.0184 24.5149 21.0752 24.5423 21.1431 24.5552C21.2218 24.5697 21.2939 24.577 21.3598 24.577C21.6797 24.577 21.8748 24.4061 21.9989 24.2626L22.1504 24.0786L22.0204 23.8727C21.855 23.6005 21.6816 23.3333 21.5005 23.0713L21.3705 22.8869C21.1161 22.5064 20.7962 22.0204 20.1574 22.0204L20.1033 22.0315C19.9983 22.0381 19.9057 22.0578 19.8326 22.0856C19.636 21.9931 19.4215 21.9451 19.2042 21.9448C18.9397 21.9448 18.7245 22.0138 18.5762 22.0641L18.4677 22.0963L17.2653 21.9774C17.2504 21.9743 17.2057 21.95 17.1464 21.8797V21.8689L17.4064 21.7605C17.3332 20.9002 16.5017 20.3799 16.0414 20.2007C16.0213 20.1148 15.9839 20.0222 15.9114 19.9518L15.6515 19.7134L15.4241 19.9844L15.316 20.1141L13.6477 19.4319L14.7309 20.7965L14.3084 21.4464C14.1513 21.6131 14.3191 21.7823 14.3191 21.7823L14.7635 22.0856L15.2293 21.9123L15.2723 21.923C15.2501 21.993 15.2158 22.2689 15.1967 22.3455L14.4058 22.183L13.5611 22.6596C13.1306 22.976 13.0762 23.5035 13.2363 23.8619L13.323 24.0571L13.4637 24.3493L13.7562 24.2304L13.767 24.2193C13.6612 24.5562 13.6987 24.8765 13.8858 25.0858L14.0702 25.3132L14.2976 25.6057L14.5683 25.335C14.6446 25.2588 14.8931 24.9773 14.9693 24.7392L15.0234 24.5552L14.8934 24.4144L14.8716 24.3926L15.0123 24.1545L16.0521 24.4037L16.2906 24.4578L16.4206 24.2519L16.4854 24.1437C16.4982 24.1198 16.5024 24.1112 16.5506 24.1112C16.5877 24.1112 16.6192 24.1129 16.6587 24.1219C17.0521 24.1961 17.4202 24.2304 17.7422 24.2304C18.0542 24.2304 18.2347 24.228 18.4569 24.1545C18.4569 24.1545 19.0226 24.7801 19.042 24.8044L18.6954 25.8657L18.6843 25.9308C18.0358 25.9828 17.7121 26.1236 17.3304 26.5048C16.7762 25.9551 16.3825 25.8983 14.8934 25.8983C13.1105 25.8983 11.9039 24.8491 11.9039 23.1795V19.0961ZM14.525 20.0711L15.4133 20.5151L15.6841 20.19C15.7586 20.2628 15.7274 20.4499 15.7274 20.4499C16.0029 20.4565 16.78 20.8912 16.8213 21.8908V21.9882L16.8431 22.0204C16.8972 22.096 17.0417 22.2842 17.233 22.3022L18.4569 22.4214H18.4677C18.6015 22.4214 18.8618 22.2696 19.2042 22.2696C19.3907 22.2696 19.6004 22.3143 19.8219 22.4537C19.8219 22.4537 19.9338 22.3653 20.1141 22.3563H20.1574C20.7054 22.3563 20.9355 22.855 21.2298 23.2661C21.4509 23.5798 21.739 24.046 21.739 24.046C21.6294 24.1753 21.53 24.2411 21.3598 24.2411C21.313 24.2411 21.2662 24.2415 21.2083 24.2304C20.6201 24.1215 20.5362 22.9063 20.2007 22.8114H20.1466C20.0385 22.8114 19.9841 22.9088 19.9841 22.9088C20.1373 23.3212 20.0572 23.4793 20.2225 23.7971C20.3456 24.0325 20.5546 24.2252 20.6447 24.317C20.6447 24.317 20.6274 24.4976 20.6017 24.6311L20.3633 25.8549C20.2135 25.8761 20.0603 25.8917 19.8974 25.8983L20.1466 24.7177C20.2205 24.3694 19.2767 24.2657 18.8143 23.5801C18.5886 23.8342 18.1696 23.9053 17.7422 23.9053C17.3523 23.9053 16.9613 23.8436 16.7239 23.7971C16.6665 23.7887 16.6085 23.785 16.5506 23.786C16.414 23.786 16.2903 23.8262 16.204 23.9704L16.1281 24.0786L14.8609 23.786L14.5361 24.3059C14.4914 24.3916 14.4962 24.464 14.5683 24.5444L14.6442 24.6418C14.5846 24.8276 14.3191 25.1077 14.3191 25.1077L14.1351 24.8692C13.985 24.7018 14.0113 24.3954 14.1676 24.1112L14.6768 23.2554L15.7492 23.4068L15.5867 23.028C15.3607 22.5216 15.7014 21.8828 15.7381 21.5116C15.7256 21.6239 15.6196 21.6416 15.5 21.6416C15.3908 21.6416 15.2775 21.6197 15.1967 21.6197C15.1698 21.6193 15.1434 21.6269 15.1208 21.6416L14.8283 21.8149L14.6009 21.609C14.5813 21.579 14.5728 21.5431 14.5768 21.5075C14.5807 21.4719 14.597 21.4388 14.6227 21.4138L15.1641 20.8073L14.525 20.0711ZM15.3374 20.8724C15.3168 20.8797 15.2986 20.8927 15.2852 20.91C15.2717 20.9272 15.2635 20.948 15.2615 20.9698C15.2606 20.9848 15.2627 20.9999 15.2677 21.0141C15.2727 21.0282 15.2804 21.0413 15.2906 21.0524C15.3007 21.0635 15.3129 21.0725 15.3266 21.0788C15.3402 21.0851 15.355 21.0886 15.37 21.0891C15.3843 21.0906 15.3987 21.0893 15.4124 21.0852C15.4261 21.0811 15.4389 21.0744 15.45 21.0653C15.4611 21.0562 15.4703 21.0451 15.477 21.0324C15.4838 21.0198 15.4879 21.0059 15.4893 20.9917C15.49 20.9616 15.4792 20.9325 15.459 20.9102C15.4388 20.888 15.4107 20.8745 15.3808 20.8724H15.3374ZM14.4383 22.5081L15.1641 22.6596C15.1506 22.8904 15.2941 23.0713 15.2941 23.0713L14.525 22.9195L14.0702 23.2335C13.9926 23.2876 13.9867 23.3906 14.0269 23.4827L14.0917 23.6238C14.0543 23.7469 13.6259 23.916 13.6259 23.916L13.5392 23.7212C13.4811 23.5842 13.471 23.4317 13.5103 23.2882C13.5497 23.1447 13.6363 23.0187 13.7562 22.9306L14.4383 22.5081ZM19.0309 24.2626C19.3082 24.4288 19.5938 24.5807 19.8867 24.7177C19.8645 24.7541 19.4753 25.8983 19.4753 25.8983C19.3103 25.8983 19.156 25.9038 19.0202 25.909L19.3775 24.7933C19.4337 24.639 19.1481 24.437 19.0309 24.2626ZM12.1854 26.6889L12.3698 27.3928L12.5538 28.032L11.9254 28.2705L11.2215 28.5304C12.0183 28.9151 13.1243 29.4777 14.1351 29.7543L13.8969 30.4042C13.8969 30.4042 15.1842 30.9945 17.3197 31H17.3412C19.4794 30.9945 20.764 30.4042 20.764 30.4042L20.5258 29.7543C21.5369 29.4777 22.646 28.9151 23.4394 28.5304L22.7462 28.2705L22.1178 28.032L22.2911 27.3928L22.4862 26.6889C22.4862 26.6889 21.3719 27.2885 19.8108 27.7395C19.3682 27.8663 19.0309 27.9238 19.0309 27.9238V28.4004C19.0309 28.4004 18.1952 28.5412 17.3519 28.5412H17.309C16.4646 28.5412 15.63 28.4004 15.63 28.4004V27.9238C15.63 27.9238 15.292 27.8663 14.8501 27.7395C13.2893 27.2885 12.1854 26.6889 12.1854 26.6889ZM12.6945 27.2414C13.1479 27.4979 14.1642 27.8854 14.7524 28.0646L14.2543 29.4295C13.3451 29.1793 12.5895 28.8857 11.9688 28.5737L12.9978 28.2379L12.6945 27.2414ZM21.9771 27.2414L21.6738 28.2379L22.6921 28.5737C22.0707 28.8857 21.3189 29.1793 20.4066 29.4295L19.9193 28.0646C20.5085 27.8854 21.523 27.4979 21.9771 27.2414ZM14.9801 28.5845C15.4865 28.7321 16.5447 28.8926 17.309 28.8878H17.3519C18.1162 28.8926 19.172 28.7321 19.6808 28.5845L20.2874 30.2416C19.886 30.3848 18.5224 30.6534 17.3304 30.6534C16.136 30.6534 14.7752 30.3848 14.3735 30.2416L14.9801 28.5845Z" fill="black"/>
</g>
</svg>
