<svg width="30" height="30" viewBox="0 0 30 30" fill="none" xmlns="http://www.w3.org/2000/svg">
<path fill-rule="evenodd" clip-rule="evenodd" d="M11.8859 29.5171C13.3499 26.979 14.1563 22.1502 14.4665 13.6938H15.5335C15.8437 22.1626 16.6501 26.9913 18.1017 29.5171C17.134 29.8267 16.0794 30 15 30C13.9206 30 12.8784 29.839 11.8859 29.5171ZM15.0124 13.0747C19.9628 13.0747 24.1811 16.492 24.1811 20.8997C24.1811 22.2988 23.7221 23.7227 22.8412 25.0351C20.4963 22.8312 18.4243 18.7949 17.6303 14.0157C17.5434 13.9785 16.8362 13.8176 16.2903 13.7804C16.2903 14.4738 16.8734 24.7379 20.5087 28.378C23.201 26.5827 25 23.4874 25 20.0083C25 15.2291 21.6625 11.2299 17.1836 10.2394C16.9479 7.02022 16.9479 5.72018 16.9231 4.12299H16.129C16.129 4.13537 16.1663 8.60504 16.1787 10.0784C15.9057 10.0413 15.6328 10.0289 15.335 10.0041C15.335 7.42881 15.335 2.73628 15.3226 0H14.665C14.6526 2.73628 14.6526 7.44119 14.6526 10.0041C14.3548 10.0165 14.0819 10.0413 13.8089 10.0784C13.8213 8.60504 13.8586 4.14775 13.8586 4.12299H13.0521C13.0521 5.72018 13.0521 7.02022 12.8164 10.2394C8.33747 11.2299 5 15.2291 5 20.0083C5 23.4998 6.77419 26.5827 9.49131 28.378C13.1266 24.7379 13.7097 14.4738 13.7097 13.7804C13.1638 13.8176 12.4566 13.9785 12.3697 14.0157C11.5633 18.7949 9.50372 22.8312 7.15881 25.0351C6.26551 23.735 5.81886 22.2988 5.81886 20.8997C5.84367 16.4796 10.0372 13.0747 15.0124 13.0747Z" fill="#05387C"/>
</svg>
