<svg width="22" height="33" viewBox="0 0 22 33" fill="none" xmlns="http://www.w3.org/2000/svg">
<g style="mix-blend-mode:luminosity">
<path fill-rule="evenodd" clip-rule="evenodd" d="M7.57444 32.4688C9.18486 29.6768 10.072 24.3653 10.4132 15.0631H11.5868C11.928 24.3789 12.8151 29.6905 14.4119 32.4688C13.3474 32.8093 12.1873 33 11 33C9.81265 33 8.66625 32.8229 7.57444 32.4688ZM11.0136 14.3822C16.4591 14.3822 21.0993 18.1411 21.0993 22.9897C21.0993 24.5287 20.5943 26.0949 19.6253 27.5386C17.0459 25.1143 14.7667 20.6744 13.8933 15.4173C13.7978 15.3764 13.0199 15.1993 12.4194 15.1585C12.4194 15.9212 13.0608 27.2117 17.0596 31.2158C20.0211 29.241 22 25.8362 22 22.0091C22 16.752 18.3288 12.3529 13.402 11.2633C13.1427 7.72225 13.1427 6.2922 13.1154 4.53529H12.2419C12.2419 4.54891 12.2829 9.46554 12.2965 11.0863C11.9963 11.0454 11.696 11.0318 11.3685 11.0045C11.3685 8.17169 11.3685 3.00991 11.3548 0H10.6315C10.6179 3.00991 10.6179 8.18531 10.6179 11.0045C10.2903 11.0182 9.99007 11.0454 9.68983 11.0863C9.70347 9.46554 9.74442 4.56253 9.74442 4.53529H8.85732C8.85732 6.2922 8.85732 7.72225 8.59801 11.2633C3.67122 12.3529 0 16.752 0 22.0091C0 25.8498 1.95161 29.241 4.94045 31.2158C8.93921 27.2117 9.58064 15.9212 9.58064 15.1585C8.98015 15.1993 8.20223 15.3764 8.1067 15.4173C7.2196 20.6744 4.95409 25.1143 2.37469 27.5386C1.39206 26.1085 0.900744 24.5287 0.900744 22.9897C0.92804 18.1275 5.54094 14.3822 11.0136 14.3822Z" fill="#05387C"/>
</g>
</svg>
