<svg id="Слой_1" data-name="Слой 1" xmlns="http://www.w3.org/2000/svg" viewBox="0 0 24 23">
  <defs>
    <style>
      .cls-1 {
        fill: #96a5be;
      }

      .cls-2 {
        fill: #f0f3f8;
      }
    </style>
  </defs>
  <title>Монтажная область 1</title>
  <path class="cls-1" d="M14.94,2h2.65V0H14.94Zm0,3.18h6.94V9.94l-2.15.39v2L21,12.11V15H19.81v2h1.35A1.85,1.85,0,0,0,23,15.16V11.78h.05l.83-.14V3.18H14.94Z"/>
  <path class="cls-2" d="M1.06,10.08v5.05a.85.85,0,0,0,.7.83L9,17.18,16.24,16a.85.85,0,0,0,.7-.83V10.08a.84.84,0,0,0-.84-.84H1.9A.84.84,0,0,0,1.06,10.08Z"/>
  <path class="cls-1" d="M6.35,5.06v2h5.3v-2ZM.06,8.24v8.45l.83.14.23,0v6.07H16.88V16.87l.23,0,.83-.14V8.24Zm14.82,12.7H3.12V17.2L8,18v1.22h2V18l4.88-.82ZM15.94,15,10,16v-.87H8V16L2.06,15V10.24H15.94Z"/>
</svg>
