<svg width="20" height="16" viewBox="0 0 20 16" fill="none" xmlns="http://www.w3.org/2000/svg">
<path d="M19 3V4H20V3H19ZM1 3H0V4H1V3ZM19 1H20V0H19V1ZM1 1V0H0V1H1ZM13 15V16H14V15H13ZM1 15H0V16H1V15ZM13 13H14V12H13V13ZM1 13V12H0V13H1ZM19 9V10H20V9H19ZM1 9H0V10H1V9ZM19 7H20V6H19V7ZM1 7V6H0V7H1ZM19 2H1V4H19V2ZM18 1V3H20V1H18ZM1 2H19V0H1V2ZM2 3V1H0V3H2ZM13 14H1V16H13V14ZM12 13V15H14V13H12ZM1 14H13V12H1V14ZM2 15V13H0V15H2ZM19 8H1V10H19V8ZM18 7V9H20V7H18ZM1 8H19V6H1V8ZM2 9V7H0V9H2Z" fill="#96A5BE"/>
</svg>
