<svg width="16" height="14" viewBox="0 0 16 14" fill="none" xmlns="http://www.w3.org/2000/svg">
    <path fill-rule="evenodd" clip-rule="evenodd" d="M6.85291 0.333338L6.74483 0.33331C5.93759 0.332992 5.3797 0.332772 4.86947 0.501042C4.41958 0.649408 4.00649 0.891961 3.65772 1.21253C3.26216 1.57611 2.99052 2.0634 2.59746 2.76849L2.54483 2.86288L1.57768 4.59622L1.52764 4.68584C1.15247 5.35764 0.893098 5.82207 0.789049 6.32609C0.69727 6.77068 0.69727 7.22933 0.789049 7.67392C0.893098 8.17794 1.15247 8.64237 1.52764 9.31417L1.57768 9.40379L2.54483 11.1371L2.59746 11.2315C2.99052 11.9366 3.26216 12.4239 3.65772 12.7875C4.00649 13.108 4.41958 13.3506 4.86947 13.499C5.3797 13.6672 5.93758 13.667 6.74482 13.6667H6.74484L6.85291 13.6667H9.1468L9.25488 13.6667H9.2549C10.0621 13.667 10.62 13.6672 11.1302 13.499C11.5801 13.3506 11.9932 13.108 12.342 12.7875C12.7376 12.4239 13.0092 11.9366 13.4022 11.2315L13.4022 11.2315L13.4549 11.1371L14.422 9.40379L14.4721 9.31418C14.8472 8.64237 15.1066 8.17794 15.2107 7.67392C15.3024 7.22933 15.3024 6.77068 15.2107 6.32609C15.1066 5.82207 14.8472 5.35763 14.4721 4.68583L14.422 4.59622L13.4549 2.86288L13.4022 2.76848C13.0092 2.0634 12.7376 1.57611 12.342 1.21253C11.9932 0.891961 11.5801 0.649408 11.1302 0.501042C10.62 0.332772 10.0621 0.332992 9.25488 0.33331L9.1468 0.333338H6.85291ZM5.28706 1.76729C5.568 1.67464 5.89525 1.66667 6.85291 1.66667H9.1468C10.1045 1.66667 10.4317 1.67464 10.7127 1.76729C10.9826 1.85631 11.2304 2.00185 11.4397 2.19419C11.6575 2.39438 11.8239 2.67626 12.2905 3.51256L13.2577 5.24589C13.7021 6.0424 13.8476 6.31804 13.9049 6.59566C13.9599 6.86241 13.9599 7.1376 13.9049 7.40435C13.8476 7.68197 13.7021 7.95761 13.2577 8.75412L12.2905 10.4875C11.8239 11.3237 11.6575 11.6056 11.4397 11.8058C11.2304 11.9982 10.9826 12.1437 10.7127 12.2327C10.4317 12.3254 10.1045 12.3333 9.1468 12.3333H6.85291C5.89525 12.3333 5.568 12.3254 5.28706 12.2327C5.01713 12.1437 4.76927 11.9982 4.56001 11.8058C4.34222 11.6056 4.1758 11.3237 3.70917 10.4875L2.74203 8.75412C2.2976 7.95761 2.15216 7.68197 2.09485 7.40435C2.03978 7.1376 2.03978 6.86241 2.09485 6.59566C2.15216 6.31804 2.2976 6.0424 2.74203 5.24589L3.70918 3.51256C4.1758 2.67626 4.34222 2.39438 4.56001 2.19419C4.76927 2.00185 5.01713 1.85631 5.28706 1.76729ZM7.95689 4.33334C6.48413 4.33334 5.29022 5.52725 5.29022 7C5.29022 8.47276 6.48413 9.66667 7.95689 9.66667C9.42965 9.66667 10.6236 8.47276 10.6236 7C10.6236 5.52725 9.42965 4.33334 7.95689 4.33334ZM6.62356 7C6.62356 6.26362 7.22051 5.66667 7.95689 5.66667C8.69327 5.66667 9.29022 6.26362 9.29022 7C9.29022 7.73638 8.69327 8.33334 7.95689 8.33334C7.22051 8.33334 6.62356 7.73638 6.62356 7Z" fill="#3B6EC9"/>
</svg>