<svg width="26" height="24" viewBox="0 0 26 24" fill="none" xmlns="http://www.w3.org/2000/svg">
<path style="fill:#3b6ec9;" d="M10.6209 0.999957L10.6205 1.99996L10.6206 1.99996L10.6209 0.999957ZM10.7841 1L10.7839 2H10.7841V1ZM7.79042 1.25443L8.10535 2.20354V2.20354L7.79042 1.25443ZM5.9658 2.33327L5.28595 1.59993L5.28595 1.59993L5.9658 2.33327ZM4.37879 4.69072L5.21084 5.24542L5.23458 5.2098L5.25519 5.17229L4.37879 4.69072ZM4.37878 4.69072L3.54673 4.13602L3.52303 4.17158L3.50244 4.20903L4.37878 4.69072ZM4.30014 4.8338L5.17636 5.31572L5.17648 5.31549L4.30014 4.8338ZM2.32014 8.4338L3.19624 8.91594L3.19636 8.91572L2.32014 8.4338ZM2.24698 8.56673L3.12302 9.04898L3.12308 9.04887L2.24698 8.56673ZM1.16589 11.0011L0.186046 10.8013V10.8013L1.16589 11.0011ZM1.16589 12.9989L0.186046 13.1987V13.1987L1.16589 12.9989ZM2.24699 15.4333L3.12308 14.9511L3.12302 14.951L2.24699 15.4333ZM2.32014 15.5662L3.19635 15.0843L3.19623 15.0841L2.32014 15.5662ZM4.30014 19.1662L5.17648 18.6845L5.17636 18.6843L4.30014 19.1662ZM4.37879 19.3093L5.26191 18.8401L5.25856 18.8338L5.25513 18.8276L4.37879 19.3093ZM4.3788 19.3093L3.4956 19.7785L3.5024 19.7909L4.3788 19.3093ZM5.9658 21.6667L6.64566 20.9334H6.64566L5.9658 21.6667ZM7.79042 22.7456L8.10536 21.7965H8.10535L7.79042 22.7456ZM10.6209 23L10.6206 22H10.6205L10.6209 23ZM10.7841 23V22H10.7839L10.7841 23ZM15.2159 23L15.2161 22H15.2159V23ZM15.3791 23L15.3795 22H15.3794L15.3791 23ZM18.2096 22.7456L17.8946 21.7965H17.8946L18.2096 22.7456ZM20.0342 21.6667L19.3543 20.9334L20.0342 21.6667ZM21.6212 19.3093L20.7449 18.8276L20.7448 18.8277L21.6212 19.3093ZM21.6999 19.1662L20.8236 18.6843L20.8235 18.6845L21.6999 19.1662ZM23.6799 15.5662L22.8038 15.0841L22.8036 15.0843L23.6799 15.5662ZM23.753 15.4333L24.6291 15.9154L24.6587 15.8616L24.6815 15.8046L23.753 15.4333ZM23.753 15.4332L22.877 14.951L22.8474 15.0048L22.8246 15.0619L23.753 15.4332ZM24.8341 12.9989L25.814 13.1987V13.1987L24.8341 12.9989ZM24.8341 11.0011L25.814 10.8013V10.8013L24.8341 11.0011ZM23.753 8.56676L22.8751 9.04562L22.877 9.049L23.753 8.56676ZM23.753 8.56673L24.6309 8.08787L24.6291 8.08459L23.753 8.56673ZM23.6799 8.4338L22.8036 8.91572L22.8038 8.91594L23.6799 8.4338ZM21.6999 4.8338L20.8235 5.31549L20.8236 5.31572L21.6999 4.8338ZM21.6212 4.69073L20.7448 5.1723L20.7449 5.17242L21.6212 4.69073ZM20.0342 2.33327L20.7141 1.59993V1.59993L20.0342 2.33327ZM18.2096 1.25443L18.5245 0.305316L18.2096 1.25443ZM15.3791 0.999957L15.3794 1.99996L15.3795 1.99996L15.3791 0.999957ZM15.2159 1V2L15.2161 2L15.2159 1ZM8.42029 3.15266L8.10535 2.20354V2.20354L8.42029 3.15266ZM17.5797 3.15266L17.8946 2.20354V2.20354L17.5797 3.15266ZM18.6745 3.79996L17.9946 4.53331L17.9946 4.53331L18.6745 3.79996ZM19.9474 5.79764L20.8236 5.31572V5.31572L19.9474 5.79764ZM21.9274 9.39764L21.0512 9.87956L21.9274 9.39764ZM22.8744 11.4006L23.8543 11.2009L23.8543 11.2009L22.8744 11.4006ZM22.8744 12.5994L23.8543 12.7991L23.8543 12.7991L22.8744 12.5994ZM21.9274 14.6024L21.0512 14.1204L21.0512 14.1204L21.9274 14.6024ZM19.9474 18.2024L20.8236 18.6843L20.8236 18.6843L19.9474 18.2024ZM18.6745 20.2L17.9946 19.4667H17.9946L18.6745 20.2ZM17.5797 20.8473L17.2648 19.8982H17.2648L17.5797 20.8473ZM8.42029 20.8473L8.73522 19.8982H8.73522L8.42029 20.8473ZM7.32552 20.2L6.64566 20.9334H6.64566L7.32552 20.2ZM6.05257 18.2024L5.17636 18.6843L6.05257 18.2024ZM4.07257 14.6024L3.19635 15.0843H3.19635L4.07257 14.6024ZM3.12557 12.5994L2.14573 12.7991L2.14573 12.7991L3.12557 12.5994ZM3.12557 11.4006L2.14573 11.2009L2.14573 11.2009L3.12557 11.4006ZM4.07257 9.39764L3.19636 8.91572L4.07257 9.39764ZM6.05257 5.79764L6.92879 6.27955L6.05257 5.79764ZM7.32552 3.79996L6.64566 3.06662L6.64566 3.06662L7.32552 3.79996ZM10.6206 1.99996L10.7839 2L10.7844 0L10.6211 -4.26769e-05L10.6206 1.99996ZM8.10535 2.20354C8.68936 2.00976 9.35173 1.99945 10.6205 1.99996L10.6213 -4.26769e-05C9.4524 -0.000505447 8.43022 -0.0114794 7.47549 0.305316L8.10535 2.20354ZM6.64566 3.06662C7.06495 2.67791 7.5627 2.38361 8.10535 2.20354L7.47549 0.305316C6.6615 0.575411 5.91488 1.01687 5.28595 1.59993L6.64566 3.06662ZM5.25519 5.17229C5.86618 4.06036 6.19442 3.48494 6.64566 3.06662L5.28595 1.59993C4.54826 2.28381 4.06527 3.18475 3.50238 4.20915L5.25519 5.17229ZM5.21084 5.24542L5.21084 5.24542L3.54674 4.13602L3.54673 4.13602L5.21084 5.24542ZM5.17648 5.31549L5.25513 5.17241L3.50244 4.20903L3.4238 4.35211L5.17648 5.31549ZM3.19636 8.91572L5.17636 5.31572L3.42392 4.35188L1.44392 7.95188L3.19636 8.91572ZM3.12308 9.04887L3.19624 8.91594L1.44404 7.95167L1.37089 8.0846L3.12308 9.04887ZM2.14573 11.2009C2.26141 10.6335 2.55171 10.0868 3.12302 9.04898L1.37095 8.08449C0.844046 9.04165 0.375061 9.87428 0.186046 10.8013L2.14573 11.2009ZM2.14573 12.7991C2.03821 12.2718 2.03821 11.7282 2.14573 11.2009L0.186046 10.8013C0.0247664 11.5923 0.0247664 12.4077 0.186046 13.1987L2.14573 12.7991ZM3.12302 14.951C2.55171 13.9132 2.26141 13.3665 2.14573 12.7991L0.186046 13.1987C0.375061 14.1257 0.844047 14.9584 1.37095 15.9155L3.12302 14.951ZM3.19623 15.0841L3.12308 14.9511L1.37089 15.9154L1.44404 16.0483L3.19623 15.0841ZM5.17636 18.6843L3.19635 15.0843L1.44392 16.0481L3.42392 19.6481L5.17636 18.6843ZM5.25513 18.8276L5.17648 18.6845L3.4238 19.6479L3.50245 19.791L5.25513 18.8276ZM5.26192 18.8402L5.26191 18.8401L3.49567 19.7784L3.49569 19.7785L5.26192 18.8402ZM6.64566 20.9334C6.19443 20.5151 5.86619 19.9396 5.25521 18.8277L3.5024 19.7909C4.06528 20.8153 4.54827 21.7162 5.28595 22.4001L6.64566 20.9334ZM8.10535 21.7965C7.5627 21.6164 7.06495 21.3221 6.64566 20.9334L5.28595 22.4001C5.91488 22.9831 6.66151 23.4246 7.47549 23.6947L8.10535 21.7965ZM10.6205 22C9.35173 22.0005 8.68936 21.9902 8.10536 21.7965L7.47549 23.6947C8.43021 24.0115 9.45239 24.0005 10.6213 24L10.6205 22ZM10.7839 22L10.6206 22L10.6211 24L10.7844 24L10.7839 22ZM15.2159 22H10.7841V24H15.2159V22ZM15.3794 22L15.2161 22L15.2156 24L15.3789 24L15.3794 22ZM17.8946 21.7965C17.3106 21.9902 16.6483 22.0005 15.3795 22L15.3787 24C16.5476 24.0005 17.5698 24.0115 18.5245 23.6947L17.8946 21.7965ZM19.3543 20.9334C18.9351 21.3221 18.4373 21.6164 17.8946 21.7965L18.5245 23.6947C19.3385 23.4246 20.0851 22.9831 20.7141 22.4001L19.3543 20.9334ZM20.7448 18.8277C20.1338 19.9396 19.8056 20.5151 19.3543 20.9334L20.7141 22.4001C21.4517 21.7162 21.9347 20.8153 22.4976 19.7909L20.7448 18.8277ZM20.8235 18.6845L20.7449 18.8276L22.4975 19.791L22.5762 19.6479L20.8235 18.6845ZM22.8036 15.0843L20.8236 18.6843L22.5761 19.6481L24.5561 16.0481L22.8036 15.0843ZM22.8769 14.9511L22.8038 15.0841L24.556 16.0483L24.6291 15.9154L22.8769 14.9511ZM22.8246 15.0619L22.8245 15.0619L24.6815 15.8046L24.6815 15.8046L22.8246 15.0619ZM23.8543 12.7991C23.7386 13.3665 23.4483 13.9132 22.877 14.951L24.6291 15.9155C25.156 14.9583 25.6249 14.1257 25.814 13.1987L23.8543 12.7991ZM23.8543 11.2009C23.9618 11.7282 23.9618 12.2718 23.8543 12.7991L25.814 13.1987C25.9752 12.4077 25.9752 11.5923 25.814 10.8013L23.8543 11.2009ZM22.877 9.049C23.4483 10.0868 23.7386 10.6335 23.8543 11.2009L25.814 10.8013C25.6249 9.87428 25.156 9.04166 24.6291 8.08452L22.877 9.049ZM22.8751 9.04558L22.8751 9.04561L24.6309 8.08791L24.6309 8.08788L22.8751 9.04558ZM22.8038 8.91594L22.8769 9.04887L24.6291 8.08459L24.556 7.95167L22.8038 8.91594ZM20.8236 5.31572L22.8036 8.91572L24.5561 7.95188L22.5761 4.35188L20.8236 5.31572ZM20.7449 5.17242L20.8235 5.31549L22.5762 4.35211L22.4976 4.20905L20.7449 5.17242ZM19.3543 3.06662C19.8056 3.48495 20.1338 4.06037 20.7448 5.1723L22.4976 4.20916C21.9347 3.18475 21.4517 2.28381 20.7141 1.59993L19.3543 3.06662ZM17.8946 2.20354C18.4373 2.38361 18.9351 2.67791 19.3543 3.06662L20.7141 1.59993C20.0851 1.01687 19.3385 0.575411 18.5245 0.305316L17.8946 2.20354ZM15.3795 1.99996C16.6483 1.99945 17.3106 2.00976 17.8946 2.20354L18.5245 0.305316C17.5698 -0.0114794 16.5476 -0.000505447 15.3787 -4.26769e-05L15.3795 1.99996ZM15.2161 2L15.3794 1.99996L15.3789 -4.26769e-05L15.2156 0L15.2161 2ZM10.7841 2H15.2159V0H10.7841V2ZM10.7841 2C9.41334 2 8.7201 1.99956 8.10535 2.20354L8.73522 4.10177C8.96766 4.02465 9.26277 4 10.7841 4V2ZM15.2159 2H10.7841V4H15.2159V2ZM17.8946 2.20354C17.2799 1.99956 16.5867 2 15.2159 2V4C16.7372 4 17.0323 4.02465 17.2648 4.10177L17.8946 2.20354ZM19.3543 3.06662C18.9351 2.67791 18.4373 2.38361 17.8946 2.20354L17.2648 4.10177C17.5361 4.1918 17.785 4.33896 17.9946 4.53331L19.3543 3.06662ZM20.8236 5.31572C20.163 4.1146 19.8293 3.50696 19.3543 3.06662L17.9946 4.53331C18.1742 4.69981 18.338 4.94651 19.0712 6.27956L20.8236 5.31572ZM22.8036 8.91572L20.8236 5.31572L19.0712 6.27956L21.0512 9.87956L22.8036 8.91572ZM23.8543 11.2009C23.7325 10.6038 23.4203 10.037 22.8036 8.91572L21.0512 9.87956C21.7352 11.1231 21.8485 11.3743 21.8946 11.6004L23.8543 11.2009ZM23.8543 12.7991C23.9618 12.2718 23.9618 11.7282 23.8543 11.2009L21.8946 11.6004C21.9484 11.8641 21.9484 12.1359 21.8946 12.3996L23.8543 12.7991ZM22.8036 15.0843C23.4203 13.963 23.7325 13.3962 23.8543 12.7991L21.8946 12.3996C21.8485 12.6257 21.7352 12.8769 21.0512 14.1204L22.8036 15.0843ZM20.8236 18.6843L22.8036 15.0843L21.0512 14.1204L19.0712 17.7204L20.8236 18.6843ZM19.3543 20.9334C19.8293 20.493 20.163 19.8854 20.8236 18.6843L19.0712 17.7204C18.338 19.0535 18.1742 19.3002 17.9946 19.4667L19.3543 20.9334ZM17.8946 21.7965C18.4373 21.6164 18.9351 21.3221 19.3543 20.9334L17.9946 19.4667C17.785 19.661 17.5361 19.8082 17.2648 19.8982L17.8946 21.7965ZM15.2159 22C16.5867 22 17.2799 22.0004 17.8946 21.7965L17.2648 19.8982C17.0323 19.9754 16.7372 20 15.2159 20V22ZM10.7841 22H15.2159V20H10.7841V22ZM8.10536 21.7965C8.7201 22.0004 9.41333 22 10.7841 22V20C9.26277 20 8.96766 19.9754 8.73522 19.8982L8.10536 21.7965ZM6.64566 20.9334C7.06495 21.3221 7.5627 21.6164 8.10536 21.7965L8.73522 19.8982C8.46389 19.8082 8.21502 19.661 8.00537 19.4667L6.64566 20.9334ZM5.17636 18.6843C5.83697 19.8854 6.17067 20.493 6.64566 20.9334L8.00537 19.4667C7.82578 19.3002 7.66196 19.0535 6.92879 17.7204L5.17636 18.6843ZM3.19635 15.0843L5.17636 18.6843L6.92879 17.7204L4.94879 14.1204L3.19635 15.0843ZM2.14573 12.7991C2.26746 13.3962 2.57968 13.963 3.19635 15.0843L4.94879 14.1204C4.26482 12.8769 4.15151 12.6257 4.10541 12.3996L2.14573 12.7991ZM2.14573 11.2009C2.03821 11.7282 2.03821 12.2718 2.14573 12.7991L4.10541 12.3996C4.05165 12.1359 4.05165 11.8641 4.10541 11.6004L2.14573 11.2009ZM3.19636 8.91572C2.57968 10.037 2.26746 10.6038 2.14573 11.2009L4.10541 11.6004C4.15151 11.3743 4.26483 11.1231 4.94879 9.87956L3.19636 8.91572ZM5.17636 5.31572L3.19636 8.91572L4.94879 9.87956L6.92879 6.27955L5.17636 5.31572ZM6.64566 3.06662C6.17067 3.50696 5.83697 4.1146 5.17636 5.31572L6.92879 6.27955C7.66196 4.94651 7.82578 4.69981 8.00537 4.53331L6.64566 3.06662ZM8.10535 2.20354C7.5627 2.38361 7.06495 2.67791 6.64566 3.06662L8.00537 4.53331C8.21502 4.33896 8.46389 4.1918 8.73522 4.10177L8.10535 2.20354Z" fill="#96A5BE"/>
</svg>
