<svg width="24" height="24" viewBox="0 0 24 24" fill="none" xmlns="http://www.w3.org/2000/svg">
    <path fill-rule="evenodd" clip-rule="evenodd" d="M4.13757 5.30165C4.80234 4.10013 5.13473 3.49936 5.60833 3.06185C6.02731 2.67479 6.52422 2.38183 7.06573 2.2026C7.67784 2 8.36442 2 9.73759 2L14.2624 2C15.6356 2 16.3222 2 16.9343 2.2026C17.4758 2.38183 17.9727 2.67479 18.3917 3.06185C18.8653 3.49936 19.1977 4.10013 19.8624 5.30165L21.8542 8.90166C22.48 10.0327 22.7929 10.5983 22.9156 11.1969C23.0242 11.7268 23.0242 12.2732 22.9156 12.8031C22.7929 13.4017 22.48 13.9673 21.8542 15.0983L19.8624 18.6983C19.1977 19.8999 18.8653 20.5006 18.3917 20.9382C17.9727 21.3252 17.4758 21.6182 16.9343 21.7974C16.3222 22 15.6356 22 14.2624 22H9.7376C8.36442 22 7.67784 22 7.06573 21.7974C6.52422 21.6182 6.02731 21.3252 5.60833 20.9382C5.13473 20.5006 4.80234 19.8999 4.13757 18.6983L2.14578 15.0983C1.51999 13.9673 1.2071 13.4017 1.08441 12.8031C0.975813 12.2732 0.975813 11.7268 1.08441 11.1969C1.2071 10.5983 1.51999 10.0327 2.14578 8.90166L4.13757 5.30165Z" stroke="#96A5BE" stroke-width="2"/>
    <path fill-rule="evenodd" clip-rule="evenodd" d="M11.9351 15C13.5919 15 14.9351 13.6569 14.9351 12C14.9351 10.3431 13.5919 9 11.9351 9C10.2782 9 8.93506 10.3431 8.93506 12C8.93506 13.6569 10.2782 15 11.9351 15Z" stroke="#96A5BE" stroke-width="2"/>
</svg>
